<?xml version="1.0" encoding="UTF-8"?>
<svg width="16px" height="16px" viewBox="0 0 16 16" version="1.1" xmlns="http://www.w3.org/2000/svg" xmlns:xlink="http://www.w3.org/1999/xlink">
    <!-- Generator: Sketch 55.2 (78181) - https://sketchapp.com -->
    <title>search-nav-dark</title>
    <desc>Created with Sketch.</desc>
    <g id="search-nav-dark" stroke="none" stroke-width="1" fill="none" fill-rule="evenodd">
        <g id="nav-search" transform="translate(1.000000, 1.000000)" fill="#787878">
            <path d="M11.1853125,9.01165615 C11.2011396,9.02538247 11.2166576,9.03965491 11.2318421,9.05447368 L14.6881579,12.4492105 C14.884298,12.6404438 14.9949104,12.9027742 14.9949104,13.1767105 C14.9949104,13.4506469 14.884298,13.7129772 14.6881579,13.9042105 C14.2762889,14.3061603 13.6189742,14.3061603 13.2071053,13.9042105 L9.75078947,10.5094737 C9.71972821,10.4793579 9.69079609,10.4474635 9.66409221,10.4140248 C7.42774341,11.8336945 4.43805676,11.5828792 2.46789474,9.66157895 C1.38885432,8.60969981 0.780319467,7.16664691 0.780319467,5.65973684 C0.780319467,4.15282677 1.38885432,2.70977388 2.46789474,1.65789474 C4.73386712,-0.551879491 8.3485013,-0.551879491 10.6144737,1.65789474 C11.6935141,2.70977388 12.302049,4.15282677 12.302049,5.65973684 C12.302049,6.8760135 11.9056107,8.05068954 11.1853125,9.01165615 Z M9.38052632,2.87052632 C7.80088046,1.33046507 5.28148796,1.33046507 3.70184211,2.86657895 C2.94879598,3.59983741 2.52403533,4.60629923 2.52403533,5.65736842 C2.52403533,6.70843761 2.94879598,7.71489943 3.70184211,8.44815789 C5.28114799,9.98905464 7.80122044,9.98905464 9.38052632,8.44815789 C10.1323373,7.71503796 10.5563076,6.70943003 10.5563076,5.65934211 C10.5563076,4.60925418 10.1323373,3.60364625 9.38052632,2.87052632 Z" id="rhp-search_"></path>
        </g>
    </g>
</svg>