<?xml version="1.0" encoding="UTF-8"?>
<svg width="16px" height="16px" viewBox="0 0 16 16" version="1.1" xmlns="http://www.w3.org/2000/svg" xmlns:xlink="http://www.w3.org/1999/xlink">
    <!-- Generator: Sketch 55.2 (78181) - https://sketchapp.com -->
    <title>search-nav-white</title>
    <desc>Created with Sketch.</desc>
    <g id="search-nav-white" stroke="none" stroke-width="1" fill="none" fill-rule="evenodd">
        <g id="nav-search" transform="translate(0.000000, -0.000000)">
            <rect id="Rectangle" x="0" y="1.5312196e-12" width="16" height="16"></rect>
            <path d="M12.1853125,10.0116562 C12.2011396,10.0253825 12.2166576,10.0396549 12.2318421,10.0544737 L15.6881579,13.4492105 C15.884298,13.6404438 15.9949104,13.9027742 15.9949104,14.1767105 C15.9949104,14.4506469 15.884298,14.7129772 15.6881579,14.9042105 C15.2762889,15.3061603 14.6189742,15.3061603 14.2071053,14.9042105 L10.7507895,11.5094737 C10.7197282,11.4793579 10.6907961,11.4474635 10.6640922,11.4140248 C8.42774341,12.8336945 5.43805676,12.5828792 3.46789474,10.6615789 C2.38885432,9.60969981 1.78031947,8.16664691 1.78031947,6.65973684 C1.78031947,5.15282677 2.38885432,3.70977388 3.46789474,2.65789474 C5.73386712,0.448120509 9.3485013,0.448120509 11.6144737,2.65789474 C12.6935141,3.70977388 13.302049,5.15282677 13.302049,6.65973684 C13.302049,7.8760135 12.9056107,9.05068954 12.1853125,10.0116562 Z M10.3805263,3.87052632 C8.80088046,2.33046507 6.28148796,2.33046507 4.70184211,3.86657895 C3.94879598,4.59983741 3.52403533,5.60629923 3.52403533,6.65736842 C3.52403533,7.70843761 3.94879598,8.71489943 4.70184211,9.44815789 C6.28114799,10.9890546 8.80122044,10.9890546 10.3805263,9.44815789 C11.1323373,8.71503796 11.5563076,7.70943003 11.5563076,6.65934211 C11.5563076,5.60925418 11.1323373,4.60364625 10.3805263,3.87052632 Z" id="rhp-search_" fill="#FFFFFF"></path>
        </g>
    </g>
</svg>