<?xml version="1.0" encoding="UTF-8"?>
<svg width="50px" height="50px" viewBox="0 0 50 50" version="1.1" xmlns="http://www.w3.org/2000/svg" xmlns:xlink="http://www.w3.org/1999/xlink">
    <!-- Generator: Sketch 55.2 (78181) - https://sketchapp.com -->
    <title>icon-ad-content</title>
    <desc>Created with Sketch.</desc>
    <defs>
        <path d="M12.819426,-5.17920154e-16 L37.180574,5.17920154e-16 C41.6381677,-3.00926524e-16 43.2545989,0.464128056 44.8842285,1.33566352 C46.5138581,2.20719898 47.792801,3.48614185 48.6643365,5.11577148 C49.5358719,6.74540111 50,8.3618323 50,12.819426 L50,37.180574 C50,41.6381677 49.5358719,43.2545989 48.6643365,44.8842285 C47.792801,46.5138581 46.5138581,47.792801 44.8842285,48.6643365 C43.2545989,49.5358719 41.6381677,50 37.180574,50 L12.819426,50 C8.3618323,50 6.74540111,49.5358719 5.11577148,48.6643365 C3.48614185,47.792801 2.20719898,46.5138581 1.33566352,44.8842285 C0.464128056,43.2545989 2.00617683e-16,41.6381677 -3.45280103e-16,37.180574 L3.45280103e-16,12.819426 C-2.00617683e-16,8.3618323 0.464128056,6.74540111 1.33566352,5.11577148 C2.20719898,3.48614185 3.48614185,2.20719898 5.11577148,1.33566352 C6.74540111,0.464128056 8.3618323,3.00926524e-16 12.819426,-5.17920154e-16 Z" id="path-1"></path>
        <mask id="mask-2" maskContentUnits="userSpaceOnUse" maskUnits="objectBoundingBox" x="0" y="0" width="50" height="50" fill="white">
            <use xlink:href="#path-1"></use>
        </mask>
    </defs>
    <g id="icon-ad-content" stroke="none" stroke-width="1" fill="none" fill-rule="evenodd">
        <g id="Group-3">
            <use id="Rectangle" stroke="#3FB3F6" mask="url(#mask-2)" stroke-width="2" fill="#E3F4FD" stroke-dasharray="3,1" xlink:href="#path-1"></use>
            <path d="M33.5,22.5 L33.5,7.5 L10.8458278,7.5 C9.70208522,7.5 9.24379883,7.58849918 8.77053087,7.84160565 C8.36877622,8.05646639 8.05646639,8.36877622 7.84160565,8.77053087 C7.58849918,9.24379883 7.5,9.70208522 7.5,10.8458278 L7.5,19.1541722 C7.5,20.2979148 7.58849918,20.7562012 7.84160565,21.2294691 C8.05646639,21.6312238 8.36877622,21.9435336 8.77053087,22.1583943 C9.24379883,22.4115008 9.70208522,22.5 10.8458278,22.5 L33.5,22.5 Z" id="Rectangle" stroke="#3FB3F6" fill="#E3F4FD"></path>
            <path d="M10.7638057,25.5 C9.7021338,25.5 9.23746031,25.5918891 8.77053087,25.8416057 C8.36877622,26.0564664 8.05646639,26.3687762 7.84160565,26.7705309 C7.59188906,27.2374603 7.5,27.7021338 7.5,28.7638057 L7.5,30.2361943 C7.5,31.2978662 7.59188906,31.7625397 7.84160565,32.2294691 C8.05646639,32.6312238 8.36877622,32.9435336 8.77053087,33.1583943 C9.23746031,33.4081109 9.7021338,33.5 10.7638057,33.5 L40.2361943,33.5 C41.2978662,33.5 41.7625397,33.4081109 42.2294691,33.1583943 C42.6312238,32.9435336 42.9435336,32.6312238 43.1583943,32.2294691 C43.4081109,31.7625397 43.5,31.2978662 43.5,30.2361943 L43.5,28.7638057 C43.5,27.7021338 43.4081109,27.2374603 43.1583943,26.7705309 C42.9435336,26.3687762 42.6312238,26.0564664 42.2294691,25.8416057 C41.7625397,25.5918891 41.2978662,25.5 40.2361943,25.5 L10.7638057,25.5 Z" id="Rectangle" stroke="#3FB3F6" fill="#E3F4FD"></path>
            <path d="M10.377301,36.5 C9.70342381,36.5 9.19890215,36.6125102 8.77053087,36.8416057 C8.36877622,37.0564664 8.05646639,37.3687762 7.84160565,37.7705309 C7.61251019,38.1989021 7.5,38.7034238 7.5,39.377301 L7.5,39.622699 C7.5,40.2965762 7.61251019,40.8010979 7.84160565,41.2294691 C8.05646639,41.6312238 8.36877622,41.9435336 8.77053087,42.1583943 C9.19890215,42.3874898 9.70342381,42.5 10.377301,42.5 L40.622699,42.5 C41.2965762,42.5 41.8010979,42.3874898 42.2294691,42.1583943 C42.6312238,41.9435336 42.9435336,41.6312238 43.1583943,41.2294691 C43.3874898,40.8010979 43.5,40.2965762 43.5,39.622699 L43.5,39.377301 C43.5,38.7034238 43.3874898,38.1989021 43.1583943,37.7705309 C42.9435336,37.3687762 42.6312238,37.0564664 42.2294691,36.8416057 C41.8010979,36.6125102 41.2965762,36.5 40.622699,36.5 L10.377301,36.5 Z" id="Rectangle" stroke="#3FB3F6" fill="#E3F4FD"></path>
            <path d="M10.7638057,25 L14,25 L14,34 L10.7638057,34 C9.5249541,34 9.02362033,33.8607616 8.53473144,33.5993009 C8.04584256,33.3378403 7.66215969,32.9541574 7.40069906,32.4652686 C7.13923842,31.9763797 7,31.4750459 7,30.2361943 L7,28.7638057 C7,27.5249541 7.13923842,27.0236203 7.40069906,26.5347314 C7.66215969,26.0458426 8.04584256,25.6621597 8.53473144,25.4006991 C9.02362033,25.1392384 9.5249541,25 10.7638057,25 Z" id="Rectangle" fill="#3FB3F6"></path>
            <path d="M34.8458278,7 L44,7 L44,23 L34.8458278,23 C33.5085497,23 33.0236203,22.8607616 32.5347314,22.5993009 C32.0458426,22.3378403 31.6621597,21.9541574 31.4006991,21.4652686 C31.1392384,20.9763797 31,20.4914503 31,19.1541722 L31,10.8458278 C31,9.50854969 31.1392384,9.02362033 31.4006991,8.53473144 C31.6621597,8.04584256 32.0458426,7.66215969 32.5347314,7.40069906 C33.0236203,7.13923842 33.5085497,7 34.8458278,7 Z" id="Rectangle" fill="#3FB3F6" transform="translate(37.500000, 15.000000) scale(-1, 1) translate(-37.500000, -15.000000) "></path>
            <polygon id="Rectangle" fill="#3FB3F6" points="18 12 23.1428571 15 18 18"></polygon>
            <rect id="Rectangle" fill="#3FB3F6" x="16" y="28" width="20" height="1"></rect>
            <rect id="Rectangle-Copy" fill="#3FB3F6" x="16" y="39" width="20" height="1"></rect>
            <rect id="Rectangle" fill="#3FB3F6" x="16" y="30" width="10" height="1"></rect>
            <circle id="Oval" fill="#3FB3F6" cx="11" cy="39.5" r="1.5"></circle>
        </g>
    </g>
</svg>