<?xml version="1.0" encoding="UTF-8"?>
<svg width="50px" height="50px" viewBox="0 0 50 50" version="1.1" xmlns="http://www.w3.org/2000/svg" xmlns:xlink="http://www.w3.org/1999/xlink">
    <!-- Generator: Sketch 55.2 (78181) - https://sketchapp.com -->
    <title>icon-ad-video</title>
    <desc>Created with Sketch.</desc>
    <g id="icon-ad-video" stroke="none" stroke-width="1" fill="none" fill-rule="evenodd">
        <rect id="Rectangle" x="0" y="0" width="50" height="50"></rect>
        <g id="Group" transform="translate(0.000000, 3.000000)">
            <path d="M34.5,28.2630152 L34.5,31.7369848 L47.1502068,40.4340019 C47.4002543,40.6059096 47.6965597,40.697939 48,40.697939 C48.8284271,40.697939 49.5,40.0263661 49.5,39.197939 L49.5,20.802061 C49.5,20.4986206 49.4079706,20.2023153 49.2360629,19.9522677 C48.766735,19.2696091 47.8328654,19.0966702 47.1502068,19.5659981 L34.5,28.2630152 Z" id="Rectangle-Copy" stroke="#928CB1" fill="#E6E4F2"></path>
            <rect id="Rectangle" fill="#928CB1" x="40" y="24" width="1" height="12"></rect>
            <path d="M6.409713,18.5 C4.45315379,18.5 3.63735729,18.6575376 2.79368517,19.1087384 C2.06600459,19.4979062 1.49790619,20.0660046 1.10873836,20.7936852 C0.657537572,21.6373573 0.5,22.4531538 0.5,24.409713 L0.5,35.590287 C0.5,37.5468462 0.657537572,38.3626427 1.10873836,39.2063148 C1.49790619,39.9339954 2.06600459,40.5020938 2.79368517,40.8912616 C3.63735729,41.3424624 4.45315379,41.5 6.409713,41.5 L31.590287,41.5 C33.5468462,41.5 34.3626427,41.3424624 35.2063148,40.8912616 C35.9339954,40.5020938 36.5020938,39.9339954 36.8912616,39.2063148 C37.3424624,38.3626427 37.5,37.5468462 37.5,35.590287 L37.5,24.409713 C37.5,22.4531538 37.3424624,21.6373573 36.8912616,20.7936852 C36.5020938,20.0660046 35.9339954,19.4979062 35.2063148,19.1087384 C34.3626427,18.6575376 33.5468462,18.5 31.590287,18.5 L6.409713,18.5 Z" id="Rectangle" stroke="#928CB1" fill="#E6E4F2"></path>
            <circle id="Oval-Copy-6" stroke="#928CB1" stroke-width="1.3" fill="#E6E4F2" cx="10" cy="8" r="7.35"></circle>
            <rect id="Rectangle" fill="#FFFFFF" x="38" y="21" width="2" height="18"></rect>
            <path d="M37.5,36.5 L37.5,23.5 L15.1277704,23.5 C13.5776195,23.5 12.9405781,23.6230184 12.282108,23.975172 C11.7173904,24.2771863 11.2771863,24.7173904 10.975172,25.282108 C10.6230184,25.9405781 10.5,26.5776195 10.5,28.1277704 L10.5,31.8722296 C10.5,33.4223805 10.6230184,34.0594219 10.975172,34.717892 C11.2771863,35.2826096 11.7173904,35.7228137 12.282108,36.024828 C12.9405781,36.3769816 13.5776195,36.5 15.1277704,36.5 L37.5,36.5 Z" id="Rectangle" stroke="#928CB1" fill="#E6E4F2"></path>
        </g>
        <rect id="Rectangle" fill="#928CB1" x="32" y="27" width="3" height="12"></rect>
        <circle id="Oval" fill="#928CB1" cx="10" cy="11" r="4"></circle>
        <circle id="Oval-Copy-6" stroke="#928CB1" stroke-width="1.3" fill="#E6E4F2" cx="28" cy="11" r="7.35"></circle>
        <circle id="Oval" fill="#928CB1" cx="28" cy="11" r="4"></circle>
        <circle id="Oval" fill="#E6E4F2" cx="28" cy="11" r="2"></circle>
        <circle id="Oval-Copy" fill="#E6E4F2" cx="10" cy="11" r="2"></circle>
        <polygon id="Path-2" fill="#928CB1" points="46.5 23.5 48 22.5 49.5 23 49.5 42.5 48 44 46.5 43"></polygon>
    </g>
</svg>