<?xml version="1.0" encoding="UTF-8"?>
<svg width="39px" height="36px" viewBox="0 0 39 36" version="1.1" xmlns="http://www.w3.org/2000/svg" xmlns:xlink="http://www.w3.org/1999/xlink">
    <!-- Generator: Sketch 50.2 (55047) - http://www.bohemiancoding.com/sketch -->
    <title>Assignment</title>
    <desc>Created with Sketch.</desc>
    <defs></defs>
    <g id="Handoff" stroke="none" stroke-width="1" fill="none" fill-rule="evenodd">
        <g id="Artboard-2" transform="translate(-548.000000, -484.000000)">
            <g id="Assignment" transform="translate(542.000000, 477.000000)">
                <rect id="frame" x="0" y="0" width="50" height="50"></rect>
                <g id="Group" transform="translate(5.833333, 6.833333)">
                    <rect id="Rectangle-3" stroke="#F35252" stroke-width="2" fill="#FFFFFF" x="1.16666667" y="14.1666667" width="8" height="8" rx="4"></rect>
                    <path d="M13.1666667,15.1666667 L30.1666667,15.1666667 C30.7189514,15.1666667 31.1666667,15.6143819 31.1666667,16.1666667 L31.1666667,16.1666667 C31.1666667,16.7189514 30.7189514,17.1666667 30.1666667,17.1666667 L13.1666667,17.1666667 C12.6143819,17.1666667 12.1666667,16.7189514 12.1666667,16.1666667 L12.1666667,16.1666667 C12.1666667,15.6143819 12.6143819,15.1666667 13.1666667,15.1666667 Z" id="Rectangle-4" fill="#F35252"></path>
                    <path d="M13.1666667,19.1666667 L27.1666667,19.1666667 C27.7189514,19.1666667 28.1666667,19.6143819 28.1666667,20.1666667 L28.1666667,20.1666667 C28.1666667,20.7189514 27.7189514,21.1666667 27.1666667,21.1666667 L13.1666667,21.1666667 C12.6143819,21.1666667 12.1666667,20.7189514 12.1666667,20.1666667 L12.1666667,20.1666667 C12.1666667,19.6143819 12.6143819,19.1666667 13.1666667,19.1666667 Z" id="Rectangle-4" fill="#F35252"></path>
                    <rect id="Rectangle-4" fill="#3FB34F" x="12.1666667" y="2.16666667" width="27" height="2" rx="1"></rect>
                    <path d="M13.1666667,6.16666667 L34.1666667,6.16666667 C34.7189514,6.16666667 35.1666667,6.61438192 35.1666667,7.16666667 L35.1666667,7.16666667 C35.1666667,7.71895142 34.7189514,8.16666667 34.1666667,8.16666667 L13.1666667,8.16666667 C12.6143819,8.16666667 12.1666667,7.71895142 12.1666667,7.16666667 L12.1666667,7.16666667 C12.1666667,6.61438192 12.6143819,6.16666667 13.1666667,6.16666667 Z" id="Rectangle-4" fill="#3FB34F"></path>
                    <path d="M13.1666667,28.1666667 L23.1666667,28.1666667 C23.7189514,28.1666667 24.1666667,28.6143819 24.1666667,29.1666667 L24.1666667,29.1666667 C24.1666667,29.7189514 23.7189514,30.1666667 23.1666667,30.1666667 L13.1666667,30.1666667 C12.6143819,30.1666667 12.1666667,29.7189514 12.1666667,29.1666667 L12.1666667,29.1666667 C12.1666667,28.6143819 12.6143819,28.1666667 13.1666667,28.1666667 Z" id="Rectangle-4" fill="#C5C5C5"></path>
                    <rect id="Rectangle-4" fill="#C5C5C5" x="12.1666667" y="32.1666667" width="8" height="2" rx="1"></rect>
                    <rect id="Rectangle-3" stroke="#3FB34F" stroke-width="2" fill="#FFFFFF" x="1.16666667" y="1.16666667" width="8" height="8" rx="4"></rect>
                    <rect id="Rectangle-3" stroke="#C5C5C5" stroke-width="2" fill="#FFFFFF" x="1.16666667" y="27.1666667" width="8" height="8" rx="4"></rect>
                    <circle id="Oval" fill="#F35252" cx="5.16666667" cy="18.1666667" r="2"></circle>
                </g>
            </g>
        </g>
    </g>
</svg>