<?xml version="1.0" encoding="UTF-8"?>
<svg width="50px" height="44px" viewBox="0 0 50 44" version="1.1" xmlns="http://www.w3.org/2000/svg" xmlns:xlink="http://www.w3.org/1999/xlink">
    <!-- Generator: Sketch 50.2 (55047) - http://www.bohemiancoding.com/sketch -->
    <title>Discussion</title>
    <desc>Created with Sketch.</desc>
    <defs>
        <path d="M27.7104569,45 L24.1121757,48.7630671 C23.3488023,49.5613996 22.0827895,49.5897397 21.2844569,48.8263663 C20.8898606,48.4490494 20.6666667,47.9268191 20.6666667,47.3808573 L20.6666667,44.9227918 C19.4229713,44.806744 18.7481246,44.5615541 18.0694629,44.1986019 C17.0916851,43.6756806 16.3243194,42.9083149 15.8013981,41.9305371 C15.2784768,40.9527593 15,39.9829006 15,37.3083444 L15,25.6916556 C15,23.0170994 15.2784768,22.0472407 15.8013981,21.0694629 C16.3243194,20.0916851 17.0916851,19.3243194 18.0694629,18.8013981 C19.0472407,18.2784768 20.0170994,18 22.6916556,18 L42.3083444,18 C44.9829006,18 45.9527593,18.2784768 46.9305371,18.8013981 C47.9083149,19.3243194 48.6756806,20.0916851 49.1986019,21.0694629 C49.7215232,22.0472407 50,23.0170994 50,25.6916556 L50,37.3083444 C50,39.9829006 49.7215232,40.9527593 49.1986019,41.9305371 C48.6756806,42.9083149 47.9083149,43.6756806 46.9305371,44.1986019 C45.9527593,44.7215232 44.9829006,45 42.3083444,45 L27.7104569,45 Z" id="path-1"></path>
        <path d="M13,33 L9.41421356,36.5857864 C8.63316498,37.366835 7.36683502,37.366835 6.58578644,36.5857864 C6.21071368,36.2107137 6,35.7020059 6,35.1715729 L6,32.9498228 C4.53884094,32.8479845 3.8064011,32.5927208 3.06946289,32.1986019 C2.09168511,31.6756806 1.32431939,30.9083149 0.801398111,29.9305371 C0.278476833,28.9527593 1.2037061e-16,27.9829006 -2.07168062e-16,25.3083444 L2.07168062e-16,13.6916556 C-1.2037061e-16,11.0170994 0.278476833,10.0472407 0.801398111,9.06946289 C1.32431939,8.09168511 2.09168511,7.32431939 3.06946289,6.80139811 C4.04724067,6.27847683 5.01709938,6 7.6916556,6 L27.3083444,6 C29.9829006,6 30.9527593,6.27847683 31.9305371,6.80139811 C32.9083149,7.32431939 33.6756806,8.09168511 34.1986019,9.06946289 C34.7215232,10.0472407 35,11.0170994 35,13.6916556 L35,25.3083444 C35,27.9829006 34.7215232,28.9527593 34.1986019,29.9305371 C33.6756806,30.9083149 32.9083149,31.6756806 31.9305371,32.1986019 C30.9527593,32.7215232 29.9829006,33 27.3083444,33 L13,33 Z" id="path-2"></path>
    </defs>
    <g id="Handoff" stroke="none" stroke-width="1" fill="none" fill-rule="evenodd">
        <g id="Artboard-2" transform="translate(-1001.000000, -330.000000)">
            <g id="Discussion" transform="translate(1001.000000, 324.000000)">
                <rect id="frame" x="0" y="0" width="50" height="50"></rect>
                <g id="Combined-Shape" transform="translate(32.500000, 34.000000) scale(-1, 1) translate(-32.500000, -34.000000) ">
                    <use fill="#FFFFFF" xlink:href="#path-1"></use>
                    <path stroke="#EAC143" stroke-width="1" d="M23.7507984,48.4175146 L27.496764,44.5 L27.7104569,44.5 L42.3083444,44.5 C44.6713119,44.5 45.6658635,44.3079432 46.6947377,43.7576953 C47.5853812,43.2813739 48.2813739,42.5853812 48.7576953,41.6947377 C49.3079432,40.6658635 49.5,39.6713119 49.5,37.3083444 L49.5,25.6916556 C49.5,23.3286881 49.3079432,22.3341365 48.7576953,21.3052623 C48.2813739,20.4146188 47.5853812,19.7186261 46.6947377,19.2423047 C45.6658635,18.6920568 44.6713119,18.5 42.3083444,18.5 L22.6916556,18.5 C20.3286881,18.5 19.3341365,18.6920568 18.3052623,19.2423047 C17.4146188,19.7186261 16.7186261,20.4146188 16.2423047,21.3052623 C15.6920568,22.3341365 15.5,23.3286881 15.5,25.6916556 L15.5,37.3083444 C15.5,39.6713119 15.6920568,40.6658635 16.2423047,41.6947377 C16.7186261,42.5853812 17.4146188,43.2813739 18.3052623,43.7576953 C19.0194738,44.1396597 19.6465314,44.3254323 20.7131193,44.4249543 L21.1666667,44.4672743 L21.1666667,47.3808573 C21.1666667,47.7903287 21.3340621,48.1820014 21.6300094,48.4649891 C22.2287588,49.0375191 23.1782684,49.0162641 23.7507984,48.4175146 Z" stroke-linejoin="square" fill="#FFF8EB"></path>
                </g>
                <g id="Combined-Shape">
                    <use fill="#FFFFFF" xlink:href="#path-2"></use>
                    <path stroke="#ED7F1B" stroke-width="1" d="M9.06066017,36.232233 L12.7928932,32.5 L27.3083444,32.5 C29.6713119,32.5 30.6658635,32.3079432 31.6947377,31.7576953 C32.5853812,31.2813739 33.2813739,30.5853812 33.7576953,29.6947377 C34.3079432,28.6658635 34.5,27.6713119 34.5,25.3083444 L34.5,13.6916556 C34.5,11.3286881 34.3079432,10.3341365 33.7576953,9.30526232 C33.2813739,8.41461878 32.5853812,7.71862609 31.6947377,7.24230471 C30.6658635,6.69205677 29.6713119,6.5 27.3083444,6.5 L7.6916556,6.5 C5.32868808,6.5 4.33413652,6.69205677 3.30526232,7.24230471 C2.41461878,7.71862609 1.71862609,8.41461878 1.24230471,9.30526232 C0.692056765,10.3341365 0.5,11.3286881 0.5,13.6916556 L0.5,25.3083444 C0.5,27.6713119 0.692056765,28.6658635 1.24230471,29.6947377 C1.71862609,30.5853812 2.41461878,31.2813739 3.30526232,31.7576953 C4.08194077,32.1730675 4.77368409,32.3631394 6.03476416,32.4510329 L6.5,32.4834584 L6.5,35.1715729 C6.5,35.5693976 6.65803526,35.9509285 6.93933983,36.232233 C7.52512627,36.8180195 8.47487373,36.8180195 9.06066017,36.232233 Z" stroke-linejoin="square" fill="#FDE9DD"></path>
                </g>
            </g>
        </g>
    </g>
</svg>