<?xml version="1.0" encoding="UTF-8"?>
<svg width="50px" height="50px" viewBox="0 0 50 50" version="1.1" xmlns="http://www.w3.org/2000/svg" xmlns:xlink="http://www.w3.org/1999/xlink">
    <!-- Generator: Sketch 52.3 (67297) - http://www.bohemiancoding.com/sketch -->
    <title>event</title>
    <desc>Created with Sketch.</desc>
    <g id="event" stroke="none" stroke-width="1" fill="none" fill-rule="evenodd">
        <rect id="Rectangle" fill-rule="nonzero" x="0" y="0" width="50" height="50"></rect>
        <g id="Group-7" transform="translate(2.000000, 2.000000)">
            <path d="M8.9735982,0.5 C6.20422237,0.5 5.03091575,0.726575959 3.81683947,1.37587106 C2.76323296,1.93934599 1.93934599,2.76323296 1.37587106,3.81683947 C0.726575959,5.03091575 0.5,6.20422237 0.5,8.9735982 L0.5,37.0264018 C0.5,39.7957776 0.726575959,40.9690842 1.37587106,42.1831605 C1.93934599,43.236767 2.76323296,44.060654 3.81683947,44.6241289 C5.03091575,45.273424 6.20422237,45.5 8.9735982,45.5 L37.0264018,45.5 C39.7957776,45.5 40.9690842,45.273424 42.1831605,44.6241289 C43.236767,44.060654 44.060654,43.236767 44.6241289,42.1831605 C45.273424,40.9690842 45.5,39.7957776 45.5,37.0264018 L45.5,8.9735982 C45.5,6.20422237 45.273424,5.03091575 44.6241289,3.81683947 C44.060654,2.76323296 43.236767,1.93934599 42.1831605,1.37587106 C40.9690842,0.726575959 39.7957776,0.5 37.0264018,0.5 L8.9735982,0.5 Z" id="Rectangle-2-Copy-3" stroke="#D6D6D6" fill="#FFFFFF"></path>
            <path d="M0.5,14.5 L45.5,14.5 L45.5,8.9735982 C45.5,6.20422237 45.273424,5.03091575 44.6241289,3.81683947 C44.060654,2.76323296 43.236767,1.93934599 42.1831605,1.37587106 C40.9690842,0.726575959 39.7957776,0.5 37.0264018,0.5 L8.9735982,0.5 C6.20422237,0.5 5.03091575,0.726575959 3.81683947,1.37587106 C2.76323296,1.93934599 1.93934599,2.76323296 1.37587106,3.81683947 C0.726575959,5.03091575 0.5,6.20422237 0.5,8.9735982 L0.5,14.5 Z" id="Rectangle-2-Copy-3" stroke-opacity="0.565641984" stroke="#F35252" fill-opacity="0.2" fill="#F35252"></path>
            <rect id="Rectangle-3" fill="#F35252" x="16" y="7" width="14" height="1" rx="0.5"></rect>
            <text id="12" font-family="OpenSans, Open Sans" font-size="18" font-weight="normal" letter-spacing="-0.600000024" fill="#494949">
                <tspan x="13" y="36">1</tspan>
                <tspan x="22.6919922" y="36">2</tspan>
            </text>
        </g>
    </g>
</svg>