<?xml version="1.0" encoding="UTF-8"?>
<svg width="48px" height="48px" viewBox="0 0 48 48" version="1.1" xmlns="http://www.w3.org/2000/svg" xmlns:xlink="http://www.w3.org/1999/xlink">
    <!-- Generator: Sketch 50.2 (55047) - http://www.bohemiancoding.com/sketch -->
    <title>LTI Tools</title>
    <desc>Created with Sketch.</desc>
    <defs></defs>
    <g id="Handoff" stroke="none" stroke-width="1" fill="none" fill-rule="evenodd">
        <g id="Artboard-2" transform="translate(-1002.000000, -478.000000)">
            <g id="LTI-Tools" transform="translate(1001.000000, 477.000000)">
                <rect id="frame" x="0" y="0" width="50" height="50"></rect>
                <g id="Settings" transform="translate(0.833333, 0.833333)" fill-rule="nonzero">
                    <path d="M38.1190476,29.0714286 C38.8228352,29.4144192 39.6465305,29.7176724 40.8333333,29.9761905 L42.6428571,28.1666667 L45.3571429,29.9761905 L43.547619,32.6904762 C43.4872599,33.4752273 43.7348231,34.0671015 43.547619,34.5 L47.1666667,35.4047619 L47.1666667,38.1190476 L43.547619,39.0238095 C43.7348231,39.2499512 43.4872599,39.8418254 43.547619,40.8333333 L45.3571429,42.6428571 L42.6428571,45.3571429 L40.8333333,43.547619 C39.8418254,43.4872599 39.2499512,43.7348231 39.0238095,43.547619 L38.1190476,47.1666667 L35.4047619,47.1666667 L34.5,43.547619 C34.0671015,43.7348231 33.4752273,43.4872599 32.6904762,43.547619 L29.9761905,45.3571429 L28.1666667,42.6428571 L29.9761905,40.8333333 C29.7176724,39.6465305 29.4144192,38.8228352 29.0714286,38.1190476 L32.6904762,37.2142857 C33.250446,39.0547106 34.7960464,40.4114336 36.3095238,40.8333333 C38.7311998,40.4114336 40.4114336,38.7311998 40.8333333,36.3095238 C40.4114336,34.7960464 39.0547106,33.250446 37.2142857,32.6904762 L38.1190476,29.0714286 Z" id="Mask" stroke="#C5C5C5" fill="#F3F3F3"></path>
                    <path d="M26.4410405,7.89601638 L31.2145283,4.31604173 L35.0571486,8.15851056 L31.4770328,12.9318101 C32.0468479,13.9242923 32.4949437,14.9955574 32.8009551,16.1252414 L38.7066676,16.9688813 L38.7066676,22.402953 L32.8009551,23.2465929 C32.4949437,24.3762769 32.0468479,25.447542 31.4770328,26.4400242 L35.0571486,31.2133237 L31.2145283,35.0557926 L26.4410405,31.4758179 C25.4485192,32.0456106 24.3772118,32.4936887 23.2474833,32.799688 L22.4038101,38.7051676 L16.9695242,38.7051676 L16.125851,32.799688 C14.9961224,32.4936887 13.9248151,32.0456106 12.9322938,31.4758179 L8.15880598,35.0557926 L4.31618563,31.2133237 L7.89630145,26.4400242 C7.32648635,25.447542 6.87839059,24.3762769 6.57237917,23.2465929 L0.666666667,22.402953 L0.666666667,16.9688813 L6.57237917,16.1252414 C6.87839059,14.9955574 7.32648635,13.9242923 7.89630145,12.9318101 L4.31618563,8.15851056 L8.15880598,4.31604173 L12.9322938,7.89601638 C13.9248151,7.32622375 14.9961224,6.87814565 16.125851,6.5721463 L16.9695242,0.666666667 L22.4038101,0.666666667 L23.2474833,6.5721463 C24.3772118,6.87814565 25.4485192,7.32622375 26.4410405,7.89601638 Z M19.6866671,26.4785066 C23.4382586,26.4785066 26.4795244,23.4373607 26.4795244,19.6859172 C26.4795244,15.9344736 23.4382586,12.8933277 19.6866671,12.8933277 C15.9350757,12.8933277 12.8938098,15.9344736 12.8938098,19.6859172 C12.8938098,23.4373607 15.9350757,26.4785066 19.6866671,26.4785066 Z" id="Mask" stroke="#938CB1" fill="#E6E4F2"></path>
                </g>
            </g>
        </g>
    </g>
</svg>