<svg width="50" height="50" viewBox="0 0 50 50" fill="none" xmlns="http://www.w3.org/2000/svg">
<rect width="50" height="50" fill="white"/>
<path d="M25 1L46 13.1244V37.3731L25 49.4974L4 37.3731V13.1244L25 1Z" fill="#FCEADC"/>
<path fill-rule="evenodd" clip-rule="evenodd" d="M4 13.1244V37.3731L25 49.4974L46 37.3731V13.1244L25 1L4 13.1244ZM5 14.2239V36.7957L24.5 48.054V24.6162L5 14.2239ZM25.5 24.6162V48.054L45 36.7957V14.2239L25.5 24.6162ZM44.4497 13.384L25 2.1547L5.55029 13.384L25 23.7495L44.4497 13.384Z" fill="#D7B49A"/>
<path d="M16.8238 20.2358L12.1606 17.3212L32 5.66321L37 8.57772L16.8238 20.2358Z" fill="#DDB595"/>
<path d="M12.1606 17.3212H17.057V28.4L12.1606 25.1451V17.3212Z" fill="#DDB595"/>
<path d="M32 25.5528C32 25.214 32.1914 24.9043 32.4944 24.7528L38.7056 21.6472C39.3003 21.3499 40 21.7823 40 22.4472V22.4472C40 22.786 39.8086 23.0957 39.5056 23.2472L33.2944 26.3528C32.6997 26.6501 32 26.2177 32 25.5528V25.5528Z" fill="#DDB495"/>
</svg>
