<?xml version="1.0" encoding="UTF-8"?>
<svg width="50px" height="50px" viewBox="0 0 50 50" version="1.1" xmlns="http://www.w3.org/2000/svg" xmlns:xlink="http://www.w3.org/1999/xlink">
    <!-- Generator: Sketch 55.1 (78136) - https://sketchapp.com -->
    <title>Scorm</title>
    <desc>Created with Sketch.</desc>
    <g id="Scorm" stroke="none" stroke-width="1" fill="none" fill-rule="evenodd">
        <rect fill="#FFFFFF" x="0" y="0" width="50" height="50"></rect>
        <g id="Group-12" transform="translate(3.000000, 9.000000)">
            <path d="M3.8458278,0.5 C2.70208522,0.5 2.24379883,0.588499184 1.77053087,0.841605655 C1.36877622,1.05646639 1.05646639,1.36877622 0.841605655,1.77053087 C0.588499184,2.24379883 0.5,2.70208522 0.5,3.8458278 L0.5,28.1541722 C0.5,29.2979148 0.588499184,29.7562012 0.841605655,30.2294691 C1.05646639,30.6312238 1.36877622,30.9435336 1.77053087,31.1583943 C2.24379883,31.4115008 2.70208522,31.5 3.8458278,31.5 L41.1541722,31.5 C42.2979148,31.5 42.7562012,31.4115008 43.2294691,31.1583943 C43.6312238,30.9435336 43.9435336,30.6312238 44.1583943,30.2294691 C44.4115008,29.7562012 44.5,29.2979148 44.5,28.1541722 L44.5,3.8458278 C44.5,2.70208522 44.4115008,2.24379883 44.1583943,1.77053087 C43.9435336,1.36877622 43.6312238,1.05646639 43.2294691,0.841605655 C42.7562012,0.588499184 42.2979148,0.5 41.1541722,0.5 L3.8458278,0.5 Z" id="Rectangle" stroke="#3FB3F6" fill="#E2F4FE"></path>
            <polygon id="Rectangle" fill="#3FB3F6" points="22 31 23 31 23 37 22 37"></polygon>
            <rect id="Rectangle" fill="#3FB3F6" x="15" y="37" width="15" height="1"></rect>
        </g>
        <path d="M20.0912619,25.267775 L25.4,22.5 L24.2153129,21.9826564 L18.985147,24.7700233 L14.2184285,22.625 L25.5,17.5482928 L36.7815715,22.625 L25.5,27.7017072 L20.0912619,25.267775 Z M31,26.6354765 L31,30.1190079 C29.7166667,31.546438 27.8833333,32.2601531 25.5,32.2601531 C23.1166667,32.2601531 21.2833333,31.546438 20,30.1190079 L20,26.6354765 L25.5,29.1104765 L31,26.6354765 Z M19,26.1854765 L19,29.1907789 C19,29.4669213 18.7761424,29.6907789 18.5,29.6907789 C18.2238576,29.6907789 18,29.4669213 18,29.1907789 L18,25.7354765 L19,26.1854765 Z" id="Combined-Shape" fill="#3FB3F6"></path>
    </g>
</svg>