<?xml version="1.0" encoding="UTF-8"?>
<svg width="44px" height="32px" viewBox="0 0 44 32" version="1.1" xmlns="http://www.w3.org/2000/svg" xmlns:xlink="http://www.w3.org/1999/xlink">
    <!-- Generator: Sketch 50.2 (55047) - http://www.bohemiancoding.com/sketch -->
    <title>Survey</title>
    <desc>Created with Sketch.</desc>
    <defs>
        <rect id="path-1" x="0.166666667" y="0" width="44" height="8" rx="2"></rect>
        <rect id="path-2" x="0.166666667" y="12" width="44" height="8" rx="2"></rect>
        <rect id="path-3" x="0.166666667" y="24" width="44" height="8" rx="2"></rect>
    </defs>
    <g id="Handoff" stroke="none" stroke-width="1" fill="none" fill-rule="evenodd">
        <g id="Artboard-2" transform="translate(-698.000000, -486.000000)">
            <g id="Survey" transform="translate(695.000000, 477.000000)">
                <rect id="frame" x="0" y="0" width="50" height="50"></rect>
                <g id="Group-3" transform="translate(2.833333, 9.000000)">
                    <g id="Rectangle-3">
                        <use fill="#FFFFFF" xlink:href="#path-1"></use>
                        <rect stroke="#3FB3F6" stroke-width="1" stroke-linejoin="square" fill-opacity="0.1" fill="#3FB3F6" x="0.666666667" y="0.5" width="43" height="7" rx="2"></rect>
                    </g>
                    <g id="Rectangle-3">
                        <use fill="#FFFFFF" xlink:href="#path-2"></use>
                        <rect stroke="#3FB3F6" stroke-width="1" stroke-linejoin="square" fill-opacity="0.1" fill="#3FB3F6" x="0.666666667" y="12.5" width="43" height="7" rx="2"></rect>
                    </g>
                    <g id="Rectangle-3">
                        <use fill="#FFFFFF" xlink:href="#path-3"></use>
                        <rect stroke="#3FB3F6" stroke-width="1" stroke-linejoin="square" fill-opacity="0.1" fill="#3FB3F6" x="0.666666667" y="24.5" width="43" height="7" rx="2"></rect>
                    </g>
                    <path d="M1.66666667,25 L15.1666667,25 L15.1666667,31 L1.66666667,31 C1.39052429,31 1.16666667,30.7761424 1.16666667,30.5 L1.16666667,25.5 C1.16666667,25.2238576 1.39052429,25 1.66666667,25 Z" id="Rectangle-3" fill="#3FB3F6"></path>
                    <path d="M1.66666667,13 L24.1666667,13 L24.1666667,19 L1.66666667,19 C1.39052429,19 1.16666667,18.7761424 1.16666667,18.5 L1.16666667,13.5 C1.16666667,13.2238576 1.39052429,13 1.66666667,13 Z" id="Rectangle-3" fill="#3FB3F6"></path>
                    <path d="M1.66666667,1 L20.1666667,1 L20.1666667,7 L1.66666667,7 C1.39052429,7 1.16666667,6.77614237 1.16666667,6.5 L1.16666667,1.5 C1.16666667,1.22385763 1.39052429,1 1.66666667,1 Z" id="Rectangle-3" fill="#3FB3F6"></path>
                </g>
            </g>
        </g>
    </g>
</svg>