<?xml version="1.0" encoding="UTF-8"?>
<svg width="50px" height="46px" viewBox="0 0 50 46" version="1.1" xmlns="http://www.w3.org/2000/svg" xmlns:xlink="http://www.w3.org/1999/xlink">
    <!-- Generator: Sketch 50.2 (55047) - http://www.bohemiancoding.com/sketch -->
    <title>Group 4</title>
    <desc>Created with Sketch.</desc>
    <defs></defs>
    <g id="Icons" stroke="none" stroke-width="1" fill="none" fill-rule="evenodd">
        <g id="Artboard-2" transform="translate(-30.000000, -196.000000)">
            <g id="Group-4" transform="translate(30.000000, 192.000000)">
                <rect id="Rectangle-49" opacity="0.100000001" x="0" y="0" width="50" height="50"></rect>
                <path d="M0.5,49 L49.5,49 C49.7761424,49 50,49.2238576 50,49.5 L50,49.5 C50,49.7761424 49.7761424,50 49.5,50 L0.5,50 C0.223857625,50 3.38176876e-17,49.7761424 0,49.5 L0,49.5 C-3.38176876e-17,49.2238576 0.223857625,49 0.5,49 Z" id="Rectangle-4" fill="#C5C5C5"></path>
                <rect id="Rectangle-50" fill="#C5C5C5" x="14" y="46" width="1" height="4" rx="0.5"></rect>
                <rect id="Rectangle-50" fill="#C5C5C5" x="7" y="46" width="1" height="4" rx="0.5"></rect>
                <rect id="Rectangle-50" fill="#C5C5C5" x="21" y="46" width="1" height="4" rx="0.5"></rect>
                <rect id="Rectangle-50" fill="#C5C5C5" x="28" y="46" width="1" height="4" rx="0.5"></rect>
                <rect id="Rectangle-50" fill="#C5C5C5" x="35" y="46" width="1" height="4" rx="0.5"></rect>
                <rect id="Rectangle-50" fill="#C5C5C5" x="42" y="46" width="1" height="4" rx="0.5"></rect>
                <rect id="Rectangle-51" stroke="#938CB1" fill="#E6E4F2" x="0.5" y="4.5" width="30" height="9" rx="2"></rect>
                <rect id="Rectangle-51" stroke="#938CB1" fill="#E6E4F2" x="19.5" y="17.5" width="30" height="9" rx="2"></rect>
                <rect id="Rectangle-51" stroke="#938CB1" fill="#E6E4F2" x="10.5" y="30.5" width="30" height="9" rx="2"></rect>
                <rect id="Rectangle-52" fill="#938CB1" x="9" y="7" width="12" height="1"></rect>
                <circle id="Oval-3" fill="#938CB1" cx="5" cy="9" r="2"></circle>
                <circle id="Oval-3" fill="#938CB1" cx="24" cy="22" r="2"></circle>
                <circle id="Oval-3" fill="#938CB1" cx="15" cy="35" r="2"></circle>
                <rect id="Rectangle-52" fill="#938CB1" x="9" y="10" width="8" height="1"></rect>
                <rect id="Rectangle-52" fill="#938CB1" x="28" y="20" width="12" height="1"></rect>
                <rect id="Rectangle-52" fill="#938CB1" x="28" y="23" width="8" height="1"></rect>
                <rect id="Rectangle-52" fill="#938CB1" x="19" y="33" width="12" height="1"></rect>
                <rect id="Rectangle-52" fill="#938CB1" x="19" y="36" width="8" height="1"></rect>
            </g>
        </g>
    </g>
</svg>