<?xml version="1.0" encoding="UTF-8"?>
<svg width="46px" height="46px" viewBox="0 0 46 46" version="1.1" xmlns="http://www.w3.org/2000/svg" xmlns:xlink="http://www.w3.org/1999/xlink">
    <!-- Generator: Sketch 50.2 (55047) - http://www.bohemiancoding.com/sketch -->
    <title>Upload</title>
    <desc>Created with Sketch.</desc>
    <defs>
        <path d="M10.9735982,2 L39.0264018,2 C42.1467174,2 43.2782192,2.32488964 44.41896,2.93496446 C45.5597007,3.54503929 46.4549607,4.4402993 47.0650355,5.58104004 C47.6751104,6.72178078 48,7.85328261 48,10.9735982 L48,39.0264018 C48,42.1467174 47.6751104,43.2782192 47.0650355,44.41896 C46.4549607,45.5597007 45.5597007,46.4549607 44.41896,47.0650355 C43.2782192,47.6751104 42.1467174,48 39.0264018,48 L10.9735982,48 C7.85328261,48 6.72178078,47.6751104 5.58104004,47.0650355 C4.4402993,46.4549607 3.54503929,45.5597007 2.93496446,44.41896 C2.32488964,43.2782192 2,42.1467174 2,39.0264018 L2,10.9735982 C2,7.85328261 2.32488964,6.72178078 2.93496446,5.58104004 C3.54503929,4.4402993 4.4402993,3.54503929 5.58104004,2.93496446 C6.72178078,2.32488964 7.85328261,2 10.9735982,2 Z" id="path-1"></path>
        <mask id="mask-2" maskContentUnits="userSpaceOnUse" maskUnits="objectBoundingBox" x="0" y="0" width="46" height="46" fill="white">
            <use xlink:href="#path-1"></use>
        </mask>
    </defs>
    <g id="Handoff" stroke="none" stroke-width="1" fill="none" fill-rule="evenodd">
        <g id="Artboard-2" transform="translate(-391.000000, -326.000000)">
            <g id="Upload" transform="translate(389.000000, 324.000000)">
                <rect id="frame" x="0" y="0" width="50" height="50"></rect>
                <g id="Rectangle-2-Copy-3" stroke-dasharray="2,1">
                    <use fill="#FFFFFF" xlink:href="#path-1"></use>
                    <use stroke="#3FB3F6" mask="url(#mask-2)" stroke-width="2" fill-opacity="0.15" fill="#3FB3F6" xlink:href="#path-1"></use>
                </g>
                <polygon id="Rectangle-35" fill="#3FB3F6" points="25 17 30 22 20 22"></polygon>
                <rect id="Rectangle-36" fill="#3FB3F6" x="24" y="20" width="2" height="7"></rect>
                <rect id="Rectangle-37" fill="#3FB3F6" x="20" y="30" width="10" height="2"></rect>
                <rect id="Rectangle-541" fill="#48B3F6" x="18" y="28" width="2" height="4"></rect>
                <rect id="Rectangle-542" fill="#48B3F6" x="30" y="28" width="2" height="4"></rect>
            </g>
        </g>
    </g>
</svg>