<?xml version="1.0" encoding="UTF-8"?>
<svg width="50px" height="40px" viewBox="0 0 50 40" version="1.1" xmlns="http://www.w3.org/2000/svg" xmlns:xlink="http://www.w3.org/1999/xlink">
    <!-- Generator: Sketch 50.2 (55047) - http://www.bohemiancoding.com/sketch -->
    <title>Webinar</title>
    <desc>Created with Sketch.</desc>
    <defs>
        <rect id="path-1" x="0" y="0" width="50" height="50"></rect>
        <path d="M31.3962069,26.8844867 C31.0775842,25.3581582 32.1506641,23.2577161 34.1583952,21.7447823 C36.5307856,19.9570578 39.3319965,19.6498873 40.5119315,21.0198654 C42.3647381,21.0406636 43.8612168,22.7994126 43.8612168,24.9659365 C43.8612168,25.2259368 43.8396646,25.4800643 43.7985308,25.7260202 C43.9091118,26.2401523 43.949566,26.78584 43.9074988,27.3575944 C43.9253106,27.3596708 43.9429934,27.3628796 43.9605226,27.3672501 C44.414789,27.4805115 44.593867,28.331078 44.3605046,29.2670436 C44.1271421,30.2030092 43.5697088,30.8699427 43.1154424,30.7566814 C43.0866492,30.7495024 43.0589615,30.7393613 43.0324144,30.7264241 C42.5021068,31.9785105 41.7782829,33.1153268 40.9489144,33.9829224 C40.9489438,34.8259519 41.1697342,35.5786303 41.6112857,36.2409576 C42.7387879,37.3684597 45.5575431,37.3684597 47.8125474,37.9322108 C49.1684741,38.2711925 49.8945972,39.9498236 49.9909167,42.9681042 C49.9912559,42.9787328 49.9914255,42.989366 49.9914255,43 C49.9914255,43.5522845 49.5437104,43.9999996 48.9914259,43.9999996 L37.6650283,44 L26.0719702,44.000002 C25.5196844,44.0000019 25.0719684,43.5522858 25.0719685,43 C25.0719685,42.9686706 25.0734408,42.9373586 25.0763805,42.9061674 C25.3571761,39.9268522 26.1708857,38.2688667 27.5175093,37.9322108 C29.7725135,37.3684597 32.5912688,37.3684597 33.7187709,36.2409576 C34.1584741,35.5814029 34.3792605,34.8322521 34.3811303,33.993505 C33.5560782,33.1334974 32.8349054,32.0069955 32.3039493,30.7650893 C31.8581246,30.8275814 31.3281866,30.1734725 31.1021884,29.2670436 C30.8842732,28.3930333 31.0260034,27.5934905 31.4156185,27.3992446 C31.4016243,27.2252153 31.3952696,27.053578 31.3962069,26.8844867 Z" id="path-3"></path>
    </defs>
    <g id="Handoff" stroke="none" stroke-width="1" fill="none" fill-rule="evenodd">
        <g id="Artboard-2" transform="translate(-848.000000, -482.000000)">
            <g id="Webinar" transform="translate(848.000000, 476.000000)">
                <mask id="mask-2" fill="white">
                    <use xlink:href="#path-1"></use>
                </mask>
                <g id="Mask"></g>
                <g mask="url(#mask-2)">
                    <rect id="frame" x="0" y="0" width="50" height="50"></rect>
                    <path d="M3.8458278,6.5 C2.70208522,6.5 2.24379883,6.58849918 1.77053087,6.84160565 C1.36877622,7.05646639 1.05646639,7.36877622 0.841605655,7.77053087 C0.588499184,8.24379883 0.5,8.70208522 0.5,9.8458278 L0.5,36.1541722 C0.5,37.2979148 0.588499184,37.7562012 0.841605655,38.2294691 C1.05646639,38.6312238 1.36877622,38.9435336 1.77053087,39.1583943 C2.24379883,39.4115008 2.70208522,39.5 3.8458278,39.5 L33.7229662,39.5 C34.5251359,39.5 34.833651,39.4675686 35.1660283,39.3676757 C35.4551873,39.2807716 35.7037735,39.1477323 35.9364786,38.9553432 C36.2039644,38.7341992 36.4020822,38.4954888 36.847046,37.8280432 L42.7684175,28.9459859 C43.0937833,28.4579372 43.1990814,28.2810349 43.2903634,28.0798822 C43.3714517,27.9011929 43.4222079,27.7335566 43.4538574,27.5398984 C43.4894855,27.3218951 43.5,27.1162946 43.5,26.5297331 L43.5,9.8458278 C43.5,8.70208522 43.4115008,8.24379883 43.1583943,7.77053087 C42.9435336,7.36877622 42.6312238,7.05646639 42.2294691,6.84160565 C41.7562012,6.58849918 41.2979148,6.5 40.1541722,6.5 L3.8458278,6.5 Z" id="Rectangle-10" stroke="#938CB1" fill="#E6E4F2"></path>
                    <circle id="Oval-12" fill="#938CB1" cx="21.5" cy="24.5" r="8.5"></circle>
                    <polygon id="Rectangle-6" fill="#FFFFFF" transform="translate(21.191275, 24.500000) rotate(-45.000000) translate(-21.191275, -24.500000) " points="22.8237902 21.1827674 24.5085078 27.8172326 17.8740427 26.1325149"></polygon>
                    <g id="Combined-Shape">
                        <use fill="#FFFFFF" fill-rule="evenodd" xlink:href="#path-3"></use>
                        <path stroke="#ED7F1B" stroke-width="1" d="M43.2419417,30.2723202 C43.341466,30.2769359 43.7038004,29.8341575 43.8753567,29.1460826 C44.0481846,28.4529078 43.9331861,27.888642 43.8428226,27.8534407 L43.3736889,27.7987512 L43.4088467,27.3209058 C43.44665,26.8071031 43.4124569,26.3088679 43.3097096,25.8311572 L43.3053798,25.6435453 C43.3423978,25.4221998 43.3612168,25.1956225 43.3612168,24.9659365 C43.3612168,23.0595255 42.0682716,21.5373672 40.5063193,21.5198339 L40.280474,21.5172988 L40.1330788,21.3461638 C39.1600169,20.2163783 36.6405414,20.5004188 34.4593027,22.1441 C32.6243608,23.5268279 31.6069913,25.4473987 31.8856563,26.7823136 L31.8961993,26.8872584 C31.8953356,27.0430458 31.9012422,27.2003923 31.9140097,27.3591676 L31.9410921,27.6959602 L31.6387091,27.8467158 C31.5189327,27.9064314 31.4211413,28.4795109 31.5873363,29.1460826 C31.7580634,29.8308314 32.1238609,30.2854445 32.2345419,30.2699301 L32.6133317,30.2168344 L32.7636945,30.5685329 C33.2744393,31.7631648 33.9643344,32.8368092 34.7419403,33.6473603 L34.8815787,33.7929149 L34.8811291,33.9946197 C34.8790433,34.9302616 34.6298884,35.7756692 34.0723243,36.594511 C33.3318621,37.3349733 32.3635992,37.6072972 29.9548932,37.9876192 C29.6566854,38.0346022 29.514422,38.0571291 29.3590758,38.0822587 C28.6277363,38.2005636 28.1165035,38.2978504 27.6387771,38.417282 C26.5618478,38.6865143 25.8371164,40.1632012 25.5741745,42.9530837 C25.5727046,42.9686793 25.5719685,42.9843354 25.5719685,43.0000001 C25.5719684,43.2761435 25.7958269,43.500002 26.0719701,43.500002 L37.6650283,43.5 L48.9914259,43.4999996 C49.2675681,43.4999996 49.4914255,43.2761422 49.4914255,43 C49.4913831,42.9920247 49.4913831,42.9920247 49.4911711,42.9840521 C49.4012314,40.1656891 48.7605596,38.684602 47.6912796,38.417282 C47.2135532,38.2978504 46.7023204,38.2005636 45.9709809,38.0822587 C45.8156347,38.0571291 45.6733713,38.0346022 45.3751635,37.9876192 C42.9664575,37.6072972 41.9981946,37.3349733 41.1952606,36.5183077 C40.6980951,35.7725595 40.4489471,34.9232098 40.4489144,33.9829399 L40.4489074,33.7823894 L40.5874883,33.6374211 C41.3694591,32.8194078 42.0619522,31.7356925 42.5720072,30.5314236 L42.7775914,30.0460276 L43.2419417,30.2723202 Z M43.8397963,27.8524577 C43.8397181,27.8524374 43.8396398,27.8524175 43.8395616,27.852398 C43.8404238,27.852593 43.8411392,27.8527548 43.8417573,27.8528925 Z" stroke-linejoin="square" fill="#FDE9DD" fill-rule="evenodd"></path>
                        <path stroke="#FFFFFF" stroke-width="2" d="M30.3964053,26.9801665 C30.0494472,25.0105524 31.3429394,22.6142447 33.5565801,20.9461468 C36.1223016,19.012737 39.2516687,18.558465 40.9530102,20.0479775 C43.1812015,20.3153994 44.8612168,22.4435452 44.8612168,24.9659365 C44.8612168,25.2134919 44.8451032,25.4590037 44.8132207,25.7009952 C44.8800712,26.0623597 44.9168571,26.4314228 44.9229034,26.8063622 C45.4914549,27.39306 45.5940226,28.4532385 45.3308003,29.5089655 C45.065689,30.5722687 44.4708322,31.4653574 43.6850866,31.709034 C43.2100981,32.6940747 42.6251673,33.5955006 41.9674124,34.3499331 C42.0149176,34.8087856 42.1540014,35.2207015 42.3855759,35.5962179 C42.8220545,35.9728294 43.67574,36.2007062 45.6091074,36.5059748 C45.9072552,36.5529466 46.0522824,36.5759113 46.2105142,36.6015076 C46.9802081,36.7260169 47.527386,36.830144 48.055083,36.9620683 C49.984303,37.4443733 50.8813289,39.5180925 50.9904079,42.9362084 C50.9912559,42.9680988 50.9912559,42.9680988 50.9914255,43 C50.9914255,44.1045693 50.0959952,44.9999996 48.9914259,44.9999996 L37.6650285,45 L26.07197,45.000002 C24.9673995,45.0000018 24.0719683,44.1045704 24.0719685,42.9999999 C24.0719685,42.9373412 24.0749131,42.8747171 24.0807925,42.8123349 C24.3972956,39.4541542 25.3889614,37.4335713 27.2749737,36.9620683 C27.8026707,36.830144 28.3498486,36.7260169 29.1195425,36.6015076 C29.2777743,36.5759113 29.4228015,36.5529466 29.7209493,36.5059748 C31.6543169,36.2007062 32.5080024,35.9728293 32.9444809,35.5962178 C33.1743238,35.2235102 33.3130374,34.814977 33.3615528,34.3603037 C32.683737,33.5850395 32.0828481,32.6536163 31.5994217,31.6350304 C30.8984836,31.3193365 30.3759747,30.4879247 30.1318927,29.5089655 C29.8947316,28.5577641 29.9564947,27.6082026 30.3965563,26.9949489 C30.3965007,26.9900206 30.3964504,26.9850931 30.3964053,26.9801665 Z"></path>
                    </g>
                </g>
            </g>
        </g>
    </g>
</svg>