<?xml version="1.0" standalone="no"?>
<!DOCTYPE svg PUBLIC "-//W3C//DTD SVG 1.1//EN" "http://www.w3.org/Graphics/SVG/1.1/DTD/svg11.dtd" >
<svg xmlns="http://www.w3.org/2000/svg">
<metadata></metadata>
<defs>
<font id="STIXIntegralsUpSmBold" horiz-adv-x="512" >
<font-face units-per-em="2048" ascent="1536" descent="-512" />
<missing-glyph horiz-adv-x="500" />
<glyph unicode=" " />
<glyph unicode="&#xa0;" />
<glyph unicode="&#x222b;" horiz-adv-x="811" d="M371 -4v956q0 191 22 286t72 165q28 39 76.5 67.5t105.5 28.5q99 0 150 -56.5t51 -127.5q0 -51 -29.5 -89t-81.5 -38q-38 0 -61 21t-23 55q0 33 13.5 53t30.5 24.5t30.5 11.5t13.5 17q0 23 -18.5 37t-38.5 14q-19 0 -34.5 -7.5t-26 -20.5t-17.5 -35t-11.5 -45.5t-7 -58.5 t-3 -67.5t-0.5 -78.5v-963q0 -183 -23 -279.5t-72 -164.5q-28 -39 -76.5 -67.5t-105.5 -28.5q-51 0 -91.5 18t-63.5 46t-34.5 59t-11.5 61q0 51 28.5 89t78.5 38q38 0 63 -21t25 -55q0 -33 -13.5 -53t-30.5 -24.5t-30.5 -10.5t-13.5 -16q0 -24 18.5 -38.5t38.5 -14.5 q63 0 82 74.5t19 238.5z" />
<glyph unicode="&#x222c;" horiz-adv-x="1363" d="M924 -4v956q0 191 22 286t72 165q28 39 76.5 67.5t105.5 28.5q99 0 150 -56.5t51 -127.5q0 -51 -29.5 -89t-81.5 -38q-38 0 -61 21t-23 55q0 33 14 53t30 24.5t30 11.5t14 17q0 23 -18.5 37t-38.5 14q-19 0 -34.5 -7.5t-26 -20.5t-17.5 -35t-11.5 -45.5t-7 -58.5 t-3 -67.5t-0.5 -78.5v-963q0 -183 -23 -279.5t-72 -164.5q-28 -39 -76.5 -67.5t-105.5 -28.5q-51 0 -91.5 18t-63.5 46t-34.5 59t-11.5 61q0 51 28.5 89t78.5 38q38 0 63 -21t25 -55q0 -33 -14 -53t-30 -24.5t-30 -10.5t-14 -16q0 -24 18.5 -38.5t38.5 -14.5q63 0 82 74.5 t19 238.5zM371 -4v956q0 191 22 286t72 165q28 39 76.5 67.5t105.5 28.5q99 0 150 -56.5t51 -127.5q0 -51 -29.5 -89t-81.5 -38q-38 0 -61 21t-23 55q0 33 13.5 53t30.5 24.5t30.5 11.5t13.5 17q0 23 -18.5 37t-38.5 14q-19 0 -34.5 -7.5t-26 -20.5t-17.5 -35t-11.5 -45.5 t-7 -58.5t-3 -67.5t-0.5 -78.5v-963q0 -183 -23 -279.5t-72 -164.5q-28 -39 -76.5 -67.5t-105.5 -28.5q-51 0 -91.5 18t-63.5 46t-34.5 59t-11.5 61q0 51 28.5 89t78.5 38q38 0 63 -21t25 -55q0 -33 -13.5 -53t-30.5 -24.5t-30.5 -10.5t-13.5 -16q0 -24 18.5 -38.5 t38.5 -14.5q63 0 82 74.5t19 238.5z" />
<glyph unicode="&#x222d;" horiz-adv-x="1916" d="M1477 -4v956q0 191 22 286t72 165q28 39 76.5 67.5t105.5 28.5q99 0 150 -56.5t51 -127.5q0 -51 -29.5 -89t-81.5 -38q-38 0 -61 21t-23 55q0 33 13.5 53t30.5 24.5t30.5 11.5t13.5 17q0 23 -18.5 37t-38.5 14q-19 0 -34.5 -7.5t-26 -20.5t-17.5 -35t-11.5 -45.5 t-7 -58.5t-3 -67.5t-0.5 -78.5v-963q0 -183 -23 -279.5t-72 -164.5q-28 -39 -76.5 -67.5t-105.5 -28.5q-51 0 -91.5 18t-63.5 46t-34.5 59t-11.5 61q0 51 28.5 89t78.5 38q38 0 63 -21t25 -55q0 -33 -13.5 -53t-30.5 -24.5t-30.5 -10.5t-13.5 -16q0 -24 18.5 -38.5 t38.5 -14.5q63 0 82 74.5t19 238.5zM924 -4v956q0 191 22 286t72 165q28 39 76.5 67.5t105.5 28.5q99 0 150 -56.5t51 -127.5q0 -51 -29.5 -89t-81.5 -38q-38 0 -61 21t-23 55q0 33 14 53t30 24.5t30 11.5t14 17q0 23 -18.5 37t-38.5 14q-19 0 -34.5 -7.5t-26 -20.5 t-17.5 -35t-11.5 -45.5t-7 -58.5t-3 -67.5t-0.5 -78.5v-963q0 -183 -23 -279.5t-72 -164.5q-28 -39 -76.5 -67.5t-105.5 -28.5q-51 0 -91.5 18t-63.5 46t-34.5 59t-11.5 61q0 51 28.5 89t78.5 38q38 0 63 -21t25 -55q0 -33 -14 -53t-30 -24.5t-30 -10.5t-14 -16 q0 -24 18.5 -38.5t38.5 -14.5q63 0 82 74.5t19 238.5zM371 -4v956q0 191 22 286t72 165q28 39 76.5 67.5t105.5 28.5q99 0 150 -56.5t51 -127.5q0 -51 -29.5 -89t-81.5 -38q-38 0 -61 21t-23 55q0 33 13.5 53t30.5 24.5t30.5 11.5t13.5 17q0 23 -18.5 37t-38.5 14 q-19 0 -34.5 -7.5t-26 -20.5t-17.5 -35t-11.5 -45.5t-7 -58.5t-3 -67.5t-0.5 -78.5v-963q0 -183 -23 -279.5t-72 -164.5q-28 -39 -76.5 -67.5t-105.5 -28.5q-51 0 -91.5 18t-63.5 46t-34.5 59t-11.5 61q0 51 28.5 89t78.5 38q38 0 63 -21t25 -55q0 -33 -13.5 -53 t-30.5 -24.5t-30.5 -10.5t-13.5 -16q0 -24 18.5 -38.5t38.5 -14.5q63 0 82 74.5t19 238.5z" />
<glyph unicode="&#x222e;" horiz-adv-x="954" d="M594 1108v-174q121 -34 199.5 -136t78.5 -231t-78 -229.5t-200 -136.5v-56q0 -184 -22.5 -280t-71.5 -164q-28 -39 -77 -67.5t-106 -28.5q-51 0 -91 18t-63 46t-34.5 59t-11.5 61q0 51 28 89t78 38q38 0 63 -21t25 -55q0 -33 -13.5 -53t-30.5 -24.5t-30.5 -10.5 t-13.5 -16q0 -24 19 -38.5t39 -14.5q63 0 81.5 74t18.5 239v205q-120 36 -197.5 136.5t-77.5 229.5t77.5 230t197.5 137v18q0 191 22 286t72 165q28 39 76.5 67.5t105.5 28.5q99 0 150 -56.5t51 -127.5q0 -51 -29 -89t-81 -38q-38 0 -61 21t-23 55q0 33 14 53t30 24.5 t30 11.5t14 17q0 23 -19 37t-39 14q-19 0 -34.5 -7.5t-26 -20.5t-17.5 -35t-11.5 -45.5t-7 -58.5t-3 -67.5t-0.5 -78.5zM594 827v-520q78 31 127 102t49 160q0 86 -49 156.5t-127 101.5zM381 309v516q-77 -31 -124.5 -100.5t-47.5 -155.5q0 -88 47 -157.5t125 -102.5z" />
<glyph unicode="&#x222f;" horiz-adv-x="1507" d="M1147 1108v-225q130 -51 204 -132.5t74 -183.5q0 -103 -74 -183.5t-204 -131.5v-107q0 -184 -22.5 -280t-71.5 -164q-28 -39 -77 -67.5t-106 -28.5q-51 0 -91 18t-63 46t-34.5 59t-11.5 61q0 51 28 89t78 38q38 0 63 -21t25 -55q0 -33 -14 -53t-30 -24.5t-30 -10.5 t-14 -16q0 -24 19 -38.5t39 -14.5q63 0 81.5 74t18.5 239v203q-89 -13 -172 -13q-71 0 -168 11v-52q0 -184 -22.5 -280t-71.5 -164q-28 -39 -77 -67.5t-106 -28.5q-51 0 -91 18t-63 46t-34.5 59t-11.5 61q0 51 28 89t78 38q38 0 63 -21t25 -55q0 -33 -13.5 -53t-30.5 -24.5 t-30.5 -10.5t-13.5 -16q0 -24 19 -38.5t39 -14.5q63 0 81.5 74t18.5 239v252q-130 51 -202.5 132.5t-72.5 186.5q0 102 73.5 183.5t201.5 132.5v69q0 191 22 286t72 165q28 39 76.5 67.5t105.5 28.5q99 0 150 -56.5t51 -127.5q0 -51 -29 -89t-81 -38q-38 0 -61 21t-23 55 q0 33 14 53t30 24.5t30 11.5t14 17q0 23 -19 37t-39 14q-19 0 -34.5 -7.5t-26 -20.5t-17.5 -35t-11.5 -45.5t-7 -58.5t-3 -67.5t-0.5 -78.5v-170q80 12 168 12q90 0 172 -12v14q0 191 22 286t72 165q28 39 76.5 67.5t105.5 28.5q99 0 150 -56.5t51 -127.5q0 -51 -29.5 -89 t-81.5 -38q-38 0 -60.5 21t-22.5 55q0 33 13.5 53t30.5 24.5t30.5 11.5t13.5 17q0 23 -19 37t-39 14q-19 0 -34.5 -7.5t-26 -20.5t-17.5 -35t-11.5 -45.5t-7 -58.5t-3 -67.5t-0.5 -78.5zM1147 780v-424q176 76 176 213q0 132 -176 211zM934 299v537q-80 12 -168 12 q-92 0 -172 -12v-535q82 -12 172 -12q80 0 168 10zM381 360v418q-172 -80 -172 -209q0 -128 172 -209z" />
<glyph unicode="&#x2230;" horiz-adv-x="2043" d="M1700 1108v-250q132 -47 204 -115.5t72 -154.5q0 -201 -276 -307v-136q0 -184 -22.5 -280t-71.5 -164q-28 -39 -77 -67.5t-106 -28.5q-51 0 -91 18t-63 46t-34.5 59t-11.5 61q0 51 28 89t78 38q38 0 63 -21t25 -55q0 -33 -13.5 -53t-30.5 -24.5t-30.5 -10.5t-13.5 -16 q0 -24 18.5 -38.5t38.5 -14.5q63 0 82 74.5t19 238.5v227q-159 -31 -340 -37v-41q0 -184 -22.5 -280t-71.5 -164q-28 -39 -77 -67.5t-106 -28.5q-51 0 -91 18t-63 46t-34.5 59t-11.5 61q0 51 28 89t78 38q38 0 63 -21t25 -55q0 -33 -14 -53t-30 -24.5t-30 -10.5t-14 -16 q0 -24 19 -38.5t39 -14.5q63 0 81.5 74t18.5 239v190q-160 5 -340 37v-78q0 -184 -22.5 -280t-71.5 -164q-28 -39 -77 -67.5t-106 -28.5q-51 0 -91 18t-63 46t-34.5 59t-11.5 61q0 51 28 89t78 38q38 0 63 -21t25 -55q0 -33 -13.5 -53t-30.5 -24.5t-30.5 -10.5t-13.5 -16 q0 -24 19 -38.5t39 -14.5q63 0 81.5 74t18.5 239v283q-275 101 -275 288q0 183 275 289v96q0 191 22 286t72 165q28 39 76.5 67.5t105.5 28.5q99 0 150 -56.5t51 -127.5q0 -51 -29 -89t-81 -38q-38 0 -61 21t-23 55q0 33 14 53t30 24.5t30 11.5t14 17q0 23 -19 37t-39 14 q-19 0 -34.5 -7.5t-26 -20.5t-17.5 -35t-11.5 -45.5t-7 -58.5t-3 -67.5t-0.5 -78.5v-195q166 29 340 35v4q0 191 22 286t72 165q28 39 76.5 67.5t105.5 28.5q99 0 150 -56.5t51 -127.5q0 -51 -29.5 -89t-81.5 -38q-38 0 -60.5 21t-22.5 55q0 33 13.5 53t30.5 24.5t30.5 11.5 t13.5 17q0 23 -19 37t-39 14q-19 0 -34.5 -7.5t-26 -20.5t-17.5 -35t-11.5 -45.5t-7 -58.5t-3 -67.5t-0.5 -78.5v-160q174 -6 340 -35v39q0 191 22 286t72 165q28 39 76.5 67.5t105.5 28.5q99 0 150 -56.5t51 -127.5q0 -51 -29.5 -89t-81.5 -38q-38 0 -61 21t-23 55 q0 33 14 53t30.5 24.5t30.5 11.5t14 17q0 23 -19 37t-39 14q-19 0 -34.5 -7.5t-26 -20.5t-17.5 -35t-11.5 -45.5t-7 -58.5t-3 -67.5t-0.5 -78.5zM1700 754v-373q174 74 174 188t-174 185zM1487 324v489q-152 27 -340 33v-557q174 6 340 35zM934 289v557q-174 -6 -340 -35 v-487q166 -29 340 -35zM381 383v371q-172 -73 -172 -185q0 -113 172 -186z" />
<glyph unicode="&#x2231;" horiz-adv-x="1026" d="M920 639l38 -25q-99 -138 -110 -213l-10 -4q-69 55 -217 80l14 45q5 -1 27.5 -6t36.5 -7.5t24 -2.5q20 0 20 14q0 7 -4 15q-56 91 -145 127v-517q0 -184 -22.5 -280t-71.5 -164q-28 -39 -77 -67.5t-106 -28.5q-51 0 -91 18t-63 46t-34.5 59t-11.5 61q0 51 28 89t78 38 q38 0 63 -21t25 -55q0 -33 -13.5 -53t-30.5 -24.5t-30.5 -10.5t-13.5 -16q0 -24 19 -38.5t39 -14.5q63 0 81.5 74t18.5 239v666q-78 -33 -125 -104t-47 -161h-103q0 130 77.5 232.5t197.5 138.5v184q0 191 22 286t72 165q28 39 76.5 67.5t105.5 28.5q99 0 150 -56.5 t51 -127.5q0 -51 -29 -89t-81 -38q-38 0 -61 21t-23 55q0 33 14 53t30 24.5t30 11.5t14 17q0 23 -19 37t-39 14q-19 0 -34.5 -7.5t-26 -20.5t-17.5 -35t-11.5 -45.5t-7 -58.5t-3 -67.5t-0.5 -78.5v-338q75 -21 137.5 -72t97.5 -118q13 -25 23 -25l14 6q32 32 54 78z" />
<glyph unicode="&#x2232;" horiz-adv-x="1026" d="M920 805l41 -21q-85 -142 -89 -221q-6 -158 -112 -264q-68 -68 -166 -98v-56q0 -184 -22.5 -280t-71.5 -164q-28 -39 -77 -67.5t-106 -28.5q-51 0 -91 18t-63 46t-34.5 59t-11.5 61q0 51 28 89t78 38q38 0 63 -21t25 -55q0 -33 -13.5 -53t-30.5 -24.5t-30.5 -10.5 t-13.5 -16q0 -24 19 -38.5t39 -14.5q63 0 81.5 74t18.5 239v205q-93 25 -162 94q-113 113 -113 272q0 160 113 273q69 69 162 94v18q0 191 22 286t72 165q28 39 76.5 67.5t105.5 28.5q99 0 150 -56.5t51 -127.5q0 -51 -29 -89t-81 -38q-38 0 -61 21t-23 55q0 33 14 53 t30 24.5t30 11.5t14 17q0 23 -19 37t-39 14q-19 0 -34.5 -7.5t-26 -20.5t-17.5 -35t-11.5 -45.5t-7 -58.5t-3 -67.5t-0.5 -78.5v-174q98 -26 170 -98q37 -37 65 -91q12 -24 23 -24l14 6q32 32 54 78zM594 827v-518q52 22 94 64q79 79 82 202q-62 38 -149 68l14 45 q63 -16 98 -16q12 0 12 12q0 4 -6 16q-57 98 -145 127zM381 825q-73 -31 -122.5 -103t-49.5 -155t49.5 -156t122.5 -104v518z" />
<glyph unicode="&#x2233;" horiz-adv-x="1015" d="M995 741l-14 -43q-12 0 -54.5 5.5t-62.5 5.5q-12 0 -12 -11q0 -4 4 -16q16 -53 16 -111q0 -131 -78.5 -233.5t-199.5 -136.5v-56q0 -184 -22.5 -280t-71.5 -164q-28 -39 -77 -67.5t-106 -28.5q-51 0 -91 18t-63 46t-34.5 59t-11.5 61q0 51 28 89t78 38q38 0 63 -21 t25 -55q0 -33 -13.5 -53t-30.5 -24.5t-30.5 -10.5t-13.5 -16q0 -24 19 -38.5t39 -14.5q63 0 81.5 74t18.5 239v207q-121 36 -198 137.5t-77 230.5q0 126 77 226.5t198 136.5v18q0 191 22 286t72 165q28 39 76.5 67.5t105.5 28.5q99 0 150 -56.5t51 -127.5q0 -51 -29 -89 t-81 -38q-38 0 -61 21t-23 55q0 33 14 53t30 24.5t30 11.5t14 17q0 23 -19 37t-39 14q-19 0 -34.5 -7.5t-26 -20.5t-17.5 -35t-11.5 -45.5t-7 -58.5t-3 -67.5t-0.5 -78.5v-172q86 -23 164 -94q25 -22 70.5 -42.5t76 -30.5t90.5 -28zM770 571q0 31 -6 66t-21 35 q-8 0 -17.5 -15.5t-26 -50.5t-27.5 -55l-43 20q48 101 65 191q-50 43 -100 65v-518q78 31 127 102.5t49 159.5zM381 311v514q-77 -31 -124.5 -100.5t-47.5 -153.5q0 -87 47.5 -157t124.5 -103z" />
<glyph unicode="&#x2a0c;" horiz-adv-x="2469" d="M2030 -4v956q0 191 22 286t72 165q28 39 76.5 67.5t105.5 28.5q99 0 150 -56.5t51 -127.5q0 -51 -29.5 -89t-81.5 -38q-38 0 -61 21t-23 55q0 33 14 53t30 24.5t30 11.5t14 17q0 23 -18.5 37t-38.5 14q-19 0 -34.5 -7.5t-26 -20.5t-17.5 -35t-11.5 -45.5t-7 -58.5 t-3 -67.5t-0.5 -78.5v-963q0 -183 -23 -279.5t-72 -164.5q-28 -39 -76.5 -67.5t-105.5 -28.5q-51 0 -91.5 18t-63.5 46t-34.5 59t-11.5 61q0 51 28.5 89t78.5 38q38 0 63 -21t25 -55q0 -33 -14 -53t-30 -24.5t-30 -10.5t-14 -16q0 -24 18.5 -38.5t38.5 -14.5q63 0 82 74.5 t19 238.5zM1477 -4v956q0 191 22 286t72 165q28 39 76.5 67.5t105.5 28.5q99 0 150 -56.5t51 -127.5q0 -51 -29.5 -89t-81.5 -38q-38 0 -61 21t-23 55q0 33 13.5 53t30.5 24.5t30.5 11.5t13.5 17q0 23 -18.5 37t-38.5 14q-19 0 -34.5 -7.5t-26 -20.5t-17.5 -35t-11.5 -45.5 t-7 -58.5t-3 -67.5t-0.5 -78.5v-963q0 -183 -23 -279.5t-72 -164.5q-28 -39 -76.5 -67.5t-105.5 -28.5q-51 0 -91.5 18t-63.5 46t-34.5 59t-11.5 61q0 51 28.5 89t78.5 38q38 0 63 -21t25 -55q0 -33 -13.5 -53t-30.5 -24.5t-30.5 -10.5t-13.5 -16q0 -24 18.5 -38.5 t38.5 -14.5q63 0 82 74.5t19 238.5zM924 -4v956q0 191 22 286t72 165q28 39 76.5 67.5t105.5 28.5q99 0 150 -56.5t51 -127.5q0 -51 -29.5 -89t-81.5 -38q-38 0 -61 21t-23 55q0 33 14 53t30 24.5t30 11.5t14 17q0 23 -18.5 37t-38.5 14q-19 0 -34.5 -7.5t-26 -20.5 t-17.5 -35t-11.5 -45.5t-7 -58.5t-3 -67.5t-0.5 -78.5v-963q0 -183 -23 -279.5t-72 -164.5q-28 -39 -76.5 -67.5t-105.5 -28.5q-51 0 -91.5 18t-63.5 46t-34.5 59t-11.5 61q0 51 28.5 89t78.5 38q38 0 63 -21t25 -55q0 -33 -14 -53t-30 -24.5t-30 -10.5t-14 -16 q0 -24 18.5 -38.5t38.5 -14.5q63 0 82 74.5t19 238.5zM371 -4v956q0 191 22 286t72 165q28 39 76.5 67.5t105.5 28.5q99 0 150 -56.5t51 -127.5q0 -51 -29.5 -89t-81.5 -38q-38 0 -61 21t-23 55q0 33 13.5 53t30.5 24.5t30.5 11.5t13.5 17q0 23 -18.5 37t-38.5 14 q-19 0 -34.5 -7.5t-26 -20.5t-17.5 -35t-11.5 -45.5t-7 -58.5t-3 -67.5t-0.5 -78.5v-963q0 -183 -23 -279.5t-72 -164.5q-28 -39 -76.5 -67.5t-105.5 -28.5q-51 0 -91.5 18t-63.5 46t-34.5 59t-11.5 61q0 51 28.5 89t78.5 38q38 0 63 -21t25 -55q0 -33 -13.5 -53 t-30.5 -24.5t-30.5 -10.5t-13.5 -16q0 -24 18.5 -38.5t38.5 -14.5q63 0 82 74.5t19 238.5z" />
<glyph unicode="&#x2a0d;" horiz-adv-x="921" d="M860 481h-270v-336q0 -69 -2.5 -116.5t-10.5 -112t-28.5 -118.5t-52.5 -97q-33 -44 -81.5 -70t-101.5 -26q-83 0 -141.5 51t-58.5 133q0 51 28 89t78 38q36 0 62 -20.5t26 -55.5q0 -33 -13.5 -53t-30.5 -24.5t-30.5 -10.5t-13.5 -16q0 -23 17 -38t40 -15q101 0 101 245 v553h-271v144h271v327q0 73 2 119t10 112t28.5 120.5t53.5 99.5q31 44 80 70t102 26q86 0 143.5 -50t57.5 -134q0 -53 -29.5 -90t-81.5 -37q-37 0 -60.5 20t-23.5 56q0 33 14 53t30.5 24.5t30.5 11.5t14 17q0 21 -18.5 36t-39.5 15q-100 0 -100 -245v-551h270v-144z" />
<glyph unicode="&#x2a0e;" horiz-adv-x="921" d="M860 338h-270q0 -25 1 -86t1 -96q0 -149 -19.5 -264.5t-76.5 -190.5q-33 -44 -81.5 -70t-101.5 -26q-83 0 -141.5 51t-58.5 133q0 51 28 89t78 38q36 0 62 -20.5t26 -55.5q0 -33 -13.5 -53t-30.5 -24.5t-30.5 -10.5t-13.5 -16q0 -23 17 -38t40 -15q101 0 101 245v410 h-271v143h271v144h-271v143h271v184q0 73 2 119t10 112t28.5 120.5t53.5 99.5q31 44 80 70t102 26q86 0 143.5 -50t57.5 -134q0 -53 -29.5 -90t-81.5 -37q-37 0 -60.5 20t-23.5 56q0 33 14 53t30.5 24.5t30.5 11.5t14 17q0 21 -18.5 36t-39.5 15q-100 0 -100 -245v-408h270 v-143h-270v-144h270v-143z" />
<glyph unicode="&#x2a0f;" horiz-adv-x="1126" d="M1061 942l-383 -383v-414q0 -69 -2.5 -116.5t-10.5 -112t-28.5 -118.5t-52.5 -97q-33 -44 -81.5 -70t-101.5 -26q-83 0 -141.5 51t-58.5 133q0 51 28 89t78 38q36 0 62 -20.5t26 -55.5q0 -33 -13.5 -53t-30.5 -24.5t-30.5 -10.5t-13.5 -16q0 -22 17.5 -37.5t40.5 -15.5 q100 0 100 245v418l-283 -283l-100 101l383 383v405q0 73 2 119t10 112t28.5 120.5t53.5 99.5q31 44 80 70t102 26q86 0 143.5 -50t57.5 -134q0 -53 -29.5 -90t-81.5 -37q-36 0 -59.5 20t-23.5 56q0 33 14 53t30 24.5t30 11.5t14 17q0 21 -18.5 36t-39.5 15 q-100 0 -100 -245v-416l283 282z" />
<glyph unicode="&#x2a10;" horiz-adv-x="980" d="M438 -4v145q-144 37 -238 155.5t-94 270.5t94 270.5t238 155.5q3 169 25 256t69 154q28 39 77 67.5t106 28.5q99 0 149.5 -56.5t50.5 -127.5q0 -51 -29 -89t-81 -38q-38 0 -61 21t-23 55q0 33 13.5 53t30.5 24.5t30.5 11.5t13.5 17q0 23 -18.5 37t-38.5 14q-27 0 -46 -15 t-29.5 -38.5t-16.5 -66.5t-7.5 -85.5t-1.5 -107.5v-115q154 -43 244 -164l-68 -79q-68 99 -176 137v-639q45 14 90 47l58 -86q-63 -46 -148 -68q0 -181 -22.5 -276.5t-71.5 -163.5q-28 -39 -76.5 -67.5t-105.5 -28.5q-51 0 -91.5 18t-63.5 46t-34.5 59t-11.5 61 q0 51 28.5 89t78.5 38q38 0 63 -21t25 -55q0 -33 -13.5 -53t-30.5 -24.5t-30.5 -10.5t-13.5 -16q0 -24 18.5 -38.5t38.5 -14.5q63 0 81.5 74t18.5 239zM438 248v639q-101 -34 -165 -121.5t-64 -198.5t64 -198t165 -121z" />
<glyph unicode="&#x2a11;" horiz-adv-x="1046" d="M979 573l-39 -24q-47 84 -68 84q-3 0 -7 -3.5t-6 -7t-5 -8.5t-4 -6q-49 -83 -112 -131t-154 -65v-267q0 -71 -2 -117t-10.5 -111t-29 -118.5t-53.5 -97.5q-31 -44 -80 -70t-102 -26q-83 0 -142 51t-59 133q0 51 28.5 89t78.5 38q36 0 62 -20.5t26 -55.5q0 -33 -13.5 -53 t-30.5 -24.5t-30.5 -10.5t-13.5 -16q0 -23 17 -38t40 -15q101 0 101 243v506q-111 45 -177.5 141.5t-66.5 217.5h102q0 -77 38 -146.5t104 -103.5v411q0 77 2 120t9.5 110t28.5 121t54 100q31 44 80 70t102 26q86 0 143.5 -50t57.5 -134q0 -53 -29.5 -90t-81.5 -37 q-37 0 -60.5 20t-23.5 56q0 33 13.5 53t30.5 24.5t30.5 11.5t13.5 17q0 21 -18 36t-39 15q-100 0 -100 -243v-660q118 29 176 135q4 8 4 15q0 14 -21 14q-14 0 -28 -2.5t-33 -7t-27 -6.5l-14 45q146 23 217 80l10 -5q13 -80 111 -213z" />
<glyph unicode="&#x2a12;" horiz-adv-x="1001" d="M920 162h-336q0 -76 -2 -121.5t-10 -114.5t-29 -125t-54 -100t-81 -70t-101 -26q-83 0 -142 51t-59 133q0 51 28.5 89t78.5 38q36 0 62 -20.5t26 -55.5q0 -33 -13.5 -53t-30.5 -24.5t-30.5 -10.5t-13.5 -16q0 -23 17 -38t40 -15q101 0 101 245v336h446v608h-446v103 q0 93 4 152.5t26 139.5t64 136q31 44 80 70t102 26q86 0 143.5 -50t57.5 -134q0 -53 -29.5 -90t-81.5 -37q-37 0 -60.5 20t-23.5 56q0 33 13.5 53t30.5 24.5t30.5 11.5t13.5 17q0 21 -18 36t-39 15q-100 0 -100 -245v-201h336v-813zM647 573q0 -72 -49 -122t-121 -50 q-77 0 -124.5 47.5t-47.5 124.5q0 70 50.5 120t121.5 50q69 0 119.5 -50.5t50.5 -119.5z" />
<glyph unicode="&#x2a13;" horiz-adv-x="997" d="M584 1108v-115q144 -37 237.5 -155.5t93.5 -270.5t-93.5 -270.5t-237.5 -155.5q0 -181 -22.5 -276.5t-72.5 -163.5q-28 -39 -76.5 -67.5t-105.5 -28.5q-51 0 -91.5 18t-63.5 46t-34.5 59t-11.5 61q0 51 28.5 89t78.5 38q38 0 63 -21t25 -55q0 -33 -13.5 -53t-30.5 -24.5 t-30.5 -10.5t-13.5 -16q0 -24 18.5 -38.5t38.5 -14.5q63 0 82 74.5t19 238.5v252q56 -17 106 -17q139 0 237.5 98.5t98.5 237.5t-98.5 237.5t-237.5 98.5q-53 0 -106 -16v106q0 168 22.5 255t71.5 155q28 39 76.5 67.5t105.5 28.5q99 0 150 -56.5t51 -127.5q0 -51 -29.5 -89 t-81.5 -38q-38 0 -61 21t-23 55q0 33 13.5 53t30.5 24.5t30.5 11.5t13.5 17q0 23 -18.5 37t-38.5 14q-19 0 -34.5 -7.5t-26 -20.5t-17.5 -35t-11.5 -45.5t-7 -58.5t-3 -67.5t-0.5 -78.5zM647 573q0 -72 -49 -122t-121 -50q-77 0 -124.5 47.5t-47.5 124.5q0 70 50.5 120 t121.5 50q69 0 119.5 -50.5t50.5 -119.5z" />
<glyph unicode="&#x2a14;" horiz-adv-x="1171" d="M825 573q0 -72 -49 -122t-121 -50q-77 0 -124.5 47.5t-47.5 124.5q0 70 50.5 120t121.5 50q69 0 119.5 -50.5t50.5 -119.5zM584 1176v-177q44 7 71 7q181 0 310 -129t129 -310t-128.5 -309.5t-310.5 -128.5q-33 0 -71 6q0 -91 -4 -152.5t-26.5 -144t-64.5 -137.5 q-33 -44 -81 -70t-101 -26q-83 0 -142 51t-59 133q0 51 28.5 89t78.5 38q36 0 62 -20.5t26 -55.5q0 -33 -13.5 -53t-30.5 -24.5t-30.5 -10.5t-13.5 -16q0 -23 17 -38t40 -15q101 0 101 245v463q44 -75 120 -117.5t164 -42.5q139 0 237.5 98.5t98.5 237.5t-98.5 237.5 t-237.5 98.5q-90 0 -165 -42t-119 -118v209q0 74 2 119.5t10 112t28.5 121t53.5 98.5t81 70t101 26q86 0 143.5 -50t57.5 -134q0 -53 -29.5 -90t-81.5 -37q-37 0 -60.5 20t-23.5 56q0 33 13.5 53t30.5 24.5t30.5 11.5t13.5 17q0 21 -18 36t-39 15q-100 0 -100 -245z" />
<glyph unicode="&#x2a15;" horiz-adv-x="1064" d="M715 573q0 -72 -49 -122t-121 -50q-77 0 -124.5 47.5t-47.5 124.5q0 70 50.5 120t121.5 50q69 0 119.5 -50.5t50.5 -119.5zM651 1108v-115q144 -37 238 -155.5t94 -270.5t-94 -270.5t-238 -155.5q0 -182 -22.5 -277t-71.5 -163q-28 -39 -76.5 -67.5t-105.5 -28.5 q-51 0 -91.5 18t-63.5 46t-34.5 59t-11.5 61q0 51 28.5 89t78.5 38q38 0 63 -21t25 -55q0 -33 -13.5 -53t-30.5 -24.5t-30.5 -10.5t-13.5 -16q0 -24 18.5 -38.5t38.5 -14.5q63 0 81.5 74t18.5 239v145q-144 37 -238 155.5t-94 270.5t94 270.5t238 155.5q3 170 24.5 257 t69.5 153q28 39 77 67.5t106 28.5q99 0 149.5 -56.5t50.5 -127.5q0 -51 -29 -89t-81 -38q-38 0 -61 21t-23 55q0 33 13.5 53t30.5 24.5t30.5 11.5t13.5 17q0 23 -18.5 37t-38.5 14q-27 0 -46 -15t-29.5 -38.5t-16.5 -66.5t-7.5 -85.5t-1.5 -107.5zM881 567 q0 139 -98.5 237.5t-237.5 98.5t-237.5 -98.5t-98.5 -237.5t98.5 -237.5t237.5 -98.5t237.5 98.5t98.5 237.5z" />
<glyph unicode="&#x2a16;" horiz-adv-x="1071" d="M989 162h-336q0 -77 -2 -121.5t-9.5 -114.5t-28.5 -125.5t-54 -99.5t-81 -70t-101 -26q-83 0 -142 51t-59 133q0 51 28.5 89t78.5 38q36 0 62 -20.5t26 -55.5q0 -33 -13.5 -53t-30.5 -24.5t-30.5 -10.5t-13.5 -16q0 -23 17 -38t40 -15q100 0 100 245v234h-334v813h334 q1 72 3.5 114t11 105.5t28.5 114.5t52 94q31 44 80 70t102 26q86 0 143.5 -50t57.5 -134q0 -53 -29.5 -90t-81.5 -37q-37 0 -60.5 20t-23.5 56q0 33 13.5 53t30.5 24.5t30.5 11.5t13.5 17q0 21 -18 36t-39 15q-101 0 -101 -245v-201h336v-813zM887 264v608h-234v-608h234z M440 264v608h-231v-608h231z" />
<glyph unicode="&#x2a17;" horiz-adv-x="1228" d="M793 707h245q128 0 206.5 -58.5t78.5 -181.5q0 -125 -77.5 -184.5t-207.5 -59.5h-110v154h119q122 0 122 86q0 90 -120 90h-256v-408q0 -93 -4 -156.5t-26.5 -147.5t-64.5 -140q-33 -44 -81 -70t-101 -26q-83 0 -142 51t-59 133q0 51 28.5 89t78.5 38q36 0 62 -20.5 t26 -55.5q0 -33 -14 -53t-30 -24.5t-30 -10.5t-14 -16q0 -23 17 -38t40 -15q101 0 101 245v625h-244q-25 0 -25 -14q0 -9 8 -21l26 -32.5t29.5 -37.5t23.5 -31.5t27 -39.5t21 -37l-45 -41q-96 119 -185.5 198.5t-199.5 116.5v25q109 35 202 111t183 184l43 -43 q-5 -7 -39.5 -51.5t-65 -84t-30.5 -42.5q0 -6 13 -6h258v245q0 76 2 119.5t9.5 111t28.5 121.5t54 99q31 44 80 70t102 26q86 0 143.5 -50t57.5 -134q0 -53 -29.5 -90t-81.5 -37q-37 0 -60.5 20t-23.5 56q0 33 14 53t30 24.5t30 11.5t14 17q0 21 -18 36t-39 15 q-100 0 -100 -245v-469z" />
<glyph unicode="&#x2a18;" horiz-adv-x="1034" d="M956 254l-102 -102l-238 208v-213q0 -69 -2.5 -116.5t-10.5 -112t-28.5 -118.5t-52.5 -97q-33 -44 -81 -70t-101 -26q-83 0 -142 51t-59 133q0 51 28.5 89t78.5 38q36 0 62 -20.5t26 -55.5q0 -33 -14 -53t-30 -24.5t-30 -10.5t-14 -16q0 -23 17 -38t40 -15q100 0 100 245 v430l-237 -208l-103 102l338 297l-338 297l99 106l241 -213v213q0 72 2 119t10.5 112t29 120t53.5 100q31 44 80 70t102 26q86 0 143.5 -50t57.5 -134q0 -53 -29.5 -90t-81.5 -37q-37 0 -60.5 20t-23.5 56q0 33 14 53t30 24.5t30 11.5t14 17q0 21 -18 36t-39 15 q-101 0 -101 -245v-437l242 213l98 -106l-338 -297z" />
<glyph unicode="&#x2a19;" horiz-adv-x="1056" d="M975 127h-144v436q0 95 -51 172t-133 109v-699q0 -184 -22.5 -280t-71.5 -164q-28 -39 -76.5 -67.5t-105.5 -28.5q-51 0 -91.5 18t-63.5 46t-34.5 59t-11.5 61q0 51 28 89t78 38q39 0 64 -21.5t25 -54.5t-14 -53t-30.5 -24.5t-30.5 -10.5t-14 -16q0 -24 19 -38.5 t39 -14.5q63 0 81.5 74t18.5 239v848q-82 -32 -133 -109t-51 -172v-436h-144v436q0 156 92.5 276.5t235.5 155.5q3 169 24.5 255.5t69.5 152.5q28 39 77 67.5t106 28.5q99 0 149.5 -56.5t50.5 -127.5q0 -51 -29 -89t-81 -38q-38 0 -61 21t-23 55q0 33 13.5 53t30.5 24.5 t30.5 11.5t13.5 17q0 23 -18.5 37t-38.5 14q-27 0 -46 -15t-29.5 -38.5t-16.5 -66.5t-7.5 -85.5t-1.5 -107.5v-115q144 -37 236 -156t92 -274v-436z" />
<glyph unicode="&#x2a1a;" horiz-adv-x="1056" d="M975 1008v-437q0 -155 -92 -274t-236 -156q0 -181 -22.5 -276.5t-71.5 -163.5q-28 -39 -76.5 -67.5t-105.5 -28.5q-51 0 -91.5 18t-63.5 46t-34.5 59t-11.5 61q0 51 28 89t78 38q39 0 64 -21.5t25 -54.5t-14 -53t-30.5 -24.5t-30.5 -10.5t-14 -16q0 -24 19 -38.5 t39 -14.5q63 0 81.5 74t18.5 239v143q-144 37 -236 157t-92 275v437h144v-437q0 -95 51 -171t133 -109v661q0 191 22 286t72 165q28 39 77 67.5t106 28.5q99 0 149.5 -56.5t50.5 -127.5q0 -51 -29 -89t-81 -38q-38 0 -61 21t-23 55q0 33 13.5 53t30.5 24.5t30.5 11.5 t13.5 17q0 23 -18.5 37t-38.5 14q-27 0 -46 -15t-29.5 -38.5t-16.5 -66.5t-7.5 -85.5t-1.5 -107.5v-817q82 33 133 109t51 171v437h144z" />
<glyph unicode="&#x2a1b;" horiz-adv-x="825" d="M877 1499h-795v143h795v-143zM377 -4v895q0 191 22 285.5t72 164.5q29 39 77 68t105 29q99 0 150 -57t51 -128q0 -51 -29.5 -89t-81.5 -38q-38 0 -61 21t-23 55q0 33 14 53t30.5 25t30.5 12t14 17q0 23 -19 37t-39 14q-19 0 -34.5 -7.5t-26 -20.5t-17.5 -35t-11.5 -45.5 t-7 -58.5t-3 -67.5t-0.5 -78.5v-902q0 -184 -22.5 -280t-71.5 -164q-28 -39 -77 -67.5t-106 -28.5q-51 0 -91 18t-63 46t-34.5 59t-11.5 61q0 51 28 89t78 38q38 0 63 -21t25 -55q0 -33 -13.5 -53t-30.5 -24.5t-30.5 -10.5t-13.5 -16q0 -24 18.5 -38.5t38.5 -14.5 q63 0 82 74.5t19 238.5z" />
<glyph unicode="&#x2a1c;" horiz-adv-x="841" d="M401 37v915q0 190 22.5 285t72.5 166q28 39 76.5 67.5t105.5 28.5q99 0 150 -56.5t51 -127.5q0 -51 -29.5 -89t-81.5 -38q-38 0 -61 21t-23 55q0 33 14 53t30 24.5t30 11.5t14 17q0 23 -18.5 37t-38.5 14q-27 0 -46 -15t-29.5 -38.5t-16.5 -66.5t-7.5 -85.5t-1.5 -107.5 v-922q0 -184 -22.5 -280t-71.5 -164q-28 -39 -76.5 -67.5t-105.5 -28.5q-51 0 -91.5 18t-63.5 46t-34.5 59t-11.5 61q0 51 28.5 89t78.5 38q38 0 63 -21t25 -55q0 -33 -14 -53t-30 -24.5t-30 -10.5t-14 -16q0 -24 18.5 -38.5t38.5 -14.5q63 0 81.5 74t18.5 239zM901 -549 h-795v143h795v-143z" />
<glyph unicode="&#xe000;" horiz-adv-x="1024" d="M0 0z" />
</font>
</defs>
</svg>
