<?xml version="1.0" standalone="no"?>
<!DOCTYPE svg PUBLIC "-//W3C//DTD SVG 1.1//EN" "http://www.w3.org/Graphics/SVG/1.1/DTD/svg11.dtd" >
<svg xmlns="http://www.w3.org/2000/svg">
<metadata></metadata>
<defs>
<font id="STIXNonUnicodeBoldItalic" horiz-adv-x="1024" >
<font-face units-per-em="2048" ascent="1536" descent="-512" />
<missing-glyph horiz-adv-x="512" />
<glyph unicode=" "  horiz-adv-x="512" />
<glyph unicode="&#x09;" horiz-adv-x="512" />
<glyph unicode="&#xa0;" horiz-adv-x="512" />
<glyph unicode="&#xe000;" d="M0 0z" />
<glyph unicode="&#xe09c;" horiz-adv-x="1589" d="M1567 1587l-334 -807l94 -436q28 -133 51 -192.5t51.5 -80t83.5 -20.5v-51h-604l-198 -481h-111l367 884h-129l-367 -884h-111l367 884h-207l-43 -69q-35 -55 -64.5 -116.5t-29.5 -90.5q0 -68 104 -76v-51h-405v51q52 9 87 28.5t78.5 69.5t102.5 146l688 1118h58l16 -78 l105 252h110l-178 -428l45 -205l262 633h111zM973 483l-35 164l-68 -164h103zM901 823l-33 154h-4l-303 -494h199zM1020 268l-88 -213q100 18 100 125q0 41 -6 64z" />
<glyph unicode="&#xe09d;" horiz-adv-x="1554" d="M1595 1384l-92 -395l-51 10q0 99 -15.5 146.5t-52.5 83.5l-174 -424l-110 -402l-51 9l-142 -342q149 16 260 84q69 42 133 110.5t101 143.5l53 -11l-123 -397h-454l-199 -481h-111l199 481h-129l-199 -481h-110l198 481h-436v51q99 13 133.5 42.5t59.5 117.5l262 946 q12 46 12 80q0 49 -42 71t-132 25v51h717l84 203h110l-84 -203h129l84 203h111l-84 -203h145zM1120 856l176 426q-54 20 -118 25l-220 -531q105 18 162 80zM1071 1315h-31q-76 0 -108.5 -25t-48.5 -86l-121 -436h84zM793 63l231 562q-32 43 -104 59l-254 -616q25 -5 75 -5 h52zM602 182l213 514q-23 2 -74 2z" />
<glyph unicode="&#xe09e;" horiz-adv-x="1347" d="M1579 1384l-94 -413l-51 8q0 159 -56 233l-211 -512l-86 -309l-41 6l-362 -878h-111l199 481h-129l-199 -481h-110l198 481h-436v51q99 13 133.5 42.5t59.5 117.5l262 946q12 43 12 78q0 89 -174 98v51h717l84 203h110l-84 -203h129l84 203h111l-84 -203h129zM1130 881 l164 397q-44 20 -116 29l-224 -541q61 10 101.5 37t74.5 78zM1071 1315h-10q-78 0 -118.5 -24t-55.5 -81l-127 -454h80zM776 23l238 575q-23 50 -99 72l-251 -607q41 -9 112 -12v-28zM600 174l211 510q-23 2 -72 2l-131 -479q-4 -11 -8 -33z" />
<glyph unicode="&#xe0b3;" horiz-adv-x="1138" d="M55 920h156q47 139 70 196.5t60.5 113.5t96.5 103q60 49 142 78t168 29q136 0 223.5 -54.5t87.5 -140.5q0 -53 -32.5 -86t-84.5 -33q-51 0 -85 33.5t-34 81.5q0 33 12.5 61t12.5 41q0 35 -53 35q-57 0 -106.5 -20t-78.5 -55q-49 -60 -80 -135.5t-77 -247.5h239 q128 0 365 26l-238 -909q-64 -242 -166 -349.5t-258 -107.5q-96 0 -155.5 45t-59.5 113q0 44 30 76t71 32q45 0 74.5 -27.5t29.5 -72.5q0 -23 -17.5 -41t-17.5 -31q0 -14 14.5 -22t34.5 -8q44 0 79.5 62t72.5 212l182 717q25 95 25 137q0 62 -72 62h-254l-192 -789 q-20 -80 -65.5 -174t-92.5 -154q-51 -64 -122 -100.5t-146 -36.5q-86 0 -142.5 45.5t-56.5 114.5q0 50 28 81.5t72 31.5t74.5 -29.5t30.5 -73.5q0 -26 -19.5 -47.5t-19.5 -32.5q0 -20 35 -20q67 0 103.5 70.5t86.5 291.5l182 822h-153z" />
<glyph unicode="&#xe1f6;" d="M1184 973q0 -132 -37 -283q-79 -317 -260.5 -517t-382.5 -200q-150 0 -236 116.5t-86 316.5q0 134 39 284q77 317 258.5 518t382.5 201q151 0 236.5 -117t85.5 -319zM940 1016q0 198 -127 198q-206 0 -334 -516q-51 -202 -51 -329q0 -201 125 -201q56 0 108 42t94 118 t76 167t62 203q47 193 47 318z" />
<glyph unicode="&#xe1f7;" d="M1034 1409l-350 -1409h-246l277 1110l-297 -102l47 184l530 217h39z" />
<glyph unicode="&#xe1f8;" d="M506 987h-195q84 194 231.5 308t329.5 114q153 0 235.5 -80t82.5 -207q0 -80 -19 -147.5t-65 -135.5t-103 -129.5t-153 -150.5l-393 -364h561l-115 -195h-862l10 47l649 615q100 95 167 200t67 197q0 67 -38 111t-110 44q-76 0 -150.5 -55.5t-129.5 -171.5z" />
<glyph unicode="&#xe1f9;" d="M537 1022l-168 63q93 150 226.5 237t291.5 87q137 0 225 -72t88 -192q0 -93 -62.5 -205.5t-168.5 -171.5l-2 -4q60 -32 97.5 -94.5t37.5 -141.5q0 -77 -34.5 -159t-84.5 -146q-96 -121 -246 -185.5t-319 -64.5q-116 0 -203 31.5t-149 118.5l159 158q36 -57 105.5 -85 t150.5 -28q91 0 171.5 30.5t135 96t54.5 154.5q0 55 -29 94.5t-79.5 61t-108.5 31t-127 9.5l8 33l162 162q118 0 202 79.5t84 170.5q0 61 -41.5 92.5t-111.5 31.5q-71 0 -141.5 -46t-122.5 -146z" />
<glyph unicode="&#xe1fa;" d="M1194 1409l-229 -917h147l-92 -195h-102l-74 -297h-246l74 297h-559l57 229l860 883h164zM840 971l-469 -479h348z" />
<glyph unicode="&#xe1fb;" d="M1333 1384l-131 -215h-461l-133 -237q75 -4 139.5 -16.5t126.5 -38t105 -63.5t69.5 -95.5t26.5 -130.5q0 -58 -14 -113q-38 -151 -138 -267t-233.5 -175.5t-279.5 -59.5q-118 0 -205.5 31.5t-149.5 118.5l160 158q85 -113 250 -113q134 0 235 95.5t101 223.5 q0 39 -16.5 69.5t-43 51t-67 35.5t-79 23t-90.5 13t-91 6t-88 1l-25 23l358 675h674z" />
<glyph unicode="&#xe1fc;" d="M1307 1391l-136 -177q-78 -6 -172 -39.5t-184.5 -87t-169.5 -130t-123 -160.5l4 -2q116 73 260 73q84 0 153 -31.5t114 -101.5t45 -168q0 -119 -48.5 -229.5t-128.5 -190t-186 -127t-217 -47.5q-177 0 -265.5 106.5t-88.5 278.5q0 152 58 302t147.5 264.5t201.5 201.5 q174 134 328.5 191t396.5 92zM844 516q0 73 -35.5 115.5t-106.5 42.5q-70 0 -144.5 -43.5t-135.5 -132.5q-16 -72 -16 -129q0 -93 41 -147t124 -54q54 0 101 24t77.5 61.5t52.5 84.5t32 92.5t10 85.5z" />
<glyph unicode="&#xe1fd;" d="M1309 1384l-826 -1384h-237l715 1149h-605l107 235h846z" />
<glyph unicode="&#xe1fe;" d="M1217 1147q0 -134 -83.5 -231.5t-248.5 -170.5q96 -78 138 -149.5t42 -149.5q0 -91 -39 -176t-109 -151t-177.5 -106t-233.5 -40q-181 0 -279 70t-98 201q0 136 93.5 263.5t262.5 209.5q-147 104 -147 246q0 121 75 224.5t199 162.5t265 59q151 0 245.5 -72t94.5 -190z M975 1100q0 54 -45.5 84t-122.5 30q-100 0 -160.5 -53t-60.5 -123q0 -93 155 -170q117 48 175.5 108.5t58.5 123.5zM811 391q0 54 -41 101.5t-135 111.5q-248 -122 -248 -287q0 -59 39.5 -104t126.5 -45q99 0 178.5 64.5t79.5 158.5z" />
<glyph unicode="&#xe1ff;" d="M846 586l-4 2q-114 -74 -260 -74q-131 0 -220.5 78t-89.5 225q0 120 48.5 230.5t128 189t185 125.5t216.5 47q177 0 265.5 -106.5t88.5 -278.5q-1 -152 -59.5 -302.5t-147 -265t-198.5 -200.5q-179 -137 -338.5 -196t-394.5 -87l-9 19l133 176q106 8 233.5 62t246 149.5 t176.5 206.5zM965 1014q0 92 -43 146t-125 54q-67 0 -121.5 -35.5t-85.5 -90.5t-47.5 -112.5t-16.5 -109.5q0 -73 35.5 -115t106.5 -42q69 0 143 43.5t135 132.5q19 74 19 129z" />
<glyph unicode="&#xe200;" horiz-adv-x="1501" d="M1366 0h-414l-45 408h-506l-239 -408h-148l807 1370h398zM1221 129l-115 1114h-156l117 -1114h154zM893 537l-62 589h-4l-350 -589h416z" />
<glyph unicode="&#xe201;" horiz-adv-x="1492" d="M406 1370h663q61 0 116 -9t106.5 -30.5t88.5 -54.5t59.5 -85t22.5 -118q0 -124 -66.5 -233.5t-178.5 -155.5l-3 -8q45 -35 73 -97t28 -122q0 -113 -45.5 -202.5t-123 -144t-174 -82.5t-204.5 -28h-731zM1243 1210l-115 -422q91 15 148 87.5t57 166.5q0 61 -20 97.5 t-70 70.5zM991 784l121 447q-98 10 -119 10h-194l-125 -467h219q59 0 98 10zM1085 623l-127 -473q92 22 160 102t68 174q0 61 -25 105t-76 92zM664 1241h-158l-299 -1112h158zM823 145l131 496q-16 4 -118 4h-197l-139 -516h219q83 0 104 16z" />
<glyph unicode="&#xe203;" horiz-adv-x="1392" d="M1440 1370l-33 -129h-608l-127 -471h569l-33 -129h-571l-137 -512h649l-33 -129h-1079l369 1370h1034zM664 1241h-158l-299 -1112h158z" />
<glyph unicode="&#xe204;" horiz-adv-x="970" d="M1440 1370l-33 -129h-608l-129 -481h571l-33 -129h-573l-170 -631h-428l369 1370h1034zM664 1241h-158l-299 -1112h158z" />
<glyph unicode="&#xe205;" horiz-adv-x="1470" d="M1450 1118l-86 -78q-13 14 -40.5 43t-38 40t-34 34t-35.5 31.5t-34.5 25t-39.5 22.5t-42 15.5t-49.5 13t-56 6.5t-66.5 3q-61 0 -136.5 -12t-125.5 -33l-287 -1067q47 -31 123.5 -46.5t144.5 -15.5q125 0 178 35l119 438h-217l33 129h643l-135 -509 q-173 -117 -324 -169.5t-344 -52.5q-236 0 -382 142.5t-146 378.5q0 179 66 345.5t179.5 291.5t276 199.5t344.5 74.5q180 0 303 -67t209 -218zM1233 573h-156l-108 -395q59 13 190 101zM266 256l236 879q-140 -115 -220.5 -274.5t-80.5 -334.5q0 -163 65 -270z" />
<glyph unicode="&#xe206;" horiz-adv-x="782" d="M842 1370l-369 -1370h-428l369 1370h428zM672 1241h-158l-299 -1112h158z" />
<glyph unicode="&#xe207;" horiz-adv-x="1234" d="M1319 1370l-270 -1005q-38 -140 -126.5 -230t-203.5 -127t-262 -37q-108 0 -198.5 37.5t-151 116.5t-68.5 188l135 52q2 -9 8.5 -34.5t9.5 -35t10 -31.5t12.5 -32t16 -27t21.5 -26.5t26.5 -20.5t34.5 -19q92 -39 179 -39q21 0 61 4l340 1266h426zM1151 1239h-166 l-297 -1108q82 20 141.5 78.5t81.5 138.5z" />
<glyph unicode="&#xe208;" horiz-adv-x="1568" d="M1569 1270l-494 -363l318 -907h-437l-231 649l-107 -78l-153 -571h-428l369 1370h428l-162 -598h4l813 598zM1210 129l-243 698l-133 -98l213 -600h163zM664 1241h-158l-299 -1112h158z" />
<glyph unicode="&#xe209;" horiz-adv-x="1255" d="M1163 129l-33 -129h-1093l369 1370h430l-336 -1241h663zM664 1241h-158l-299 -1112h158z" />
<glyph unicode="&#xe20a;" horiz-adv-x="1867" d="M1931 1370q-69 -269 -202.5 -767t-161.5 -603h-424l213 811h-4l-488 -811h-389l-67 809h-5l-217 -809h-133l367 1370h364l88 -1110h2q46 77 287 484t367 626h403zM1763 1241h-157l-297 -1112h159zM748 129l-86 1112h-142l-12 -37l84 -1075h156z" />
<glyph unicode="&#xe20b;" horiz-adv-x="1533" d="M1503 883q0 -248 -113.5 -456.5t-316.5 -332t-452 -123.5q-248 0 -398.5 137.5t-150.5 383.5q0 179 66 345.5t179.5 291.5t276 199.5t344.5 74.5q256 0 410.5 -134t154.5 -386zM1305 1100l-230 -854q144 92 221.5 257t77.5 345q0 148 -69 252zM915 152l283 1050 q-54 33 -129 52.5t-141 19.5q-168 0 -262 -47l-283 -1057q46 -34 121.5 -52t142.5 -18q155 0 268 52zM274 270l232 869q-143 -95 -224 -264t-81 -349q0 -147 73 -256z" />
<glyph unicode="&#xe20c;" horiz-adv-x="1404" d="M1456 1112l-100 -90q-46 60 -75 93.5t-69 68.5t-78.5 51.5t-92 27.5t-121.5 11q-162 0 -232 -146q-14 -37 -14 -55q0 -45 32 -84t83 -70t112.5 -62.5t123.5 -67t113 -76.5t83 -99t32 -127q0 -106 -39 -193.5t-103.5 -146.5t-151.5 -99.5t-180 -58.5t-191 -18 q-172 0 -300 69t-227 212l91 98q14 -16 45.5 -53t42 -48.5t37 -39t39 -35.5t38.5 -25.5t46.5 -22.5t51 -13.5t64 -10.5t74.5 -2q59 0 121 25t107.5 75t45.5 111q0 46 -32 84t-83 67t-112.5 58t-123.5 64.5t-113 77t-83 105t-32 140.5q0 102 39 187t103 141t149.5 95t176 56 t185.5 17q122 0 214.5 -32.5t161.5 -93.5t142 -165zM940 180l4 -2q79 40 129.5 112t50.5 156q0 58 -32 108t-83 86.5t-112.5 70t-123.5 66t-113 66.5t-83 80t-32 99q0 58 10.5 98.5t42.5 79.5l-6 4q-83 -40 -130.5 -112.5t-47.5 -163.5q0 -64 32 -115.5t83 -85.5 t112.5 -64.5t123.5 -61t113 -64.5t83 -85.5t32 -115.5q0 -91 -53 -156z" />
<glyph unicode="&#xe20d;" horiz-adv-x="911" d="M1337 1370l-32 -129h-398l-334 -1241h-428l334 1241h-418l33 129h1243zM772 1241h-158l-299 -1112h158z" />
<glyph unicode="&#xe20e;" horiz-adv-x="1452" d="M1546 1370l-254 -948q-31 -115 -105 -203.5t-173 -141.5t-210.5 -79.5t-228.5 -26.5q-73 0 -140.5 10t-135 35t-117 64t-80 102t-30.5 144q0 75 28 178l234 866h426l-334 -1245q11 -2 42.5 -8t48 -8.5t42 -5.5t45.5 -3q84 0 170 19.5t165.5 58t139.5 104t82 148.5 l250 940h135zM594 1241h-162l-219 -813q-12 -44 -12 -96q0 -38 4.5 -62t19 -44t29.5 -32t49 -36z" />
<glyph unicode="&#xe20f;" horiz-adv-x="1032" d="M1444 1370l-815 -1370h-408l-135 1370h418l110 -1139h4l672 1139h154zM496 129l-111 1112h-158l109 -1112h160z" />
<glyph unicode="&#xe210;" horiz-adv-x="1824" d="M2030 1370l-582 -1370h-447v918h-2l-387 -918h-446v1370h418l-2 -1104h4l467 1104h364v-1106h4l471 1106h138zM1288 129v1112h-158v-1112h158zM453 129v1112h-158v-1112h158z" />
<glyph unicode="&#xe211;" horiz-adv-x="1554" d="M1704 1370l-651 -594l356 -776h-457l-221 485l-532 -485h-185l664 604l-348 766h450l217 -475l523 475h184zM1206 129l-506 1112h-172l506 -1112h172z" />
<glyph unicode="&#xe212;" horiz-adv-x="946" d="M1462 1370l-669 -766l-162 -604h-430l153 569l-334 801h447l266 -629h6l553 629h170zM655 596l-276 645h-168l281 -661l-121 -451h161z" />
<glyph unicode="&#xe213;" horiz-adv-x="1298" d="M315 590l-84 90q95 107 174 162t177.5 79.5t248.5 24.5q97 0 180 -32.5t139 -104t56 -170.5q0 -82 -16 -145l-131 -494h-385l18 74h-4q-77 -65 -145.5 -83t-186.5 -18q-114 0 -189 57.5t-75 168.5q0 88 46 158.5t126 105.5q42 18 121 30t153 21t145 26t114 56.5t43 101.5 q0 52 -21.5 85.5t-70.5 33.5q-61 0 -113 -12t-88 -27t-81.5 -50.5t-71 -59.5t-79.5 -78zM956 129l103 373q18 64 18 137q0 56 -35.5 102.5t-89.5 65.5l-4 -4q21 -38 21 -94q0 -50 -31 -172l-107 -408h125zM782 446h-6q-58 -28 -129 -45t-129 -16l-74 -274q21 -9 48 -9 q81 0 162.5 83t103.5 167zM311 106l72 263q-69 -8 -115.5 -48.5t-46.5 -107.5q0 -40 25.5 -70.5t64.5 -36.5z" />
<glyph unicode="&#xe214;" horiz-adv-x="1353" d="M846 1432l-150 -562q102 76 248 76q141 0 232.5 -95t91.5 -237q0 -118 -38.5 -231.5t-107 -205t-173.5 -148t-228 -56.5q-69 0 -135.5 24t-102.5 71l-18 -68h-395l385 1432h391zM1073 760l-168 -625q69 40 123.5 115.5t82.5 162.5t28 169q0 50 -16 101.5t-50 76.5z M768 111l184 690q-43 16 -65 16q-73 0 -154 -60t-100 -130l-80 -297q-4 -14 -4 -49q0 -69 36 -124t101 -55q42 0 82 9zM682 1303h-131l-315 -1174h131z" />
<glyph unicode="&#xe215;" horiz-adv-x="1169" d="M1116 696l-94 -94q-24 27 -54.5 69t-48 62t-48 43t-72 32t-101.5 9q-91 0 -112 -16l-178 -672q56 -27 114 -27q61 0 105.5 9.5t78.5 30.5t57 41.5t61 57.5t71 64l80 -88q-109 -135 -217 -189.5t-277 -54.5q-173 0 -281 100.5t-108 272.5t84.5 310.5t227 214t313.5 75.5 q137 0 233 -63t166 -187zM283 156l161 602q-102 -68 -162.5 -178t-60.5 -232q0 -44 2 -71.5t17 -65t43 -55.5z" />
<glyph unicode="&#xe217;" horiz-adv-x="1177" d="M924 268l73 -78q-138 -217 -489 -217q-181 0 -298.5 98.5t-117.5 276.5q0 174 84 311.5t226.5 212t314.5 74.5q95 0 182 -35.5t147 -109.5t60 -172q0 -19 -2.5 -40.5t-5.5 -37.5t-9.5 -41.5t-10 -37t-12 -40.5t-11.5 -37h-576l-71 -272q37 -21 114 -21q76 0 122.5 5 t88.5 24t70.5 40t84.5 67q23 19 36 30zM831 524h123q23 67 23 107q0 77 -82 131zM700 524l74 277q-31 16 -76 16q-89 0 -112 -29l-72 -264h186zM446 762q-98 -63 -161.5 -180t-63.5 -234q0 -59 14 -98t50 -92q136 517 161 604z" />
<glyph unicode="&#xe218;" horiz-adv-x="897" d="M1266 1329l-97 -119q-60 49 -113 69.5t-126 20.5q-41 0 -96 -10l-99 -370h258l-35 -129h-258l-213 -791h-395l213 791h-213l35 129h213l31 114q54 198 206 298t365 100q223 0 324 -103zM393 129l309 1149q-77 -41 -131 -108t-73 -138l-242 -903h137z" />
<glyph unicode="&#xe219;" horiz-adv-x="1363" d="M928 920h387l-256 -957q-21 -79 -56 -140t-82 -102.5t-100.5 -69.5t-121 -43.5t-132.5 -21.5t-145 -6q-264 0 -365 197l113 80q43 -86 101 -117t159 -31q117 0 172 17l90 323h-4q-99 -76 -248 -76q-141 0 -232 95.5t-91 236.5q0 121 37.5 235t105 205t173 146t231.5 55 q73 0 136 -26.5t101 -81.5h4zM1147 791h-129l-279 -1051q145 53 189 219zM776 367l49 186q11 42 11 68q0 69 -39.5 132.5t-104.5 63.5q-47 0 -78 -24l-182 -682q18 -9 76 -9q88 0 165.5 85.5t102.5 179.5zM307 129l172 649q-104 -60 -168.5 -187t-64.5 -253q0 -27 2 -48 t9.5 -44.5t11 -33t18.5 -41t20 -42.5z" />
<glyph unicode="&#xe21a;" horiz-adv-x="1353" d="M688 856h4q64 53 129 71.5t158 18.5q119 0 201 -69t82 -185q0 -39 -21 -121l-151 -571h-390l220 821q-36 0 -74 -10q-54 -14 -109.5 -70.5t-92.5 -122.5t-52 -124l-127 -494h-395l385 1432h393zM991 129l135 500q7 23 7 63q0 84 -84 119l-185 -682h127zM682 1303h-131 l-315 -1174h131z" />
<glyph unicode="&#xe21d;" horiz-adv-x="1312" d="M1262 817l-308 -186l238 -631h-404l-165 434l-50 -31l-108 -403h-395l385 1432h391l-225 -850h2l563 338zM1008 129l-164 436l-109 -63l139 -373h134zM682 1303h-131l-315 -1174h131z" />
<glyph unicode="&#xe21e;" horiz-adv-x="761" d="M846 1432l-381 -1432h-395l354 1323l342 109h80zM672 1266l-142 -47l-294 -1090h131z" />
<glyph unicode="&#xe21f;" horiz-adv-x="1929" d="M1212 803h7q128 143 335 143q119 0 201 -69t82 -185q0 -43 -20 -121l-152 -571h-391l221 817h-35q-44 0 -89 -35t-79.5 -88t-59 -105t-36.5 -95l-131 -494h-393l223 819q-12 -2 -35 -2q-45 -3 -90.5 -39.5t-80 -90t-59 -107t-36.5 -97.5l-129 -483h-393l247 920h383 l-16 -68h4q66 54 122.5 74t141.5 20q81 0 153.5 -37t104.5 -106zM1567 129l125 463q16 66 16 100q0 74 -82 127l-184 -690h125zM967 129l125 463q16 66 16 100q0 76 -82 125l-188 -688h129zM545 791h-131l-176 -662h131z" />
<glyph unicode="&#xe220;" horiz-adv-x="1353" d="M688 856h4q64 53 129 71.5t158 18.5q119 0 201 -69t82 -185q0 -39 -21 -121l-151 -571h-390l220 821q-36 0 -74 -10q-54 -14 -109.5 -70.5t-92.5 -122.5t-52 -124l-127 -494h-395l245 920h390zM991 129l135 500q7 23 7 63q0 84 -84 119l-185 -682h127zM543 791h-131 l-176 -662h131z" />
<glyph unicode="&#xe221;" horiz-adv-x="1200" d="M1128 573q0 -177 -86 -315t-230.5 -211.5t-319.5 -73.5q-177 0 -288.5 99t-111.5 274q0 180 84.5 318t228.5 210t322 72q182 0 291.5 -97t109.5 -276zM928 735l-152 -573q102 58 162.5 157.5t60.5 215.5q0 65 -15 106.5t-56 93.5zM631 113l184 688q-31 16 -117 16 q-78 0 -108 -10l-184 -688q18 -7 56.5 -12t57.5 -5q86 0 111 11zM446 760q-105 -60 -166 -159.5t-61 -217.5q0 -121 74 -195z" />
<glyph unicode="&#xe222;" horiz-adv-x="1392" d="M741 854h2q51 52 114.5 72t146.5 20q138 0 227.5 -94.5t89.5 -233.5q0 -123 -35 -237t-100.5 -206t-170 -147t-233.5 -55q-80 0 -137 18.5t-115 67.5h-2l-131 -479h-391l359 1340h395zM1130 776l-169 -633q103 58 167 185.5t64 253.5q0 67 -11.5 103.5t-50.5 90.5z M821 115l187 696q-30 6 -62 6q-58 0 -108.5 -26t-86 -70t-60 -94t-38.5 -105q-2 -6 -14 -48.5t-16 -58t-11.5 -49t-10.5 -59.5t-3 -51q0 -67 37.5 -110.5t103.5 -43.5q56 0 82 13zM594 791h-131l-293 -1082h131z" />
<glyph unicode="&#xe223;" horiz-adv-x="1355" d="M1290 920l-358 -1340h-391l123 469q-102 -76 -248 -76q-141 0 -232.5 95t-91.5 237q0 118 38.5 231.5t107 205t173.5 148t228 56.5q169 0 242 -108l8 32q23 4 130.5 23.5t164.5 26.5h106zM1120 772h-45l-94 -27l-276 -1036h131zM727 293l80 297q4 16 4 49q0 69 -36 123.5 t-101 54.5q-46 0 -82 -8l-184 -690q43 -17 65 -17q73 0 154 60.5t100 130.5zM287 160l168 624q-69 -40 -123.5 -115.5t-82.5 -162t-28 -168.5q0 -51 16 -102t50 -76z" />
<glyph unicode="&#xe224;" horiz-adv-x="825" d="M1096 942l6 -117q-82 -4 -119 -8q-81 -7 -186 -78q-65 -44 -124 -113.5t-77 -133.5l-133 -492h-395l249 920h394l-29 -105q75 59 164 95t176 36q24 0 74 -4zM545 791h-131l-181 -662h132z" />
<glyph unicode="&#xe225;" horiz-adv-x="1091" d="M1063 731l-88 -69q-86 155 -279 155q-41 0 -73.5 -25.5t-32.5 -66.5q0 -24 27.5 -49t68.5 -45t89.5 -48.5t89.5 -58.5t68.5 -76t27.5 -100q0 -90 -46 -164t-119.5 -118.5t-158.5 -68.5t-170 -24q-143 0 -238.5 53.5t-160.5 176.5l102 86q38 -53 60 -79.5t57.5 -55.5 t77 -40.5t98.5 -11.5q56 0 92.5 24t36.5 77q0 24 -20.5 44.5t-53 37t-72 35t-79.5 42.5t-72.5 54.5t-53 76.5t-20.5 103q0 73 27 133t72 99.5t105 66.5t124 39t131 12q299 0 383 -215zM694 133l2 -2q70 37 102.5 84t32.5 90q0 61 -38 105t-92.5 70.5t-109 51.5t-92.5 62.5 t-38 89.5q0 22 1 34.5t9.5 35.5t24.5 47l-2 2q-45 -17 -76.5 -42.5t-44.5 -53.5t-18 -49t-5 -42q0 -32 12.5 -60t31 -47.5t48.5 -39t54.5 -31.5t60 -29t55.5 -28q50 -27 79.5 -66.5t29.5 -83.5q0 -62 -27 -98z" />
<glyph unicode="&#xe226;" horiz-adv-x="825" d="M864 918l-39 -130h-204l-177 -663q169 39 234 68l-39 -144q-7 -3 -34.5 -13.5t-37 -14t-34.5 -12.5t-38 -12.5t-36 -9.5t-39 -9t-36 -5t-38 -2q-45 0 -76.5 2t-71 11.5t-64 26.5t-41.5 49t-17 77q0 19 2.5 41.5t4.5 38t8.5 42.5t9 37t11 42t9.5 37l108 411h-184l39 132 h184l94 362l330 104h90l-123 -466h205zM608 1219l-143 -43l-242 -904q-10 -33 -10 -63q0 -87 100 -94z" />
<glyph unicode="&#xe227;" horiz-adv-x="1353" d="M1284 920l-246 -920h-393l21 63h-4q-64 -53 -129 -71.5t-158 -18.5q-119 0 -201 69t-82 185q0 39 21 121l151 572h389l-219 -822q32 0 74 11q54 14 109.5 70.5t92.5 122.5t52 124l127 494h395zM1118 791h-131l-176 -662h131zM489 791h-127l-135 -500q-6 -20 -6 -64 q0 -83 84 -118z" />
<glyph unicode="&#xe228;" horiz-adv-x="976" d="M1094 920l-510 -920h-404l-114 920h380l95 -721h6l399 721h148zM420 129l-88 662h-121l84 -662h125z" />
<glyph unicode="&#xe229;" horiz-adv-x="1501" d="M1563 920l-387 -920h-396l-20 510h-4l-211 -510h-395l-37 920h381l24 -639h4l283 639h319l25 -639h4l281 639h129zM1030 129l-29 662h-127l31 -662h125zM399 129l-30 662h-125l30 -662h125z" />
<glyph unicode="&#xe22a;" horiz-adv-x="1150" d="M1206 920l-432 -371l283 -549h-428l-158 291l-338 -291h-158l445 391l-277 529h439l141 -275l326 275h157zM840 129l-336 662h-142l338 -662h140z" />
<glyph unicode="&#xe22b;" horiz-adv-x="1196" d="M1317 920l-678 -1090q-53 -85 -97 -134.5t-114.5 -82.5t-163.5 -33q-77 0 -145.5 41t-98.5 109q-21 47 -38 80l122 53q2 -5 7 -14q18 -36 28.5 -54t30.5 -42t45 -34t59 -10q25 0 47 3t42 12t34.5 16.5t31 23.5t26.5 26t25.5 32.5t23 33.5t24 38t23.5 38l-307 988h393 l178 -551h6l342 551h154zM727 217l-182 574h-125l219 -719z" />
<glyph unicode="&#xe22c;" horiz-adv-x="1267" d="M344 920h774q49 0 74 -18.5t25 -45.5q0 -35 -39 -80l-572 -643v-4h350q35 0 53.5 -17.5t18.5 -43.5q0 -27 -17.5 -47.5t-49.5 -20.5h-803q-35 0 -60.5 18.5t-25.5 49.5q0 17 12.5 42.5t26.5 41.5l567 634v5h-334q-36 0 -54 18t-18 45t18.5 46.5t53.5 19.5zM479 186 l484 539q1 1 8 9t10.5 13t7.5 13t4 14q0 17 -26 17h-76q-27 0 -46 -18q-7 -6 -34 -36l-494 -544q-28 -28 -28 -48q0 -16 26 -16h84q16 0 32 10.5t48 46.5z" />
<glyph unicode="&#xe247;" horiz-adv-x="1783" d="M1645 158l63 -45q-40 -83 -120 -131t-179 -48q-135 0 -192.5 94t-57.5 310h-430q-59 -105 -103.5 -172.5t-100.5 -133t-114 -97t-122 -31.5q-94 0 -152.5 49t-58.5 137q0 37 13.5 73t47.5 63.5t82 27.5q39 0 64 -14t36 -33.5t18.5 -39.5t18 -34t27.5 -14q57 0 192 205.5 t664 1083.5q19 32 29 48h129l53 -1155q2 -51 4.5 -80t10.5 -65.5t25.5 -54t43.5 -17.5q61 0 109 74zM1159 453v579l-371 -579h371z" />
<glyph unicode="&#xe248;" horiz-adv-x="1546" d="M829 1425l-55 -188q200 203 486 203q111 0 183.5 -67.5t72.5 -162.5q0 -65 -33.5 -128.5t-87 -112t-109.5 -84.5t-112 -60q134 -25 219.5 -107.5t85.5 -217.5q0 -98 -63 -195t-160.5 -167.5t-218.5 -114t-234 -43.5q-92 0 -159.5 23.5t-119.5 86.5l45 68q85 -70 193 -70 q102 0 197.5 46.5t159 137t63.5 203.5q0 266 -308 266h-137l31 111h37q58 0 119.5 12t123 40t110 68t78.5 101t30 135q0 111 -131 111q-56 0 -121 -37.5t-115 -91.5q-80 -83 -141.5 -212t-134.5 -398l-82 -301q-19 -70 -45.5 -118t-62.5 -80t-90 -49.5t-118 -24.5t-157 -7 l20 66q62 0 100 68t93 269l176 646q22 86 22 120q0 43 -26.5 64.5t-90.5 21.5l13 66q211 30 379 104h75z" />
<glyph unicode="&#xe249;" horiz-adv-x="1366" d="M1176 326l63 -54q-6 -11 -28 -39t-74 -74t-117 -85.5t-165.5 -69t-209.5 -29.5q-87 0 -168.5 18t-155.5 58t-128.5 97.5t-86.5 141.5t-32 185q0 169 67 329t180 284t264.5 213t317.5 124q78 17 158 17q137 0 223 -59t86 -152q0 -72 -40 -123t-130 -51q-42 0 -71.5 12 t-43 33t-19 41t-5.5 43q0 36 11.5 55.5t22.5 30.5t11 26q0 37 -68 37q-160 0 -306.5 -113t-244.5 -323q-116 -246 -116 -436q0 -99 29 -173.5t79 -117.5t110 -63.5t128 -20.5q147 0 263.5 66t195.5 172z" />
<glyph unicode="&#xe24a;" horiz-adv-x="1642" d="M113 1108l-52 63q79 70 153 117.5t137 74.5t142.5 41t144.5 17.5t169 3.5q189 0 333 -22t241.5 -62.5t159 -102.5t88 -137.5t26.5 -172.5q0 -80 -15 -164t-50 -176t-88 -175.5t-134.5 -159.5t-182 -131.5t-238.5 -88.5t-298 -33h-557l17 66q61 0 93 44t58 138l197 715 q61 210 61 254q0 67 -82 67q-60 0 -161 -57.5t-162 -118.5zM815 1192l-276 -973q-9 -35 -9 -65q0 -24 19.5 -32.5t60.5 -8.5q48 0 100 6t127.5 26t143 53t137.5 93.5t120 139.5t82 199.5t32 266.5q0 145 -42 234t-143.5 135.5t-271.5 46.5q-24 0 -41 -23.5t-39 -97.5z" />
<glyph unicode="&#xe24b;" horiz-adv-x="1247" d="M1065 358l65 -53q-59 -89 -153.5 -161.5t-204.5 -108.5q-158 -51 -307 -51q-58 0 -109.5 7t-102.5 26t-87.5 47.5t-59 76t-22.5 107.5q0 88 38 169.5t102.5 144.5t136.5 110.5t153 83.5q-37 19 -61.5 36.5t-51 45t-40 65.5t-13.5 86q0 87 62 173t153 146t193 97t184 37 q157 0 249.5 -54.5t92.5 -166.5q0 -13 -4 -32.5t-16 -45t-30 -46.5t-49.5 -35.5t-70.5 -14.5q-60 0 -99.5 35.5t-39.5 93.5q0 35 14.5 58t28.5 35t14 21q0 43 -67 43q-91 0 -173 -35.5t-134 -100.5t-52 -142q0 -92 60.5 -146.5t164.5 -54.5h181l-23 -111q-64 0 -132 -12 t-136 -35.5t-128.5 -61.5t-107.5 -85.5t-74.5 -111.5t-27.5 -136q0 -182 213 -182q291 0 471 239z" />
<glyph unicode="&#xe24c;" horiz-adv-x="1320" d="M659 1425h156q148 0 263.5 -10t218 -33.5t158.5 -70t56 -113.5q0 -70 -46 -122t-124 -52q-64 0 -103.5 29.5t-39.5 83.5q0 32 7.5 52.5t17 27.5t17 19.5t7.5 29.5q0 49 -213 49q-41 0 -68 -3t-58.5 -12t-51.5 -30.5t-29 -55.5l-96 -358h440l-41 -113h-425l-127 -467 q-19 -70 -46 -117.5t-62.5 -79t-90.5 -49t-119 -24t-158 -6.5l21 66q56 0 91.5 50t61.5 142l238 858q18 70 18 109q0 63 -81 63q-75 0 -167 -55.5t-163 -124.5l-51 61q254 256 589 256z" />
<glyph unicode="&#xe24d;" horiz-adv-x="1259" d="M870 150l-4 2q-129 -76 -311 -76q-92 0 -174 26.5t-148.5 78.5t-105.5 139.5t-39 199.5q0 143 51.5 284t141 254t202 200.5t242 135.5t254.5 48t203 -59t78 -152q0 -29 -8.5 -61t-26 -65.5t-52 -55t-79.5 -21.5q-72 0 -109 36.5t-37 88.5q0 41 11 68t25 36.5t25 19.5 t11 19q0 24 -15.5 31.5t-46.5 7.5q-108 0 -213 -68t-184 -180t-127.5 -265t-48.5 -314q0 -322 254 -322q108 0 212 70t178.5 181t109.5 239l75 22q7 -82 7 -90q0 -124 -36 -263.5t-117.5 -280t-193.5 -224.5q-180 -135 -403 -135q-93 0 -185 43t-149 113l58 61 q101 -110 307 -110q112 0 216.5 99t151.5 239z" />
<glyph unicode="&#xe24e;" horiz-adv-x="1738" d="M1757 1425l-20 -63q-60 0 -89 -43t-59 -154l-241 -909q-23 -94 -23 -113q0 -45 18 -61t60 -16q37 0 70.5 15t76.5 58l39 -53q-48 -63 -138 -99t-169 -36q-52 0 -107.5 18t-101 63t-45.5 107q0 34 12 76l142 524q-8 -2 -35 -14t-47 -12h-422l-117 -434q-19 -71 -45.5 -119 t-62 -80t-89.5 -49t-117.5 -24t-156.5 -7l21 66q61 0 98.5 69.5t93.5 272.5l156 565q47 176 47 254q0 61 -76 61q-134 0 -334 -180l-51 61q108 112 255 184t329 72q186 0 186 -168q0 -59 -45 -217l-70 -252q1 0 27.5 18.5t38.5 18.5h436l111 396q18 66 46.5 106.5t76.5 62 t105 28.5t149 7h67z" />
<glyph unicode="&#xe24f;" horiz-adv-x="1271" d="M1276 1425l-19 -65q-47 0 -74.5 -1t-60 -4.5t-50 -10t-39 -19.5t-34 -30t-27.5 -44t-26 -60t-24 -79l-238 -868q-4 -16 -4 -47q0 -36 13 -47t44 -11q83 0 164.5 35t183.5 139l54 -69q-118 -130 -259.5 -187t-351.5 -57h-454l24 66q77 0 120.5 7t81.5 32t61 71t45 125 l208 766q2 7 10 36t12.5 45.5t8.5 39.5t4 39q0 59 -71 59q-64 0 -162 -52t-172 -126l-51 61q69 65 124 106t133 78.5t177 54.5t227 17h422z" />
<glyph unicode="&#xe250;" horiz-adv-x="1320" d="M1661 1423l-25 -65q-69 0 -113.5 -11t-74.5 -39.5t-47.5 -66t-34.5 -102.5l-256 -936q-61 -221 -223.5 -331t-388.5 -110q-186 0 -305 75t-119 206q0 42 9.5 80.5t29 73.5t56.5 56t87 21q42 0 72.5 -15t45 -40t21 -50t6.5 -52q0 -30 -11.5 -54t-25 -36t-25 -25.5 t-11.5 -24.5q0 -71 40.5 -90.5t141.5 -19.5q37 0 70.5 10.5t59.5 27t50.5 45t42.5 56t36 69.5t30 76t27 84.5t24.5 86.5t23.5 90t23 88l182 657q13 45 13 80q0 51 -20 63.5t-73 12.5q-88 0 -171 -36t-146 -96t-109.5 -131t-72.5 -147h-88q16 63 46 128.5t84 137.5t122.5 127 t167.5 91t212 36h617z" />
<glyph unicode="&#xe251;" horiz-adv-x="1753" d="M731 1016h4q71 74 122 123.5t125.5 112t137 99.5t139 63t148.5 26q92 0 155.5 -39.5t90 -97t26.5 -125.5q0 -82 -47.5 -139.5t-124.5 -57.5q-65 0 -103 38.5t-38 96.5q0 37 11.5 61.5t25.5 34t25.5 21.5t11.5 27q0 53 -54 53q-131 0 -302 -127t-318 -322 q68 -330 219.5 -531.5t323.5 -201.5q139 0 252 172l67 -47q-27 -44 -53.5 -79t-69.5 -75.5t-90 -67.5t-114 -45t-142 -18q-191 0 -345 128t-216 347h-2l-47 -170q-19 -70 -45.5 -117.5t-62 -79t-90 -49t-117.5 -24t-156 -6.5l20 66q61 0 99 69.5t94 272.5l176 641 q22 99 22 120q0 43 -26.5 64.5t-89.5 21.5l12 66q99 13 204 42t175 62h80z" />
<glyph unicode="&#xe252;" horiz-adv-x="1486" d="M1343 334l66 -53q-98 -132 -247 -214.5t-343 -82.5q-81 0 -200 29.5t-199 29.5q-31 0 -146.5 -21.5t-195.5 -21.5l18 66q39 0 84 60.5t72 135.5q32 84 55 177.5t49.5 235t36.5 187.5q26 122 78 222t116 165t139.5 109.5t147.5 64t140 19.5q66 0 120 -26t84 -65t46 -79 t16 -74q0 -30 -9 -61.5t-28 -63.5t-56 -52t-85 -20q-57 0 -92 42.5t-35 86.5q0 34 9.5 58.5t21 35t21 21.5t9.5 21q0 34 -15.5 50.5t-62.5 16.5q-76 0 -129.5 -56t-81.5 -144t-54.5 -208t-48 -236.5t-64 -241.5t-99.5 -211q89 18 174 18q69 0 117 -10.5t72 -26t42.5 -31 t44 -26t62.5 -10.5q50 0 86.5 5.5t80.5 23.5t89 56.5t94 98.5z" />
<glyph unicode="&#xe253;" horiz-adv-x="2428" d="M2290 150l57 -54q-48 -81 -134.5 -125.5t-184.5 -44.5q-27 0 -61 10t-70 31.5t-60.5 64t-24.5 97.5q0 11 9 100l82 752l-766 -965h-90q-136 307 -246 760q-109 -472 -238 -688q-105 -180 -270 -180q-91 0 -153 55.5t-62 130.5q0 58 39.5 110t109.5 52q39 0 63.5 -13.5 t35 -33t17.5 -39.5t17.5 -33.5t28.5 -13.5q217 0 413 1302q2 13 3 19h108q160 -726 330 -1120l885 1120h106l-123 -1194q-6 -60 -6 -70q0 -104 64 -104q43 0 121 74z" />
<glyph unicode="&#xe254;" horiz-adv-x="2041" d="M1411 317l289 1082q39 145 114 228t205 83q92 0 161 -58t69 -132q0 -21 -0.5 -32.5t-3 -34.5t-8 -37.5t-16.5 -32.5t-26.5 -28.5t-40 -18t-55.5 -7.5q-42 0 -68 20t-36 48.5t-16.5 57.5t-19 49t-34.5 20t-42 -17t-33.5 -38t-28 -58t-21 -57.5t-16.5 -55.5l-367 -1349 h-106q-308 444 -492 921q-68 -345 -124 -511q-138 -413 -366 -437q-15 -2 -30 -2q-97 0 -161 50t-64 143q0 61 37.5 115.5t105.5 54.5q42 0 67 -19.5t33 -46.5t13 -54.5t14.5 -47t30.5 -19.5q42 0 81 35t71.5 100.5t61.5 144.5t53.5 181t44 197t37.5 204.5t30.5 190.5 t25.5 169.5t19 127.5h108q16 -40 65 -165.5t71.5 -181.5t67.5 -167t75.5 -178t71 -154t78.5 -156t75 -127z" />
<glyph unicode="&#xe255;" horiz-adv-x="1581" d="M829 1434v-64q-109 -36 -196.5 -129.5t-140 -218.5t-80 -264t-27.5 -279q0 -197 79.5 -294t213.5 -97q86 0 169 41t150.5 110t124.5 162t96 195.5t60.5 211t21.5 208.5q0 293 -210 293q-74 0 -148 -54t-74 -137q0 -57 39 -57q14 0 42 10t40 10q119 0 119 -114 q0 -76 -55.5 -124t-149.5 -48q-82 0 -140 66t-58 183q0 75 47 150.5t118 130t155.5 89t156.5 34.5q94 0 168.5 -28t120.5 -73t76.5 -107t42.5 -124t12 -129q0 -150 -53 -300t-148.5 -275.5t-218.5 -223.5t-273.5 -153t-302.5 -55q-143 0 -259 54.5t-187.5 166t-71.5 262.5 q0 179 62.5 349t165 297t237 213.5t276.5 111.5z" />
<glyph unicode="&#xe256;" horiz-adv-x="1320" d="M655 1425h156q173 0 297.5 -18t199 -47t117.5 -76t57.5 -96t14.5 -115q0 -32 -5.5 -68t-26 -92t-53.5 -107t-94.5 -106.5t-142.5 -98t-205 -74t-274 -40.5l29 109q220 30 351.5 156.5t131.5 320.5q0 58 -16 101.5t-42.5 70t-67 42.5t-83 22t-96.5 6q-37 0 -54 -26.5 t-40 -108.5l-246 -906q-19 -70 -45 -117t-61 -78.5t-89 -48.5t-117.5 -23.5t-156.5 -6.5l21 66q61 0 95.5 57.5t70.5 189.5l178 645q59 206 59 265q0 63 -63 63q-71 0 -165.5 -56t-164.5 -124l-51 61q261 258 581 258z" />
<glyph unicode="&#xe257;" horiz-adv-x="1593" d="M1430 35h79q-19 -62 -48 -112.5t-62 -84.5t-74.5 -59t-80 -39.5t-85 -23t-83 -11t-79.5 -2.5q-83 0 -169.5 23t-160 55.5t-145 65.5t-150.5 56t-151 23q-34 0 -69 -6v64q88 41 183.5 68t154.5 36.5t137 18.5t98 12q129 23 235.5 125.5t167 256t60.5 322.5q0 55 -1.5 98.5 t-8 99t-17.5 97.5t-31.5 84.5t-48 70t-68.5 45t-93 17.5q-154 0 -279 -101.5t-192.5 -266.5t-67.5 -355q0 -140 71.5 -218.5t180.5 -78.5q74 0 132 20.5t136 86.5l57 -60q-111 -98 -236 -137t-276 -39q-64 0 -125.5 20t-114.5 58.5t-85.5 104t-32.5 147.5q0 154 75.5 320.5 t195.5 299.5t282.5 219.5t323.5 86.5q106 0 193 -27.5t147 -76t101 -115.5t60 -144.5t19 -163.5q0 -253 -135 -472t-381 -349q-45 -24 -121 -50t-141 -38l-5 -4q87 -46 150 -75t152 -56t159 -27q190 0 267 191z" />
<glyph unicode="&#xe258;" horiz-adv-x="1779" d="M1634 301l68 -47q-31 -52 -71.5 -99t-93.5 -89.5t-121 -67.5t-140 -25q-87 0 -150 27.5t-99.5 74t-62.5 103.5t-46.5 120.5t-43 121t-62 108t-93.5 78.5l33 109q106 12 188 39t132.5 61.5t83.5 79t45.5 88.5t12.5 92q0 145 -67 193.5t-254 48.5q-29 0 -44.5 -30 t-37.5 -109l-252 -902q-20 -70 -46.5 -117.5t-62 -79.5t-88.5 -49t-116 -23.5t-156 -6.5l21 66q55 0 91.5 57t73.5 188l185 666q5 19 16.5 58t17 58.5t12.5 47t10 46.5t3 34q0 69 -65 69q-69 0 -178 -64.5t-150 -115.5l-53 59q56 54 112.5 95.5t103 68.5t104.5 45.5t97.5 28 t103.5 14.5t100 5.5t108 0.5q174 0 300.5 -16t203 -42.5t121 -69.5t60 -88.5t15.5 -108.5q0 -47 -11.5 -91.5t-45.5 -98.5t-88.5 -101t-148 -94.5t-216.5 -83.5v-6q60 -25 105.5 -66t70.5 -86.5t44 -94.5t33 -93t30 -79t41.5 -56t62.5 -21q142 0 254 170z" />
<glyph unicode="&#xe259;" horiz-adv-x="1366" d="M74 426l84 16q36 -179 146 -262.5t300 -83.5q68 0 134.5 28t115 72.5t79 100.5t30.5 109q0 56 -38 104t-110 80q-22 10 -64 27.5t-69.5 29t-67 32t-65.5 39.5t-55 48t-46 60.5t-28.5 74.5t-11.5 92q0 86 45.5 162.5t114.5 127.5t151 89t155 55t127 17q116 0 211 -23 t157.5 -75t62.5 -127q0 -22 -5.5 -45.5t-18.5 -49.5t-33 -46t-52 -33t-72 -13q-62 0 -107.5 33t-45.5 90q0 29 9.5 52t21 34.5t21 22t9.5 18.5q0 25 -43.5 39t-111.5 14q-59 0 -115 -14.5t-108.5 -45t-84.5 -87t-32 -131.5q0 -41 21 -75t57 -58.5t82.5 -46t98 -42.5t103 -44 t98 -53t82.5 -66.5t57 -89t21 -115.5q0 -53 -29.5 -116.5t-89.5 -128t-139 -117.5t-189.5 -86t-230.5 -33q-128 0 -229 37t-163 100.5t-96.5 139.5t-43.5 163z" />
<glyph unicode="&#xe25a;" horiz-adv-x="1120" d="M1462 1604l68 -37q-69 -165 -226.5 -257t-373.5 -108l-254 -923q-45 -165 -145 -222t-324 -57l18 66q60 0 96 57.5t72 189.5l187 676q4 16 18 63t19 66.5t10.5 48.5t5.5 47q0 30 -29.5 47t-77.5 17q-89 0 -198 -66t-195 -196l-65 39q87 133 189.5 212.5t256 121 t373.5 41.5q40 0 109 -7.5t96 -7.5q67 0 112 5.5t96.5 23.5t91.5 57.5t70 102.5z" />
<glyph unicode="&#xe25b;" horiz-adv-x="1611" d="M768 1044l-152 -546q-45 -155 -45 -230q0 -78 35 -131t86 -53q199 0 332 166q28 36 55 84t44.5 84t43 105t34.5 97t36 113t33 103q26 82 47.5 141.5t52.5 135t64 127.5t73.5 99t89.5 71t103 24q95 0 156 -54.5t61 -132.5q0 -58 -33.5 -106.5t-95.5 -48.5 q-37 0 -60.5 13.5t-33.5 33t-17.5 39.5t-20.5 33.5t-34 13.5q-47 0 -94 -60.5t-86.5 -158.5t-70 -191.5t-59.5 -192.5t-40 -128q-34 -90 -71 -162t-91 -141.5t-117.5 -116t-150.5 -75t-189 -28.5q-29 0 -53.5 1t-65.5 6.5t-73.5 15.5t-69 29t-61 45.5t-40.5 67t-16 91.5 q0 88 19 160l158 586q1 5 20 66.5t31 107.5t12 63q0 42 -16.5 62t-55.5 20q-66 0 -168 -61.5t-153 -116.5l-53 57q44 41 80 70.5t92 66.5t111 60.5t128 40t150 16.5q182 0 182 -155q0 -69 -43 -226z" />
<glyph unicode="&#xe25c;" horiz-adv-x="1335" d="M121 1272l-47 47q30 44 103 75t140 31q87 0 156.5 -26.5t116.5 -69t81.5 -108t54 -132t30.5 -154t14.5 -160t3.5 -163.5q0 -114 -20 -344q69 58 130 113t150 149t151.5 180t108 190.5t45.5 195.5q0 88 -63 88q-18 0 -51 -17.5t-62 -17.5q-135 0 -135 149q0 62 58 110 t116 48q59 0 104.5 -24.5t71 -60.5t42 -84.5t21.5 -89.5t5 -83q0 -93 -32.5 -191t-93 -191t-130 -178.5t-160.5 -175t-166 -159t-165 -151t-140 -131.5h-104q39 341 39 735q0 95 -5.5 179t-21 173t-41 151.5t-68.5 103t-100 40.5q-75 0 -137 -47z" />
<glyph unicode="&#xe25d;" horiz-adv-x="1957" d="M1075 1274l115 151q151 -169 248.5 -432.5t97.5 -521.5q0 -82 -4 -188q49 52 100 114t112.5 150t108 174t78 183.5t31.5 180.5q0 89 -64 89q-16 0 -49 -17.5t-63 -17.5q-61 0 -93 40.5t-32 96.5q0 70 46 125t118 55q61 0 107.5 -30t71.5 -72.5t40 -98.5t19.5 -97t4.5 -79 q0 -106 -35.5 -218.5t-88.5 -207t-131.5 -201.5t-146 -185.5t-152 -177.5t-130.5 -159h-94v154q0 291 -42 571.5t-134 444.5l-614 -1170h-107q53 345 53 949q0 86 -10.5 160.5t-32.5 135t-59 95.5t-86 35q-77 0 -137 -48l-47 64q38 47 111 75.5t139 28.5q84 0 149 -28 t107 -66.5t71.5 -112t44 -130.5t22 -159t8.5 -159.5t1 -167.5v-8h6z" />
<glyph unicode="&#xe25e;" horiz-adv-x="1474" d="M971 1010l18 -166q55 18 118 46t128.5 64.5t108 80.5t42.5 83q0 21 -10.5 38.5t-26 31t-31 29t-26 40t-10.5 56.5q0 61 41 101t123 40q66 0 109.5 -59.5t43.5 -165.5q0 -63 -23 -120t-80 -108t-96 -83.5t-132 -77.5t-121.5 -57.5t-127.5 -52.5q-7 -3 -11 -5l45 -365 q12 -101 42.5 -159t75.5 -58q62 0 111 80l59 -45q-91 -178 -282 -178q-117 0 -190.5 84t-96.5 285l-29 249q-48 -12 -99 -29t-119.5 -47.5t-120.5 -64.5t-88.5 -82.5t-36.5 -99.5q0 -18 12 -29.5t29.5 -21t35 -22.5t29.5 -41t12 -70q0 -61 -41.5 -100.5t-117.5 -39.5 q-61 0 -112.5 58t-51.5 157q0 95 48 179t138.5 153t206 125.5t266.5 106.5l-51 307q-36 219 -115 219q-55 0 -110 -76l-60 45q56 88 124 134t161 46q121 0 193 -99t96 -316z" />
<glyph unicode="&#xe25f;" horiz-adv-x="1474" d="M264 1233l-49 59q52 60 131 96.5t156 36.5q61 0 114.5 -15t94 -39t75.5 -64.5t60 -80.5t46.5 -98t35.5 -106.5t27 -116.5t20 -117.5t16 -119.5q19 -156 19 -424q75 70 152.5 165.5t150 209t118.5 239.5t46 232q0 46 -18 67t-46 21q-17 0 -50 -17.5t-63 -17.5 q-54 0 -87 40.5t-33 104.5q0 72 50.5 120t108.5 48q61 0 107.5 -29.5t71.5 -71.5t40.5 -97.5t20 -97t4.5 -79.5q0 -345 -409 -823q-97 -114 -193 -207t-201.5 -174t-212 -126.5t-200.5 -45.5q-73 0 -127.5 23t-84 55.5t-48.5 80.5t-25 86t-8 85l82 22q16 -100 75.5 -138 t147.5 -38q81 0 175 37.5t181 120.5q0 341 -37 655q-68 606 -266 606q-93 0 -168 -67z" />
<glyph unicode="&#xe260;" horiz-adv-x="1593" d="M922 -201q-81 0 -166 20.5t-158.5 50.5t-146.5 59.5t-156.5 50t-161.5 20.5h-59l18 66q44 12 98 46t102 73.5t112 104t107 111t108 123.5t94.5 113t85.5 106h-275l49 113h312q31 34 68.5 79.5t64 78.5t71.5 90.5t66 83.5l-4 10q-19 -10 -62 -18.5t-55 -8.5 q-54 0 -94 11.5t-62.5 27.5t-40.5 32.5t-39.5 28t-47.5 11.5q-102 0 -204 -68.5t-153 -150.5l-69 47q108 163 264.5 245.5t316.5 82.5q52 0 153 -28t140 -28q40 0 136.5 21.5t189.5 21.5l-17 -63q-55 -25 -123 -88.5t-121 -128.5t-125.5 -153.5t-115.5 -135.5h246l-58 -113 h-262q-42 -49 -128 -151.5t-139 -165t-130 -146t-145 -147.5l4 -4q25 11 78 17t90 6q66 0 126 -21t105 -51t86.5 -60.5t88.5 -51.5t93 -21q94 0 162 44.5t102 127.5h93q-19 -62 -48 -111.5t-61.5 -82.5t-75 -57t-80 -37t-85 -20.5t-83 -9.5t-79.5 -2z" />
<glyph unicode="&#xe264;" horiz-adv-x="1228" d="M1135 573q0 -137 -68.5 -268.5t-179.5 -216.5q-74 -57 -158.5 -82.5t-206.5 -25.5q-426 0 -426 378q0 125 69.5 262.5t188.5 229.5q154 119 351 119q102 0 179.5 -24t124 -62t76 -91.5t40 -106t10.5 -112.5zM860 758q0 68 -37 107.5t-96 39.5q-123 0 -209 -168 q-145 -283 -145 -514q0 -88 41 -132t102 -44q81 0 137.5 66t120.5 229q48 123 67 217t19 199z" />
<glyph unicode="&#xe268;" horiz-adv-x="1228" d="M922 969l-195 -717q-29 -110 -29 -129q0 -42 41.5 -57.5t161.5 -18.5v-47h-706v47q119 6 170 39.5t77 128.5l133 481q13 58 13 62q0 67 -99 67q-61 0 -127 -10l5 47q247 32 555 107z" />
<glyph unicode="&#xe26c;" horiz-adv-x="1228" d="M344 668l-41 28q90 149 204 211t253 62q133 0 230 -77t97 -200q0 -57 -18.5 -105t-57 -91t-81 -77t-107.5 -77q-114 -76 -389 -199h305q139 0 192.5 20t86.5 87h49l-104 -250h-848l-4 49q340 163 471 270q36 29 54 44.5t49.5 45t49 54t36.5 58t27.5 70t8.5 77.5 q0 64 -47.5 107.5t-116.5 43.5q-165 0 -299 -151z" />
<glyph unicode="&#xe270;" horiz-adv-x="1228" d="M369 662l-37 34q207 252 475 252q78 0 140.5 -23.5t99 -61t55 -80t18.5 -85.5q0 -119 -62 -192t-181 -119v-2q81 -36 123 -114t42 -167q0 -104 -43.5 -194.5t-117 -154.5t-168 -109.5t-197.5 -67.5t-205 -22q-120 0 -183 43t-65 110q0 47 33 89t99 42q44 0 75 -19.5 t48 -47.5t32.5 -56t39 -47.5t56.5 -19.5q131 0 218.5 106.5t87.5 263.5q0 48 -14.5 98t-37.5 77q-38 45 -112.5 68.5t-159.5 23.5l8 49q120 17 210.5 57t147 111t56.5 164q0 65 -49.5 104t-122.5 39q-77 0 -163 -40t-146 -109z" />
<glyph unicode="&#xe274;" horiz-adv-x="1228" d="M1155 922l-244 -850h174l-55 -205h-176l-90 -311h-281l90 311h-512l58 209l887 846h149zM782 600l-555 -528h404z" />
<glyph unicode="&#xe278;" horiz-adv-x="1228" d="M1149 922l-78 -201h-530l-80 -143q86 -1 167.5 -19.5t156.5 -57.5t131.5 -94.5t90 -136t33.5 -176.5q0 -115 -58 -222.5t-157 -182.5q-179 -135 -473 -135q-154 0 -227.5 40t-73.5 109q0 54 33 91.5t86 37.5q59 0 97 -27.5t69 -74.5q25 -40 50 -61t65 -21 q144 0 234.5 99.5t90.5 223.5q0 183 -127 271q-126 88 -399 92l270 588h629z" />
<glyph unicode="&#xe27c;" horiz-adv-x="1228" d="M1104 1372l12 -51q-206 -58 -345.5 -177t-223.5 -304q88 26 160 26q181 0 271.5 -98t90.5 -266q0 -67 -19 -136.5t-62 -139t-105 -124t-156.5 -88.5t-208.5 -34q-239 0 -338 167q-67 116 -67 259q0 61 8 116q18 126 68.5 243t135.5 221.5t197 185t261.5 133.5t320.5 67z M786 565q0 99 -44.5 154t-116.5 55q-69 0 -103 -29t-67 -102q-86 -186 -86 -401q0 -77 37.5 -125.5t103.5 -48.5q174 0 248 297q28 115 28 200z" />
<glyph unicode="&#xe280;" horiz-adv-x="1228" d="M1192 922l-836 -1366h-215l725 1124h-499q-76 0 -120 -15t-75 -49t-74 -108h-49l187 414h956z" />
<glyph unicode="&#xe284;" horiz-adv-x="1228" d="M463 707v8q-84 76 -127 146t-43 163q0 159 122 253.5t304 94.5q184 0 309 -88q119 -82 119 -209q0 -103 -74.5 -178t-241.5 -131v-8q123 -113 171.5 -191.5t48.5 -173.5q0 -129 -66.5 -223.5t-180.5 -142t-263 -47.5q-204 0 -330.5 92.5t-126.5 251.5q0 262 379 383z M928 1096q0 92 -55.5 148t-135.5 56q-89 0 -140.5 -50.5t-51.5 -143.5q0 -68 46 -134.5t163 -146.5q53 47 78 72t51 59t35.5 66t9.5 74zM795 287q0 56 -17 100.5t-71.5 107.5t-159.5 154q-123 -67 -178.5 -153.5t-55.5 -206.5q0 -113 66 -175.5t172 -62.5t175 64.5t69 171.5 z" />
<glyph unicode="&#xe288;" horiz-adv-x="1228" d="M113 -444l-13 51q405 114 570 481q-92 -27 -160 -27q-181 0 -272 98.5t-91 266.5q0 67 19 136.5t62 139t105 124t156.5 88.5t208.5 34q239 0 338 -168q68 -118 68 -258q0 -61 -8 -116q-18 -126 -68.5 -243t-135.5 -221.5t-197 -185t-261.5 -133.5t-320.5 -67zM848 686 q0 77 -37.5 125.5t-103.5 48.5q-174 0 -248 -297q-29 -119 -29 -201q0 -99 44.5 -153.5t117.5 -54.5q69 0 103 29t67 102q86 186 86 401z" />
<glyph unicode="&#xe295;" horiz-adv-x="1589" d="M1513 0h-628v51q82 1 114.5 35t32.5 94q0 30 -6 64l-35 159h-6l-364 -884h-111l364 884h-354l-43 -69q-35 -55 -64.5 -116.5t-29.5 -90.5q0 -68 104 -76v-51h-405v51q52 9 87 28.5t78.5 69.5t102.5 146l688 1118h58l67 -315l203 489h111l-277 -665l127 -578 q23 -102 38.5 -155.5t37 -87t45 -42t65.5 -8.5v-51zM950 586l-82 391h-4l-303 -494h346z" />
<glyph unicode="&#xe297;" horiz-adv-x="1560" d="M1327 1587l-90 -215q293 -49 293 -274q0 -142 -110.5 -230t-309.5 -120v-3q309 -42 309 -303q0 -115 -46 -200.5t-133.5 -138t-207 -78t-272.5 -25.5h-90l-201 -481h-111l201 481h-469v51q100 13 134.5 42.5t58.5 117.5l264 956q10 36 10 72q0 91 -174 94v51h686 q41 0 61 -2l87 205h110zM1178 1229l-179 -432q56 20 99 57q98 86 98 276q0 52 -18 99zM877 770l225 541q-30 12 -74 12q-62 0 -96 -25.5t-49 -85.5l-121 -448q62 0 115 6zM700 66q106 0 192 59t133.5 157.5t47.5 215.5q0 122 -125 176l-252 -608h4zM602 104l246 592 q-47 6 -103 6l-139 -501q-10 -38 -10 -60t6 -37z" />
<glyph unicode="&#xe299;" horiz-adv-x="1456" d="M1542 1409l-108 -481l-54 8q6 37 6 70q0 128 -68 216t-175 115l-512 -1237q61 -34 147 -34q69 0 123 9.5t115.5 36.5t126 80.5t135.5 135.5l59 -56q-82 -97 -157.5 -159t-157 -95t-160.5 -45t-188 -12q-52 0 -99 6l-186 -448h-110l194 467q-183 47 -269.5 180.5 t-86.5 318.5q0 179 75 362.5t197 305.5q127 125 295.5 193.5t362.5 68.5h18l72 172h110l-76 -182q60 -11 126 -37.5t89 -26.5q50 0 101 68h55zM549 170l489 1178q-91 -4 -172.5 -47t-143 -113.5t-111.5 -161.5t-81.5 -193t-48 -205t-16.5 -200q0 -155 84 -258z" />
<glyph unicode="&#xe29b;" horiz-adv-x="1781" d="M1378 1587l-92 -223q210 -41 322 -172t112 -336q0 -184 -86.5 -347t-234.5 -296q-130 -119 -296 -166t-382 -47l-199 -481h-110l198 481h-520v51q100 13 134.5 42.5t58.5 117.5l262 948q12 40 12 80q0 48 -42.5 69.5t-131.5 24.5v51h698q35 0 101 -4l86 207h110z M1239 1251l-487 -1179q123 11 227.5 68.5t176 145t122.5 197.5t74.5 225.5t23.5 229.5q0 214 -137 313zM643 78l504 1218q-65 19 -129 19q-108 0 -133 -90l-279 -1024q-10 -38 -10 -58q0 -51 47 -65z" />
<glyph unicode="&#xe29d;" horiz-adv-x="1554" d="M1595 1384l-92 -395l-51 10q0 110 -17.5 156.5t-64.5 87.5q-34 27 -80 41l-184 -442q47 42 102 155l54 -10l-162 -584l-53 9q6 35 6 98q0 83 -33 121l-236 -568q239 3 383 91q69 42 133 110.5t101 143.5l53 -11l-123 -397h-573l-201 -481h-111l201 481h-557v51 q99 13 133.5 42.5t59.5 117.5l262 946q12 46 12 80q0 49 -42 71t-132 25v51h838l84 203h110l-84 -203h264zM969 778l219 529q-90 8 -148 8q-76 0 -108.5 -25t-48.5 -86l-121 -436q141 0 207 10zM674 66l256 616q-72 16 -189 16l-139 -516q-6 -27 -6 -49q0 -29 18.5 -45 t59.5 -22z" />
<glyph unicode="&#xe29f;" horiz-adv-x="1347" d="M1579 1384l-94 -413l-51 8q0 122 -33 195.5t-113 105.5l-176 -424q32 39 76 129l55 -10l-162 -584l-55 8q8 58 8 86q0 82 -24 121l-234 -563v-43h-18l-201 -481h-111l201 481h-557v51q99 13 133.5 42.5t59.5 117.5l262 946q12 43 12 78q0 89 -174 98v51h838l84 203h110 l-84 -203h248zM965 768l223 539q-74 8 -127 8q-78 0 -118.5 -24t-55.5 -81l-127 -454q144 0 205 12zM672 61l252 607q-68 18 -185 18l-131 -479q-12 -40 -12 -66q0 -35 16.5 -53t59.5 -27z" />
<glyph unicode="&#xe2a1;" horiz-adv-x="1615" d="M1612 680v-51q-30 -3 -53.5 -10t-40 -14.5t-31 -24.5t-22 -27.5t-17.5 -37.5t-14.5 -41t-14.5 -50l-90 -326q-7 -3 -24 -13.5t-31 -16.5q-108 -45 -250.5 -72.5t-275.5 -32.5l-185 -444h-110l184 444q-112 5 -201 34.5t-148 77t-98 113t-56 139t-17 158.5 q0 181 73.5 361.5t202.5 306.5q268 262 662 262q101 0 176 -20l80 192h110l-94 -225q54 -21 78 -21q29 0 50 14t52 54h56l-109 -467l-53 8q6 46 6 90q0 70 -31 131t-86 103l-246 -594h568zM670 43l530 1280q-73 25 -137 25q-96 0 -181.5 -40.5t-149.5 -110.5t-115.5 -161 t-84.5 -194t-50 -208.5t-17 -205.5q0 -132 58 -240t147 -145zM1085 295l52 182q10 42 10 62q0 31 -7 46.5t-34 27t-82 16.5l-250 -600q132 4 202 66t109 200z" />
<glyph unicode="&#xe2a3;" horiz-adv-x="1873" d="M1925 1384v-51q-65 0 -103 -18.5t-56.5 -51.5t-36.5 -98l-269 -964q-10 -42 -10 -62q0 -45 35.5 -65t138.5 -23v-51h-719v51q104 13 156.5 45t75.5 115l127 457h-213l-476 -1149h-110l199 481h-574v51q70 8 106.5 24t53.5 43t33 83l264 956q12 41 12 78q0 89 -174 98v51 h723v-51q-112 -8 -159 -37.5t-70 -113.5l-113 -418h213l342 823h111l-84 -203h577zM1290 764l109 401q12 54 12 76q0 40 -17 62t-69 30l-235 -569h200zM940 668h-203l-127 -461q-12 -50 -12 -66q0 -33 21 -57t65 -33z" />
<glyph unicode="&#xe2a5;" horiz-adv-x="1028" d="M1075 1384v-51q-82 -6 -119 -28l-118 -285l-224 -813q-10 -42 -10 -62q0 -49 39 -70t133 -24v-51h-360l-199 -481h-111l199 481h-211v51q70 8 106.5 24t53.5 43t33 83l264 956q12 41 12 78q0 89 -174 98v51h490l84 203h110l-84 -203h86z" />
<glyph unicode="&#xe2a7;" horiz-adv-x="1327" d="M1409 1384v-51q-95 -7 -131 -36t-59 -115l-271 -975q-95 -347 -403 -395l-119 -293h-111l117 284q-134 5 -213.5 72.5t-79.5 187.5q0 70 44 118t122 48q50 0 91.5 -39.5t41.5 -91.5q0 -36 -15.5 -62t-33.5 -39t-33.5 -33.5t-15.5 -45.5q0 -47 76 -47q26 0 47 6l194 467 l228 813q12 41 12 78q0 89 -174 98v51h364l84 203h111l-84 -203h211z" />
<glyph unicode="&#xe2a9;" horiz-adv-x="1667" d="M1716 1384v-51q-76 -8 -139.5 -48t-198.5 -152l-75 -64l-193 -467l209 -418q66 -133 199 -133v-51h-644v31l-188 -455h-98l317 764l-164 340l-131 -473q-6 -23 -6 -70q0 -45 36 -63t120 -23v-51h-670v51q101 10 136 40t59 116l266 967q8 31 8 61q0 88 -174 98v51h686v-51 q-94 -6 -129.5 -32.5t-62.5 -120.5l-131 -475l471 393l94 229h-6l-72 6v51h102l84 203h97l-84 -203h282zM1153 942l-147 -125l51 -106zM956 231l-73 -180q66 15 90 30.5t24 41.5q0 32 -26 82z" />
<glyph unicode="&#xe2ab;" horiz-adv-x="1564" d="M1470 465l-139 -465h-633l-200 -481h-111l201 481h-498v51q102 12 135.5 39t57.5 111l264 960q12 43 12 76q0 43 -46.5 67t-127.5 29v51h686v-51q-52 -4 -80.5 -11.5t-53.5 -29.5t-40.5 -58t-32.5 -101l-254 -926q-8 -36 -8 -70t21 -49l622 1499h111l-631 -1524h27 q120 0 211.5 19.5t174.5 66t151.5 127t129.5 201.5z" />
<glyph unicode="&#xe2ad;" horiz-adv-x="2138" d="M2189 1384v-51q-96 -8 -131.5 -36t-60.5 -117l-254 -922q-21 -77 -21 -127q0 -40 40.5 -57.5t127.5 -22.5v-51h-676v51q103 12 137.5 43.5t61.5 128.5l264 946h-4l-813 -1169h-55l-21 178l-274 -659h-111l361 870l-92 828h-4l-273 -953q-20 -78 -20 -102q0 -50 40.5 -79 t118.5 -32v-51h-440v51q54 5 85 14t52.5 30.5t32.5 47.5t27 78l276 961q4 14 4 53q0 43 -48.5 69t-125.5 29v51h574l41 -399l249 602h111l-338 -815l35 -328h4l653 940h467z" />
<glyph unicode="&#xe2af;" horiz-adv-x="1755" d="M1806 1384v-51q-103 -15 -137.5 -44.5t-60.5 -125.5l-322 -1200h-57l-305 551l-410 -995h-111l459 1108l-250 452l-217 -811q-18 -67 -18 -108q0 -53 34 -76.5t119 -32.5v-51h-440v51q59 7 92 16t55 31t32 47t24 78l258 963q-39 88 -69 115t-89 32v51h428l201 -370 l238 573h110l-287 -690l240 -440h4l178 659q27 106 27 127q0 46 -32.5 64.5t-139.5 25.5v51h446z" />
<glyph unicode="&#xe2b1;" horiz-adv-x="1642" d="M117 473q0 186 74 359t198.5 301t299.5 205t366 77q23 0 35 -2l71 174h111l-78 -184q189 -38 293 -172t104 -334q0 -183 -69.5 -353.5t-190.5 -295.5q-134 -140 -306 -213.5t-363 -73.5q-44 0 -64 2l-182 -444h-111l189 461q-181 39 -279 169t-98 324zM1157 1313 l-530 -1280q32 -4 53 -4q348 0 520 643q55 207 55 356q0 219 -98 285zM535 76l526 1270q-10 2 -29 2q-167 0 -303.5 -174.5t-222.5 -497.5q-53 -193 -53 -340q0 -187 82 -260z" />
<glyph unicode="&#xe2b3;" horiz-adv-x="1282" d="M1618 1587l-213 -291q119 -87 119 -239q0 -102 -36.5 -180.5t-94.5 -125t-141 -76.5t-164.5 -41.5t-176.5 -12.5l-301 -412v-2q-12 -37 -12 -64q0 -48 40.5 -68.5t133.5 -23.5v-51h-315l-310 -424h-108l309 424h-258v51q70 8 106.5 24t53.5 43t33 83l264 956q12 41 12 78 q0 89 -174 98v51h686q147 0 256 -45l180 248h111zM852 692l334 455q-5 77 -48.5 121.5t-123.5 44.5q-100 0 -119 -74l-150 -539q49 -8 107 -8zM1149 946l-166 -227q108 55 166 227zM676 451l127 172q-40 3 -76 10z" />
<glyph unicode="&#xe2b5;" horiz-adv-x="1708" d="M117 473q0 186 74 359t198.5 301t299.5 205t366 77q100 0 196 -26l82 198h111l-98 -237q118 -63 181.5 -180.5t63.5 -272.5q0 -183 -69.5 -353.5t-190.5 -295.5q-230 -242 -559 -281l-57 -135q110 -20 217 -57q100 -33 188 -33q102 0 176 34t170 126l45 -39 q-127 -174 -257.5 -241.5t-317.5 -67.5q-22 0 -46 2.5t-41 5t-50 11t-47.5 12t-61 16.5t-63.5 18l-54 -121h-110l63 144q-63 8 -123 8q-84 0 -231 -70l-33 51l391 336v4q-199 33 -306 166t-107 336zM1249 1120l-442 -1067q253 100 393 619q55 207 55 356q0 48 -6 92zM688 29 l514 1241q-57 78 -170 78q-167 0 -303.5 -174.5t-222.5 -497.5q-53 -193 -53 -340q0 -155 58 -231t177 -76zM659 -39l-124 -100v-6q13 0 39.5 -3t37.5 -4z" />
<glyph unicode="&#xe2b7;" horiz-adv-x="1603" d="M1473 1587l-105 -250q182 -68 182 -264q0 -155 -112.5 -266t-292.5 -133l196 -461q15 -36 21.5 -50t17.5 -36t18 -29.5t18.5 -18.5t24.5 -14.5t29.5 -7.5t40.5 -6v-51h-469l-110 283l-316 -764h-110l199 481h-615v51q38 4 60.5 8.5t44 13.5t33.5 20.5t24.5 34t21.5 48.5 t21 70l252 911q12 47 12 78q0 48 -44 69.5t-130 28.5v51h666q127 0 219 -18l92 221h111zM1024 772l178 416q-12 56 -55.5 90.5t-124.5 34.5q-60 0 -90 -19.5t-43 -70.5l-139 -516q168 0 274 65zM879 418l-88 223h-58l-108 -401q-19 -68 -19 -101q0 -42 25.5 -60.5 t95.5 -27.5z" />
<glyph unicode="&#xe2b9;" horiz-adv-x="1206" d="M1272 1409l-96 -432l-58 8q-10 224 -123 307l-170 -413q183 -120 256.5 -221t73.5 -246q0 -121 -70 -232t-184 -166q-115 -53 -291 -53q-75 0 -159 19l-191 -461h-110l202 485q-58 23 -92 23q-20 0 -45 -16.5t-33 -49.5h-65l71 481l60 -8q15 -129 45 -207t96 -131 l203 488q-95 66 -153 123.5t-93 132t-35 161.5q0 184 133 299t330 115q90 0 158 -10l76 182h110l-86 -207q11 -4 30 -11t28 -10t20.5 -6t19.5 -3q29 0 46.5 13t29.5 46h66zM741 946l162 391q-24 6 -51 6q-84 0 -143.5 -57.5t-59.5 -148.5q0 -102 92 -191zM676 520l-195 -471 q56 -16 109 -16q94 0 160.5 72.5t66.5 175.5q0 122 -141 239z" />
<glyph unicode="&#xe2bb;" horiz-adv-x="1150" d="M1425 1384l-77 -411l-60 4q6 50 6 84q0 233 -288 258l-150 -365l-197 -714q-14 -52 -14 -107q0 -44 39 -60.5t129 -21.5v-51h-352l-201 -481h-110l200 481h-219v51q109 13 140.5 43t62.5 146l299 1079q-197 -6 -320.5 -86t-197.5 -260l-54 18l91 393h772l84 203h110 l-84 -203h391z" />
<glyph unicode="&#xe2bd;" horiz-adv-x="1525" d="M1665 1384v-51q-102 -15 -137.5 -46t-61.5 -128l-174 -643q-82 -301 -242 -428t-440 -127q-35 0 -51 2l-182 -444h-111l189 458q-139 27 -221 106t-82 200q0 79 30 190l189 684q12 41 12 78q0 89 -174 98v51h723v-51q-112 -8 -159.5 -37.5t-70.5 -113.5l-194 -707 q-31 -105 -31 -196q0 -90 43 -142l602 1450h111l-625 -1509q53 -17 111 -17q179 0 297.5 113.5t181.5 341.5l170 614q14 52 14 93q0 55 -37.5 78.5t-125.5 31.5v51h446z" />
<glyph unicode="&#xe2bf;" horiz-adv-x="1222" d="M1585 1384v-51q-77 -10 -117 -43.5t-98 -124.5l-772 -1202h-66l-30 162l-250 -606h-111l326 788l-168 883q-7 41 -13.5 61.5t-23 42.5t-47.5 30.5t-80 8.5v51h629v-51q-92 -1 -121 -23t-29 -69q0 -17 19 -133l47 -285l317 764h111l-395 -954l43 -254h4l467 719 q65 101 65 174q0 30 -31.5 42.5t-121.5 18.5v51h446z" />
<glyph unicode="&#xe2c1;" horiz-adv-x="2007" d="M2316 1384v-51q-80 -10 -120.5 -43t-94.5 -125l-712 -1202h-66l-86 453l-371 -897h-110l446 1079l-57 299l-547 -934h-66l-233 1227q-7 41 -13.5 61.5t-23 42.5t-47.5 30.5t-80 8.5v51h615v-51q-48 -1 -77 -7t-41 -20t-15 -27t-3 -38q0 -17 19 -133l123 -725h4l360 639 l-30 168q-2 10 -4.5 28t-4 26.5t-5 22.5t-7.5 20t-11 15.5t-16.5 13.5t-23 9t-31 6.5t-39.5 1.5v51h580l84 203h110l-270 -651l92 -547h4l414 705q61 105 61 178q0 30 -31.5 42.5t-121.5 18.5v51h446zM1419 1124l86 209q-61 -6 -80.5 -28.5t-19.5 -63.5q0 -17 14 -117z" />
<glyph unicode="&#xe2c3;" horiz-adv-x="1644" d="M1677 1384v-51q-33 -6 -59 -15.5t-45.5 -20t-51.5 -38.5t-54.5 -50t-78.5 -77.5t-102 -99.5l-256 -246l203 -579q22 -65 58 -101t71 -45.5t86 -9.5v-51h-696v51q87 1 124 23.5t37 68.5q0 33 -14 74l-53 148l-348 -846h-111l408 989l-11 33l-276 -287q-72 -75 -72 -127 q0 -33 23.5 -51t81.5 -25v-51h-471v51q75 9 135.5 43.5t122.5 98.5l426 432l-213 604q-11 30 -34 51t-56 31.5t-58 14.5t-61 7v51h733v-51l-90 -6q-101 -8 -101 -80q0 -16 13 -59l88 -248l268 647h111l-84 -203h407zM1096 965l78 75q102 101 139 147t37 81q0 22 -17.5 40 t-46.5 21l-39 4z" />
<glyph unicode="&#xe2c5;" horiz-adv-x="1165" d="M1446 1384v-51q-72 -7 -106 -27t-76 -75l-461 -615l-105 -376q-14 -52 -14 -107q0 -20 7.5 -33t18 -21t35.5 -13.5t45 -8t62 -6.5v-51h-492l-198 -481h-111l199 481h-80v51q79 10 111 25l137 327l37 138l-209 671q-18 58 -53 86.5t-107 34.5v51h633v-51 q-86 -6 -111.5 -24.5t-25.5 -63.5q0 -33 51 -205l20 -67l254 614h111l-318 -768l43 -139h5l307 405q50 65 67 101.5t17 68.5q0 70 -138 78v51h445z" />
<glyph unicode="&#xe2c7;" horiz-adv-x="1474" d="M1436 1325l-521 -686l-235 -567q167 1 277.5 34t197 113t162.5 225l53 -10l-131 -434h-588l-200 -481h-111l201 481h-455v57l954 1256l-145 -6q-105 -5 -171 -13.5t-131 -29.5t-113 -59t-95.5 -96.5t-99.5 -147.5l-56 10l136 413h749l84 203h111l-84 -203h211v-59z M672 317l-187 -245h84z" />
<glyph unicode="&#xe2c9;" horiz-adv-x="1290" d="M94 279q0 116 50 240.5t129 223.5t186 162.5t213 63.5q30 0 57 -6l258 624h111l-277 -667q42 -38 53 -103l33 123l267 16l-148 -524q-51 -183 -51 -246q0 -65 33 -65t72.5 33t97.5 118l41 -28q-161 -273 -347 -273q-82 0 -126 40.5t-44 115.5q0 44 15 100 q-106 -205 -285 -245l-192 -463h-111l188 452q-107 8 -165 83.5t-58 224.5zM791 844l-299 -723q47 8 96.5 50.5t85.5 109.5q60 110 98.5 247.5t38.5 243.5q0 42 -20 72zM397 164l297 719q-112 -20 -219 -240q-47 -96 -70.5 -202t-23.5 -179q0 -67 16 -98z" />
<glyph unicode="&#xe2cb;" horiz-adv-x="1198" d="M1155 1587l-258 -618q123 -6 187.5 -79.5t64.5 -197.5q0 -167 -86 -335.5t-213 -264.5q-155 -115 -365 -121l-186 -452h-111l187 452q-51 4 -94 14t-81.5 28t-60.5 48t-22 70q0 23 16 102t33 136l246 848q10 38 10 53q0 21 -18.5 37t-49.5 16h-63v49q223 17 465 76 l-178 -637l4 -2q81 107 200 145l262 633h111zM827 799l-315 -762q97 20 172 127q75 102 126.5 253t51.5 283q0 68 -35 99zM416 72l309 747q-63 -20 -137 -117q-53 -68 -89.5 -180.5t-86.5 -322.5q-9 -45 -9 -58q0 -43 13 -69z" />
<glyph unicode="&#xe2cd;" horiz-adv-x="1046" d="M1036 1587l-258 -618q95 -8 161.5 -61.5t66.5 -129.5q0 -66 -42.5 -108.5t-107.5 -42.5q-57 0 -92 32.5t-35 81.5q0 31 24.5 65.5t24.5 55.5q0 27 -26 37l-306 -737q47 -53 115 -53q85 0 155.5 34.5t147.5 132.5l41 -28q-167 -277 -461 -277q-40 0 -75 6l-191 -458h-110 l200 483q-83 36 -128.5 108.5t-45.5 176.5q0 146 59.5 275.5t168.5 225.5q170 147 344 175l260 624h110zM393 303l234 563q-63 -44 -127 -153q-39 -66 -73 -183.5t-34 -226.5z" />
<glyph unicode="&#xe2cf;" horiz-adv-x="1323" d="M1307 1448l-281 -1020q-51 -181 -51 -242q0 -22 8 -40.5t25 -18.5q34 0 72 30.5t96 114.5l43 -28q-165 -271 -347 -271q-55 0 -93 17.5t-57.5 52t-19.5 84.5q0 44 15 100q-63 -123 -154.5 -187t-200.5 -69l-188 -452h-111l193 465q-162 49 -162 295q0 92 31.5 191 t87.5 186.5t127 158t156.5 112t169.5 42.5l256 618h110l-86 -205q171 19 361 66zM870 829l101 385q8 31 8 54q0 20 -16 35t-41 18l-154 -371q82 -32 102 -121zM737 879l-309 -750q13 -8 43 -8q51 0 107.5 43t95.5 117q60 111 98.5 247.5t38.5 241.5q0 28 -10.5 52t-27 38 t-36.5 19zM381 283l229 553q-65 -55 -135 -195q-44 -89 -67.5 -186.5t-26.5 -171.5z" />
<glyph unicode="&#xe2d1;" horiz-adv-x="1048" d="M1057 1587l-258 -620q95 -7 152 -57.5t57 -123.5q0 -77 -37.5 -140t-103 -106t-137 -71.5t-157.5 -48.5l-114 -275q39 -36 86 -36q83 0 156 39t147 141l41 -29q-97 -153 -207.5 -221t-247.5 -68q-31 0 -47 2l-186 -454h-111l197 477q-91 31 -142 104t-51 179 q0 157 84 308t221.5 252.5t288.5 123.5l258 624h111zM768 893l-143 -350q81 54 127.5 126.5t46.5 153.5q0 48 -31 70zM485 477l170 410q-140 -75 -239 -428q34 6 69 18zM397 262l56 135q-36 -4 -52 -6q-8 -43 -8 -80q0 -33 4 -49z" />
<glyph unicode="&#xe2d3;" horiz-adv-x="1339" d="M702 944q28 86 55.5 150t73 134.5t99 115.5t132 74.5t173.5 29.5q53 0 100 -18l115 157h111l-150 -205q47 -50 47 -108q0 -56 -33.5 -101t-101.5 -45q-45 0 -80 27l-153 -211h79l-20 -90h-125l-88 -119q-61 -280 -100.5 -426t-83.5 -264q-33 -88 -76.5 -160t-76.5 -109.5 t-81 -82.5q-126 -117 -246 -117q-98 0 -153 41l-70 -98h-108l118 166q-12 30 -12 67q0 56 34.5 102t102.5 46q21 0 31 -4l348 477l119 481h-158l19 90h159zM981 944l225 309q2 31 24.5 62.5t22.5 42.5q0 12 -10.5 19t-25.5 7q-155 0 -213 -311l-25 -129h2zM510 152 l-227 -310q16 -29 16 -61t-23 -65.5t-24 -43.5q0 -12 10 -22t25 -10q60 0 101 88.5t97 320.5z" />
<glyph unicode="&#xe2d5;" horiz-adv-x="1230" d="M1227 807h-158q16 -31 16 -113q0 -87 -38 -161.5t-113 -124.5q-75 -51 -149.5 -72t-172.5 -21h-14l-49 -129h8q243 -39 342 -100q61 -37 80.5 -80.5t19.5 -109.5q0 -133 -144 -225.5t-382 -92.5q-80 0 -158 10l-28 -69h-111l37 92q-164 52 -164 176q0 201 297 211 q-72 24 -107.5 67t-35.5 95q0 61 48.5 104t170.5 80q-180 73 -180 242q0 100 54 187t148 138q108 58 283 58h12l240 618h111l-242 -624q83 -10 127 -48h252v-108zM811 866l-190 -491q48 12 89.5 60t66.5 110t39.5 124.5t14.5 110.5q0 53 -20 86zM524 414l191 489 q-57 -14 -100.5 -58.5t-66.5 -104.5t-33.5 -118.5t-10.5 -113.5q0 -61 20 -94zM453 227l36 97q-21 -3 -36 -19t-15 -43q0 -20 15 -35zM461 -37l-113 -289q65 -30 146 -30q116 0 190 45t74 102q0 37 -23 62.5t-71 48.5q-51 25 -203 61zM266 -252l76 195q-33 -19 -41 -27 q-30 -30 -39.5 -51.5t-9.5 -52.5q0 -36 14 -64z" />
<glyph unicode="&#xe2d7;" horiz-adv-x="1251" d="M1182 1587l-258 -620q12 2 34 2q73 0 119.5 -51t46.5 -125q0 -85 -53 -242l-125 -377q-4 -16 -4 -22q0 -31 33 -31q59 0 164 151l41 -30q-89 -149 -176 -210t-187 -61q-62 0 -104.5 35.5t-42.5 95.5q0 9 0.5 18t2.5 20.5t3 19t5 22.5l6 22.5t7.5 27t8.5 28.5t10.5 34.5 t11.5 37.5l113 362q14 43 14 62q0 12 -4 24l-522 -1261h-111l512 1239q-57 -51 -125 -152q-73 -107 -116.5 -218t-123.5 -388h-290l321 1157q27 101 27 113q0 53 -86 53h-45v49q240 20 465 76l-228 -846q167 247 267 318l278 667h111z" />
<glyph unicode="&#xe2d9;" horiz-adv-x="763" d="M715 1288q0 -66 -48 -112t-114 -46q-62 0 -109 48t-47 116q0 60 46.5 107t107.5 47q66 0 115 -48t49 -112zM999 1587l-583 -1411v-2q0 -53 33 -53q26 0 62.5 31t76.5 90l28 43l41 -29q-70 -141 -150 -204.5t-175 -76.5l-164 -399h-98l163 399q-53 8 -82.5 40t-29.5 89 q0 65 29 172l118 424q21 80 21 91q0 26 -18.5 39.5t-63.5 13.5h-45v49q211 15 465 76l-41 -148l317 766h96z" />
<glyph unicode="&#xe2db;" horiz-adv-x="1228" d="M1114 1288q0 -66 -48 -112t-114 -46q-62 0 -108.5 48t-46.5 116q0 60 46 107t107 47q66 0 115 -48t49 -112zM1563 1587l-588 -805l-174 -626q-36 -129 -104.5 -263.5t-147.5 -207.5q-117 -109 -283 -109q-80 0 -143 37l-2 2l-72 -96h-108l120 164q-14 28 -14 69 q0 56 34.5 102t102.5 46q23 0 33 -4l375 512l80 292q20 76 20 91q0 53 -86 53h-45v49q174 11 434 68l457 626h111zM526 170l-241 -330q14 -28 14 -59q0 -32 -23 -65.5t-24 -43.5q0 -12 10 -22t25 -10q51 0 83 39t56 124z" />
<glyph unicode="&#xe2dd;" horiz-adv-x="1273" d="M1352 1587l-267 -643h140v-49q-114 -15 -183 -53l-215 -518q59 -195 117 -195q32 0 75.5 37t82.5 106l45 -26q-70 -149 -144.5 -212t-189.5 -63q-66 0 -115 41l-202 -493h-111l244 590q-54 105 -97 327l-65 -51l-105 -385h-290l321 1157q27 97 27 113q0 53 -86 53h-45v49 q243 21 467 76l-262 -961q35 28 99 79q91 72 131 104.5t87 74t63.5 64t16.5 39.5q0 24 -23 34t-84 13v49h191l266 643h111zM879 713l-117 -105q11 -57 24 -119z" />
<glyph unicode="&#xe2df;" horiz-adv-x="780" d="M991 1587l-581 -1407v-10q0 -49 32 -49q26 0 65.5 32t78.5 91l28 43l41 -31q-80 -143 -157.5 -205.5t-173.5 -75.5l-164 -399h-99l164 399q-110 16 -110 129q0 50 32 168l259 908q20 76 20 90q0 53 -86 53h-45v49q216 16 469 76l-166 -574l297 713h96z" />
<glyph unicode="&#xe2e1;" horiz-adv-x="1787" d="M1675 272l41 -30q-89 -150 -175.5 -210.5t-186.5 -60.5q-62 0 -105 35t-43 98q0 13 2 28.5t7 37t9.5 38.5t13.5 47t14 47t17 54t17 54l68 219q0 1 10 29t17.5 55t7.5 41q0 45 -35 45q-53 0 -118.5 -63.5t-131.5 -174.5q-56 -94 -88.5 -187.5t-110.5 -373.5h-178 l-199 -481h-110l198 483l127 430q9 31 22.5 75.5t20 66.5t15 52.5t12.5 45.5t8.5 33t6 28.5t1.5 18.5q0 27 -8 37t-26 10q-25 0 -55 -25.5t-72 -75.5q-96 -109 -163 -258.5t-143 -439.5h-290l135 487q74 273 74 304q-3 53 -86 53h-48v49q75 5 131.5 11t106.5 15t74.5 13.5 t78 18t74.5 18.5l-90 -367h4q106 160 159 220q129 147 265 147q31 0 64 -11l260 629h110l-294 -713q12 -38 12 -81q0 -103 -41 -183h4q58 83 92.5 128.5t79.5 97t80 76t78.5 41t91.5 16.5q82 0 128 -49t46 -127q0 -29 -5 -59.5t-8.5 -44.5t-15.5 -52t-14 -45l-90 -279 q-49 -152 -49 -161q0 -19 7.5 -25t24.5 -6q59 0 164 151z" />
<glyph unicode="&#xe2e3;" horiz-adv-x="1251" d="M1190 1587l-258 -620q8 2 26 2q73 0 119.5 -51t46.5 -125q0 -85 -53 -242l-125 -377q-4 -16 -4 -22q0 -31 33 -31q59 0 164 151l41 -28q-92 -155 -172.5 -214t-190.5 -59q-62 0 -104.5 35.5t-42.5 95.5q0 9 0.5 18t2.5 20.5t3 19t5 22.5l6 22.5t7.5 27t8.5 28.5 t10.5 34.5t11.5 37.5l113 362q14 43 14 68q0 14 -2 18l-518 -1261h-111l514 1247q-52 -39 -133 -160q-73 -107 -116.5 -218t-123.5 -388h-290l188 678q27 101 27 113q0 53 -86 53h-45v49q240 20 465 76l-95 -367q92 137 157.5 213t121.5 111l274 661h111z" />
<glyph unicode="&#xe2e5;" horiz-adv-x="1169" d="M346 -16q-118 31 -185 121t-67 212q0 145 56 273.5t149 214.5q102 95 204.5 129.5t229.5 34.5h23l256 618h110l-264 -633q127 -30 194.5 -114.5t67.5 -200.5q0 -292 -221 -506q-79 -76 -186 -119t-217 -43h-43l-187 -452h-110zM479 35h17q96 0 176 102q75 96 123.5 268 t48.5 326q0 77 -27 123zM729 905h-6q-35 0 -74 -20t-69 -54q-82 -93 -145.5 -256t-63.5 -364q0 -74 22 -117z" />
<glyph unicode="&#xe2e7;" horiz-adv-x="1302" d="M1329 1587l-260 -626q89 -23 136.5 -96t47.5 -173q0 -161 -53.5 -302t-150.5 -240q-82 -83 -182.5 -129.5t-207.5 -49.5l-143 -346h25v-49h-45l-25 -57h-111l25 57h-436v49q86 0 118.5 32t61.5 146l207 803q43 162 43 199q0 28 -23 33.5t-108 5.5v49q261 27 446 78 l-71 -240h2q87 126 165 179t171 59l258 618h110zM963 707l-267 -644q77 48 141 153.5t97 224.5t33 221q0 17 -4 45zM580 43l317 770q-15 6 -33 6q-100 0 -196 -143q-31 -46 -48 -88t-45 -150q-63 -244 -63 -319q0 -24 19.5 -45.5t48.5 -30.5zM416 -348l137 330 q-46 10 -80 34l-22 -77q-54 -183 -54 -238q0 -33 19 -49z" />
<glyph unicode="&#xe2e9;" horiz-adv-x="1187" d="M94 279q0 116 50 240.5t129 223.5t186 162.5t213 63.5q19 0 51 -4l260 622h96l-272 -657q55 -40 67 -113l33 127h256l-307 -1116q-22 -85 -22 -129q0 -34 26 -50t94 -16v-49h-583v49q95 1 130.5 32t61.5 118l113 375q-108 -153 -262 -181l-166 -401h-98l163 397 q-219 19 -219 306zM776 858l-303 -737q51 0 106.5 43t94.5 117q60 110 98.5 247.5t38.5 243.5q0 54 -35 86zM393 168l295 711q-110 -23 -213 -236q-47 -96 -70.5 -202t-23.5 -179q0 -64 12 -94z" />
<glyph unicode="&#xe2eb;" horiz-adv-x="894" d="M1161 1587l-258 -618q53 -9 86 -46t33 -94q0 -67 -36.5 -109t-96.5 -42q-51 0 -90 35l-496 -1194h-110l507 1224q-51 -41 -110 -145q-35 -60 -54 -97t-48.5 -112t-63.5 -184l-64 -205h-288q204 709 204 801q0 29 -20.5 36t-103.5 7v49q256 27 460 76l-129 -432h2 q96 194 164.5 288.5t136.5 124.5l265 637h110z" />
<glyph unicode="&#xe2ed;" horiz-adv-x="1048" d="M1055 1587l-267 -645q46 -20 66 -20q22 0 53 47h45l-51 -299l-49 6q-26 143 -92 196l-113 -268q56 -45 94.5 -87t58 -71.5t29.5 -66t11.5 -57.5t1.5 -58q0 -92 -55.5 -160.5t-139.5 -100.5t-182 -32q-43 0 -78 6l-190 -458h-111l203 487q-35 14 -56 14q-45 0 -73 -49h-45 l55 348l49 -4q17 -153 103 -229l124 301q-3 4 -33.5 36t-36.5 39t-29 34.5t-29.5 41.5t-18.5 38.5t-16 47.5t-4 48q0 60 26.5 122t81.5 103q96 72 272 72q19 0 27 -2l258 620h111zM567 680l92 221q-59 -4 -91.5 -43t-32.5 -92q0 -49 32 -86zM524 303l-108 -260q10 -2 30 -2 q56 0 96 40t40 95q0 56 -58 127z" />
<glyph unicode="&#xe2ef;" horiz-adv-x="841" d="M995 1587l-268 -647h72v-90h-109l-272 -660v-20q0 -49 33 -49q26 0 65 31t78 90l29 43l41 -29q-83 -151 -170 -217q-74 -55 -166 -64l-164 -399h-98l165 399q-108 20 -108 129q0 78 29 185l161 561h-118v65q317 120 477 371h51l-98 -346h6l268 647h96z" />
<glyph unicode="&#xe2f1;" horiz-adv-x="1294" d="M1182 264l41 -28q-156 -265 -365 -265q-81 0 -120.5 45t-39.5 109q0 86 54 207h-2q-149 -264 -304 -332l-196 -481h-111l187 452q-98 0 -150.5 42t-52.5 124q0 99 35 225l75 273q4 16 12 44.5t12.5 45t8.5 35.5t4 31q0 30 -27.5 41.5t-103.5 11.5v49q98 6 238 29t233 47 l-186 -639q-29 -101 -29 -152q0 -12 4 -28l596 1437h111l-600 -1446q45 31 98 101q67 88 107.5 164t82.5 200t97 338h283l-156 -569q-47 -165 -47 -207q0 -19 9 -33t26 -14q74 0 176 143z" />
<glyph unicode="&#xe2f3;" horiz-adv-x="1134" d="M1143 1587l-264 -639q35 21 67 21q63 0 110.5 -47.5t47.5 -110.5q0 -79 -78 -223q-82 -154 -203 -297t-254 -232q-45 -29 -77 -43l-183 -440h-110l166 401q-30 -6 -62 -6q-84 0 -140.5 40.5t-56.5 121.5q0 79 19.5 171t63.5 236t51 169q14 63 14 79q0 20 -12 32.5 t-35.5 17t-38.5 5.5t-39 1h-6v49q161 6 469 76q-15 -45 -37 -129t-33 -119q-7 -25 -33.5 -110t-44 -145t-33.5 -132t-16 -111q0 -53 41 -73l596 1437h111zM821 811l-274 -664q65 25 144.5 104.5t137.5 166.5t74 143q10 38 10 70t-12.5 56.5t-27.5 38t-31 36t-21 49.5z" />
<glyph unicode="&#xe2f5;" horiz-adv-x="1667" d="M1157 944l-156 -569q-3 -13 -15.5 -53.5t-18.5 -69.5t-6 -55q0 -60 69 -60q41 0 90 29t95 77t78.5 87t62.5 82q43 60 66.5 110t23.5 105q0 32 -10 55.5t-24 38.5t-28 29.5t-24 38.5t-10 57q0 50 39.5 86.5t89.5 36.5q63 0 110 -47.5t47 -110.5q0 -89 -77 -223 q-87 -158 -206.5 -300t-252.5 -231q-128 -86 -264 -86q-86 0 -119 41t-33 129q0 13 2.5 29.5t6 30t9.5 34.5t10 32t11.5 33t9.5 28q-59 -105 -121.5 -182.5t-142.5 -125.5l-326 -444h-108l291 397q-5 0 -15.5 -1t-15.5 -1q-83 0 -136 42t-53 124q0 95 35 225l76 273 q3 13 14 47t17 60.5t6 48.5q0 10 -3 17.5t-9.5 13t-12 9.5t-17 6.5t-18 4t-20 2t-18.5 0.5h-18h-15v49q227 14 471 76l-186 -639q-2 -7 -9 -32.5t-10 -38t-6.5 -32.5t-3.5 -37q0 -59 49 -59h12l334 457q15 22 100 356h160l469 643h111l-471 -643h14z" />
<glyph unicode="&#xe2f7;" horiz-adv-x="1325" d="M1192 1587l-326 -782q81 95 140.5 129.5t128.5 34.5q64 0 101.5 -44t37.5 -102q0 -52 -31.5 -90.5t-89.5 -38.5q-29 0 -52 8t-36 19.5t-23.5 23t-22 19.5t-24.5 8q-84 0 -200 -199l71 -327q23 -113 82 -113q38 0 71.5 25.5t86.5 101.5l41 -29q-85 -150 -157 -205 t-177 -55q-75 0 -121.5 48.5t-81.5 164.5l-274 -665h-111l269 649q-84 -120 -138 -158.5t-135 -38.5q-71 0 -110 41.5t-39 98.5q0 55 34.5 95t92.5 40q35 0 60 -11t36.5 -24t25.5 -24t29 -11q18 0 31 3t34 19.5t42 47.5l102 147l-72 328q-9 40 -22 65.5t-28 41t-42.5 23 t-54.5 9.5t-74 2v49l393 58q27 -39 46.5 -80t39.5 -113l336 811h111z" />
<glyph unicode="&#xe2f9;" horiz-adv-x="1226" d="M1311 1587l-256 -618h10q57 0 101 -40.5t44 -94.5q0 -100 -75 -267q-81 -180 -224 -389.5t-303 -378.5q-41 -41 -61 -59l-68 -164h-98l27 64q-116 -64 -218 -64q-71 0 -110 40.5t-39 98.5q0 54 35 94.5t94 40.5q39 0 70.5 -17t49 -37t42.5 -37t53 -17q30 0 78 33l135 327 q-20 200 -102 502q-43 157 -97 211q-19 19 -42.5 24t-73.5 5v49q114 10 192.5 27t175.5 49q81 -181 133 -416l430 1034h97zM846 219h6q207 301 207 436q0 14 -7 25.5t-16 19.5t-35 27q-1 1 -34 27l-150 -361z" />
<glyph unicode="&#xe2fb;" horiz-adv-x="1087" d="M1137 1587l-267 -643h152v-20l-285 -301l-174 -420q35 -26 64 -62q3 -3 31 -38.5t51 -57.5t39 -22q36 0 36 38q0 14 -20.5 46.5t-20.5 60.5q0 48 35 84.5t82 36.5q51 0 88 -37t37 -88q0 -56 -24 -97t-65 -63.5t-87.5 -32.5t-99.5 -10q-27 0 -60 3t-55.5 6.5t-62 10 t-56.5 9.5l-194 -471h-111l203 487q-50 4 -74 4q-98 0 -190 -39l-37 52l546 579l50 117h-277q-71 0 -99.5 -19t-51.5 -86l-50 7l95 323h475l266 643h111zM541 416l-170 -180l2 -3q34 9 73 9h23z" />
<glyph unicode="&#xe32d;" horiz-adv-x="1374" d="M326 -16q-107 26 -169.5 119.5t-62.5 222.5q0 118 46.5 234t123.5 206.5t186 146.5t226 56q30 0 57 -6l258 624h111l-271 -655q56 -28 96 -74t58 -98l102 184h295l-342 -532q-2 -13 -2 -27q0 -10 1 -27t1 -22q6 -95 31 -153t59 -58q37 0 67.5 34t62.5 105l47 -14 q-31 -125 -115 -200t-201 -75q-78 0 -116 35t-58 99q-132 -138 -375 -138h-10l-164 -395h-110zM459 35h16q139 0 295 401q2 10 10.5 53t13.5 76.5t5 59.5q0 143 -13 200zM709 905h-2q-25 0 -58 -16t-61 -49q-98 -109 -157.5 -274t-59.5 -357q0 -47 12 -88z" />
<glyph unicode="&#xe32f;" horiz-adv-x="1359" d="M1446 1587l-158 -215q72 -69 72 -178q0 -117 -67.5 -213.5t-172.5 -140.5v-6q49 -7 91.5 -39t70.5 -76q33 -53 33 -150q0 -103 -42.5 -208t-118 -192.5t-192 -142.5t-251.5 -55q-110 0 -176 45l-68 -237q-44 -147 -68 -203h-278q29 78 57 188l35 140l-238 -328h-108 l407 557l170 651q29 109 66.5 186t93.5 154q51 70 100 123t111 100.5t135.5 73t153.5 25.5q56 0 110 -23l121 164h111zM1133 1159l-201 -274q38 -11 41 -11q69 23 110 107.5t50 177.5zM721 748l397 540q-23 51 -88 51q-45 0 -81 -23.5t-64 -71t-48 -100.5t-42 -132zM655 508 l-18 -72q-64 -243 -64 -317q0 -30 33.5 -53t71.5 -23q70 0 137.5 60t112.5 145t72.5 174t27.5 151q0 68 -9.5 113.5t-26.5 65t-31.5 26t-32.5 6.5q-20 0 -39.5 -4t-34.5 -4h-2z" />
<glyph unicode="&#xe331;" horiz-adv-x="1204" d="M1374 1587l-747 -1024q-6 -46 -27 -168h4l391 549h330l-752 -907q0 -66 -13.5 -141.5t-40.5 -149t-75 -122t-108 -48.5q-57 0 -85 41t-28 92q0 157 252 434q35 124 51 285l-622 -852h-109l740 1012q-4 95 -40 145.5t-89 50.5q-117 0 -181 -135l-47 17l27 78t29 65t42 65 q81 95 185 95q82 0 127.5 -66t50.5 -172l625 856h110z" />
<glyph unicode="&#xe333;" horiz-adv-x="1169" d="M920 1153l-56 -131q56 -30 97.5 -62t79.5 -78.5t58.5 -109t20.5 -139.5q0 -170 -83.5 -323t-225.5 -246t-303 -93q-53 0 -78 2l-164 -397h-110l170 410q-30 6 -54 18q-87 42 -132.5 123t-45.5 188q0 100 43 201.5t113 181.5t164.5 137t193.5 72q-89 48 -148 117.5 t-59 146.5q0 89 57.5 153.5t143.5 94t186 29.5q81 0 138 -14l63 153h111l-80 -192q67 -47 67 -131q0 -43 -32 -80t-88 -37q-26 0 -47 6zM834 1214q-10 15 -24.5 46t-24.5 49t-34 33.5t-57 15.5q-51 0 -97 -28.5t-46 -88.5q0 -19 7 -36.5t25.5 -33.5t33 -27t48 -27.5 t50.5 -24t59 -25.5zM770 795l-313 -756q10 -4 37 -4q64 0 135 61q93 83 154 208t61 233q0 184 -74 258zM381 121l303 727l-2 2q-86 -33 -159.5 -145t-112.5 -245.5t-39 -248.5q0 -59 10 -90z" />
<glyph unicode="&#xe335;" horiz-adv-x="1040" d="M1055 1587l-258 -624q88 -16 145 -65.5t57 -119.5q0 -66 -42 -108.5t-107 -42.5q-57 0 -92 32.5t-35 81.5q0 25 24.5 61t24.5 58q0 11 -10 21l-135 -326q36 8 73 8q36 0 66.5 -13.5t30.5 -39.5q0 -36 -27 -51t-92 -15q-11 0 -43.5 6.5t-46.5 8.5l-133 -322 q46 -28 118 -28q90 0 177.5 43t123.5 102l37 -33q-173 -250 -473 -250q-37 0 -53 2l-164 -397h-110l172 416q-91 25 -142 83t-51 144q0 97 66 169.5t172 111.5v6q-101 46 -101 141q0 120 130 215t329 105l258 620h111zM518 563l135 326q-77 -24 -132.5 -90.5t-55.5 -143.5 q0 -66 53 -92zM389 250l74 178q-74 -46 -74 -156v-22z" />
<glyph unicode="&#xe337;" horiz-adv-x="1034" d="M1288 1587l-184 -287q2 -4 2 -14q0 -90 -113 -158l-561 -876q44 -27 119 -27q151 0 240.5 -61t89.5 -162q0 -78 -41 -152q-60 -113 -177 -193.5t-229 -80.5q-83 0 -126.5 43.5t-43.5 108.5q0 53 38 90t99 37q34 0 59 -19t38 -42.5t32 -42.5t41 -19q64 0 122.5 51.5 t58.5 118.5q0 39 -36 62.5t-89 23.5q-41 0 -112.5 -8.5t-90.5 -8.5q-82 0 -154 29l-272 -424h-109l304 473q-99 86 -99 246q0 201 117 399.5t324 380.5q-58 5 -105 40.5t-47 90.5q0 184 334 242l10 -49q-82 -26 -125 -72.5t-43 -95.5q0 -28 10.5 -47.5t40.5 -40.5 q239 207 391 207q17 0 23 -2l154 239h110zM369 326l479 745q-108 -24 -217 -24q-275 -238 -275 -633q0 -47 13 -88z" />
<glyph unicode="&#xe339;" horiz-adv-x="1185" d="M1194 1587l-256 -620q10 2 31 2q73 0 119.5 -51t46.5 -125q0 -66 -52 -242l-163 -555q-76 -255 -76 -318q0 -67 14 -102h-266q-21 45 -21 117q0 91 168 639q123 402 123 426q0 10 -4 18l-498 -1200h-110l489 1184q-63 -57 -127 -154q-73 -107 -115.5 -217t-123.5 -389 h-291l188 678q21 76 21 98q0 43 -33 43q-34 0 -80.5 -35t-93.5 -102l-43 27q152 260 371 260q77 0 114 -42.5t37 -109.5q0 -111 -31 -215h5q126 186 200 260q37 37 70 60l276 665h111z" />
<glyph unicode="&#xe33b;" horiz-adv-x="1259" d="M1081 1587l-71 -170q103 -43 163 -141.5t60 -243.5q0 -248 -99 -487t-247 -387q-94 -94 -208.5 -140.5t-227.5 -46.5q-27 0 -39 2l-164 -397h-111l172 420q-102 38 -158.5 138t-56.5 261q0 256 105.5 502t271.5 395q86 76 187.5 116t197.5 40q19 0 55 -4l60 143h110z M735 754h174q47 184 47 385q0 80 -8 127zM625 754l258 622q-28 8 -45 8q-72 0 -143.5 -71t-131.5 -195q-64 -131 -123 -364h185zM885 664h-187l-256 -617q21 -12 45 -12q84 0 164.5 96.5t145.5 257.5q46 112 88 275zM588 664h-174q-43 -179 -43 -347q0 -83 10 -151z" />
<glyph unicode="&#xe33d;" horiz-adv-x="727" d="M989 1587l-575 -1390v-23q0 -53 32 -53q26 0 63 31t77 90l28 43l41 -29q-72 -144 -154 -207.5t-179 -73.5l-164 -399h-99l166 399q-106 19 -106 127q0 70 28 174q111 419 111 547q0 17 -1 40t-1 32q163 11 346 74l21 -8l-23 -80l293 706h96z" />
<glyph unicode="&#xe33f;" horiz-adv-x="1216" d="M1343 1587l-256 -618q67 -4 103.5 -48.5t36.5 -99.5q0 -50 -31.5 -88.5t-89.5 -38.5q-70 0 -109 56l-186 -447l80 -145q37 -68 80 -88.5t137 -20.5v-49h-422l-176 -424h-111l176 424h-34v49q41 0 55 2l29 66l-152 295l-111 -412h-290l190 678q27 101 27 113q0 53 -86 53 h-45v49q243 21 467 76l-121 -443h2q155 190 265.5 289t195.5 133l266 639h110zM750 420l165 405q-86 -25 -253 -239z" />
<glyph unicode="&#xe341;" horiz-adv-x="1224" d="M1315 1587l-520 -1255q13 -176 120 -176q114 0 191 135l47 -17q-20 -62 -42.5 -109t-57 -94.5t-83.5 -73.5t-110 -26q-125 0 -162 127l-217 -522h-110l317 766q6 90 25 227h-4l-342 -569h-330l688 948q10 39 10 103q0 102 -42 157.5t-101 55.5q-52 0 -111 -34.5 t-94 -105.5l-47 17q105 307 305 307q68 0 113.5 -46t63.5 -115t18 -159q0 -76 -5.5 -157t-16.5 -195t-15 -160l401 971h111z" />
<glyph unicode="&#xe343;" horiz-adv-x="1427" d="M1509 1587l-471 -643h269l-156 -569q-47 -165 -47 -209q0 -45 31 -45q33 0 81 36t99 115l41 -28q-161 -273 -365 -273q-82 0 -121 43t-39 107q0 90 54 211h-2q-112 -199 -221.5 -280t-227.5 -81q-16 0 -22 2q-89 -300 -129 -389h-228q1 3 4.5 10t6 14t4.5 13l-31 -45 h-109l220 301l299 1067h284l-123 -438l789 1081h110zM1016 911l-471 -643q-17 -79 -17 -90q0 -27 14 -42t38 -15q64 0 157 121q95 125 149.5 252.5t129.5 416.5z" />
<glyph unicode="&#xe345;" horiz-adv-x="1169" d="M1143 969l53 -17q-26 -221 -123 -411q-93 -177 -238.5 -311t-340.5 -201l-189 -453h-110l174 420q-136 -25 -242 -25l-55 31l186 676q27 101 27 113q0 53 -86 53h-45v49q252 21 473 76l-195 -703q17 0 49 4l547 1317h111l-535 -1292q13 5 37 16.5t31 14.5 q124 62 227 176.5t163 234t81 232.5z" />
<glyph unicode="&#xe347;" horiz-adv-x="1032" d="M1288 1587l-205 -319v-8q0 -65 -77 -113l-154 -240q10 2 27 2q153 0 153 -73q0 -138 -301 -138h-14l-287 -448q48 -25 121 -25q151 0 240.5 -61t89.5 -162q0 -78 -41 -152q-60 -113 -177 -193.5t-229 -80.5q-83 0 -126.5 43.5t-43.5 108.5q0 53 38 90t99 37q34 0 59 -19 t38 -42.5t32 -42.5t41 -19q64 0 122.5 51.5t58.5 118.5q0 39 -36 62.5t-89 23.5q-41 0 -112.5 -8.5t-90.5 -8.5q-89 3 -154 29l-272 -424h-109l301 471q-96 80 -96 221q0 154 94.5 274.5t274.5 229.5q-38 22 -57 58t-19 75q0 61 31 104.5t100 92.5v6q-51 6 -84 39.5 t-33 79.5q0 163 338 221l13 -49q-177 -69 -177 -154q0 -20 9 -35t19.5 -23t10.5 -9q68 61 172.5 108t178.5 47q33 0 47 -4l166 258h110zM727 885l135 211q-77 -15 -166 -15q-73 0 -111 -48.5t-38 -114.5q0 -49 31 -91q75 39 149 58zM367 319l247 388q-7 1 -24 4.5t-25 5.5 q-95 -38 -156 -120.5t-61 -184.5q0 -54 19 -93z" />
<glyph unicode="&#xe349;" d="M1036 1587l-270 -655q209 -72 209 -295q0 -141 -59 -277t-156 -233q-78 -78 -171 -116t-220 -38l-189 -454h-110l196 473q-96 31 -148 104t-52 180q0 151 55 285t149 227q158 155 392 158l264 641h110zM395 35l2 -2q97 0 158 100q74 121 125 307t51 322q0 31 -12 55z M315 113l322 774q-64 0 -125 -64q-80 -86 -141.5 -287t-61.5 -364q0 -11 1 -21t2.5 -20.5z" />
<glyph unicode="&#xe34b;" horiz-adv-x="1335" d="M1581 1587l-471 -643h244l-54 -225h-251q-38 -98 -75.5 -238t-37.5 -229q0 -42 19 -69t57 -27q93 0 157 131l50 -19q-26 -113 -136 -219q-78 -78 -198 -78q-90 0 -138.5 53t-48.5 126t17 129q25 83 92 249l-696 -952h-109l283 389q-24 -4 -41 -4q-75 0 -117.5 28 t-42.5 81q0 39 20.5 64.5t73.5 43.5q53 19 99.5 58t66.5 83l180 400q-117 0 -187 -32t-142 -112l-43 25q43 63 70.5 100.5t66 82.5t72.5 70t78 48.5t95.5 33t112.5 9.5h352l471 643h111zM836 719h-166q-31 -176 -90 -350z" />
<glyph unicode="&#xe34d;" horiz-adv-x="1302" d="M1335 1587l-266 -643q31 -9 74 -39q110 -81 110 -246q0 -138 -55 -276.5t-149 -232.5q-81 -81 -180 -128t-203 -51l-164 -395h-111l166 404q-43 9 -84 36l-67 -237q-37 -126 -70 -203h-281q32 90 60 188l157 566q30 104 65.5 178t88.5 145q109 150 226 233t253 83 q42 0 62 -2l258 620h110zM967 668v28l-260 -626q31 23 45 36q89 89 152 262.5t63 299.5zM586 43l334 807q-26 33 -66 33q-57 0 -106 -49t-82.5 -123.5t-59.5 -175.5l-88 -347q-6 -25 -6 -69q0 -25 21.5 -46.5t52.5 -29.5z" />
<glyph unicode="&#xe34f;" horiz-adv-x="1032" d="M991 1587l-272 -653q69 16 123 16q91 0 151 -49.5t60 -122.5q0 -50 -33 -89.5t-98 -39.5q-34 0 -61.5 17t-46 41t-35.5 48t-39.5 41t-49.5 17h-20l-234 -563q48 -25 115 -25q151 0 240.5 -61t89.5 -162q0 -78 -41 -152q-60 -113 -177 -193.5t-229 -80.5 q-83 0 -126.5 43.5t-43.5 108.5q0 53 38 90t99 37q34 0 59 -19t38 -42.5t32 -42.5t41 -19q64 0 122.5 51.5t58.5 118.5q0 39 -36 62.5t-89 23.5q-41 0 -112.5 -8.5t-90.5 -8.5q-48 0 -98 13l-168 -408h-111l184 444q-137 83 -137 275q0 94 43 187.5t115 170t159 137.5 t181 101l289 696h110zM360 332l185 444q-92 -49 -148.5 -147t-56.5 -195q0 -58 20 -102z" />
<glyph unicode="&#xe351;" horiz-adv-x="1218" d="M1313 944l-56 -225h-385q21 -27 55 -53.5t62 -47t55 -47.5t42.5 -66.5t15.5 -92.5q0 -117 -78.5 -218.5t-215.5 -162t-298 -60.5q-30 0 -100 9l-166 -404h-111l176 426q-105 37 -160 117t-55 198q0 82 25 165t76 160.5t122 139.5t169.5 104.5t211.5 53.5l269 647h110 l-268 -643h504zM717 721l-279 -676q23 -10 58 -10q65 0 127 36.5t105.5 92.5t70 122t26.5 124q0 131 -20 196t-78 115h-10zM373 158l217 520q-97 -62 -158 -188t-61 -279q0 -37 2 -53z" />
<glyph unicode="&#xe353;" horiz-adv-x="970" d="M1067 1587l-266 -643h237l-53 -225h-278l-162 -393q-6 -37 -6 -74q0 -43 18.5 -69.5t56.5 -26.5q25 0 45.5 6t53 37t59.5 88l49 -19q-27 -107 -135 -219q-78 -78 -199 -78q-45 0 -84 17l-170 -412h-110l201 483q-23 39 -23 91q0 76 16 129q14 49 37 110.5t41.5 106.5 t49 117.5t44.5 105.5h-96q-77 0 -138 -28t-98.5 -68.5t-72.5 -100.5l-43 25q39 78 70 130.5t74.5 107t89 86.5t107 52.5t134.5 20.5h174l266 643h111z" />
<glyph unicode="&#xe355;" horiz-adv-x="1191" d="M1196 1587l-268 -645q104 -37 159.5 -118t55.5 -185q0 -292 -221 -506q-82 -78 -184.5 -119t-211.5 -43l-164 -395h-110l166 401q-118 13 -185 74t-67 189q0 61 24 145l80 293q2 9 8.5 30.5t9.5 37t3 30.5q0 43 -33 43q-34 0 -80.5 -35t-93.5 -102l-43 27 q152 260 371 260q77 0 114 -42.5t37 -109.5q0 -98 -31 -215l-61 -242q-33 -125 -33 -202q0 -57 17 -90l344 829q-25 14 -54 23l11 49q25 0 71 -4l258 622h111zM860 780l-309 -745q85 20 160 135t115 259t40 269q0 44 -6 82z" />
<glyph unicode="&#xe357;" horiz-adv-x="1486" d="M1581 1587l-457 -624q122 -17 205 -93q48 -47 72 -117.5t24 -146.5q0 -143 -75.5 -289.5t-208.5 -240.5q-70 -49 -153.5 -74t-215.5 -31l-27 -96q-32 -110 -32 -172q0 -39 28.5 -58t112.5 -20v-49h-596v49q84 0 119 34.5t67 150.5l45 161q-16 1 -83 11l-295 -406h-109 l313 428q-55 19 -86 43q-63 46 -95 121.5t-32 163.5q0 139 54.5 262t154.5 215q82 75 201.5 117.5t253.5 42.5l51 188q27 101 27 113q0 53 -86 53h-45v49q243 21 467 76l-117 -420l407 559h111zM995 786l-204 -743q94 17 178.5 110t132 212t47.5 223q0 235 -86 293zM612 412 l136 485q-91 -15 -176.5 -99t-138.5 -208.5t-54 -251.5q0 -121 35 -199zM545 172l-78 -106q25 -21 43 -23z" />
<glyph unicode="&#xe359;" horiz-adv-x="1273" d="M1495 1587l-717 -981v-117l281 455h327l-608 -766v-168q0 -250 129 -250q49 0 99.5 32t91.5 104l47 -17q-19 -58 -43 -107.5t-59.5 -96t-84.5 -73t-106 -26.5q-88 0 -132 69t-44 183q0 102 10 233h-4l-315 -471h-328l637 803q0 47 -2 72l-649 -889h-109l746 1022 q-32 186 -136 186q-49 0 -102 -33.5t-90 -105.5l-47 17q22 53 38.5 88t44.5 80.5t56.5 72.5t69.5 46.5t88 19.5q82 0 127.5 -60t60.5 -161l612 839h111z" />
<glyph unicode="&#xe35b;" horiz-adv-x="1474" d="M1655 1587l-760 -1036l-139 -508q57 4 113 32t92 68q43 50 68 112t34 125.5t15 126t20.5 131.5t42.5 124q34 68 73 109t94.5 62.5t115 28.5t155.5 7v-47q-63 -19 -105 -61t-63 -101.5t-33 -116.5t-25 -131t-28 -119q-70 -209 -206.5 -312t-383.5 -110l-108 -395h-277 l99 365l-265 -365h-108l297 408q-287 56 -287 338q0 53 19.5 113.5t43 106t43 101t19.5 100.5q0 81 -30.5 124t-104.5 53v49h112q133 0 198 -67t65 -169q0 -70 -45.5 -226t-45.5 -222q0 -153 74 -215l84 112l211 762h277l-43 -151l581 794h111z" />
<glyph unicode="&#xe35d;" horiz-adv-x="1601" d="M1628 1587l-452 -620q174 -6 275 -90t101 -244q0 -135 -55.5 -270t-144.5 -226q-79 -79 -183.5 -122.5t-201.5 -43.5q-172 0 -228 131q-70 -73 -136.5 -102t-156.5 -29l-288 -395h-109l293 401q-14 2 -41 11q-207 69 -207 354q0 155 92 297t232 225q177 105 385 105h26 v-49q-70 -7 -126.5 -40.5t-118.5 -95.5q-97 -96 -154 -238t-59 -286q0 -129 41 -186l254 348q7 120 64 211.5t161 97.5l627 856h110zM1139 918l-158 -216q45 -39 45 -112q0 -168 -180 -381q0 -87 32.5 -130.5t86.5 -43.5q74 0 148 101.5t118.5 241t44.5 255.5q0 97 -14 158 t-54 94q-15 12 -21.5 16.5t-19 9.5t-28.5 7zM674 281l-180 -246q57 5 108.5 54.5t79.5 135.5q-4 16 -8 56z" />
<glyph unicode="&#xe35f;" horiz-adv-x="1245" d="M1360 1036l35 -37q-75 -105 -213 -137q0 -91 -12.5 -180.5t-38.5 -178t-64 -167t-92.5 -146t-120.5 -116t-151.5 -76t-182.5 -27.5h-18l-164 -395h-111l166 404q-227 35 -227 260q0 61 24 145l80 293q2 9 8.5 30.5t9.5 37t3 30.5q0 43 -33 43q-34 0 -80.5 -35t-93.5 -102 l-43 27q152 260 371 260q77 0 114 -42.5t37 -109.5q0 -98 -31 -215l-61 -242q-33 -125 -33 -202q0 -36 6 -60l314 760q-130 38 -207.5 124.5t-77.5 211.5q0 109 77 181.5t206 72.5q123 0 221 -64l84 203h110l-114 -272q117 -135 123 -367q98 6 180 88zM815 995l66 156 q-21 99 -58.5 157t-70.5 58t-53.5 -34t-20.5 -87q0 -67 34 -134.5t103 -115.5zM860 838l-332 -803q68 4 135.5 71.5t119 175t84 254t32.5 298.5q-15 0 -39 4z" />
<glyph unicode="&#xe361;" horiz-adv-x="1488" d="M313 6q-97 31 -153 122.5t-56 203.5q1 178 85 323.5t234.5 229.5t338.5 84h49v-49q-66 -5 -121 -35q-133 -65 -220 -226t-89 -319q0 -123 31 -199l202 277q42 120 117 223q126 170 217 236l520 710h111l-469 -641q27 6 57 6q117 0 188.5 -84.5t71.5 -240.5 q0 -174 -80 -318.5t-231 -235.5t-346 -102l-104 -395h-285l106 395q-22 1 -81 11l-297 -406h-109zM901 510l-113 -467q96 19 177 100q86 86 136 217.5t50 282.5q0 88 -9.5 137t-22.5 62.5t-34 13.5q-52 0 -104 -104q-36 -68 -80 -242zM543 170l-76 -104q22 -18 41 -23z" />
<glyph unicode="&#xe363;" horiz-adv-x="1894" d="M2003 944l-53 -225h-207q10 -45 10 -86q0 -134 -56 -269.5t-145 -226.5q-79 -79 -183.5 -122.5t-201.5 -43.5q-171 0 -227 131q-68 -71 -134 -100t-155 -31l-289 -395h-108l295 406q-125 23 -189.5 115t-64.5 245q0 203 151 377h-86q-99 0 -166.5 -33t-138.5 -111l-43 25 q71 114 139 185t166.5 115t223.5 44h710l471 643h111l-471 -643h641zM1198 719l-86 -119q32 -12 52 -40t20 -60q0 -86 -41 -158q-41 -67 -96 -133q0 -87 32 -130.5t86 -43.5q74 0 148.5 101t119 240.5t44.5 256.5q0 59 -2 86h-277zM1087 719h-360q-72 -95 -113.5 -216.5 t-42.5 -242.5q0 -130 43 -190l252 346q12 66 47 112.5t84 67.5zM872 274l-174 -239q56 8 106.5 57t78.5 133q-1 6 -4 16.5t-4.5 18.5t-2.5 14z" />
<glyph unicode="&#xe367;" horiz-adv-x="972" d="M995 1008h47q-17 -136 -61 -230t-113 -146t-148 -75t-183 -27q-27 -2 -80 -2l-142 -342q18 3 57.5 12t69.5 14t52 5q111 0 174 -72t63 -178q0 -60 -37 -129.5t-94 -126t-130 -94t-140 -37.5q-77 0 -116.5 35t-39.5 86q0 41 27.5 76t87.5 35q32 0 53.5 -17t29.5 -37.5 t22.5 -37.5t35.5 -17q60 0 105 61.5t45 135.5q0 53 -22.5 74.5t-86.5 21.5q-22 0 -92.5 -11.5t-102.5 -11.5q-17 0 -49 4l-188 -458h-111l199 481q-137 61 -137 242q0 166 126.5 296.5t311.5 188.5l356 860h111l-344 -831q4 1 14 2t15 2q108 11 183.5 33.5t120.5 57.5 t68.5 70.5t42.5 86.5zM205 188l139 336q-101 -7 -149 -45q-78 -60 -78 -141q0 -56 23 -95.5t65 -54.5z" />
<glyph unicode="&#xe36b;" horiz-adv-x="1075" d="M1333 1587l-438 -665h143l-41 -172h-217l-307 -467v-7h313l-24 -102h-313l-130 -563h-253l18 80l-113 -172h-110l282 430l226 973h415l439 665h110zM670 750h-88l-50 -209z" />
<glyph unicode="&#xe36f;" horiz-adv-x="993" d="M954 817l-411 -547v-751h-111v606l-94 -125h-287l381 408v204h-399l399 529v446h111v-299l106 142h287l-393 -408v-205h411zM432 817v90l-88 -90h88zM623 612h-80v-86z" />
<glyph unicode="&#xe373;" horiz-adv-x="1085" d="M604 -412q47 102 75 233t28 257q0 123 -27 268l-545 -827h-110l489 743l-205 -102l-24 78l317 157l49 74q-20 70 -65 207l-377 -189l-25 78l369 185q-74 170 -183.5 294.5t-273.5 194.5l49 70q242 -22 429.5 -164t289.5 -352l522 794h111l-592 -897q51 -145 51 -284 q0 -236 -71 -450t-207 -376z" />
<glyph unicode="&#xe375;" horiz-adv-x="1165" d="M1212 920l-315 -299q-34 -69 -64 -178.5t-30 -170.5q0 -73 74 -73q57 0 86.5 -31t29.5 -74q0 -48 -33.5 -86.5t-107.5 -38.5q-85 0 -125.5 61.5t-40.5 153.5q0 71 23 162t57 152l-219 -207l-320 -772h-110l254 612l-138 -131h-335l321 301q34 69 64 175.5t30 166.5 q0 74 -73 74q-57 0 -87 31t-30 73q0 48 33.5 86.5t107.5 38.5q85 0 125.5 -61.5t40.5 -153.5q0 -69 -22.5 -156.5t-55.5 -150.5l230 215l391 948h110l-321 -776l115 109h335z" />
<glyph unicode="&#xe377;" horiz-adv-x="1169" d="M94 215q0 152 42.5 287t122 239.5t204.5 166t278 61.5l240 618h111l-244 -629q132 -27 202 -113t70 -206q0 -294 -219 -506q-77 -74 -181 -111.5t-218 -37.5q-21 0 -31 2l-33 -84q14 -4 48.5 -12.5t60.5 -16t49 -16.5q63 -24 92 -51.5t29 -86.5q0 -83 -88 -143l-39 14 q6 14 6 52q0 15 -11.5 26.5t-34.5 21.5t-46.5 17.5t-61 19t-63.5 21.5l-66 -172h-110l82 215q-8 5 -25 17.5t-18 13.5q-148 126 -148 393zM811 864l-315 -817q100 0 180 103q75 96 121.5 261.5t46.5 319.5q0 89 -33 133zM403 94l314 811q-34 -2 -71 -21.5t-66 -52.5 q-82 -93 -143.5 -250.5t-61.5 -357.5q0 -83 28 -129zM344 -55l27 63q-58 28 -107 94l-8 -2q13 -103 88 -155z" />
<glyph unicode="&#xe379;" horiz-adv-x="1230" d="M326 -4q-108 31 -170 119.5t-62 201.5q0 145 56 273.5t149 214.5q101 94 204 129t226 35l100 243q-76 95 -213 95q-40 0 -64.5 -2t-74.5 -17.5t-110 -46.5l-29 41q155 166 395 166q98 0 180 -31l72 170h111l-92 -219q182 -133 182 -465q0 -196 -78.5 -419.5 t-208.5 -350.5q-79 -76 -186 -119t-217 -43q-24 0 -70 4l-164 -399h-110zM903 926h6q0 99 -20 166l-55 -136q38 -11 69 -30zM801 877l-346 -836q18 -6 41 -6q96 0 176 102q75 96 123.5 268t48.5 326q0 106 -43 146zM379 127l323 778q-67 -13 -122 -74q-82 -93 -145.5 -256 t-63.5 -364q0 -51 8 -84z" />
<glyph unicode="&#xe37b;" horiz-adv-x="1075" d="M1112 1587l-266 -639q6 -3 17.5 -8.5t17.5 -8t16.5 -5t22.5 -2.5q32 0 57 41h45l-49 -295l-47 6q0 162 -107 205l-137 -332h147l-14 -90h-170l-141 -338q30 -12 59 -12q103 0 179.5 36.5t142.5 108.5l37 -33q-27 -36 -47 -59.5t-65.5 -63.5t-92.5 -64.5t-120 -43.5 t-155 -19l-163 -395h-111l168 408q-122 25 -182 106.5t-60 196.5q0 147 59 277.5t169 223.5q99 85 202.5 133t196.5 48h22l258 618h111zM569 549l144 346q-52 -6 -100.5 -41t-83.5 -86.5t-60 -107.5t-37 -111h137zM532 459h-122q-17 -67 -17 -142q0 -67 31 -124z" />
<glyph unicode="&#xe37e;" horiz-adv-x="1622" d="M1460 1587l-76 -182q207 -17 207 -160q0 -116 -129.5 -249t-337.5 -222l-69 -168q101 -13 157 -72t56 -147q0 -85 -58.5 -173t-152.5 -153q-110 -76 -266 -92l-187 -450h-110l180 436q-223 0 -355.5 100.5t-132.5 272.5q0 177 90 342q-72 16 -134 45t-113.5 72.5 t-81 105.5t-29.5 135q0 77 41.5 149.5t116 129t187 91t243.5 34.5q169 0 287 -64l-45 -92q-72 43 -228 43q-58 0 -115 -9.5t-112 -31.5t-96.5 -54.5t-67 -82t-25.5 -109.5q0 -108 73.5 -172.5t164.5 -73.5q100 145 253 278.5t334.5 227.5t344.5 117l76 178h110zM1337 1292 l-139 -338q96 56 151.5 128.5t55.5 136.5q0 24 -16 45t-52 28zM1053 872l168 404q-143 -42 -305 -187t-273 -321l2 -2q76 2 192.5 30.5t215.5 75.5zM999 473l-155 -375q78 38 134 104t56 154q0 53 -35 117zM944 610l45 111q-207 -68 -405 -68q-123 -187 -123 -366 q0 -110 73 -164.5t185 -54.5l178 430q-191 -14 -238 -277l-102 17q18 157 116.5 257.5t270.5 114.5z" />
<glyph unicode="&#xe380;" horiz-adv-x="1372" d="M1356 1448l-244 -887h174l-26 -90h-173l-12 -43q-51 -181 -51 -242q0 -22 8 -40.5t25 -18.5q34 0 72 30.5t96 114.5l43 -28q-165 -271 -346 -271q-83 0 -126.5 39.5t-43.5 114.5q0 47 14 100q-64 -116 -156.5 -186t-212.5 -70q-254 0 -254 308q0 95 31 190l-154 2l27 90 h162q41 87 100 164q79 102 189 173t223 71q75 0 130 -35.5t69 -104.5l100 385q8 31 8 54t-21 39t-53 16h-63v49q223 17 465 76zM492 561h337q31 115 31 209q0 50 -28.5 81.5t-65.5 31.5q-47 0 -98.5 -44t-85.5 -95t-58 -103q-25 -56 -32 -80zM803 471l-340 -2 q-33 -118 -33 -207q0 -72 20.5 -106.5t69.5 -34.5q61 0 115 48t88 112q53 97 80 190z" />
<glyph unicode="&#xe382;" horiz-adv-x="1273" d="M1225 944v-49q-54 -6 -88 -14t-89 -37.5t-114 -81.5l-172 -154l10 -47h338l-27 -90h-292q80 -342 153 -342q32 0 75.5 37t82.5 106l45 -26q-70 -149 -144.5 -212t-189.5 -63q-192 0 -281 465l-65 -51l-105 -385h-290l131 471h-174l26 90h172l166 596q27 101 27 113 q0 53 -86 53h-45v49q174 14 305 41l111 23l51 12q-23 -87 -162 -594l-80 -293h72q118 88 215 176q51 41 76 76q14 16 14 35q0 24 -23 34t-84 13v49h441z" />
<glyph unicode="&#xe384;" horiz-adv-x="841" d="M799 850h-199l-82 -289h191l-27 -90h-190q-8 -31 -18 -66t-22.5 -77t-19.5 -66q-14 -51 -14 -92q0 -49 33 -49q12 0 25.5 5.5t25 12.5t25 21t22.5 23.5t22.5 27.5t19 26.5t18 26.5t14.5 21l41 -29q-38 -67 -72 -113t-81 -88t-106 -63t-131 -21q-68 0 -109.5 33.5 t-41.5 99.5q0 45 9 97.5t17.5 84.5t29 98t26.5 87h-168l26 90h166l84 289h-118v65q158 60 272.5 147.5t204.5 223.5h51l-98 -346h174v-90z" />
<glyph unicode="&#xe386;" horiz-adv-x="727" d="M655 256q-31 -61 -63 -107t-78 -89t-108 -66t-136 -23q-67 0 -109 32.5t-42 98.5q0 64 28 174l52 195h-168l26 90h164q37 174 37 262q0 13 -1 36t-1 36q117 7 305 59q26 7 41 15l21 -8l-111 -400h180l-26 -90h-179l-36 -129q-2 -9 -14.5 -49.5t-17.5 -66.5t-5 -52 q0 -53 30 -53q16 0 41 14q21 13 70 66q11 12 21.5 26.5t16.5 24t12.5 20.5t8.5 13z" />
<glyph unicode="&#xe388;" horiz-adv-x="1009" d="M1040 479l-26 -90h-164l41 -389h-82l-35 389h-160l-256 -389h-307l264 389h-122l26 90h158l334 492q-20 276 -97 276q-36 0 -36 -37q0 -6 3 -18t3 -18q0 -49 -36.5 -79t-86.5 -30q-58 0 -92.5 39t-34.5 98q0 78 58.5 120t139.5 42q46 0 83.5 -15t63 -39.5t45 -60 t31 -72.5t20 -82t12.5 -82.5t8 -79.5q3 -30 4 -44l43 -410h198zM766 479l-12 123l-80 -123h92z" />
<glyph unicode="&#xe389;" horiz-adv-x="983" d="M967 889h-187l92 -889h-81l-56 602l-395 -602h-307l604 889h-281v82h336q-21 276 -96 276q-37 0 -37 -37q0 -6 3 -18t3 -18q0 -49 -36.5 -79t-86.5 -30q-58 0 -92.5 39t-34.5 98q0 78 59 120t140 42q165 0 219 -180q22 -65 39 -213h195v-82z" />
<glyph unicode="&#xe3c5;" horiz-adv-x="1052" d="M973 946l-238 -909q-64 -243 -166 -352t-258 -109q-96 0 -155.5 45t-59.5 113q0 44 30 76t71 32q45 0 72.5 -27.5t27.5 -72.5q0 -23 -15.5 -41t-15.5 -31q0 -14 14.5 -22t34.5 -8q44 0 79 63.5t73 214.5l182 717q25 95 25 137q0 32 -20 47t-64 15h-45v55q280 24 428 57z " />
<glyph unicode="&#xe3c6;" horiz-adv-x="731" d="M522 213l39 -25q-116 -206 -311 -206q-137 0 -137 114q0 33 8 64l135 583q10 45 10 56q0 37 -41 37q-37 0 -75 -7l-9 48l404 69l-160 -678q-16 -62 -16 -98q0 -21 12.5 -36t30.5 -15q12 0 22.5 4t23.5 16.5t19.5 19t23 27.5t21.5 27z" />
</font>
</defs>
</svg>
