<?xml version="1.0" standalone="no"?>
<!DOCTYPE svg PUBLIC "-//W3C//DTD SVG 1.1//EN" "http://www.w3.org/Graphics/SVG/1.1/DTD/svg11.dtd" >
<svg xmlns="http://www.w3.org/2000/svg">
<metadata></metadata>
<defs>
<font id="STIXSizeOneSymRegular" horiz-adv-x="0" >
<font-face units-per-em="2048" ascent="1536" descent="-512" />
<missing-glyph horiz-adv-x="512" />
<glyph unicode=" "  horiz-adv-x="512" />
<glyph unicode="&#x09;" horiz-adv-x="512" />
<glyph unicode="&#xa0;" horiz-adv-x="512" />
<glyph unicode="(" horiz-adv-x="958" d="M782 -274v-62q-230 216 -363.5 537.5t-133.5 722.5q0 395 134.5 719.5t362.5 539.5v-61q-331 -405 -331 -1198q0 -227 25 -417.5t72 -334.5t104 -250t130 -196z" />
<glyph unicode=")" horiz-adv-x="958" d="M176 2122v61q230 -216 364 -537t134 -722q0 -395 -135 -720t-363 -540v62q332 406 332 1198q0 227 -25 417.5t-72.5 334.5t-104 250t-130.5 196z" />
<glyph unicode="/" horiz-adv-x="1185" d="M1130 2183l-929 -2519h-150l930 2519h149z" />
<glyph unicode="[" horiz-adv-x="784" d="M743 -336h-374v2519h374v-67h-231v-2384h231v-68z" />
<glyph unicode="\" horiz-adv-x="1185" d="M1130 -336h-149l-926 2519h150z" />
<glyph unicode="]" horiz-adv-x="784" d="M416 -336h-375v68h231v2384h-231v67h375v-2519z" />
<glyph unicode="_" horiz-adv-x="2048" d="M2048 -362h-2048v102h2048v-102z" />
<glyph unicode="{" horiz-adv-x="1177" d="M954 -279v-57q-212 26 -330 164t-118 403v344q0 47 -17 98.5t-49 99.5t-86.5 84t-120.5 46v43q66 10 120.5 45.5t86.5 84t49 100t17 98.5v344q0 510 448 565v-57q-131 -21 -210.5 -106t-79.5 -191q0 -24 5 -148t5 -129v-182q0 -321 -334 -444v-4q334 -123 334 -443v-182 q0 -3 -2.5 -45t-5 -108t-2.5 -126q0 -226 290 -297z" />
<glyph unicode="}" horiz-adv-x="1177" d="M944 944v-43q-66 -10 -120 -45.5t-86 -84t-49 -100t-17 -98.5v-344q0 -264 -118 -401.5t-331 -163.5v57q131 21 211 106t80 191q0 24 -5 148t-5 129v182q0 322 334 445v4q-334 123 -334 442v182q0 3 2.5 45t5 108t2.5 126q0 226 -291 297v57q213 -26 331 -164t118 -403 v-344q0 -47 17 -98.5t49 -99.5t86 -84t120 -46z" />
<glyph unicode="&#x2c6;" horiz-adv-x="1146" d="M1147 1135h-131l-443 299l-442 -299h-131l524 436h99z" />
<glyph unicode="&#x2c7;" horiz-adv-x="1146" d="M1147 1571l-524 -436h-99l-524 436h131l442 -299l443 299h131z" />
<glyph unicode="&#x2dc;" horiz-adv-x="1142" d="M1092 1536h51q0 -141 -85.5 -226t-199.5 -85q-51 0 -91.5 8t-66 18t-96 41.5t-129.5 55.5q-149 63 -219 63q-79 0 -135.5 -48.5t-71.5 -137.5h-53q0 76 25 137.5t65.5 98.5t88.5 56t97 19q100 0 390 -125q147 -65 223 -65q84 0 139.5 49t67.5 141z" />
<glyph unicode="&#x2f7;" horiz-adv-x="1142" d="M1092 -240h51q0 -141 -85.5 -226t-199.5 -85q-51 0 -91.5 8t-66 18t-96 41.5t-129.5 55.5q-149 63 -219 63q-79 0 -135.5 -48.5t-71.5 -137.5h-53q0 76 25 137.5t65.5 98.5t88.5 56t97 19q100 0 390 -125q147 -65 223 -65q84 0 139.5 49t67.5 141z" />
<glyph unicode="&#x302;" d="M-328 1135h-131l-442 299l-442 -299h-132l525 436h98z" />
<glyph unicode="&#x303;" d="M-383 1536h51q0 -141 -85 -226t-199 -85q-51 0 -91.5 8t-66 18t-96 41.5t-129.5 55.5q-149 63 -220 63q-79 0 -135 -48t-71 -138h-54q0 76 25 137.5t66 98.5t89 56t97 19q99 0 389 -125q147 -65 223 -65q84 0 139.5 49t67.5 141z" />
<glyph unicode="&#x305;" d="M0 1577h-2048v102h2048v-102z" />
<glyph unicode="&#x30c;" d="M-328 1571l-524 -436h-98l-525 436h132l442 -299l442 299h131z" />
<glyph unicode="&#x330;" d="M-383 -240h51q0 -141 -85 -226t-199 -85q-51 0 -91.5 8t-66 18t-96 41.5t-129.5 55.5q-149 63 -220 63q-79 0 -135 -48t-71 -138h-54q0 76 25 137.5t66 98.5t89 56t97 19q99 0 389 -125q147 -65 223 -65q84 0 139.5 49t67.5 141z" />
<glyph unicode="&#x332;" d="M0 -362h-2048v102h2048v-102z" />
<glyph unicode="&#x338;" d="M-322 954l-1153 -997v135l1153 998v-136z" />
<glyph unicode="&#x203e;" horiz-adv-x="2048" d="M2048 1577h-2048v102h2048v-102z" />
<glyph unicode="&#x20d0;" d="M-43 1196h-1784v10q138 66 214 132.5t179 195.5l41 -39q-11 -15 -22 -32t-14 -22t-11.5 -15.5t-18 -20t-28.5 -29.5q-29 -29 -29 -49q0 -29 54 -29h1419v-102z" />
<glyph unicode="&#x20d1;" d="M-45 1196h-1784v102h1419q54 0 54 29q0 20 -29 49q-19 20 -28.5 29.5t-18 20t-11.5 15.5t-14 22t-22 32l41 39q103 -129 179 -195.5t214 -132.5v-10z" />
<glyph unicode="&#x20d6;" d="M-43 1196h-1436q-26 0 -39.5 -12t-13.5 -29q0 -14 29 -51q6 -8 11 -15t18 -26t30 -43l-41 -33q-75 81 -108 112t-88 65t-148 73v20q94 39 147 70t89 64.5t108 113.5l41 -32q-18 -23 -30 -39.5t-17.5 -24t-15.5 -18.5q-25 -25 -25 -48q0 -22 18 -33.5t37 -11.5h1434v-102z " />
<glyph unicode="&#x20d7;" d="M-43 1257v-20q-94 -38 -147.5 -70.5t-88.5 -65.5t-108 -114l-41 33q23 29 37.5 50.5t25.5 33.5q25 25 25 47t-18 33.5t-37 11.5h-1434v102h1436q26 0 39.5 12t13.5 29q0 15 -29 52q-6 8 -11 15t-18 26t-30 43l41 32q75 -81 108 -112t88 -65t148 -73z" />
<glyph unicode="&#x20ec;" d="M-45 -252v-10q-138 -66 -214 -132.5t-179 -195.5l-41 39q11 15 22 32t14 22t11.5 15.5t18 20t28.5 29.5q29 29 29 49q0 29 -54 29h-1419v102h1784z" />
<glyph unicode="&#x20ed;" d="M-43 -354h-1419q-54 0 -54 -29q0 -20 29 -49q19 -20 28.5 -29.5t18 -20t11.5 -15.5t14 -22t22 -32l-41 -39q-103 129 -179 195.5t-214 132.5v10h1784v-102z" />
<glyph unicode="&#x20ee;" d="M-43 -362h-1436q-26 0 -39.5 -12t-13.5 -29q0 -15 29 -52q6 -8 11 -15t18 -26t30 -43l-41 -32q-103 112 -157.5 153t-186.5 96v21q94 39 147 70t89 64.5t108 113.5l41 -33q-18 -23 -30 -39.5t-17.5 -24t-15.5 -18.5q-25 -25 -25 -47t18 -33.5t37 -11.5h1434v-102z" />
<glyph unicode="&#x20ef;" d="M-43 -301v-21q-94 -38 -147.5 -70t-89 -65.5t-107.5 -113.5l-41 32q23 29 37.5 50.5t25.5 33.5q25 25 25 47t-18 34t-37 12h-1434v102h1436q26 0 39.5 12t13.5 29q0 14 -29 51q-6 8 -11 15t-18 26t-30 43l41 33q75 -81 108 -112t88 -65t148 -73z" />
<glyph unicode="&#x2140;" horiz-adv-x="2578" d="M2466 102h-2353v177l813 1306l-807 1311v176h2021v-176h-1220l788 -1311l-809 -1306h1567v-177zM1503 1585l-784 1311h-395l804 -1311l-815 -1306h383z" />
<glyph unicode="&#x220f;" horiz-adv-x="2775" d="M2673 100h-1055v78h90q73 0 124 28.5t78.5 83t39.5 121t12 154.5v2325h-1147v-2325q0 -204 58 -295.5t196 -91.5h88v-78h-1055v78h56q144 0 213 79t69 237v2142q0 105 -19.5 176t-58.5 110.5t-89.5 55.5t-120.5 16h-50v78h2571v-78q-188 0 -262 -79.5t-74 -266.5v-2101 q0 -369 284 -369h52v-78z" />
<glyph unicode="&#x2210;" horiz-adv-x="2775" d="M2673 100h-2571v78h50q70 0 120.5 16.5t89.5 56t58.5 110.5t19.5 176v2142q0 158 -69 236.5t-213 78.5h-56v78h1055v-78h-88q-138 0 -196 -91.5t-58 -295.5v-2324h1147v2324q0 88 -12 154.5t-39.5 121t-78.5 83t-124 28.5h-90v78h1055v-78h-52q-284 0 -284 -368v-2102 q0 -187 74 -266.5t262 -79.5v-78z" />
<glyph unicode="&#x2211;" horiz-adv-x="2646" d="M2462 952l-152 -852h-2126l1141 1506l-1067 1464h1999v-719h-74q0 18 -3 38.5t-10.5 55t-8.5 39.5q-40 188 -129.5 283t-202.5 108q-78 11 -217 11h-772l841 -1155l-962 -1256h1163q212 0 328 111.5t172 365.5h80z" />
<glyph unicode="&#x221a;" horiz-adv-x="2164" d="M2230 3178l-1151 -3782h-86l-473 1538q-23 74 -51 106.5t-76 32.5q-70 0 -139 -55l-25 41l336 258h51l465 -1510h9l1024 3371h116z" />
<glyph unicode="&#x221b;" horiz-adv-x="2164" d="M733 1812q36 14 53.5 21.5t46 24t41.5 32t24 41t11 56.5q0 53 -29.5 80.5t-84.5 27.5q-48 0 -82.5 -26.5t-69.5 -86.5l-25 5q56 172 209 172q75 0 120.5 -40t45.5 -106q0 -39 -25.5 -81.5t-68.5 -71.5q76 -26 114 -69t38 -118q0 -79 -47 -137t-117.5 -85.5t-153.5 -27.5 q-54 0 -86.5 22.5t-32.5 53.5q0 15 12.5 26t32.5 11q22 0 64 -27q48 -34 92 -34q59 0 98 41.5t39 109.5q0 117 -110 154q-29 10 -109 10v22zM2230 3178l-1151 -3782h-86l-473 1538q-23 74 -51 106.5t-76 32.5q-70 0 -139 -55l-25 41l336 258h51l465 -1510h9l1024 3371h116z " />
<glyph unicode="&#x221c;" horiz-adv-x="2164" d="M1090 1610h-109v-178h-100v178h-299v84l336 458h63v-458h109v-84zM881 1694v346l-252 -346h252zM2230 3178l-1151 -3782h-86l-473 1538q-23 74 -51 106.5t-76 32.5q-70 0 -139 -55l-25 41l336 258h51l465 -1510h9l1024 3371h116z" />
<glyph unicode="&#x22c0;" horiz-adv-x="2590" d="M2468 100h-209l-963 2605h-6l-958 -2605h-209l1091 2972h160z" />
<glyph unicode="&#x22c1;" horiz-adv-x="2590" d="M2468 3072l-1094 -2972h-160l-1091 2972h209l958 -2605h6l963 2605h209z" />
<glyph unicode="&#x22c2;" horiz-adv-x="2590" d="M2349 100h-197v2036q0 109 -40 219t-116.5 206.5t-178 172t-234 119t-274.5 43.5q-143 0 -278 -43.5t-240.5 -119t-186 -172t-123.5 -207t-43 -218.5v-2036h-196v1985q0 178 56.5 337t157.5 280t235 209.5t293.5 134.5t328.5 46q124 0 251 -35.5t241 -99t214 -156.5 t173 -202.5t115 -242.5t42 -271v-1985z" />
<glyph unicode="&#x22c3;" horiz-adv-x="2590" d="M2349 3072v-1985q0 -138 -42 -271t-115 -242.5t-173 -202.5t-214 -156.5t-241 -99t-251 -35.5q-169 0 -328.5 46t-293.5 134.5t-235 209.5t-157.5 280t-56.5 337v1985h196v-2036q0 -108 43 -218.5t123.5 -207t186 -172t240.5 -119t278 -43.5q142 0 274.5 43.5t234 119 t178 172t116.5 206.5t40 219v2036h197z" />
<glyph unicode="&#x2308;" horiz-adv-x="927" d="M872 2116h-360v-2452h-143v2519h503v-67z" />
<glyph unicode="&#x2309;" horiz-adv-x="927" d="M559 -336h-143v2452h-365v67h508v-2519z" />
<glyph unicode="&#x230a;" horiz-adv-x="927" d="M877 -336h-508v2519h143v-2451h365v-68z" />
<glyph unicode="&#x230b;" horiz-adv-x="927" d="M559 -336h-504v68h361v2451h143v-2519z" />
<glyph unicode="&#x2320;" horiz-adv-x="1409" d="M602 -162v1852q0 68 12 134t41.5 132t72.5 115.5t111 80.5t152 31q92 0 138.5 -46t46.5 -112q0 -50 -33.5 -79t-79.5 -29q-39 0 -67.5 22t-28.5 66q0 29 12 45t12 27q0 28 -35 28q-39 0 -66.5 -22.5t-43.5 -59t-25 -98t-11.5 -122.5t-2.5 -150v-1815h-205z" />
<glyph unicode="&#x2321;" horiz-adv-x="1409" d="M807 2224v-1851q0 -68 -12 -134t-41 -132.5t-72 -116t-110.5 -80.5t-151.5 -31q-92 0 -138 46t-46 112q0 50 33 79t79 29q39 0 67.5 -22t28.5 -66q0 -29 -12 -45t-12 -26q0 -13 10 -21t25 -8q33 0 57 14.5t40 45t26 66.5t15.5 92t7 108.5t1.5 126.5v1814h205z" />
<glyph unicode="&#x239b;" horiz-adv-x="921" d="M819 1434v-62q-127 -146 -220 -330t-144.5 -382.5t-75 -394t-23.5 -400.5v-490h-254v326q0 160 16.5 318.5t50.5 322.5t91.5 318t134.5 294.5t185.5 264t238.5 215.5z" />
<glyph unicode="&#x239c;" horiz-adv-x="921" d="M356 -625h-254v2069h254v-2069z" />
<glyph unicode="&#x239d;" horiz-adv-x="921" d="M819 -553v-61q-155 110 -279 265.5t-205 327.5t-134.5 369.5t-76 386.5t-22.5 383v326h254v-490q0 -205 23.5 -400.5t75 -394t144.5 -382.5t220 -330z" />
<glyph unicode="&#x239e;" horiz-adv-x="921" d="M819 -625h-254v490q0 205 -23.5 400.5t-75 394t-144.5 382.5t-220 330v62q130 -92 238.5 -215.5t185.5 -264t134.5 -294.5t91.5 -318t50.5 -322.5t16.5 -318.5v-326z" />
<glyph unicode="&#x239f;" horiz-adv-x="921" d="M819 -625h-254v2069h254v-2069z" />
<glyph unicode="&#x23a0;" horiz-adv-x="921" d="M819 1444v-326q0 -194 -22.5 -383t-76 -386.5t-134.5 -369.5t-205 -327.5t-279 -265.5v61q127 146 220 330t144.5 382.5t75 394t23.5 400.5v490h254z" />
<glyph unicode="&#x23a1;" horiz-adv-x="921" d="M850 1294h-543v-1956h-205v2059h748v-103z" />
<glyph unicode="&#x23a2;" horiz-adv-x="921" d="M307 -662h-205v2069h205v-2069z" />
<glyph unicode="&#x23a3;" horiz-adv-x="921" d="M850 -651h-748v2058h205v-1956h543v-102z" />
<glyph unicode="&#x23a4;" horiz-adv-x="921" d="M819 -662h-205v1956h-542v103h747v-2059z" />
<glyph unicode="&#x23a5;" horiz-adv-x="921" d="M819 -662h-205v2069h205v-2069z" />
<glyph unicode="&#x23a6;" horiz-adv-x="921" d="M819 -651h-747v102h542v1956h205v-2058z" />
<glyph unicode="&#x23a7;" horiz-adv-x="1310" d="M1229 1434v-72q-103 -5 -182.5 -42.5t-129.5 -95.5t-82 -138.5t-44.5 -164t-12.5 -180.5v-1366h-246v1266q0 167 43.5 308t128 249t219.5 170.5t306 65.5z" />
<glyph unicode="&#x23a8;" horiz-adv-x="1310" d="M778 -625h-246v418q0 99 -30.5 195.5t-85.5 176t-142.5 128.5t-191.5 49v135q104 0 191.5 49t142.5 128.5t85.5 176t30.5 195.5v418h246v-418q0 -107 -46.5 -216.5t-123 -196t-183.5 -142t-220 -57.5v-8q110 1 217.5 -55t184 -144.5t124 -199t47.5 -214.5v-418z" />
<glyph unicode="&#x23a9;" horiz-adv-x="1310" d="M1229 -543v-71q-138 2 -252.5 43t-196 113t-138 170.5t-83.5 215.5t-27 250v1266h246v-1366q0 -97 12.5 -180.5t44.5 -164t82 -138.5t129.5 -95.5t182.5 -42.5z" />
<glyph unicode="&#x23aa;" horiz-adv-x="1310" d="M778 -625h-246v2069h246v-2069z" />
<glyph unicode="&#x23ab;" horiz-adv-x="1310" d="M778 -625h-246v1366q0 97 -12.5 180.5t-44.5 164t-81.5 138.5t-129 95.5t-182.5 42.5v72q171 -3 305.5 -65.5t219 -170.5t128 -249t43.5 -308v-1266z" />
<glyph unicode="&#x23ac;" horiz-adv-x="1310" d="M1229 477v-135q-104 0 -191.5 -49t-143 -128.5t-86 -176t-30.5 -195.5v-418h-246v418q0 104 47.5 214.5t124.5 199t184.5 144.5t217.5 55v8q-150 3 -284.5 95.5t-212 232.5t-77.5 284v418h246v-418q0 -99 30.5 -195.5t86 -176t143 -128.5t191.5 -49z" />
<glyph unicode="&#x23ad;" horiz-adv-x="1310" d="M778 1444v-1266q0 -167 -43.5 -308t-128 -249t-219 -170t-305.5 -65v71q103 5 182.5 42.5t129 95.5t81.5 138.5t44.5 164t12.5 180.5v1366h246z" />
<glyph unicode="&#x23ae;" horiz-adv-x="1409" d="M807 -51h-205v1300h205v-1300z" />
<glyph unicode="&#x23b0;" horiz-adv-x="1228" d="M1159 1434v-72q-107 -1 -190.5 -43.5t-134 -114t-76 -161.5t-25.5 -193v-844q0 -167 -96 -311t-248 -226.5t-317 -84.5v71q107 1 190.5 43.5t134 114t76 161.5t25.5 193v844q0 125 57 241t149 198.5t212 132.5t243 51z" />
<glyph unicode="&#x23b1;" horiz-adv-x="1228" d="M1159 -545v-71q-165 2 -317 84.5t-248 226.5t-96 311v844q0 103 -25.5 193t-76 161.5t-134 114t-190.5 43.5v72q123 -1 243 -51t212 -132.5t149 -198.5t57 -241v-844q0 -103 25.5 -193t76 -161.5t134 -114t190.5 -43.5z" />
<glyph unicode="&#x23b2;" horiz-adv-x="3035" d="M2646 2353h-115q0 18 -3 38.5t-10.5 55t-8.5 39.5q-21 97 -56.5 171.5t-80 120t-93 70.5t-102.5 31q-64 9 -217 9h-1225l1123 -2898h-480l-1190 3082h2458v-719z" />
<glyph unicode="&#x23b3;" horiz-adv-x="3035" d="M2798 913l-152 -923h-2458l1190 3082h480l-1018 -2636h1321q213 0 331 112t174 365h132z" />
<glyph unicode="&#x23b4;" horiz-adv-x="2177" d="M2036 1114h-135v320h-1625v-320h-135v455h1895v-455z" />
<glyph unicode="&#x23b5;" horiz-adv-x="2177" d="M2034 -170h-1895v455h135v-320h1624v320h136v-455z" />
<glyph unicode="&#x23b7;" horiz-adv-x="2424" d="M1833 -707h-117l-1091 3070q-21 59 -62 89t-88 30q-42 0 -102 -16t-97 -47l-47 65l461 264h82l924 -2627h2v2971h135v-3799z" />
<glyph unicode="&#x23b8;" horiz-adv-x="1476" d="M135 -592h-135v3799h135v-3799z" />
<glyph unicode="&#x23b9;" horiz-adv-x="1476" d="M1477 -592h-136v3799h136v-3799z" />
<glyph unicode="&#x23dc;" horiz-adv-x="1896" d="M1896 -313h-61q-181 148 -411.5 230.5t-473.5 82.5q-275 0 -488.5 -79.5t-400.5 -233.5h-61q402 436 950 436q268 0 497.5 -107t448.5 -329z" />
<glyph unicode="&#x23dd;" horiz-adv-x="1896" d="M1835 1591h61q-219 -222 -448.5 -329t-497.5 -107q-548 0 -950 436h61q187 -154 400.5 -233.5t488.5 -79.5q243 0 473.5 82.5t411.5 230.5z" />
<glyph unicode="&#x23de;" horiz-adv-x="1896" d="M1894 -182h-61q-27 86 -93 138t-177 52q-27 0 -92 -4t-99 -4h-121q-205 0 -303 180h-2q-98 -180 -303 -180h-121q-34 0 -98.5 4t-91.5 4q-111 0 -177.5 -52t-93.5 -138h-61q73 305 467 305h235q50 0 95.5 14t83 51t45.5 91h43q8 -54 45.5 -91t82.5 -51t95 -14h235 q394 0 467 -305z" />
<glyph unicode="&#x23df;" horiz-adv-x="1896" d="M1833 1616h61q-73 -305 -467 -305h-235q-50 0 -95 -14t-82.5 -51t-45.5 -91h-43q-8 54 -45.5 91t-83 51t-95.5 14h-235q-394 0 -467 305h61q27 -86 93.5 -138.5t177.5 -52.5q27 0 91.5 4.5t98.5 4.5h121q205 0 303 -181h2q98 181 303 181h121q34 0 99 -4.5t92 -4.5 q209 0 270 191z" />
<glyph unicode="&#x23e0;" horiz-adv-x="2990" d="M2990 -434l-491 434h-2007l-492 -432v106l444 461h2102l444 -463v-106z" />
<glyph unicode="&#x23e1;" horiz-adv-x="2990" d="M2990 1616l-440 -461h-2106l-444 463v106l492 -434h2011l487 432v-106z" />
<glyph unicode="&#x2772;" horiz-adv-x="1159" d="M1104 -336h-129l-555 535v1450l555 534h129l-541 -586v-1347z" />
<glyph unicode="&#x2773;" horiz-adv-x="1159" d="M739 199l-555 -535h-129l541 586v1347l-541 586h129l555 -534v-1450z" />
<glyph unicode="&#x27e6;" horiz-adv-x="1054" d="M995 -336h-626v2519h626v-67h-147v-2384h147v-68zM741 -268v2384q-116 -3 -172.5 -44.5t-56.5 -154.5v-2013q0 -91 59.5 -129t169.5 -43z" />
<glyph unicode="&#x27e7;" horiz-adv-x="1054" d="M686 -336h-627v68h148v2384h-148v67h627v-2519zM543 -70v2014q0 91 -60 129t-170 43v-2384q117 3 173.5 44.5t56.5 153.5z" />
<glyph unicode="&#x27e8;" horiz-adv-x="1183" d="M946 -336h-153l-555 1260l555 1259h153l-555 -1259z" />
<glyph unicode="&#x27e9;" horiz-adv-x="1183" d="M946 924l-555 -1260h-153l555 1260l-555 1259h153z" />
<glyph unicode="&#x27ea;" horiz-adv-x="1634" d="M1372 -336h-129l-555 1260l555 1259h129l-530 -1259zM922 -336h-129l-555 1260l555 1259h129l-531 -1259z" />
<glyph unicode="&#x27eb;" horiz-adv-x="1634" d="M1397 924l-555 -1260h-129l530 1260l-530 1259h129zM946 924l-555 -1260h-129l531 1260l-531 1259h129z" />
<glyph unicode="&#x2983;" horiz-adv-x="1458" d="M1202 -336h-309q-203 25 -295 159t-92 408v344q0 47 -17 98.5t-49 99.5t-86.5 84t-120.5 46v43q66 10 120.5 45.5t86.5 84t49 100t17 98.5v344q0 274 92 407t295 158h307v-61h-176v-2396h178v-62zM913 -274v2396h-20q-59 0 -105 -32.5t-72 -84t-39 -107t-13 -110.5 q0 -24 5 -127.5t5 -108.5v-182q0 -321 -334 -444v-4q334 -123 334 -443v-182q0 -3 -2.5 -35t-5 -87.5t-2.5 -115.5q0 -55 13 -110.5t39 -107t72 -83.5t105 -32h20z" />
<glyph unicode="&#x2984;" horiz-adv-x="1458" d="M1202 944v-43q-66 -10 -120 -45.5t-86 -84t-49 -100t-17 -98.5v-344q0 -274 -92 -407t-295 -158h-307v62h176v2396h-179v61h310q203 -25 295 -159t92 -408v-344q0 -47 17 -98.5t49 -99.5t86 -84t120 -46zM1096 922v4q-334 123 -334 442v182q0 3 2.5 35t5 87.5t2.5 115.5 q0 55 -13 110.5t-39 107t-72 84t-105 32.5h-21v-2396h21q59 0 105 32t72 83.5t39 107t13 110.5q0 24 -5 127.5t-5 108.5v182q0 322 334 445z" />
<glyph unicode="&#x2985;" horiz-adv-x="1294" d="M1118 -276v-60q-842 388 -842 1258q0 191 42.5 360t116.5 302.5t181.5 247.5t231 198.5t270.5 152.5v-55q-21 -11 -43 -25.5t-50 -34.5t-40 -28q-107 -105 -163 -371t-56 -747q0 -490 54 -749t163 -363q99 -67 135 -86zM838 -82q-102 142 -140.5 370t-38.5 634 q0 402 38.5 631t140.5 372q-396 -340 -396 -1001q0 -669 396 -1006z" />
<glyph unicode="&#x2986;" horiz-adv-x="1294" d="M176 2124v59q842 -388 842 -1257q0 -191 -42.5 -360t-116.5 -302.5t-181.5 -248t-231 -199t-270.5 -152.5v55q21 11 43 25.5t50 34.5t40 28q107 105 163 371.5t56 747.5q0 490 -54 749t-163 363q-99 67 -135 86zM852 924q0 669 -395 1005q102 -141 140 -369t38 -634 q0 -403 -38 -632.5t-140 -371.5q395 340 395 1002z" />
<glyph unicode="&#x29f8;" horiz-adv-x="1650" d="M1599 3207l-1384 -3778h-164l1385 3778h163z" />
<glyph unicode="&#x29f9;" horiz-adv-x="1650" d="M1599 -571h-163l-1385 3778h164z" />
<glyph unicode="&#x2a00;" horiz-adv-x="3184" d="M1829 1579q0 -98 -69 -167t-167 -69t-166.5 69t-68.5 167t68.5 167t166.5 69t167 -69t69 -167zM3078 1587q0 -202 -53.5 -394.5t-149.5 -355.5t-233.5 -300.5t-300.5 -233.5t-355.5 -149.5t-394.5 -53.5t-394.5 53.5t-355 149.5t-300 233.5t-233 300.5t-149 355.5 t-53.5 394.5t53.5 394t149.5 355t233 300t300 233t355 149.5t394 53.5t394.5 -53.5t355.5 -149t300.5 -233t233.5 -300t149.5 -355t53.5 -394.5zM2820 1587q0 251 -97 478.5t-261 391.5t-392 260.5t-479 96.5q-168 0 -327.5 -44t-294 -122.5t-247 -191.5t-191.5 -247.5 t-122.5 -294t-43.5 -327.5t43.5 -327.5t122.5 -294.5t191.5 -248t247 -192t294 -123t327.5 -44q251 0 479 97t392 261t261 392t97 479z" />
<glyph unicode="&#x2a01;" horiz-adv-x="3184" d="M3078 1587q0 -202 -53.5 -394.5t-149.5 -355.5t-233.5 -300.5t-300.5 -233.5t-355.5 -149.5t-394.5 -53.5t-394.5 53.5t-355 149.5t-300 233.5t-233 300.5t-149 355.5t-53.5 394.5t53.5 394t149.5 355t233 300t300 233t355 149.5t394 53.5t394.5 -53.5t355.5 -149 t300.5 -233t233.5 -300t149.5 -355t53.5 -394.5zM1724 1714h1090q-13 200 -109 394.5t-244 342.5t-342.5 244t-394.5 109v-1090zM1458 1714v1090q-202 -7 -397.5 -102.5t-342 -245t-241.5 -345.5t-108 -397h1089zM2814 1448h-1090v-1090q201 21 387.5 110t333.5 229t245 335 t124 416zM1458 371v1077h-1089q10 -160 73.5 -317t168 -288t237 -234t291 -165.5t319.5 -72.5z" />
<glyph unicode="&#x2a02;" horiz-adv-x="3184" d="M3078 1587q0 -202 -53.5 -394.5t-149.5 -355.5t-233.5 -300.5t-300.5 -233.5t-355.5 -149.5t-394.5 -53.5t-394.5 53.5t-355 149.5t-300 233.5t-233 300.5t-149 355.5t-53.5 394.5t53.5 394t149.5 355t233 300t300 233t355 149.5t394 53.5t394.5 -53.5t355.5 -149 t300.5 -233t233.5 -300t149.5 -355t53.5 -394.5zM1782 1581l758 -762q135 152 207.5 350.5t72.5 411.5q0 218 -68 419t-200 351zM1593 1769l770 771q-152 133 -353 203.5t-417 70.5t-417 -70.5t-353 -203.5zM1405 1581l-770 770q-132 -151 -201 -352t-69 -418 q0 -212 73.5 -411t208.5 -351zM2353 639l-760 754l-759 -754q317 -281 759 -281q443 0 760 281z" />
<glyph unicode="&#x2a03;" horiz-adv-x="2590" d="M1536 1618q0 -100 -71 -170t-171 -70t-170.5 70t-70.5 170q0 101 70.5 172.5t170.5 71.5t171 -71.5t71 -172.5zM2349 3072v-1985q0 -138 -42 -271t-115 -242.5t-173 -202.5t-214 -156.5t-241 -99t-251 -35.5q-169 0 -328.5 46t-293.5 134.5t-235 209.5t-157.5 280 t-56.5 337v1985h196v-2036q0 -108 43 -218.5t123.5 -207t186 -172t240.5 -119t278 -43.5q142 0 274.5 43.5t234 119t178 172t116.5 206.5t40 219v2036h197z" />
<glyph unicode="&#x2a04;" horiz-adv-x="2590" d="M2349 3072v-1985q0 -138 -42 -271t-115 -242.5t-173 -202.5t-214 -156.5t-241 -99t-251 -35.5q-169 0 -328.5 46t-293.5 134.5t-235 209.5t-157.5 280t-56.5 337v1985h196v-2036q0 -108 43 -218.5t123.5 -207t186 -172t240.5 -119t278 -43.5q142 0 274.5 43.5t234 119 t178 172t116.5 206.5t40 219v2036h197zM1870 1303h-492v-490h-164v490h-491v163h491v496h164v-496h492v-163z" />
<glyph unicode="&#x2a05;" horiz-adv-x="2361" d="M2193 100h-196v2796h-1632v-2796h-197v2972h2025v-2972z" />
<glyph unicode="&#x2a06;" horiz-adv-x="2361" d="M2193 100h-2025v2972h197v-2796h1632v2796h196v-2972z" />
<glyph unicode="&#x2a07;" horiz-adv-x="3133" d="M3011 100h-209l-963 2605h-6l-162 -440l797 -2165h-209l-694 1878l-691 -1878h-208l794 2163l-164 442h-6l-958 -2605h-209l1091 2972h160l193 -520l190 520h160z" />
<glyph unicode="&#x2a08;" horiz-adv-x="3133" d="M3011 3072l-1094 -2972h-160l-190 521l-193 -521h-160l-1091 2972h209l958 -2605h6l164 442l-794 2163h208l691 -1878l694 1878h209l-797 -2165l162 -440h6l963 2605h209z" />
<glyph unicode="&#x2a09;" horiz-adv-x="3035" d="M2912 236l-143 -136l-1251 1342l-1252 -1342l-143 136l1259 1351l-1259 1350l143 135l1252 -1341l1251 1341l143 -135l-1259 -1350z" />
<glyph unicode="&#x2a0a;" horiz-adv-x="2646" d="M2462 954l-152 -852h-2126l842 1110q-113 87 -177.5 214.5t-64.5 273.5q0 121 44 228.5t124 191.5l-694 952h2202v-719h-80q-28 122 -48 195.5t-48.5 140.5t-57.5 100t-74.5 58.5t-100 33t-134.5 7.5h-1077l428 -590q57 14 129 14q166 0 307 -82t223 -223t82 -307 t-82 -307.5t-223 -223.5t-307 -82q-94 0 -189 29l-489 -639h1163q212 0 328 111.5t172 365.5h80zM1681 1733l-385 -500q55 -10 101 -10q198 0 337.5 139.5t139.5 337.5t-139.5 337.5t-337.5 139.5q-27 0 -39 -2q6 -9 323 -442zM1325 1608q-283 387 -293 401 q-112 -134 -112 -309q0 -115 50 -214t138 -165z" />
<glyph unicode="&#x2afc;" horiz-adv-x="1413" d="M1141 -743h-135v2519h135v-2519zM774 -743h-135v2519h135v-2519zM408 -743h-136v2519h136v-2519z" />
<glyph unicode="&#x2aff;" horiz-adv-x="839" d="M635 -743h-430v2519h430v-2519zM553 -662v2356h-266v-2356h266z" />
<glyph unicode="&#xe000;" horiz-adv-x="1024" d="M0 0z" />
</font>
</defs>
</svg>
