<?xml version="1.0" standalone="no"?>
<!DOCTYPE svg PUBLIC "-//W3C//DTD SVG 1.1//EN" "http://www.w3.org/Graphics/SVG/1.1/DTD/svg11.dtd" >
<svg xmlns="http://www.w3.org/2000/svg">
<metadata></metadata>
<defs>
<font id="STIXSizeTwoSymRegular" horiz-adv-x="0" >
<font-face units-per-em="2048" ascent="1536" descent="-512" />
<missing-glyph horiz-adv-x="512" />
<glyph unicode=" "  horiz-adv-x="512" />
<glyph unicode="&#x09;" horiz-adv-x="512" />
<glyph unicode="&#xa0;" horiz-adv-x="512" />
<glyph unicode="(" horiz-adv-x="1206" d="M1030 -498v-73q-167 157 -301 352t-234.5 430t-155 517t-54.5 589q0 401 95.5 773t263 656.5t386.5 460.5v-67q-86 -88 -163 -207.5t-149 -287t-124 -362t-83.5 -444.5t-31.5 -522q0 -1135 551 -1815z" />
<glyph unicode=")" horiz-adv-x="1245" d="M233 3133v74q167 -157 301 -352t235 -430.5t155.5 -518t54.5 -589.5q0 -401 -96 -772.5t-263.5 -655.5t-386.5 -460v67q85 88 162.5 208t149.5 288t124 363t83.5 443.5t31.5 518.5q0 273 -31.5 518t-82.5 430.5t-125.5 353.5t-148.5 286t-163 228z" />
<glyph unicode="/" horiz-adv-x="1650" d="M1599 3207l-1384 -3778h-164l1385 3778h163z" />
<glyph unicode="[" horiz-adv-x="940" d="M864 -571h-475v3778h475v-82h-319v-3614h319v-82z" />
<glyph unicode="\" horiz-adv-x="1650" d="M1599 -571h-163l-1385 3778h164z" />
<glyph unicode="]" horiz-adv-x="940" d="M551 -571h-475v82h319v3614h-319v82h475v-3778z" />
<glyph unicode="_" horiz-adv-x="3072" d="M3072 -362h-3072v102h3072v-102z" />
<glyph unicode="{" horiz-adv-x="1468" d="M1087 -489v-82q-245 37 -382.5 245.5t-137.5 604.5v507q0 72 -19 150.5t-55.5 152t-99 127.5t-139.5 68v66q77 15 139.5 69t99 127.5t55.5 152t19 150.5v508q0 201 38.5 359.5t108.5 262t164 161t209 67.5v-82q-82 -4 -161 -73t-126.5 -172t-47.5 -203q0 -35 5 -223 t5 -195v-266q0 -235 -94 -408.5t-291 -267.5q385 -187 385 -674v-268q0 -7 -5 -194t-5 -222q0 -340 335 -448z" />
<glyph unicode="}" horiz-adv-x="1468" d="M1214 1352v-66q-77 -15 -139.5 -69t-99 -128t-55.5 -152.5t-19 -150.5v-507q0 -201 -38.5 -359.5t-108.5 -262t-164 -161t-209 -67.5v82q82 4 161 73t127 172t48 203q0 35 -5 223t-5 195v266q0 490 385 674q-385 187 -385 676v268q0 7 5 194t5 222q0 340 -336 448v82 q245 -37 382.5 -245.5t137.5 -604.5v-508q0 -72 19 -150.5t55.5 -152t99 -127t139.5 -67.5z" />
<glyph unicode="&#x2c6;" horiz-adv-x="2004" d="M2005 1155h-203l-798 297l-801 -297h-203l954 436h99z" />
<glyph unicode="&#x2c7;" horiz-adv-x="2004" d="M2005 1591l-952 -436h-99l-954 436h203l801 -297l798 297h203z" />
<glyph unicode="&#x2dc;" horiz-adv-x="2000" d="M1948 1556h53q-29 -160 -145 -235.5t-320 -75.5q-96 0 -172 8t-124 18t-179.5 41.5t-243.5 55.5q-301 64 -411 64q-145 0 -236.5 -47.5t-120.5 -139.5h-53q30 165 141.5 238t298.5 73q191 0 729 -124q283 -66 422 -66q153 0 245.5 48.5t115.5 141.5z" />
<glyph unicode="&#x2f7;" horiz-adv-x="2000" d="M1948 -240h53q-29 -160 -145 -235.5t-320 -75.5q-96 0 -172 8t-124 18t-179.5 41.5t-243.5 55.5q-297 63 -411 63q-298 0 -357 -186h-53q30 165 141.5 238t298.5 73q186 0 729 -125q279 -65 422 -65q153 0 245.5 48.5t115.5 141.5z" />
<glyph unicode="&#x302;" d="M-350 1155h-203l-799 297l-800 -297h-203l954 436h98z" />
<glyph unicode="&#x303;" d="M-408 1556h54q-29 -160 -145 -235.5t-320 -75.5q-96 0 -172 8t-124 18t-179.5 41.5t-243.5 55.5q-301 64 -412 64q-145 0 -236 -47.5t-120 -139.5h-53q30 165 141.5 238t298.5 73q191 0 729 -124q283 -66 422 -66q153 0 245 48.5t115 141.5z" />
<glyph unicode="&#x305;" d="M0 1577h-3072v102h3072v-102z" />
<glyph unicode="&#x30c;" d="M-350 1591l-953 -436h-98l-954 436h203l800 -297l799 297h203z" />
<glyph unicode="&#x330;" d="M-408 -240h54q-29 -160 -145 -235.5t-320 -75.5q-96 0 -172 8t-124 18t-179.5 41.5t-243.5 55.5q-297 63 -412 63q-297 0 -356 -186h-53q30 165 141.5 238t298.5 73q186 0 729 -125q279 -65 422 -65q153 0 245 48.5t115 141.5z" />
<glyph unicode="&#x332;" d="M0 -362h-3072v102h3072v-102z" />
<glyph unicode="&#x338;" d="M-12 1356l-1321 -1356h-142l1321 1356h142z" />
<glyph unicode="&#x203e;" horiz-adv-x="3072" d="M3072 1577h-3072v102h3072v-102z" />
<glyph unicode="&#x20d0;" d="M-31 1196h-2679v10q144 69 231.5 139t182.5 189l41 -39q-11 -15 -22 -32t-14 -22t-11.5 -15.5t-18 -20t-28.5 -29.5q-29 -29 -29 -49q0 -29 54 -29h2293v-102z" />
<glyph unicode="&#x20d1;" d="M-31 1196h-2679v102h2294q54 0 54 29q0 20 -29 49q-19 20 -28.5 29.5t-18 20t-11.5 15.5t-14 22t-22 32l41 39q95 -119 182 -189t231 -139v-10z" />
<glyph unicode="&#x20d6;" d="M-31 1196h-2328q-26 0 -40 -12t-14 -29q0 -14 29 -51q8 -11 60 -84l-41 -33q-74 80 -108 112t-89 65.5t-148 72.5v20q95 39 147.5 70t89.5 65t108 113l41 -32q-18 -23 -30.5 -39.5t-18 -24t-15.5 -18.5q-25 -25 -25 -48q0 -22 18.5 -33.5t37.5 -11.5h2326v-102z" />
<glyph unicode="&#x20d7;" d="M-31 1257v-20q-93 -39 -148 -73t-88 -65t-108 -112l-41 33q52 73 60 84q28 36 28 51q0 17 -13.5 29t-39.5 12h-2329v102h2327q19 0 37 11.5t18 33.5q0 24 -24 48q-10 11 -15.5 18.5t-18 24t-30.5 39.5l41 32q72 -80 108 -113.5t89 -64.5t147 -70z" />
<glyph unicode="&#x20ec;" d="M-31 -252v-10q-144 -69 -231 -139t-182 -189l-41 39q11 15 22 32t14 22t11.5 15.5t18 20t28.5 29.5q29 29 29 49q0 29 -54 29h-2294v102h2679z" />
<glyph unicode="&#x20ed;" d="M-31 -354h-2293q-54 0 -54 -29q0 -20 29 -49q19 -20 28.5 -29.5t18 -20t11.5 -15.5t14 -22t22 -32l-41 -39q-95 119 -182.5 189t-231.5 139v10h2679v-102z" />
<glyph unicode="&#x20ee;" d="M-31 -362h-2328q-26 0 -40 -12t-14 -29q0 -15 29 -52q8 -11 60 -84l-41 -32q-74 80 -108.5 112t-89 65t-147.5 72v21q95 39 147.5 70t89.5 65t108 113l41 -33q-18 -23 -30.5 -39.5t-18 -24t-15.5 -18.5q-25 -25 -25 -47t18.5 -33.5t37.5 -11.5h2326v-102z" />
<glyph unicode="&#x20ef;" d="M-31 -301v-21q-132 -55 -186.5 -96t-157.5 -153l-41 32q52 73 60 84q28 36 28 52q0 17 -13.5 29t-39.5 12h-2329v102h2327q19 0 37 11.5t18 33.5q0 23 -24 47q-10 11 -15.5 18.5t-18 24t-30.5 39.5l41 33q72 -80 108 -113.5t89 -64.5t147 -70z" />
<glyph unicode="&#x221a;" horiz-adv-x="2301" d="M2370 4211l-1209 -5038h-121l-512 2113q-20 82 -48.5 125t-82.5 43q-28 0 -67.5 -15.5t-73.5 -41.5l-31 55l375 260h57l490 -2025h14l1084 4524h125z" />
<glyph unicode="&#x221b;" horiz-adv-x="2301" d="M797 2224q41 13 69.5 26t57 34t43 50.5t14.5 67.5q0 56 -31.5 84.5t-87.5 28.5q-51 0 -86 -27t-71 -90l-27 4q26 84 80 132.5t137 48.5q78 0 125 -41.5t47 -110.5q0 -41 -26 -85.5t-70 -72.5q79 -30 117 -73.5t38 -120.5q0 -122 -97.5 -191t-231.5 -69q-57 0 -90 23 t-33 54q0 17 13.5 28t33.5 11q27 0 65 -28q49 -35 95 -35q63 0 104 43.5t41 114.5q0 121 -117 159q-32 11 -112 11v24zM2370 4211l-1209 -5038h-121l-512 2113q-20 82 -48.5 125t-82.5 43q-28 0 -67.5 -15.5t-73.5 -41.5l-31 55l375 260h57l490 -2025h14l1084 4524h125z" />
<glyph unicode="&#x221c;" horiz-adv-x="2301" d="M1153 2011h-115v-184h-102v184h-311v88l348 477h65v-477h115v-88zM936 2099v359l-262 -359h262zM2370 4211l-1209 -5038h-121l-512 2113q-20 82 -48.5 125t-82.5 43q-28 0 -67.5 -15.5t-73.5 -41.5l-31 55l375 260h57l490 -2025h14l1084 4524h125z" />
<glyph unicode="&#x2308;" horiz-adv-x="1073" d="M981 3125h-436v-3696h-156v3778h592v-82z" />
<glyph unicode="&#x2309;" horiz-adv-x="1077" d="M688 -571h-156v3696h-436v82h592v-3778z" />
<glyph unicode="&#x230a;" horiz-adv-x="1073" d="M981 -571h-592v3778h156v-3696h436v-82z" />
<glyph unicode="&#x230b;" horiz-adv-x="1077" d="M688 -571h-592v82h436v3696h156v-3778z" />
<glyph unicode="&#x23b4;" horiz-adv-x="3289" d="M3138 1114h-136v320h-2715v-320h-135v455h2986v-455z" />
<glyph unicode="&#x23b5;" horiz-adv-x="3289" d="M3138 -170h-2986v455h135v-320h2715v320h136v-455z" />
<glyph unicode="&#x23dc;" horiz-adv-x="2990" d="M2990 -301h-74q-494 301 -1423 301q-269 0 -495 -23.5t-396.5 -67t-295.5 -94.5t-232 -116h-74q258 201 638.5 318.5t854.5 117.5q471 0 855.5 -118t641.5 -318z" />
<glyph unicode="&#x23dd;" horiz-adv-x="2990" d="M2916 1608h74q-257 -200 -641.5 -318.5t-855.5 -118.5q-474 0 -854.5 118t-638.5 319h74q107 -65 232 -116t295.5 -94.5t396.5 -67t495 -23.5q929 0 1423 301z" />
<glyph unicode="&#x23de;" horiz-adv-x="2990" d="M2990 -166h-68q-25 80 -125.5 126t-228.5 46q-27 0 -173.5 -3t-153.5 -3h-216q-178 0 -314.5 59t-213.5 166h-4q-78 -107 -213 -166t-313 -59h-215q-4 0 -54 1.5t-128 3t-150 1.5q-269 0 -352 -172h-68q15 64 61.5 117.5t126.5 95t204 65t282 23.5h409q56 0 115.5 9 t117 26.5t100 49.5t54.5 73h52q23 -78 142 -118t247 -40h407q308 0 474 -83t198 -218z" />
<glyph unicode="&#x23df;" horiz-adv-x="2990" d="M2922 1632h68q-32 -135 -198 -218t-474 -83h-407q-57 0 -117 -8.5t-118 -26.5t-100 -49.5t-54 -72.5h-52q-12 41 -54.5 72.5t-100 49.5t-117 26.5t-115.5 8.5h-409q-158 0 -282 23.5t-204 65t-126.5 95t-61.5 117.5h68q83 -172 352 -172q72 0 150 1.5t128 3t54 1.5h215 q178 0 313 -59t213 -166h4q77 107 213.5 166t314.5 59h216q7 0 153.5 -3t173.5 -3q128 0 228.5 46t125.5 126z" />
<glyph unicode="&#x23e0;" horiz-adv-x="3862" d="M3863 -434l-492 434h-2879l-492 -432v106l444 461h2974l445 -463v-106z" />
<glyph unicode="&#x23e1;" horiz-adv-x="3862" d="M3863 1616l-445 -461h-2974l-444 463v106l492 -434h2879l492 432v-106z" />
<glyph unicode="&#x2772;" horiz-adv-x="1409" d="M1333 -571h-145l-717 673v2431l717 674h145l-688 -739v-2300z" />
<glyph unicode="&#x2773;" horiz-adv-x="1409" d="M938 102l-717 -673h-145l688 739v2300l-688 739h145l717 -674v-2431z" />
<glyph unicode="&#x27e6;" horiz-adv-x="1136" d="M1059 -571h-670v3778h670v-82h-158v-3614h158v-82zM786 -489v3614q-120 0 -180.5 -42.5t-60.5 -160.5v-3186q0 -225 241 -225z" />
<glyph unicode="&#x27e7;" horiz-adv-x="1136" d="M748 -571h-670v82h158v3614h-158v82h670v-3778zM592 -287v3187q0 225 -242 225v-3614q59 0 100 8t75 29.5t50.5 62.5t16.5 102z" />
<glyph unicode="&#x27e8;" horiz-adv-x="1273" d="M1087 -571h-184l-708 1888l708 1890h184l-698 -1890z" />
<glyph unicode="&#x27e9;" horiz-adv-x="1273" d="M1079 1317l-708 -1888h-185l699 1888l-699 1890h185z" />
<glyph unicode="&#x27ea;" horiz-adv-x="1845" d="M1624 -571h-145l-717 1888l717 1890h145l-688 -1890zM1053 -571h-146l-717 1888l717 1890h146l-688 -1890z" />
<glyph unicode="&#x27eb;" horiz-adv-x="1845" d="M1655 1319l-717 -1890h-145l688 1890l-688 1888h145zM1083 1319l-716 -1890h-146l688 1890l-688 1888h146z" />
<glyph unicode="&#x2983;" horiz-adv-x="1693" d="M1417 -571h-354q-237 0 -368.5 220.5t-131.5 629.5v507q0 72 -19 150.5t-55.5 152t-99 127.5t-139.5 68v66q77 15 139.5 69t99 127.5t55.5 152t19 150.5v508q0 409 131.5 629.5t368.5 220.5h354v-67h-237v-3644h237v-67zM1057 -504v3644h-15q-81 0 -150.5 -74 t-106.5 -180t-37 -209q0 -35 5 -223t5 -195v-266q0 -235 -94 -408.5t-291 -267.5q385 -187 385 -674v-268q0 -7 -5 -194t-5 -222q0 -104 37 -210t106.5 -179.5t150.5 -73.5h15z" />
<glyph unicode="&#x2984;" horiz-adv-x="1693" d="M1444 1350v-66q-77 -15 -139.5 -69t-99.5 -128t-56 -152.5t-19 -150.5v-508q0 -409 -131 -629t-368 -220h-355v67h238v3644h-238v67h355q236 0 367.5 -220.5t131.5 -629.5v-508q0 -72 19 -150.5t56 -152t99.5 -127t139.5 -67.5zM936 375v266q0 235 94 408.5t291 267.5 q-385 187 -385 674v268q0 7 5 194t5 222q0 104 -37.5 210t-107 179.5t-150.5 73.5h-14v-3644h14q81 0 150.5 74t107 180t37.5 209q0 35 -5 223t-5 195z" />
<glyph unicode="&#x2985;" horiz-adv-x="1624" d="M1419 -487v-91q-1102 592 -1102 1889q0 287 56.5 541.5t154 454.5t239 371.5t301.5 299t351 229.5v-90q-78 -47 -172 -131q-303 -350 -303 -1675q0 -373 21 -660.5t62 -483.5t94.5 -321.5t123.5 -203.5q135 -106 174 -129zM1057 -197q-133 214 -184.5 559.5t-51.5 948.5 q0 599 51.5 945.5t184.5 563.5q-545 -549 -545 -1505q0 -967 545 -1512z" />
<glyph unicode="&#x2986;" horiz-adv-x="1624" d="M205 3117v90q1102 -592 1102 -1888q0 -240 -38.5 -457t-111 -397.5t-170.5 -336.5t-223.5 -285.5t-263 -232.5t-295.5 -188v91q78 47 172 131q303 350 303 1675q0 373 -21 660.5t-62 483.5t-94.5 321.5t-123.5 203.5q-135 106 -174 129zM1112 1315q0 966 -545 1511 q133 -214 184.5 -559t51.5 -948q0 -599 -51.5 -945.5t-184.5 -563.5q545 549 545 1505z" />
<glyph unicode="&#x2afc;" horiz-adv-x="1855" d="M1583 -592h-205v3840h205v-3840zM1030 -592h-205v3840h205v-3840zM477 -592h-205v3840h205v-3840z" />
<glyph unicode="&#x2aff;" horiz-adv-x="1302" d="M1030 -592h-758v3840h758v-3840zM825 -387v3430h-348v-3430h348z" />
<glyph unicode="&#xe000;" horiz-adv-x="1024" d="M0 0z" />
</font>
</defs>
</svg>
