<?xml version="1.0" standalone="no"?>
<!DOCTYPE svg PUBLIC "-//W3C//DTD SVG 1.1//EN" "http://www.w3.org/Graphics/SVG/1.1/DTD/svg11.dtd" >
<svg xmlns="http://www.w3.org/2000/svg">
<metadata></metadata>
<defs>
<font id="STIXVariantsRegular" horiz-adv-x="1402" >
<font-face units-per-em="2048" ascent="1536" descent="-512" />
<missing-glyph horiz-adv-x="512" />
<glyph unicode=" "  horiz-adv-x="512" />
<glyph unicode="&#x09;" horiz-adv-x="512" />
<glyph unicode="&#xa0;" horiz-adv-x="512" />
<glyph unicode="w" horiz-adv-x="1054" d="M1010 164v-21q-22 -8 -32.5 -21t-27.5 -56l-196 -496q-17 -42 -25 -56t-16 -14t-14 11t-21 51l-129 338l-162 -344q-26 -56 -35 -56q-16 0 -39 62l-192 491q-23 57 -36.5 72.5t-39.5 17.5v21h258v-21q-38 -4 -51.5 -14.5t-13.5 -32.5q0 -24 8 -43l141 -375l131 285 l-29 82q-20 56 -39.5 74.5t-60.5 23.5v21h293v-21q-51 -7 -67.5 -17.5t-16.5 -33.5q0 -16 25 -86l120 -319l129 317q25 61 25 96q0 17 -13 26.5t-50 16.5v21h176z" />
<glyph unicode="|" horiz-adv-x="655" d="M395 -387h-135v1800h135v-1800z" />
<glyph unicode="&#x19b;" horiz-adv-x="1064" d="M1057 0h-273v31q95 0 95 49q0 10 -9 37l-198 565l-230 -512q-26 -60 -26 -84q0 -17 11.5 -29t28 -16.5t35 -6.5t33.5 -3h8v-31h-419v31q79 10 108 69l271 578q2 4 19.5 41t30 64.5t24.5 59t12 42.5q0 18 -13 61h-372v82h342q-32 66 -39 78q-21 31 -50 60.5t-53 29.5 q-21 0 -70 -20.5t-90 -20.5q-37 0 -62.5 28t-25.5 66q0 57 42.5 88t101.5 31q101 0 166 -58t118 -163q6 -12 18.5 -36.5t21.5 -44.5t14 -38h297v-82h-267l297 -811q17 -48 39 -73t64 -31v-31z" />
<glyph unicode="&#x264;" horiz-adv-x="942" d="M903 922v-31q-5 -1 -24.5 -1.5t-28.5 -2.5q-27 -9 -152 -209l-127 -193q6 -10 30.5 -49t39 -64.5t34 -62.5t29 -67.5t9.5 -53.5q0 -89 -67 -148.5t-157 -59.5q-88 0 -142 45t-54 131q0 25 10.5 52t20.5 43t30 44l88 123l-184 280q-38 54 -100 125q-29 34 -55.5 50.5 t-65.5 17.5v31h395v-31q-2 0 -13 -0.5t-17.5 -1.5t-18 -2.5t-19 -4t-15 -6.5t-11.5 -10t-4 -14q0 -13 20 -43l176 -270l172 258q17 25 17 41q0 47 -96 53v31h280zM567 174q0 15 -6 34t-18 41t-21 38t-25 40t-20 31q-3 -5 -32 -43.5t-40.5 -56.5t-25.5 -50.5t-14 -57.5 q0 -42 31 -66.5t73 -24.5q45 0 71.5 34t26.5 81z" />
<glyph unicode="&#x2032;" horiz-adv-x="696" d="M160 57l-70 25q44 210 118.5 530.5t100.5 403.5q45 141 156 141q60 0 99.5 -37t39.5 -108q0 -47 -20 -97q-30 -83 -176.5 -377t-247.5 -481z" />
<glyph unicode="&#x2033;" horiz-adv-x="1239" d="M702 57l-69 25q49 232 119.5 542.5t95.5 391.5q23 73 67 107t95 34q60 0 99.5 -37t39.5 -108q0 -40 -23 -97q-30 -83 -176.5 -377t-247.5 -481zM156 57l-68 25q41 196 117.5 521.5t101.5 412.5q22 73 64.5 107t93.5 34q60 0 99.5 -37t39.5 -108q0 -42 -22 -97 q-33 -87 -181 -384.5t-245 -473.5z" />
<glyph unicode="&#x2034;" horiz-adv-x="1787" d="M1249 57l-67 25q41 196 117.5 521.5t101.5 412.5q22 73 64.5 107t93.5 34q60 0 99.5 -37t39.5 -108q0 -40 -23 -97q-33 -87 -181 -384.5t-245 -473.5zM702 57l-67 25q41 196 117.5 521.5t101.5 412.5q22 73 64.5 107t93.5 34q60 0 99.5 -37t39.5 -108q0 -40 -23 -97 q-33 -87 -181 -384.5t-245 -473.5zM156 57l-68 25q41 196 117.5 521.5t101.5 412.5q22 73 64.5 107t93.5 34q60 0 99.5 -37t39.5 -108q0 -42 -22 -97q-33 -87 -181 -384.5t-245 -473.5z" />
<glyph unicode="&#x2035;" horiz-adv-x="696" d="M606 82l-69 -25q-101 187 -247.5 481t-176.5 377q-21 53 -21 97q0 71 39.5 108t99.5 37q111 0 156 -141q26 -83 100.5 -403.5t118.5 -530.5z" />
<glyph unicode="&#x2036;" horiz-adv-x="1239" d="M1149 82l-68 -25q-97 176 -245 473.5t-181 384.5q-20 50 -20 97q0 71 39.5 108t99.5 37q50 0 92 -34t64 -107q25 -87 101.5 -412.5t117.5 -521.5zM604 82l-69 -25q-101 187 -247.5 481t-176.5 377q-21 53 -21 97q0 71 39.5 108t99.5 37q51 0 95 -34t67 -107 q51 -165 213 -934z" />
<glyph unicode="&#x2037;" horiz-adv-x="1787" d="M1698 82l-68 -25q-97 176 -245 473.5t-181 384.5q-22 55 -22 97q0 71 39.5 108t99.5 37q51 0 93.5 -34t64.5 -107q25 -87 101.5 -412.5t117.5 -521.5zM1151 82l-68 -25q-97 176 -245 473.5t-181 384.5q-22 55 -22 97q0 71 39.5 108t99.5 37q51 0 93.5 -34t64.5 -107 q25 -87 101.5 -412.5t117.5 -521.5zM604 82l-67 -25q-97 176 -245 473.5t-181 384.5q-23 57 -23 97q0 71 39.5 108t99.5 37q51 0 93.5 -34t64.5 -107q25 -87 101.5 -412.5t117.5 -521.5z" />
<glyph unicode="&#x2057;" horiz-adv-x="2332" d="M1796 57l-67 25q41 196 117.5 521.5t101.5 412.5q22 73 64.5 107t92.5 34q60 0 100 -37t40 -108q0 -40 -23 -97q-33 -87 -181 -384.5t-245 -473.5zM1249 57l-67 25q41 196 117.5 521.5t101.5 412.5q22 73 64.5 107t93.5 34q60 0 99.5 -37t39.5 -108q0 -40 -23 -97 q-33 -87 -181 -384.5t-245 -473.5zM702 57l-67 25q41 196 117.5 521.5t101.5 412.5q22 73 64.5 107t93.5 34q60 0 99.5 -37t39.5 -108q0 -40 -23 -97q-33 -87 -181 -384.5t-245 -473.5zM156 57l-68 25q41 196 117.5 521.5t101.5 412.5q22 73 64.5 107t93.5 34q60 0 99.5 -37 t39.5 -108q0 -42 -22 -97q-33 -87 -181 -384.5t-245 -473.5z" />
<glyph unicode="&#x210f;" horiz-adv-x="1185" d="M1090 240l30 -21q-27 -40 -57 -77t-70.5 -76t-87 -62.5t-90.5 -23.5q-53 0 -80.5 30t-27.5 84q0 40 49 225l82 295q18 62 18 127q0 90 -76 90q-98 0 -286 -272q-54 -79 -99 -182.5t-68 -177t-59 -199.5h-172l260 961l31 102h-223l18 76h228q18 56 18 94q0 46 -110 45h-7 v31q177 37 322 90l16 -4q-25 -71 -74 -256h289l-24 -76h-287q-31 -107 -85 -310t-67 -249h2q28 55 57.5 105.5t76 114.5t92.5 109.5t105.5 77t117.5 31.5q180 0 180 -180q0 -72 -22 -146l-105 -366q-22 -77 -22 -113q0 -35 26 -35q68 0 181 138z" />
<glyph unicode="&#x2140;" horiz-adv-x="1470" d="M1368 0h-1266v90l451 615l-416 561v90h1182v-90h-756l410 -561l-457 -615h852v-90zM860 707l-409 559h-197l410 -557l-453 -619h199z" />
<glyph unicode="&#x2190;" horiz-adv-x="849" d="M850 451h-354q-16 0 -35 -15.5t-19 -29.5q0 -23 29 -52q103 -99 168 -198l-41 -39q-118 137 -234 236t-251 155v20q135 58 252 157t235 235l41 -39q-57 -82 -168 -197q-29 -29 -29 -57q0 -17 14 -29t40 -12h352v-135z" />
<glyph unicode="&#x2191;" horiz-adv-x="1224" d="M1061 741l-43 -41q-90 56 -219 168q-37 29 -66 29q-19 0 -32 -13.5t-13 -39.5v-875h-151v877q0 16 -16.5 34.5t-33.5 18.5q-21 0 -57 -29q-113 -105 -221 -168l-41 41q150 116 260.5 233.5t173.5 252.5h23q65 -136 175.5 -253.5t260.5 -234.5z" />
<glyph unicode="&#x2192;" horiz-adv-x="849" d="M737 528v-20q-236 -100 -487 -391l-41 39q54 79 168 196q29 29 29 58q0 17 -14 29t-40 12h-352v135h354q16 0 35 15.5t19 29.5q0 22 -29 51q-101 97 -168 199l41 39q119 -138 234.5 -237t250.5 -155z" />
<glyph unicode="&#x2193;" horiz-adv-x="1224" d="M1016 496l41 -41q-150 -116 -260.5 -233.5t-173.5 -252.5h-23q-65 138 -175.5 256t-260.5 232l43 41q90 -56 219 -168q37 -29 66 -29q19 0 32 13.5t13 39.5v875h151v-877q0 -16 16 -34.5t33 -18.5q22 0 58 29q113 105 221 168z" />
<glyph unicode="&#x21d1;" horiz-adv-x="1626" d="M1493 477l-47 -43q-90 63 -193 156q-32 28 -48 36.5t-46 8.5q-17 0 -34 -14.5t-17 -40.5v-611h-152v908q-76 120 -149 120q-14 0 -27 -5t-22 -10.5t-22 -19.5t-19.5 -22t-23 -30t-23.5 -31v-910h-152v611q0 26 -19 40.5t-38 14.5q-27 0 -46.5 -10t-49.5 -39 q-107 -91 -189 -152l-47 43q122 109 228.5 226.5t248.5 292.5t191 233h22q43 -50 190.5 -229.5t254.5 -296.5t229 -226z" />
<glyph unicode="&#x21d3;" horiz-adv-x="1626" d="M1450 764l47 -43q-122 -109 -228.5 -226.5t-248.5 -292.5t-191 -233h-22q-43 50 -190.5 229.5t-254.5 296.5t-229 226l47 43q171 -136 193 -156q32 -28 48 -36.5t46 -8.5q17 0 34 14.5t17 40.5v611h152v-907q77 -121 149 -121q14 0 27 5t22 10.5t22 19.5t19.5 22t23 30 t23.5 31v910h152v-611q0 -26 19 -40.5t38 -14.5q27 0 47 10.5t50 38.5q114 97 188 152z" />
<glyph unicode="&#x21e0;" horiz-adv-x="948" d="M805 451h-279q-26 0 -39.5 -14t-13.5 -31q0 -23 29 -52q106 -103 168 -196l-41 -39q-117 135 -234 234t-252 155v20q136 58 253 157t235 235l41 -39q-57 -82 -168 -197q-29 -29 -29 -57q0 -17 13.5 -29t39.5 -12h277v-135z" />
<glyph unicode="&#x21e2;" horiz-adv-x="948" d="M805 528v-20q-135 -56 -252 -155t-234 -234l-40 39q64 96 167 196q29 29 29 52q0 17 -13.5 31t-39.5 14h-279v135h277q26 0 39.5 12t13.5 29q0 28 -29 57q-111 115 -168 197l41 39q118 -136 235 -235t253 -157z" />
<glyph unicode="&#x2205;" horiz-adv-x="1071" d="M541 1382q154 0 258 -104l112 215h117l-158 -303q69 -109 101.5 -249.5t32.5 -264.5q0 -68 -8.5 -139t-27.5 -153.5t-54.5 -154.5t-84.5 -131.5t-123.5 -94t-164.5 -34.5q-141 0 -252 99l-115 -220h-117l158 306q-71 107 -104 248.5t-33 273.5q0 56 5.5 115.5t20.5 130 t37.5 134.5t59.5 124.5t83.5 104.5t112.5 70.5t144 26.5zM301 317l436 842q-68 170 -196 170q-69 0 -121 -48t-83.5 -136.5t-47 -206t-15.5 -262.5q0 -222 27 -359zM778 1010l-434 -838q66 -149 197 -149q42 0 78 17.5t61.5 45.5t46 71t33.5 84.5t22.5 96t14 96.5t7 95 t3 81.5t0.5 65.5q0 180 -29 334z" />
<glyph unicode="&#x2208;" horiz-adv-x="823" d="M692 -27h-33q-159 0 -280.5 73t-184.5 195.5t-63 274.5t64.5 274.5t187.5 194.5t283 72h26v-135h-26q-164 0 -266 -94.5t-128 -243.5h420v-135h-420q28 -150 130 -245t266 -95h24v-136z" />
<glyph unicode="&#x2209;" d="M1280 -53h-442v-266h-103v266h-57q-119 0 -223.5 46.5t-176.5 125t-113.5 182.5t-41.5 217q0 151 71 281.5t201 210.5t289 80h51v266h103v-266h442v-136h-442v-368h442v-135h-442v-369h442v-135zM735 586v368h-51q-154 0 -274.5 -109t-147.5 -259h473zM735 82v369h-471 q27 -150 147.5 -259.5t274.5 -109.5h49z" />
<glyph unicode="&#x220b;" horiz-adv-x="823" d="M131 1057h27q120 0 221 -42t169.5 -115t106 -172t37.5 -212q0 -152 -63 -274.5t-184.5 -195.5t-280.5 -73h-33v136h25q164 0 265.5 95t129.5 245h-420v135h420q-26 149 -127.5 243.5t-265.5 94.5h-27v135z" />
<glyph unicode="&#x220c;" d="M668 1090h57q158 0 287 -80t198.5 -210.5t69.5 -281.5t-71 -281.5t-200.5 -210t-289.5 -79.5h-51v-266h-103v266h-442v135h442v369h-442v135h442v368h-442v136h442v266h103v-266zM668 586h471q-27 150 -147.5 259t-274.5 109h-49v-368zM1141 451h-473v-369h51 q154 0 274.5 109.5t147.5 259.5z" />
<glyph unicode="&#x220f;" horiz-adv-x="1421" d="M1360 0h-504v39q55 5 83 12t47 27.5t24.5 52.5t5.5 92v1030h-608v-1030q0 -110 26.5 -142.5t128.5 -41.5v-39h-502v39q103 9 132.5 41t29.5 143v887q0 44 -1 68.5t-6.5 51t-15.5 39.5t-28 24.5t-44 16.5t-65 7v39h1297v-39q-54 -4 -84.5 -13.5t-48 -32.5t-22.5 -53 t-5 -85v-910q0 -109 28.5 -142t131.5 -42v-39z" />
<glyph unicode="&#x2210;" horiz-adv-x="1421" d="M1360 0h-1297v39q39 2 65 7t44 16.5t28 24.5t15.5 39.5t6.5 51t1 68.5v887q0 111 -29.5 143t-132.5 41v39h502v-39q-102 -9 -128.5 -41.5t-26.5 -142.5v-1031h608v1031q0 60 -5.5 92t-24.5 52.5t-47 27.5t-83 12v39h504v-39q-103 -9 -131.5 -42t-28.5 -142v-910 q0 -55 5 -85t22.5 -53t48 -32.5t84.5 -13.5v-39z" />
<glyph unicode="&#x2211;" horiz-adv-x="1421" d="M1343 397l-83 -397h-1182l629 674l-590 682h1110v-334h-41q0 7 -12 61q-42 150 -195 166q-35 4 -102 4h-435l455 -522l-508 -547h631q121 0 182.5 47t93.5 166h47z" />
<glyph unicode="&#x2216;" horiz-adv-x="1071" d="M979 -455h-148l-737 1909h148z" />
<glyph unicode="&#x221a;" horiz-adv-x="1509" d="M1571 1931l-783 -1954h-65l-293 740q-21 54 -51 82t-62 28q-34 0 -79 -19.5t-78 -43.5l-23 37l289 266h29l336 -842h4l682 1706h94z" />
<glyph unicode="&#x221b;" horiz-adv-x="1509" d="M580 1606q40 14 64.5 25.5t52 31t40.5 46.5t13 63q0 51 -29.5 77.5t-81.5 26.5q-46 0 -79 -25.5t-66 -83.5l-25 5q52 165 201 165q72 0 115.5 -38t43.5 -101q0 -38 -24 -79t-66 -68q73 -26 109.5 -67.5t36.5 -113.5q0 -112 -90.5 -175.5t-214.5 -63.5q-53 0 -84 21.5 t-31 50.5q0 15 12 25.5t31 10.5q23 0 61 -26q48 -33 88 -33q58 0 96 40t38 105q0 113 -107 148q-29 10 -104 10v23zM1571 1931l-783 -1818h-65l-293 661q-50 111 -113 111q-61 0 -147 -64l-23 37l289 266h39l330 -727h4l659 1534h103z" />
<glyph unicode="&#x221c;" horiz-adv-x="1509" d="M856 1409h-104v-170h-97v170h-286v82l321 440h62v-440h104v-82zM655 1491v332l-241 -332h241zM1571 1931l-783 -1818h-65l-293 661q-50 111 -113 111q-61 0 -147 -64l-23 37l289 266h39l330 -727h4l659 1534h103z" />
<glyph unicode="&#x221d;" d="M1323 135v-135q-79 0 -156 28t-151.5 96t-122.5 169q-65 -149 -164.5 -221t-243.5 -72q-76 0 -142 26.5t-112.5 70.5t-80.5 101t-50 118t-16 122q0 76 27.5 152.5t77.5 141t129.5 105t173.5 40.5q142 0 240.5 -75.5t164.5 -226.5q48 101 121.5 171t150 100.5t154.5 30.5 v-136q-60 0 -116.5 -27.5t-100.5 -74.5t-77.5 -97.5t-59.5 -107.5q25 -56 59 -106t78 -95t100.5 -71.5t116.5 -26.5zM815 434q-67 172 -134 239.5t-185 67.5q-124 0 -200.5 -91.5t-76.5 -211.5q0 -117 75.5 -210t184.5 -93q124 0 204.5 69t131.5 230z" />
<glyph unicode="&#x2223;" horiz-adv-x="544" d="M340 -39h-135v963h135v-963z" />
<glyph unicode="&#x2224;" horiz-adv-x="827" d="M780 551l-299 -154v-436h-135v367l-250 -127l-49 108l299 152v463h135v-394l250 127z" />
<glyph unicode="&#x2225;" horiz-adv-x="913" d="M729 -23h-135v947h135v-947zM319 -23h-135v947h135v-947z" />
<glyph unicode="&#x2226;" horiz-adv-x="1247" d="M1200 670l-305 -156v-553h-135v483l-273 -137v-346h-135v277l-256 -132l-49 109l305 156v553h135v-484l273 138v346h135v-277l256 129z" />
<glyph unicode="&#x2229;" horiz-adv-x="1269" d="M1249 -63h-291v135h78v606q0 174 -118.5 297t-282.5 123q-167 0 -284.5 -123.5t-117.5 -298.5v-604h78v-135h-291v135h78v612q0 242 153 395.5t384 153.5q112 0 211 -41t170.5 -113t113 -176t41.5 -225v-606h78v-135z" />
<glyph unicode="&#x222a;" horiz-adv-x="1269" d="M1249 1098h-78v-606q0 -121 -41.5 -225t-113 -176t-170.5 -113t-211 -41q-231 0 -384 153t-153 395v613h-78v135h291v-135h-78v-604q0 -175 117.5 -298.5t284.5 -123.5q164 0 282.5 123t118.5 297v606h-78v135h291v-135z" />
<glyph unicode="&#x223c;" d="M1237 741h68q-5 -68 -28 -139t-62.5 -134.5t-100.5 -103.5t-133 -40q-66 0 -150 41t-150.5 90t-140.5 90t-122 41q-99 0 -161.5 -80t-90.5 -203h-68q5 105 45 199t116.5 156.5t172.5 62.5q54 0 118.5 -27t123 -65.5t115 -77t112 -65.5t96.5 -27q51 0 92 23t69.5 64 t47.5 89t31 106z" />
<glyph unicode="&#x223e;" horiz-adv-x="2224" d="M2001 705h110q-7 -57 -22.5 -110.5t-50 -111t-83 -99.5t-125.5 -69.5t-173 -27.5q-100 0 -218.5 27t-228 65.5t-218.5 77t-223.5 65.5t-209.5 27q-57 0 -104 -10.5t-80.5 -31t-58.5 -45t-43 -59t-29 -66t-21 -71.5h-110q5 64 22.5 122t54 113t88 95t130 64t174.5 24 q97 0 216.5 -27t231.5 -65.5t223.5 -77t225.5 -65.5t204 -27q68 0 120 16t84 41t56 64.5t35.5 75.5t22.5 86z" />
<glyph unicode="&#x223f;" horiz-adv-x="1064" d="M0 516h135q0 -131 51 -212t148 -81t147.5 81t50.5 212q0 191 91 309.5t243 118.5t243 -118.5t91 -309.5h-135q0 131 -51 212t-148 81t-147.5 -81t-50.5 -212q0 -191 -91 -309.5t-243 -118.5t-243 118.5t-91 309.5z" />
<glyph unicode="&#x2241;" d="M1237 741h68q-5 -68 -28 -139t-62.5 -134.5t-100.5 -103.5t-133 -40q-93 0 -229 84v-310h-103v377q-60 40 -87 57t-70 35.5t-74 18.5q-99 0 -161.5 -80t-90.5 -203h-68q5 105 45 199t116.5 156.5t172.5 62.5q83 0 217 -78v303h103v-371q56 -38 90 -59t78 -39t77 -18 q51 0 92 23t69.5 64t47.5 89t31 106z" />
<glyph unicode="&#x2244;" d="M1305 113h-547v-185h-113v185h-547v135h547v418q-55 38 -85 56.5t-70.5 36t-71.5 17.5q-99 0 -161.5 -79.5t-90.5 -202.5h-68q5 105 45 198.5t116.5 156t172.5 62.5q49 0 97 -20t116 -60v252h113v-317q64 -44 90.5 -60.5t71 -36.5t77.5 -20q179 0 240 283h68 q-5 -68 -28 -139t-62.5 -134.5t-100.5 -104t-133 -40.5q-87 0 -223 84v-350h547v-135z" />
<glyph unicode="&#x2247;" d="M1305 -55h-553v-185h-103v185h-551v135h551v274h-551v135h551v330q-59 44 -94.5 68t-80.5 45.5t-77 21.5q-51 0 -95.5 -26.5t-75.5 -71.5t-52.5 -96t-34.5 -109h-41q5 106 45 204.5t116.5 166.5t172.5 68q87 0 217 -86v237h103v-311q63 -48 99 -72.5t84 -48t83 -23.5 q173 0 246 304h41q-4 -54 -19 -112.5t-43 -117t-64.5 -105t-88 -75.5t-109.5 -29q-91 0 -229 94v-256h553v-135h-553v-274h553v-135z" />
<glyph unicode="&#x2248;" d="M1237 973h68q-5 -68 -28 -139t-62.5 -134.5t-100.5 -104t-133 -40.5q-66 0 -150 41t-150.5 90t-140.5 90t-122 41q-99 0 -161.5 -79.5t-90.5 -202.5h-68q5 105 45 198.5t116.5 156t172.5 62.5q54 0 118.5 -27t123 -65.5t115 -77t112 -65.5t96.5 -27q179 0 240 283z M1237 489h68q-5 -68 -28 -139t-62.5 -134.5t-100.5 -103.5t-133 -40q-66 0 -150 41t-150.5 90t-140.5 90t-122 41q-99 0 -161.5 -80t-90.5 -203h-68q5 105 45 199t116.5 156.5t172.5 62.5q54 0 118.5 -27t123 -65.5t115 -77t112 -65.5t96.5 -27q51 0 92 23t69.5 64t47.5 89 t31 106z" />
<glyph unicode="&#x2249;" d="M1237 489h68q-5 -68 -28 -139t-62.5 -134.5t-100.5 -103.5t-133 -40q-91 0 -227 84v-256h-103v323q-57 38 -87 56t-72.5 36.5t-73.5 18.5q-99 0 -161.5 -80t-90.5 -203h-68q5 105 45 199t116.5 156.5t172.5 62.5q87 0 219 -80v318q-56 37 -87 56t-73 36.5t-73 17.5 q-99 0 -161.5 -79.5t-90.5 -202.5h-68q5 105 45 198.5t116.5 156t172.5 62.5q87 0 219 -80v252h103v-317q59 -40 90.5 -59.5t75.5 -38.5t77 -19q179 0 240 283h68q-5 -68 -28 -139t-62.5 -134.5t-100.5 -104t-133 -40.5q-91 0 -227 84v-315q59 -40 90.5 -59.5t75.5 -38.5 t77 -19q51 0 92 23t69.5 64t47.5 89t31 106z" />
<glyph unicode="&#x224c;" d="M375 1200v-135q-97 0 -154 -45.5t-57 -134.5q0 -103 60 -157t161 -54q102 0 176 78q52 55 141.5 185t120.5 165q45 52 92 75t109 23q109 0 195 -93t86 -241q0 -58 -18.5 -114.5t-53 -105t-91.5 -78t-126 -29.5v135q99 0 161 45t62 135q0 103 -60 157t-161 54 q-97 0 -166 -66q-41 -37 -149 -193t-168 -204q-76 -63 -166 -63q-107 0 -189 86.5t-82 236.5q0 81 20.5 143.5t50.5 98t70 58.5t72.5 30.5t63.5 7.5zM1305 242h-1207v135h1207v-135zM1305 -168h-1207v135h1207v-135z" />
<glyph unicode="&#x2260;" d="M1305 246h-553v-565h-103v565h-551v135h551v274h-551v136h551v565h103v-565h553v-136h-553v-274h553v-135z" />
<glyph unicode="&#x2262;" d="M1305 57h-553v-376h-103v376h-551v136h551v258h-551v135h551v258h-551v135h551v377h103v-377h553v-135h-553v-258h553v-135h-553v-258h553v-136z" />
<glyph unicode="&#x2268;" d="M1272 328l-1157 559v20l1157 563v-133l-885 -440l885 -440v-129zM1272 -434h-535v-129h-112v129h-510v135h510v274h-510v136h510v182h112v-182h535v-136h-535v-274h535v-135z" />
<glyph unicode="&#x2269;" d="M1272 891l-1157 -563v133l884 440l-884 440v129l1157 -559v-20zM1272 -434h-535v-129h-112v129h-510v135h510v274h-510v136h510v182h112v-182h535v-136h-535v-274h535v-135z" />
<glyph unicode="&#x226d;" d="M1305 88v-72q-175 238 -545 256v-407h-103v409q-174 -8 -323.5 -72t-235.5 -186v72q42 93 136.5 166t204 110.5t218.5 43.5v221q-177 10 -336 94t-223 225v72q64 -87 157 -144.5t191.5 -83.5t210.5 -30v409h103v-407q170 10 315 73t230 183v-72q-61 -134 -218 -219 t-327 -100v-221q174 -15 328 -99t217 -221z" />
<glyph unicode="&#x226e;" d="M1253 -53l-462 223v-489h-103v540l-592 287v20l592 287v541h103v-492l462 226v-134l-462 -229v-418l462 -229v-133zM688 358v318l-319 -158z" />
<glyph unicode="&#x226f;" d="M1307 508l-592 -287v-540h-103v489l-462 -223v133l462 229v418l-462 229v134l462 -226v492h103v-541l592 -287v-20zM1034 518l-319 158v-316z" />
<glyph unicode="&#x2270;" d="M1272 -211h-492v-176h-102v176h-551v135h551v467l-563 273v20l563 272v467h102v-417l492 237v-133l-492 -244v-387l492 -241v-134l-492 238v-418h492v-135zM678 530v287l-291 -143z" />
<glyph unicode="&#x2271;" d="M1288 664l-563 -273v-467h549v-135h-549v-176h-102v176h-492v135h492v418l-492 -238v134l492 241v387l-492 244v133l492 -237v417h102v-467l563 -272v-20zM1016 674l-291 143v-287z" />
<glyph unicode="&#x2272;" d="M1280 236l-1157 563v20l1157 559v-133l-885 -436l885 -440v-133zM1257 72l37 -17q-62 -103 -170.5 -184.5t-214.5 -81.5q-68 0 -123 32t-91.5 83t-68 113t-60 124t-58.5 113t-73 83t-95 32q-73 0 -146 -48.5t-135 -123.5l-39 18q65 111 171 188.5t212 77.5 q69 0 125 -32.5t94.5 -84t71.5 -114t62.5 -124.5t60.5 -113.5t73.5 -84t92.5 -32.5q122 0 274 176z" />
<glyph unicode="&#x2273;" d="M1278 791l-1159 -555v133l887 434l-883 442v133l1155 -567v-20zM1184 635l37 20q51 -118 51 -254q0 -161 -83.5 -242t-211.5 -81q-67 0 -203.5 24.5t-193.5 24.5q-101 0 -156 -62.5t-55 -175.5q0 -75 26 -161l-39 -23q-55 123 -55 252q0 163 88.5 245.5t220.5 82.5 q68 0 205 -22.5t193 -22.5q99 0 151.5 56t52.5 161q0 78 -28 178z" />
<glyph unicode="&#x2274;" d="M1237 102h68q-5 -105 -45 -198.5t-116.5 -156t-172.5 -62.5q-83 0 -203 69v-219h-102v285q-6 4 -31 20.5t-32.5 21.5t-29.5 18.5t-31 18.5t-28 15.5t-30 14t-26 9t-27.5 7.5t-24.5 2q-179 0 -240 -283h-68q5 68 28 139t62.5 134.5t100.5 104t133 40.5q93 0 244 -94v516 l-564 274v21l564 272v424h102v-375l492 240v-133l-492 -244v-389l492 -244v-133l-492 238v-535q74 -49 125 -74.5t92 -25.5q99 0 161.5 79.5t90.5 202.5zM666 643v289l-291 -144z" />
<glyph unicode="&#x2275;" d="M1331 778l-563 -274v-584q74 -49 125 -74.5t92 -25.5q99 0 161.5 79.5t90.5 202.5h68q-5 -105 -45 -198.5t-116.5 -156t-172.5 -62.5q-83 0 -203 69v-219h-102v285q-6 4 -31 20.5t-32.5 21.5t-29.5 18.5t-31 18.5t-28 15.5t-30 14t-26 9t-27.5 7.5t-24.5 2 q-179 0 -240 -283h-68q5 68 28 139t62.5 134.5t100.5 104t133 40.5q93 0 244 -94v467l-492 -238v133l492 244v389l-492 244v133l492 -240v375h102v-424l563 -272v-21zM1059 788l-291 144v-289z" />
<glyph unicode="&#x2278;" d="M1272 80l-518 -223v-494h-113v447l-526 -228v129l526 226v305l-526 225v133l526 -227v325l-526 228v20l526 225v504h113v-454l518 223v-133l-518 -219v-314l518 -223v-129l-518 223v-325l518 -224v-20zM641 825v217l-254 -106zM999 90l-245 105v-209z" />
<glyph unicode="&#x2279;" d="M1270 -418l-516 223v-442h-113v490l-528 227v20l528 228v325l-528 -227v129l528 227v303l-528 226v133l528 -227v458h113v-508l516 -221v-20l-516 -224v-325l516 223v-133l-516 -221v-314l516 -221v-129zM997 936l-243 102v-209zM641 -18v217l-256 -109z" />
<glyph unicode="&#x2280;" d="M1272 104v-157q-172 229 -506 362v-628h-102v665q-251 82 -533 105v135q281 19 533 102v668h102v-631q338 138 506 365v-158q-57 -97 -196.5 -190.5t-309.5 -161.5v-123q170 -70 309.5 -163.5t196.5 -189.5zM664 494v47q-6 -2 -33.5 -10.5t-42.5 -12.5q62 -20 76 -24z " />
<glyph unicode="&#x2281;" d="M1272 586v-135q-270 -23 -504 -95v-675h-102v638q-359 -134 -535 -372v157q58 100 207.5 197.5t327.5 165.5v100q-180 71 -328.5 167.5t-206.5 197.5v158q176 -238 535 -375v641h102v-676q232 -74 504 -94zM768 532v-28q4 1 21 6.5t26 7.5q-34 9 -47 14z" />
<glyph unicode="&#x2284;" d="M1270 -53h-443v-266h-102v266h-57q-119 0 -223.5 46.5t-176.5 125t-113.5 182.5t-41.5 217q0 151 71 281.5t201 210.5t289 80h51v266h102v-266h443v-136h-443v-872h443v-135zM725 82v872h-51q-85 0 -164.5 -37.5t-136.5 -98t-91 -140t-34 -160.5q0 -108 57.5 -209 t157.5 -164t213 -63h49z" />
<glyph unicode="&#x2285;" d="M678 1090h57q158 0 287 -80t198.5 -210.5t69.5 -281.5t-71 -281.5t-200.5 -210t-289.5 -79.5h-51v-266h-103v266h-442v135h442v872h-442v136h442v266h103v-266zM678 82h51q85 0 164.5 37.5t136.5 98t91 140t34 160.5q0 108 -57.5 209t-157.5 164t-213 63h-49v-872z" />
<glyph unicode="&#x2288;" horiz-adv-x="1423" d="M1290 -211h-504v-205h-102v205h-532v135h532v180q-155 1 -282 79t-198 208.5t-71 284.5q0 155 71 284.5t198 205.5t282 77v205h102v-205h504v-135h-504v-868h504v-136h-504v-180h504v-135zM684 240v868q-111 -1 -207.5 -62t-152.5 -160.5t-56 -209.5t56 -210.5 t152.5 -162.5t207.5 -63z" />
<glyph unicode="&#x2289;" horiz-adv-x="1423" d="M739 1448v-205q155 -1 282 -77t198 -205.5t71 -284.5q0 -154 -71 -284.5t-198 -208.5t-282 -79v-180h533v-135h-533v-205h-102v205h-504v135h504v180h-504v136h504v868h-504v135h504v205h102zM739 1108v-868q111 1 207.5 63t152.5 162.5t56 210.5t-56 209.5t-152.5 160.5 t-207.5 62z" />
<glyph unicode="&#x228a;" d="M1262 -211h-603l-96 -258h-110l96 258h-426v135h475l68 176h-7q-158 0 -287 80t-198.5 210.5t-69.5 281.5q0 113 42 217t115.5 182t179 125t225.5 47h596v-135h-596q-85 0 -164.5 -37.5t-136.5 -98t-91 -140t-34 -160.5q0 -108 57.5 -209t157.5 -164t213 -63h51l100 258 h111l-101 -258h433v-136h-486l-67 -176h553v-135z" />
<glyph unicode="&#x228b;" d="M141 1243h596q160 0 289.5 -79.5t200.5 -210t71 -281.5t-69.5 -281.5t-198.5 -210.5t-287 -80h-51l-67 -176h655v-135h-705l-96 -258h-110l96 258h-324v135h373l68 176h-441v136h494l100 258h111l-101 -258q111 3 208.5 66.5t153.5 163t56 206.5q0 81 -34 160.5t-91 140 t-136.5 98t-164.5 37.5h-596v135z" />
<glyph unicode="&#x2293;" horiz-adv-x="1269" d="M1249 -63h-291v135h78v891h-803v-891h78v-135h-291v135h78v1026h1073v-1026h78v-135z" />
<glyph unicode="&#x2294;" horiz-adv-x="1269" d="M1249 963h-78v-1026h-1073v1026h-78v135h291v-135h-78v-891h803v891h-78v135h291v-135z" />
<glyph unicode="&#x2295;" horiz-adv-x="1724" d="M1380 449h-450v-449h-135v449h-451v135h451v450h135v-450h450v-135zM1622 516q0 -155 -60 -295.5t-162 -242.5t-242.5 -162t-295.5 -60t-295.5 60t-242.5 162t-162 242.5t-60 295.5t60 295.5t162 242.5t242.5 162t295.5 60t295.5 -60t242.5 -162t162 -242.5t60 -295.5z M1487 516q0 169 -84 313t-228 228t-313 84t-313 -84t-227.5 -228t-83.5 -313t83.5 -313t227.5 -228t313 -84t313 84t228 228t84 313z" />
<glyph unicode="&#x2297;" horiz-adv-x="1724" d="M1278 197l-96 -97l-320 320l-319 -320l-97 97l320 319l-320 320l97 96l319 -320l320 320l96 -96l-320 -320zM1622 516q0 -155 -60 -295.5t-162 -242.5t-242.5 -162t-295.5 -60t-295.5 60t-242.5 162t-162 242.5t-60 295.5t60 295.5t162 242.5t242.5 162t295.5 60 t295.5 -60t242.5 -162t162 -242.5t60 -295.5zM1487 516q0 169 -84 313t-228 228t-313 84t-313 -84t-227.5 -228t-83.5 -313t83.5 -313t227.5 -228t313 -84t313 84t228 228t84 313z" />
<glyph unicode="&#x229c;" horiz-adv-x="1724" d="M1622 516q0 -155 -60 -295.5t-162 -242.5t-242.5 -162t-295.5 -60t-295.5 60t-242.5 162t-162 242.5t-60 295.5t60 295.5t162 242.5t242.5 162t295.5 60t295.5 -60t242.5 -162t162 -242.5t60 -295.5zM281 743h1163q-68 177 -227 287.5t-355 110.5t-354.5 -110.5 t-226.5 -287.5zM244 428h1237q6 44 6 88q0 46 -6 92h-1237q-6 -47 -6 -92q0 -44 6 -88zM1446 293h-1167q68 -179 227 -290.5t356 -111.5t356.5 111.5t227.5 290.5z" />
<glyph unicode="&#x22da;" d="M1280 625l-1157 462v21l1157 465v-133l-834 -342l834 -340v-133zM1280 221l-1157 461v133l1157 -461v-133zM1280 -74l-1157 -463v134l833 340l-833 342v133l1157 -465v-21z" />
<glyph unicode="&#x22db;" d="M1280 1087l-1157 -462v133l833 340l-833 342v133l1157 -465v-21zM1280 682l-1157 -461v133l1157 461v-133zM1280 -537l-1157 463v21l1157 465v-133l-834 -342l834 -340v-134z" />
<glyph unicode="&#x22e0;" d="M1280 -10v-158q-176 235 -541 373v-639h-102v674q-232 72 -514 96v135q256 -13 514 -90v262q-232 72 -514 96v135q260 19 514 95v676h102v-639q362 134 541 372v-157q-58 -99 -209 -195.5t-332 -165.5v-106q183 -71 333 -166.5t208 -194.5v-157q-175 234 -541 372v-262 q385 -138 541 -356zM637 788v35q-43 -13 -57 -16z" />
<glyph unicode="&#x22e1;" d="M1280 520v-135q-282 -23 -535 -102v-717h-102v680q-348 -133 -520 -365v158q150 211 520 348v213q-349 -134 -520 -364v157q56 95 200 188.5t320 163.5v123q-175 68 -319 162t-201 191v157q169 -228 520 -366v633h102v-668q258 -84 535 -103v-135q-282 -23 -535 -102 v-213q263 82 535 96zM745 829v-47q1 0 78 25q-20 5 -78 22z" />
<glyph unicode="&#x22ec;" d="M1251 -211h-471v-176h-102v176h-547v135h547v465l-567 285l567 282v467h102v-415l471 235v-1139l-471 234v-414h471v-135zM1116 319v709l-336 -168v-375zM678 537v272l-270 -133v-4z" />
<glyph unicode="&#x22ed;" d="M1292 674l-567 -283v-467h547v-135h-547v-176h-102v176h-471v135h471v416l-471 -236v1139l471 -235v415h102v-467zM995 672v4l-270 133v-272zM623 485v375l-336 168v-709z" />
<glyph unicode="&#x2322;" d="M1305 246h-95q0 115 -72.5 210t-189.5 147t-250 52q-98 0 -190 -31t-161.5 -84.5t-111.5 -130.5t-42 -163h-95q0 124 50.5 228t135 172.5t193 106.5t225.5 38t225.5 -38t192.5 -106.5t134.5 -172.5t50.5 -228z" />
<glyph unicode="&#x2323;" d="M1210 791h95q0 -124 -50.5 -228t-135.5 -172.5t-193.5 -106.5t-225.5 -38t-225.5 38t-192.5 106.5t-134 172.5t-50 228h95q0 -115 70.5 -210t186.5 -147.5t248 -52.5t249 52.5t190 148t73 209.5z" />
<glyph unicode="&#x2423;" horiz-adv-x="1024" d="M850 45h78q0 -118 -123 -203.5t-293 -85.5t-292 85t-122 204h72q26 -75 120 -117.5t220 -42.5q127 0 221.5 42.5t118.5 117.5z" />
<glyph unicode="&#x25a9;" horiz-adv-x="1863" d="M1593 1118l-59 -57l-59 57l59 58zM1593 877l-59 -58l-59 58l59 59zM1354 1118l-62 -57l-59 57l59 58zM1475 997l-62 -59l-59 59l59 60zM1354 877l-62 -58l-59 58l59 59zM1475 758l-62 -60l-59 60l59 57zM1593 637l-59 -59l-59 59l59 57zM1112 1118l-59 -57l-62 57l62 58z M1233 997l-59 -59l-62 59l62 60zM1593 395l-59 -57l-59 57l59 60zM872 1118l-61 -57l-59 57l59 58zM1475 516l-62 -57l-59 57l59 57zM1233 758l-59 -60l-62 60l62 57zM1354 637l-62 -59l-59 59l59 57zM991 997l-59 -59l-60 59l60 60zM1112 877l-59 -58l-62 58l62 59z M1475 274l-62 -57l-59 57l59 60zM872 877l-61 -58l-59 58l59 59zM1354 395l-62 -57l-59 57l59 60zM631 1118l-60 -57l-61 57l61 58zM1233 516l-59 -57l-62 57l62 57zM1593 156l-59 -60l-59 60l59 57zM752 997l-62 -59l-59 59l59 60zM991 758l-59 -60l-60 60l60 57zM1112 637 l-59 -59l-62 59l62 57zM389 1118l-59 -57l-60 57l60 58zM631 877l-60 -58l-61 58l61 59zM991 516l-59 -57l-60 57l60 57zM1112 395l-59 -57l-62 57l62 60zM1233 274l-59 -57l-62 57l62 60zM1354 156l-62 -60l-59 60l59 57zM1475 35l-62 -60l-59 60l59 57zM1593 -86l-59 -57 l-59 57l59 57zM752 758l-62 -60l-59 60l59 57zM872 637l-61 -59l-59 59l59 57zM510 997l-59 -59l-62 59l62 60zM872 395l-61 -57l-59 57l59 60zM1354 -86l-62 -57l-59 57l59 57zM752 516l-62 -57l-59 57l59 57zM991 274l-59 -57l-60 57l60 60zM389 877l-59 -60l-60 60l60 59 zM1112 156l-59 -60l-62 60l62 57zM1233 35l-59 -60l-62 60l62 57zM510 758l-59 -60l-62 60l62 57zM631 637l-60 -59l-61 59l61 57zM872 156l-61 -60l-59 60l59 57zM631 395l-60 -57l-61 57l61 60zM752 274l-62 -57l-59 57l59 60zM991 35l-59 -60l-60 60l60 57zM1112 -86 l-59 -57l-62 57l62 57zM389 637l-59 -59l-60 59l60 57zM510 516l-59 -57l-62 57l62 57zM389 395l-59 -57l-60 57l60 60zM872 -86l-61 -57l-59 57l59 57zM752 35l-62 -60l-59 60l59 57zM510 274l-59 -57l-62 57l62 60zM631 156l-60 -60l-61 60l61 57zM389 156l-59 -60l-60 60 l60 57zM631 -86l-60 -57l-61 57l61 57zM510 35l-59 -60l-62 60l62 57zM389 -86l-59 -57l-60 57l60 57zM1772 -324h-1680v1680h1680v-1680zM1636 -188v1409h-1409v-1409h1409z" />
<glyph unicode="&#x2a3c;" horiz-adv-x="948" d="M842 -264h-738v135h603v1425h135v-1560z" />
<glyph unicode="&#x2a3d;" horiz-adv-x="948" d="M842 -264h-738v1560h136v-1425h602v-135z" />
<glyph unicode="&#x2a9d;" d="M983 1305l37 20q51 -118 51 -254q0 -161 -83.5 -242t-211.5 -81q-67 0 -203.5 24.5t-193.5 24.5q-101 0 -156 -62.5t-55 -175.5q0 -73 27 -162l-39 -22q-56 125 -56 252q0 84 25.5 148t69 102.5t98 57.5t117.5 19q68 0 204 -22.5t193 -22.5q99 0 152 56t53 161 q0 76 -29 179zM1284 -340l-1157 563v21l1157 559v-133l-885 -437l885 -440v-133z" />
<glyph unicode="&#x2a9e;" d="M1348 850l36 -16q-62 -103 -170.5 -185t-214.5 -82q-68 0 -123 32t-91.5 83t-68 113t-60 124t-58.5 113t-73 83t-95 32q-73 0 -145.5 -48.5t-134.5 -123.5l-39 18q65 112 171 189.5t212 77.5q69 0 125 -32.5t94.5 -84t71.5 -114t62.5 -125t60 -114t73 -84t92.5 -32.5 q123 0 275 176zM1282 219l-1157 -559v133l885 436l-885 441v133l1157 -563v-21z" />
<glyph unicode="&#x2aac;" d="M1280 137l-1157 563v21l1157 559v-133l-748 -369h748v-135h-750l750 -373v-133zM1280 -281l-1157 564v135l1157 -563v-136z" />
<glyph unicode="&#x2aad;" d="M1280 696l-1157 -559v133l747 369h-747v135h749l-749 373v133l1157 -563v-21zM1280 283l-1157 -564v136l1157 563v-135z" />
<glyph unicode="&#x2acb;" d="M1288 -432h-637l-82 -225h-110l82 225h-389v135h438l98 272h-536v136h585l80 217h-131q-119 0 -223.5 46.5t-176.5 125t-113.5 182.5t-41.5 217q0 151 71 281.5t200.5 210t289.5 79.5h596v-135h-596q-85 0 -164.5 -37.5t-136.5 -98t-91 -140t-34 -160.5q0 -108 57.5 -209 t157.5 -164t213 -63h172l84 227h111l-84 -227h311v-135h-360l-80 -217h440v-136h-489l-99 -272h588v-135z" />
<glyph unicode="&#x2acc;" d="M152 1470h602q119 0 223.5 -46.5t176.5 -125t113.5 -182.5t41.5 -217q0 -151 -71 -281.5t-200.5 -210t-289.5 -79.5h-82l-76 -217h698v-136h-745l-97 -272h842v-135h-889l-77 -225h-109l78 225h-139v135h186l96 272h-282v136h329l76 217h-405v135h452l80 227h109 l-80 -227h35q85 0 164.5 37.5t136.5 98t91 140t34 160.5q0 108 -58 209t-158 164t-213 63h-593v135z" />
<glyph unicode="&#x2aee;" horiz-adv-x="827" d="M780 309l-49 -108l-250 127v-367h-135v436l-299 154l49 106l250 -127v394h135v-463z" />
<glyph unicode="&#xe000;" horiz-adv-x="1024" d="M0 0z" />
</font>
</defs>
</svg>
