<?xml version="1.0" standalone="no"?>
<!DOCTYPE svg PUBLIC "-//W3C//DTD SVG 1.1//EN" "http://www.w3.org/Graphics/SVG/1.1/DTD/svg11.dtd" >
<svg xmlns="http://www.w3.org/2000/svg">
<metadata></metadata>
<defs>
<font id="STIXIntegralsUpDRegular" horiz-adv-x="512" >
<font-face units-per-em="2048" ascent="1536" descent="-512" />
<missing-glyph horiz-adv-x="500" />
<glyph unicode=" " />
<glyph unicode="&#xa0;" />
<glyph unicode="&#x222b;" horiz-adv-x="956" d="M483 -20v3622q0 68 11.5 134t39.5 132.5t70 116t109 80.5t151 31q92 0 138.5 -46t46.5 -112q0 -50 -33.5 -79t-79.5 -29q-39 0 -67.5 22t-28.5 66q0 29 12 45.5t12 26.5q0 28 -35 28q-39 0 -66.5 -22.5t-43.5 -59t-25 -98t-11.5 -122.5t-2.5 -150v-3638 q0 -69 -11.5 -133.5t-39.5 -128.5t-70 -111t-108 -76.5t-148 -29.5q-92 0 -138 46t-46 112q0 50 33 79t79 29q40 0 68.5 -22t28.5 -66q0 -29 -12.5 -45t-12.5 -26q0 -13 10 -21t25 -8q33 0 57 14t39.5 44t25.5 65.5t15 92t6.5 108.5t1.5 129z" />
<glyph unicode="&#x222c;" horiz-adv-x="1611" d="M1139 -20v3622q0 68 11.5 134t39.5 132.5t70 116t109 80.5t151 31q92 0 138 -46t46 -112q0 -50 -33.5 -79t-79.5 -29q-39 0 -67.5 22t-28.5 66q0 28 12.5 44.5t12.5 27.5q0 28 -35 28q-33 0 -57.5 -14.5t-40.5 -44.5t-26.5 -66.5t-16 -91.5t-7.5 -108.5t-2 -126.5v-3638 q0 -69 -11.5 -133.5t-39.5 -128.5t-70 -111t-108 -76.5t-148 -29.5q-92 0 -138 46t-46 112q0 50 33.5 79t79.5 29q39 0 67.5 -22t28.5 -66q0 -29 -12.5 -45t-12.5 -26q0 -13 10 -21t25 -8q33 0 57 14t40 44t26 65.5t15 92t6.5 109t1.5 128.5zM483 -20v3622q0 68 11.5 134 t39.5 132.5t70 116t109 80.5t151 31q92 0 138.5 -46t46.5 -112q0 -50 -33.5 -79t-79.5 -29q-39 0 -67.5 22t-28.5 66q0 29 12 45.5t12 26.5q0 28 -35 28q-39 0 -66.5 -22.5t-43.5 -59t-25 -98t-11.5 -122.5t-2.5 -150v-3638q0 -69 -11.5 -133.5t-39.5 -128.5t-70 -111 t-108 -76.5t-148 -29.5q-92 0 -138 46t-46 112q0 50 33 79t79 29q40 0 68.5 -22t28.5 -66q0 -29 -12.5 -45t-12.5 -26q0 -13 10 -21t25 -8q33 0 57 14t39.5 44t25.5 65.5t15 92t6.5 108.5t1.5 129z" />
<glyph unicode="&#x222d;" horiz-adv-x="2267" d="M1794 -20v3622q0 68 11.5 134t39.5 132.5t70 116t109 80.5t151 31q92 0 138 -46t46 -112q0 -50 -33 -79t-79 -29q-40 0 -68.5 22t-28.5 66q0 28 12.5 44.5t12.5 27.5q0 28 -35 28q-39 0 -66.5 -22.5t-43.5 -59t-25 -98t-11.5 -122.5t-2.5 -150v-3638q0 -69 -11.5 -133.5 t-39.5 -128.5t-70 -111t-108 -76.5t-148 -29.5q-92 0 -138 46t-46 112q0 50 33 79t79 29q39 0 67.5 -22t28.5 -66q0 -29 -12 -45t-12 -26q0 -13 10 -21t25 -8q33 0 57 14t39.5 44t25.5 65.5t15 92t6.5 108.5t1.5 129zM1139 -20v3622q0 68 11.5 134t39.5 132.5t70 116 t109 80.5t151 31q92 0 138 -46t46 -112q0 -50 -33.5 -79t-79.5 -29q-39 0 -67.5 22t-28.5 66q0 28 12.5 44.5t12.5 27.5q0 28 -35 28q-33 0 -57.5 -14.5t-40.5 -44.5t-26.5 -66.5t-16 -91.5t-7.5 -108.5t-2 -126.5v-3638q0 -69 -11.5 -133.5t-39.5 -128.5t-70 -111 t-108 -76.5t-148 -29.5q-92 0 -138 46t-46 112q0 50 33.5 79t79.5 29q39 0 67.5 -22t28.5 -66q0 -29 -12.5 -45t-12.5 -26q0 -13 10 -21t25 -8q33 0 57 14t40 44t26 65.5t15 92t6.5 109t1.5 128.5zM483 -20v3622q0 68 11.5 134t39.5 132.5t70 116t109 80.5t151 31 q92 0 138.5 -46t46.5 -112q0 -50 -33.5 -79t-79.5 -29q-39 0 -67.5 22t-28.5 66q0 29 12 45.5t12 26.5q0 28 -35 28q-39 0 -66.5 -22.5t-43.5 -59t-25 -98t-11.5 -122.5t-2.5 -150v-3638q0 -69 -11.5 -133.5t-39.5 -128.5t-70 -111t-108 -76.5t-148 -29.5q-92 0 -138 46 t-46 112q0 50 33 79t79 29q40 0 68.5 -22t28.5 -66q0 -29 -12.5 -45t-12.5 -26q0 -13 10 -21t25 -8q33 0 57 14t39.5 44t25.5 65.5t15 92t6.5 108.5t1.5 129z" />
<glyph unicode="&#x222e;" horiz-adv-x="1261" d="M862 3566v-1199q231 -39 386 -218t155 -416t-155 -417.5t-386 -219.5v-1166q0 -68 -11.5 -133.5t-40 -129.5t-70.5 -111.5t-108.5 -77t-148.5 -29.5q-92 0 -138 46t-46 112q0 50 33.5 79t79.5 29q39 0 67.5 -22t28.5 -66q0 -29 -12.5 -45t-12.5 -26q0 -13 10 -21t25 -8 q39 0 66.5 22t43 58t24.5 97.5t11.5 123t2.5 152.5v1116q-235 34 -393 215t-158 422t158 420.5t393 213.5v1235q0 69 11 135t38.5 132.5t69 115.5t108.5 80t151 31q92 0 138.5 -46t46.5 -112q0 -50 -33.5 -79t-79.5 -29q-39 0 -67.5 22t-28.5 66q0 29 12 45.5t12 26.5 q0 28 -34 28q-28 0 -50 -11.5t-37.5 -31t-26.5 -51.5t-17.5 -67t-10.5 -84.5t-5 -96.5t-1 -110zM862 2275v-1087q193 37 321 191t128 354q0 199 -128.5 352t-320.5 190zM666 1188v1087q-197 -34 -328 -187t-131 -355q0 -203 131.5 -357t327.5 -188z" />
<glyph unicode="&#x222f;" horiz-adv-x="1738" d="M1335 3647v-1318q176 -82 290 -227t114 -326t-114 -326t-290 -227v-1295q0 -74 -13 -141.5t-42 -129.5t-71.5 -108t-107 -73t-143.5 -27t-131.5 40t-52.5 118q0 47 32.5 77.5t80.5 30.5q41 0 68.5 -23.5t27.5 -64.5q0 -26 -12.5 -43.5t-12.5 -27.5q0 -29 35 -29 q30 0 54 13t38.5 38.5t24.5 50.5t15 61t7 58t3 53q4 106 4 158v1198q-114 -24 -230 -24q-115 0 -229 24v-1229q0 -74 -13 -141.5t-42 -129.5t-71.5 -108t-107 -73t-143.5 -27t-131.5 40t-52.5 118q0 47 32 77.5t80 30.5q42 0 69.5 -23.5t27.5 -64.5q0 -26 -12.5 -43.5 t-12.5 -27.5q0 -29 35 -29q30 0 54 13t38.5 38.5t24 50t14.5 61t7 58t3 53.5q4 106 4 158v1264q-176 82 -289.5 227t-113.5 326t113.5 326t289.5 227v1273q0 74 13 143.5t42 134t72 112t108.5 76t145.5 28.5q79 0 132 -40.5t53 -117.5q0 -47 -32.5 -77.5t-80.5 -30.5 q-41 0 -68.5 23.5t-27.5 64.5q0 26 12 44t12 28q0 28 -35 28q-40 0 -69 -26.5t-44 -63t-23.5 -92t-10.5 -96.5t-2 -93v-1253q119 25 229 25q111 0 230 -25v1208q0 74 13 143.5t42 134t72 112t108.5 76t145.5 28.5q79 0 131.5 -40t52.5 -118q0 -47 -32.5 -77.5t-80.5 -30.5 q-41 0 -68.5 23.5t-27.5 64.5q0 26 12.5 44t12.5 28q0 28 -35 28q-150 0 -150 -371zM1335 2214v-877q132 71 216.5 185.5t84.5 253.5t-84.5 253t-216.5 185zM1139 1262v1028q-110 26 -230 26q-119 0 -229 -26v-1028q114 -27 229 -27q116 0 230 27zM483 1337v877 q-132 -71 -216.5 -185t-84.5 -253t84.5 -253.5t216.5 -185.5z" />
<glyph unicode="&#x2230;" horiz-adv-x="2377" d="M1991 3566v-1280q198 -87 303.5 -220t105.5 -290t-105.5 -290t-303.5 -220v-1338q0 -69 -11.5 -133.5t-39.5 -128.5t-70 -111t-108 -76.5t-148 -29.5q-92 0 -138 46t-46 112q0 50 33 79t79 29q39 0 67.5 -22t28.5 -66q0 -29 -12 -45t-12 -26q0 -13 10 -21t25 -8 q33 0 57 14t39.5 44t25.5 65.5t15 92t6.5 108.5t1.5 129v1218q-206 -54 -459 -63v-1207q0 -69 -11.5 -133.5t-39.5 -128.5t-70 -111t-108 -76.5t-148 -29.5q-92 0 -138 46t-46 112q0 50 33.5 79t79.5 29q39 0 67.5 -22t28.5 -66q0 -29 -12.5 -45t-12.5 -26q0 -13 10 -21 t25 -8q33 0 57 14t40 44t26 65.5t15 92t6.5 109t1.5 128.5v1155q-253 9 -459 63v-1270q0 -69 -11.5 -133.5t-39.5 -128.5t-70 -111t-108 -76.5t-148 -29.5q-92 0 -138 46t-46 112q0 50 33 79t79 29q40 0 68.5 -22t28.5 -66q0 -29 -12.5 -45t-12.5 -26q0 -13 10 -21t25 -8 q33 0 57 14t39.5 44t25.5 65.5t15 92t6.5 108.5t1.5 129v1286q-198 87 -303.5 220t-105.5 290t105.5 290t303.5 220v1316q0 68 11.5 134t39.5 132.5t70 116t109 80.5t151 31q92 0 138.5 -46t46.5 -112q0 -50 -33.5 -79t-79.5 -29q-39 0 -67.5 22t-28.5 66q0 29 12 45.5 t12 26.5q0 28 -35 28q-39 0 -66.5 -22.5t-43.5 -59t-25 -98t-11.5 -122.5t-2.5 -150v-1213q210 55 459 64v1185q0 68 11.5 134t39.5 132.5t70 116t109 80.5t151 31q92 0 138 -46t46 -112q0 -50 -33.5 -79t-79.5 -29q-39 0 -67.5 22t-28.5 66q0 28 12.5 44.5t12.5 27.5 q0 28 -35 28q-33 0 -57.5 -14.5t-40.5 -44.5t-26.5 -66.5t-16 -91.5t-7.5 -108.5t-2 -126.5v-1149q249 -9 459 -64v1249q0 68 11.5 134t39.5 132.5t70 116t109 80.5t151 31q92 0 138 -46t46 -112q0 -50 -33 -79t-79 -29q-40 0 -68.5 22t-28.5 66q0 28 12.5 44.5t12.5 27.5 q0 28 -35 28q-39 0 -66.5 -22.5t-43.5 -59t-25 -98t-11.5 -122.5t-2.5 -150zM1991 2175v-799q149 73 228 176.5t79 223.5q0 119 -78.5 222.5t-228.5 176.5zM1794 1303v946q-195 56 -459 65v-1077q260 9 459 66zM1139 1237v1077q-264 -9 -459 -65v-946q199 -57 459 -66z M483 1376v799q-150 -73 -228.5 -176.5t-78.5 -222.5q0 -120 79 -223.5t228 -176.5z" />
<glyph unicode="&#x2231;" horiz-adv-x="1245" d="M1477 1935l30 -18q-125 -241 -125 -449l-18 -10q-80 77 -177.5 127t-225.5 92l10 35q73 -14 186 -51q15 -6 31 -6q15 0 26 8.5t11 22.5q0 8 -4 20q-48 103 -146.5 177.5t-214.5 101.5v-2057q0 -74 -13 -141.5t-42 -129.5t-71.5 -108t-107 -73t-143.5 -27t-131.5 40 t-52.5 118q0 47 32.5 77.5t80.5 30.5q43 0 69.5 -23t26.5 -65q0 -27 -12.5 -44t-12.5 -27q0 -29 35 -29q36 0 63 20.5t40.5 47.5t22.5 70t11 69t4 65q5 74 5 181v2015q-200 -28 -332.5 -181.5t-132.5 -355.5h-103q0 161 74 301t204 230.5t290 109.5v1503q0 75 12.5 144 t42 133.5t72.5 112t108 76t145 28.5q79 0 132 -40.5t53 -117.5q0 -47 -32.5 -77.5t-80.5 -30.5q-43 0 -69.5 23t-26.5 65q0 28 12 45.5t12 26.5q0 28 -34 28q-30 0 -54 -13t-39 -39t-25 -50.5t-16 -61.5t-8 -57.5t-4 -52.5q-4 -59 -4 -178v-1475q132 -25 245 -102.5 t181 -192.5l10.5 -21t15 -26.5t17 -17t23.5 -9.5q23 0 37 37q5 12 19 43.5t22 47.5t21 41t26 44z" />
<glyph unicode="&#x2232;" horiz-adv-x="1261" d="M1497 2222l31 -18q-125 -238 -125 -457v-14q0 -237 -155 -417.5t-386 -219.5v-1166q0 -68 -11.5 -133.5t-40 -129.5t-70.5 -111.5t-108.5 -77t-148.5 -29.5q-92 0 -138 46t-46 112q0 50 33.5 79t79.5 29q39 0 67.5 -22t28.5 -66q0 -29 -12.5 -45t-12.5 -26q0 -13 10 -21 t25 -8q39 0 66.5 22t43 58t24.5 97.5t11.5 123t2.5 152.5v1116q-235 34 -393 215t-158 422t158 420.5t393 213.5v1235q0 69 11 135t38.5 132.5t69 115.5t108.5 80t151 31q92 0 138.5 -46t46.5 -112q0 -50 -33.5 -79t-79.5 -29q-39 0 -67.5 22t-28.5 66q0 29 12 45.5t12 26.5 q0 28 -34 28q-28 0 -50 -11.5t-37.5 -31t-26.5 -51.5t-17.5 -67t-10.5 -84.5t-5 -96.5t-1 -110v-1199q153 -26 276 -116t193 -223q19 -19 35 -19h6q28 14 37 37q38 100 88 176zM862 2275v-1087q193 37 321 191t128 354q0 49 -8 88q-108 78 -312 143l10 35q107 -22 187 -51 q12 -6 29 -6q38 0 38 30q-58 117 -161.5 198t-231.5 105zM666 1188v1087q-197 -34 -328 -187t-131 -355q0 -203 131.5 -357t327.5 -188z" />
<glyph unicode="&#x2233;" horiz-adv-x="1239" d="M1608 2013l-9 -37q-40 1 -117 23t-104 22q-12 0 -21 -6.5t-9 -17.5v-2q30 -75 42.5 -132t12.5 -130q0 -155 -70.5 -292t-194 -228.5t-276.5 -116.5v-1166q0 -74 -13 -142t-42.5 -130t-72.5 -108t-107.5 -73.5t-143.5 -27.5t-131.5 40t-52.5 118q0 47 32.5 77.5t80.5 30.5 q41 0 68.5 -23.5t27.5 -64.5q0 -27 -12.5 -43.5t-12.5 -27.5q0 -29 35 -29q30 0 53.5 11t38.5 40.5t24.5 46.5t15.5 63.5t7 55.5t4 56q1 7 1 10q4 110 4 170v1116q-236 34 -393.5 216t-157.5 421t157 419.5t394 214.5v1235q0 75 12.5 144t41.5 133.5t71.5 112t107.5 76 t145 28.5q79 0 132 -40.5t53 -117.5q0 -47 -32.5 -77.5t-80.5 -30.5q-41 0 -68.5 23.5t-27.5 64.5q0 29 12 45.5t12 26.5q0 28 -34 28q-27 0 -48.5 -12t-35.5 -27t-25 -44t-16.5 -48.5t-10 -56t-5.5 -50t-3 -46.5q-4 -110 -4 -168v-1199q135 -23 246 -94q27 -17 100 -82 q76 -63 171.5 -102t228.5 -76zM862 2275v-1087q195 37 322 192t127 353q0 55 -23 141q0 1 -2.5 11.5t-3.5 14.5t-4 14t-6 14.5t-7.5 10.5t-10 8.5t-11.5 2.5q-25 0 -47 -39q-12 -23 -41 -84.5t-47 -93.5l-35 16q31 75 46 114t33.5 104t25.5 120q-13 32 -82 80 q-110 85 -234 108zM666 1188v1087q-198 -34 -328.5 -187.5t-130.5 -354.5t130.5 -356t328.5 -189z" />
<glyph unicode="&#x2a0b;" horiz-adv-x="1871" d="M1753 1401l-108 -613h-590v-860q0 -69 -11.5 -133.5t-39.5 -128.5t-70 -111t-108 -76.5t-148 -29.5q-92 0 -138 46t-46 112q0 50 33 79t79 29q39 0 67.5 -22t28.5 -66q0 -29 -12 -45t-12 -26q0 -13 10 -21t25 -8q33 0 57 14t39.5 44t25.5 65.5t15 92t6.5 108.5t1.5 129 v808h-739l739 963v170l-688 961h688v720q0 68 11.5 134t39.5 132.5t70 116t109 80.5t151 31q92 0 138 -46t46 -112q0 -50 -33 -79t-79 -29q-40 0 -68.5 22t-28.5 66q0 28 12.5 44.5t12.5 27.5q0 28 -35 28q-39 0 -66.5 -22.5t-43.5 -59t-25 -98t-11.5 -122.5t-2.5 -150v-684 h645v-515h-62q-11 73 -25 124t-37 96.5t-54.5 73t-79 48t-110.5 29t-148 8.5h-129v-626l129 -174l-129 -166v-723h288q84 0 144.5 24t99.5 72.5t63 106.5t42 141h61zM858 2384v362h-268zM858 1057v469l-362 -469h362z" />
<glyph unicode="&#x2a0c;" horiz-adv-x="2861" d="M2388 -20v3622q0 68 11.5 134t39.5 132.5t70 116t109 80.5t151 31q92 0 138 -46t46 -112q0 -50 -33 -79t-79 -29q-40 0 -68.5 22t-28.5 66q0 28 12.5 44.5t12.5 27.5q0 28 -35 28q-39 0 -66.5 -22.5t-43.5 -59t-25 -98t-11.5 -122.5t-2.5 -150v-3638q0 -69 -11.5 -133.5 t-39.5 -128.5t-70 -111t-108 -76.5t-148 -29.5q-92 0 -138.5 46t-46.5 112q0 50 33.5 79t79.5 29q39 0 67.5 -22t28.5 -66q0 -29 -12 -45t-12 -26q0 -13 10 -21t25 -8q33 0 57 14t39.5 44t25.5 65.5t15 92t6.5 108.5t1.5 129zM1753 -20v3622q0 68 11.5 134t39.5 132.5 t70 116t109 80.5t151 31q92 0 138 -46t46 -112q0 -50 -33 -79t-79 -29q-40 0 -68.5 22t-28.5 66q0 28 12.5 44.5t12.5 27.5q0 28 -35 28q-39 0 -66.5 -22.5t-43.5 -59t-25 -98t-11.5 -122.5t-2.5 -150v-3638q0 -69 -11.5 -133.5t-39.5 -128.5t-70 -111t-108 -76.5 t-148 -29.5q-92 0 -138 46t-46 112q0 50 33 79t79 29q39 0 67.5 -22t28.5 -66q0 -29 -12 -45t-12 -26q0 -13 10 -21t25 -8q33 0 57 14t39.5 44t25.5 65.5t15 92t6.5 108.5t1.5 129zM1118 -20v3622q0 68 11.5 134t39.5 132.5t70 116t109 80.5t151 31q92 0 138 -46t46 -112 q0 -50 -33 -79t-79 -29q-39 0 -67.5 22t-28.5 66q0 29 12 45.5t12 26.5q0 28 -35 28q-39 0 -66.5 -22.5t-43.5 -59t-25 -98t-11.5 -122.5t-2.5 -150v-3638q0 -69 -11.5 -133.5t-39.5 -128.5t-70 -111t-108 -76.5t-148 -29.5q-92 0 -138 46t-46 112q0 50 33 79t79 29 q40 0 68.5 -22t28.5 -66q0 -29 -12.5 -45t-12.5 -26q0 -13 10 -21t25 -8q33 0 57 14t39.5 44t25.5 65.5t15 92t6.5 108.5t1.5 129zM483 -20v3622q0 68 11.5 134t39.5 132.5t70 116t109 80.5t151 31q92 0 138.5 -46t46.5 -112q0 -50 -33.5 -79t-79.5 -29q-39 0 -67.5 22 t-28.5 66q0 29 12 45.5t12 26.5q0 28 -35 28q-39 0 -66.5 -22.5t-43.5 -59t-25 -98t-11.5 -122.5t-2.5 -150v-3638q0 -69 -11.5 -133.5t-39.5 -128.5t-70 -111t-108 -76.5t-148 -29.5q-92 0 -138 46t-46 112q0 50 33 79t79 29q40 0 68.5 -22t28.5 -66q0 -29 -12.5 -45 t-12.5 -26q0 -13 10 -21t25 -8q33 0 57 14t39.5 44t25.5 65.5t15 92t6.5 108.5t1.5 129z" />
<glyph unicode="&#x2a0d;" horiz-adv-x="1247" d="M1325 1702h-528v-1774q0 -69 -11.5 -133.5t-39.5 -128.5t-70 -111t-108 -76.5t-148 -29.5q-92 0 -138 46t-46 112q0 50 33 79t79 29q39 0 67.5 -22t28.5 -66q0 -29 -12 -45t-12 -26q0 -13 10 -21t25 -8q33 0 57 14t39.5 44t25.5 65.5t15 92t6.5 108.5t1.5 129v1722h-528 v143h528v1757q0 68 11.5 134t39.5 132.5t70 116t109 80.5t151 31q92 0 138 -46t46 -112q0 -50 -33 -79t-79 -29q-40 0 -68.5 22t-28.5 66q0 28 12.5 44.5t12.5 27.5q0 28 -35 28q-39 0 -66.5 -22.5t-43.5 -59t-25 -98t-11.5 -122.5t-2.5 -150v-1721h528v-143z" />
<glyph unicode="&#x2a0e;" horiz-adv-x="1247" d="M1325 1477h-528v-1551q0 -69 -11.5 -133.5t-39.5 -128.5t-70 -111t-108 -76.5t-148 -29.5q-92 0 -138 46t-46 112q0 50 33 79t79 29q39 0 67.5 -22t28.5 -66q0 -29 -12 -45t-12 -26q0 -13 10 -21t25 -8q28 0 50 11.5t37 30t26 51t17 66.5t9.5 85t4.5 97t1 111v1500h-528 v143h528v307h-528v144h528v1529q0 68 11.5 134t39.5 132.5t70 116t109 80.5t151 31q92 0 138 -46t46 -112q0 -50 -33 -79t-79 -29q-40 0 -68.5 22t-28.5 66q0 28 12.5 44t12.5 27q0 13 -10 21t-25 8q-39 0 -66.5 -22.5t-43.5 -59t-25 -98t-11.5 -122.5t-2.5 -150v-1493h528 v-144h-528v-307h528v-143z" />
<glyph unicode="&#x2a0f;" horiz-adv-x="1347" d="M1503 2394l-626 -627v-1841q0 -74 -13 -141.5t-42 -129.5t-71.5 -108t-107 -73t-143.5 -27t-132 40.5t-53 117.5q0 47 32.5 77.5t80.5 30.5q41 0 68.5 -23.5t27.5 -64.5q0 -25 -12 -43.5t-12 -27.5q0 -29 35 -29q36 0 63 20.5t40.5 47.5t22.5 70t11 69t4 65q4 98 4 148 v1628l-526 -526l-103 102l629 629v1822q0 74 13 143.5t42 134t72 112t108.5 76t145.5 28.5q79 0 131.5 -40t52.5 -118q0 -47 -32 -77.5t-80 -30.5q-42 0 -69.5 23.5t-27.5 64.5q0 25 12.5 43.5t12.5 27.5q0 29 -35 29q-149 0 -149 -373v-1671l524 525z" />
<glyph unicode="&#x2a10;" horiz-adv-x="1288" d="M1300 2120l-79 -66q-61 100 -156 166t-211 86v-1065q116 21 211 88l51 -88q-126 -82 -262 -102v-1211q0 -69 -11.5 -133.5t-39.5 -128.5t-70 -111t-108 -76.5t-148 -29.5q-92 0 -138 46t-46 112q0 50 33.5 79t79.5 29q39 0 67.5 -22t28.5 -66q0 -29 -12.5 -45t-12.5 -26 q0 -13 10 -21t25 -8q33 0 57 14t39.5 44t25.5 65.5t15 92t6.5 108.5t1.5 129v1159q-152 24 -276 114t-195 227t-71 294q0 240 155 419t387 215v1194q0 68 11.5 134t39.5 132.5t70 116t109 80.5t151 31q92 0 138.5 -46t46.5 -112q0 -50 -33.5 -79t-79.5 -29q-39 0 -67.5 22 t-28.5 66q0 29 12 45.5t12 26.5q0 28 -34 28q-33 0 -57.5 -14.5t-40.5 -44.5t-26.5 -66.5t-16 -91.5t-7.5 -108.5t-2 -126.5v-1156q139 -22 255.5 -98t190.5 -192zM657 1243v1063q-190 -36 -315 -185t-125 -347q0 -197 125 -346.5t315 -184.5z" />
<glyph unicode="&#x2a11;" horiz-adv-x="1245" d="M1507 1638l-30 -18q-50 76 -88 176q-5 16 -15 26.5t-22 10.5q-24 0 -39 -27q-70 -138 -196.5 -230.5t-280.5 -115.5v-1532q0 -69 -11.5 -133.5t-39.5 -128.5t-70 -111t-108 -76.5t-148 -29.5q-92 0 -138.5 46t-46.5 112q0 50 33.5 79t79.5 29q39 0 67.5 -22t28.5 -66 q0 -29 -12 -45t-12 -26q0 -13 10 -21t25 -8q33 0 57 14t39.5 44t25.5 65.5t15 92t6.5 108.5t1.5 129v1480q-152 24 -276 114t-195.5 227t-71.5 294h103q0 -197 125 -346t315 -184v2037q0 68 11.5 134t39.5 132.5t70 116t109 80.5t151 31q92 0 138 -46t46 -112q0 -50 -33 -79 t-79 -29q-40 0 -68.5 22t-28.5 66q0 28 12.5 44.5t12.5 27.5q0 28 -35 28q-39 0 -66.5 -22.5t-43.5 -59t-25 -98t-11.5 -122.5t-2.5 -150v-2001q124 23 226.5 99.5t158.5 184.5q4 17 4 21q0 14 -10.5 22.5t-26.5 8.5q-17 0 -31 -7q-81 -30 -186 -51l-10 35q131 43 226 90.5 t177 126.5l18 -10q0 -209 125 -447z" />
<glyph unicode="&#x2a12;" horiz-adv-x="1163" d="M1223 1130h-543v-1202q0 -69 -11.5 -133.5t-39.5 -128.5t-70 -111t-108 -76.5t-148 -29.5q-92 0 -138 46t-46 112q0 50 33 79t79 29q40 0 68.5 -22t28.5 -66q0 -29 -12.5 -45t-12.5 -26q0 -13 10 -21t25 -8q33 0 57 14t39.5 44t25.5 65.5t15 92t6.5 108.5t1.5 129v1257 h633v1071h-633v1294q0 68 11.5 134t39.5 132.5t70 116t109 80.5t151 31q92 0 138.5 -46t46.5 -112q0 -50 -33.5 -79t-79.5 -29q-39 0 -67.5 22t-28.5 66q0 29 12 45.5t12 26.5q0 28 -35 28q-39 0 -66.5 -22.5t-43.5 -59t-25 -98t-11.5 -122.5t-2.5 -150v-1151h543v-1285z M811 1774q0 -96 -67.5 -164t-163.5 -68q-97 0 -164.5 67.5t-67.5 164.5q0 96 68 163.5t164 67.5q95 0 163 -68t68 -163z" />
<glyph unicode="&#x2a13;" horiz-adv-x="1085" d="M680 3566v-1156q233 -36 390 -216t157 -420t-157 -420.5t-390 -214.5v-1211q0 -69 -11.5 -133.5t-39.5 -128.5t-70 -111t-108 -76.5t-148 -29.5q-92 0 -138 46t-46 112q0 50 33 79t79 29q40 0 68.5 -22t28.5 -66q0 -29 -12.5 -45t-12.5 -26q0 -13 10 -21t25 -8 q33 0 57 14t39.5 44t25.5 65.5t15 92t6.5 108.5t1.5 129v1261q44 -8 101 -8q147 0 271.5 72.5t196.5 197t72 271.5q0 110 -42.5 210t-115 172.5t-172.5 115t-210 42.5q-46 0 -101 -10v1298q0 68 11.5 134t39.5 132.5t70 116t109 80.5t151 31q92 0 138.5 -46t46.5 -112 q0 -50 -33.5 -79t-79.5 -29q-39 0 -67.5 22t-28.5 66q0 29 12 45.5t12 26.5q0 28 -35 28q-39 0 -66.5 -22.5t-43.5 -59t-25 -98t-11.5 -122.5t-2.5 -150zM811 1774q0 -96 -67.5 -164t-163.5 -68q-97 0 -164.5 67.5t-67.5 164.5q0 96 68 163.5t164 67.5q95 0 163 -68t68 -163 z" />
<glyph unicode="&#x2a14;" horiz-adv-x="1423" d="M1174 1774q0 -96 -68 -164t-164 -68q-97 0 -164 67.5t-67 164.5q0 96 67.5 163.5t163.5 67.5q95 0 163.5 -68t68.5 -163zM680 3566v-1207q125 58 266 58q174 0 322 -86.5t234.5 -234.5t86.5 -322t-86.5 -322.5t-234.5 -235t-322 -86.5q-141 0 -266 58v-1260 q0 -69 -11.5 -133.5t-39.5 -128.5t-70 -111t-108 -76.5t-148 -29.5q-92 0 -138 46t-46 112q0 50 33 79t79 29q40 0 68.5 -22t28.5 -66q0 -29 -12.5 -45t-12.5 -26q0 -13 10 -21t25 -8q33 0 57 14t39.5 44t25.5 65.5t15 92t6.5 108.5t1.5 129v1513q89 -130 208 -195t255 -65 q147 0 271.5 72.5t197 197t72.5 271.5t-72.5 271.5t-197 196.5t-271.5 72q-145 0 -268 -70.5t-195 -189.5v1548q0 68 11.5 134t39.5 132.5t70 116t109 80.5t151 31q92 0 138.5 -46t46.5 -112q0 -50 -33.5 -79t-79.5 -29q-39 0 -67.5 22t-28.5 66q0 29 12 45.5t12 26.5 q0 28 -35 28q-39 0 -66.5 -22.5t-43.5 -59t-25 -98t-11.5 -122.5t-2.5 -150z" />
<glyph unicode="&#x2a15;" horiz-adv-x="1259" d="M985 1774q0 -96 -67.5 -164t-163.5 -68q-97 0 -164.5 67.5t-67.5 164.5q0 96 68 163.5t164 67.5q95 0 163 -68t68 -163zM854 3566v-1156q233 -36 390 -216t157 -420t-157 -420.5t-390 -214.5v-1211q0 -69 -11.5 -133.5t-39.5 -128.5t-70 -111t-108 -76.5t-148 -29.5 q-92 0 -138 46t-46 112q0 50 33.5 79t79.5 29q39 0 67.5 -22t28.5 -66q0 -29 -12.5 -45t-12.5 -26q0 -13 10 -21t25 -8q33 0 57 14t39.5 44t25.5 65.5t15 92t6.5 108.5t1.5 129v1159q-152 24 -276 114t-195 227t-71 294q0 240 155 419t387 215v1194q0 68 11.5 134 t39.5 132.5t70 116t109 80.5t151 31q92 0 138.5 -46t46.5 -112q0 -50 -33.5 -79t-79.5 -29q-39 0 -67.5 22t-28.5 66q0 29 12 45.5t12 26.5q0 28 -34 28q-33 0 -57.5 -14.5t-40.5 -44.5t-26.5 -66.5t-16 -91.5t-7.5 -108.5t-2 -126.5zM1298 1774q0 110 -42.5 210t-115 172.5 t-172.5 115t-210 42.5q-147 0 -271.5 -72t-197 -196.5t-72.5 -271.5t72.5 -271.5t197 -197t271.5 -72.5t271.5 72.5t196.5 197t72 271.5z" />
<glyph unicode="&#x2a16;" horiz-adv-x="1337" d="M1397 1130h-543v-1202q0 -69 -11.5 -133.5t-39.5 -128.5t-70 -111t-108 -76.5t-148 -29.5q-92 0 -138 46t-46 112q0 50 33.5 79t79.5 29q39 0 67.5 -22t28.5 -66q0 -29 -12.5 -45t-12.5 -26q0 -13 10 -21t25 -8q33 0 57 14t39.5 44t25.5 65.5t15 92t6.5 108.5t1.5 129 v1150h-542v1285h542v1187q0 68 11.5 134t39.5 132.5t70 116t109 80.5t151 31q92 0 138.5 -46t46.5 -112q0 -50 -33.5 -79t-79.5 -29q-39 0 -67.5 22t-28.5 66q0 29 12 45.5t12 26.5q0 28 -34 28q-33 0 -57.5 -14.5t-40.5 -44.5t-26.5 -66.5t-16 -91.5t-7.5 -108.5t-2 -126.5 v-1151h543v-1285zM1290 1237v1071h-436v-1071h436zM657 1237v1071h-436v-1071h436z" />
<glyph unicode="&#x2a17;" horiz-adv-x="1935" d="M1231 1907h594q141 0 222 -61t81 -189q0 -119 -84 -186.5t-219 -67.5h-131v135h125q174 0 174 119q0 65 -45.5 90t-130.5 25h-586v-1844q0 -69 -11.5 -133.5t-39.5 -128.5t-70 -111t-108 -76.5t-148 -29.5q-92 0 -138 46t-46 112q0 50 33 79t79 29q40 0 68.5 -22 t28.5 -66q0 -29 -12.5 -45t-12.5 -26q0 -13 10 -21t25 -8q33 0 57 14t39.5 44t25.5 65.5t15 92t6.5 108.5t1.5 129v1792h-610q-20 0 -33.5 -14.5t-13.5 -33.5q0 -25 24 -49q114 -114 170 -200l-45 -37q-102 126 -225 229.5t-252 163.5v20q239 104 483 390l46 -37 q-95 -123 -172 -195q-29 -29 -29 -61q0 -16 14.5 -28.5t38.5 -12.5h604v1695q0 68 11.5 134t39.5 132.5t70 116t109 80.5t151 31q92 0 138 -46t46 -112q0 -50 -33 -79t-79 -29q-39 0 -67.5 22t-28.5 66q0 29 12 45.5t12 26.5q0 28 -35 28q-39 0 -66.5 -22.5t-43.5 -59 t-25 -98t-11.5 -122.5t-2.5 -150v-1659z" />
<glyph unicode="&#x2a18;" horiz-adv-x="1222" d="M1245 1323l-104 -104l-359 358v-1649q0 -69 -11.5 -133.5t-39 -128.5t-69.5 -111t-108 -76.5t-148 -29.5q-92 0 -138.5 46t-46.5 112q0 50 33.5 79t79.5 29q39 0 67.5 -22t28.5 -66q0 -29 -12 -45t-12 -26q0 -13 9.5 -21t24.5 -8q33 0 57 14t40 44t26 65.5t15 92t6.5 109 t1.5 128.5v1591l-355 -352l-104 104l455 455l-455 454l104 105l355 -352v1617q0 68 11.5 134t39.5 132.5t70 116t109 80.5t151 31q92 0 138 -46t46 -112q0 -50 -33.5 -79t-79.5 -29q-39 0 -67.5 22t-28.5 66q0 28 12.5 44.5t12.5 27.5q0 28 -35 28q-33 0 -57.5 -14.5 t-40.5 -44.5t-26.5 -66.5t-16 -91.5t-7.5 -108.5t-2 -126.5v-1590l359 361l104 -105l-454 -454z" />
<glyph unicode="&#x2a19;" horiz-adv-x="1505" d="M1640 752h-163v1450q0 73 -29.5 143t-79 125t-113 100t-131.5 75t-135 44v-2761q0 -69 -11.5 -133.5t-39.5 -128.5t-70 -111t-108 -76.5t-148 -29.5q-92 0 -138 46t-46 112q0 50 33.5 79t79.5 29q39 0 67.5 -22t28.5 -66q0 -29 -12.5 -45t-12.5 -26q0 -13 10 -21t25 -8 q33 0 57 14t40 44t26 65.5t15 92t6.5 109t1.5 128.5v2715q-142 -20 -256 -92.5t-177 -178t-63 -222.5v-1450h-164v1437q0 135 52.5 254t142.5 204t210 140.5t255 71.5v743q0 68 11.5 134t39.5 132.5t70 116t109 80.5t151 31q92 0 138 -46t46 -112q0 -50 -33.5 -79t-79.5 -29 q-39 0 -67.5 22t-28.5 66q0 28 12.5 44.5t12.5 27.5q0 28 -35 28q-33 0 -57.5 -14.5t-40.5 -44.5t-26.5 -66.5t-16 -91.5t-7.5 -108.5t-2 -126.5v-707q117 -16 231.5 -72t208.5 -140.5t152.5 -205t58.5 -252.5v-1437z" />
<glyph unicode="&#x2a1a;" horiz-adv-x="1505" d="M1640 2865v-1438q0 -133 -51.5 -251t-140.5 -203t-207 -140.5t-252 -72.5v-832q0 -69 -11.5 -133.5t-39.5 -128.5t-70 -111t-108 -76.5t-148 -29.5q-92 0 -138 46t-46 112q0 50 33.5 79t79.5 29q39 0 67.5 -22t28.5 -66q0 -29 -12.5 -45t-12.5 -26q0 -13 10 -21t25 -8 q33 0 57 14t40 44t26 65.5t15 92t6.5 109t1.5 128.5v778q-94 12 -188 48.5t-179 98t-150.5 138.5t-104 177t-38.5 207v1438h164v-1450q0 -92 46 -177.5t119.5 -147t159.5 -104.5t171 -60v2676q0 68 11.5 134t39.5 132.5t70 116t109 80.5t151 31q92 0 138 -46t46 -112 q0 -50 -33.5 -79t-79.5 -29q-39 0 -67.5 22t-28.5 66q0 28 12.5 44.5t12.5 27.5q0 28 -35 28q-33 0 -57.5 -14.5t-40.5 -44.5t-26.5 -66.5t-16 -91.5t-7.5 -108.5t-2 -126.5v-2642q210 32 349 174t139 317v1450h163z" />
<glyph unicode="&#x2a1b;" horiz-adv-x="1435" d="M1499 4254h-1499v164h1499v-164zM952 -20v3622q0 68 11.5 134t39.5 132.5t70 116t109 80.5t151 31q92 0 138.5 -46t46.5 -112q0 -50 -33.5 -79t-79.5 -29q-39 0 -67.5 22t-28.5 66q0 29 12 45.5t12 26.5q0 28 -35 28q-39 0 -66.5 -22.5t-43.5 -59t-25 -98t-11.5 -122.5 t-2.5 -150v-3638q0 -69 -11.5 -133.5t-39.5 -128.5t-70 -111t-108 -76.5t-148 -29.5q-92 0 -138 46t-46 112q0 50 33 79t79 29q40 0 68.5 -22t28.5 -66q0 -29 -12.5 -45t-12.5 -26q0 -13 10 -21t25 -8q33 0 57 14t39.5 44t25.5 65.5t15 92t6.5 108.5t1.5 129z" />
<glyph unicode="&#x2a1c;" horiz-adv-x="956" d="M487 -20v3637q0 69 11.5 133.5t39.5 128.5t70 111t108 76.5t148 29.5q92 0 138.5 -46t46.5 -112q0 -50 -33.5 -79t-79.5 -29q-39 0 -67.5 22t-28.5 66q0 29 12 45.5t12 26.5q0 28 -35 28q-28 0 -50 -11.5t-37 -30t-26 -51t-17 -66.5t-9.5 -85t-4.5 -97t-1 -111v-3623 q0 -68 -11.5 -134t-39.5 -132.5t-70 -116t-109 -80.5t-151 -31q-92 0 -138 46t-46 112q0 50 33 79t79 29q40 0 68.5 -22t28.5 -66q0 -29 -12.5 -45t-12.5 -26q0 -13 10 -21t25 -8q39 0 66.5 22.5t43.5 59t25 98t11.5 123t2.5 150.5zM1636 -872h-1499v163h1499v-163z" />
<glyph unicode="&#xe000;" horiz-adv-x="1024" d="M0 0z" />
</font>
</defs>
</svg>
