<?xml version="1.0" standalone="no"?>
<!DOCTYPE svg PUBLIC "-//W3C//DTD SVG 1.1//EN" "http://www.w3.org/Graphics/SVG/1.1/DTD/svg11.dtd" >
<svg xmlns="http://www.w3.org/2000/svg">
<metadata></metadata>
<defs>
<font id="STIXVariantsBold" horiz-adv-x="1536" >
<font-face units-per-em="2048" ascent="1536" descent="-512" />
<missing-glyph horiz-adv-x="512" />
<glyph unicode=" "  horiz-adv-x="512" />
<glyph unicode="&#x09;" horiz-adv-x="512" />
<glyph unicode="&#xa0;" horiz-adv-x="512" />
<glyph unicode="|" horiz-adv-x="696" d="M438 -387h-180v1802h180v-1802z" />
<glyph unicode="&#x19b;" horiz-adv-x="1097" d="M573 973q-4 12 -17 49t-22 60.5t-25 58t-30.5 55t-35 36t-42.5 15.5q-13 0 -23.5 -10.5t-10.5 -24.5q0 -4 3 -20t3 -21q0 -44 -35.5 -75t-87.5 -31q-58 0 -92.5 38.5t-34.5 98.5q0 72 55.5 117t143.5 45q94 0 151 -49t100 -148l56 -129l24 -65h334v-92h-301l268 -719 q24 -64 49 -85.5t74 -27.5v-49h-311v49q66 3 88.5 17t22.5 51q0 32 -23 100l-139 385l-148 -381q-41 -102 -41 -119q0 -45 74 -51l33 -2v-49h-510v49q54 7 70 29q13 18 59 119t78 180l207 504h-373v92h409z" />
<glyph unicode="&#x2032;" horiz-adv-x="806" d="M244 25l-154 55q174 822 229 967q19 73 75.5 113t123.5 40q92 0 145.5 -60t53.5 -147q0 -54 -17 -104q-11 -31 -47 -103.5t-91 -176t-105 -195t-116 -212t-97 -177.5z" />
<glyph unicode="&#x2033;" horiz-adv-x="1460" d="M897 25l-154 55q173 816 230 967q19 73 75 113t123 40q92 0 145.5 -60t53.5 -147q0 -57 -16 -104q-11 -31 -47 -104t-91 -175.5t-106 -195.5t-116 -211.5t-97 -177.5zM244 25l-154 55q174 822 229 967q19 73 75.5 113t123.5 40q92 0 145.5 -60t53.5 -147q0 -54 -17 -104 q-11 -31 -47 -103.5t-91 -176t-105 -195t-116 -212t-97 -177.5z" />
<glyph unicode="&#x2034;" horiz-adv-x="2113" d="M1550 25l-153 55q174 822 229 967q19 73 75.5 113t123.5 40q92 0 145 -60t53 -147q0 -57 -16 -104q-11 -31 -47 -104t-91 -175.5t-106 -195.5t-116 -211.5t-97 -177.5zM897 25l-154 55q173 816 230 967q19 73 75 113t123 40q92 0 145.5 -60t53.5 -147q0 -57 -16 -104 q-11 -31 -47 -104t-91 -175.5t-106 -195.5t-116 -211.5t-97 -177.5zM244 25l-154 55q174 822 229 967q19 73 75.5 113t123.5 40q92 0 145.5 -60t53.5 -147q0 -54 -17 -104q-11 -31 -47 -103.5t-91 -176t-105 -195t-116 -212t-97 -177.5z" />
<glyph unicode="&#x2035;" horiz-adv-x="806" d="M717 80l-154 -55q-32 59 -97 177.5t-116 211.5t-106 195.5t-91 175.5t-47 104q-16 47 -16 104q0 87 53.5 147t145.5 60q67 0 123 -40t75 -113q57 -151 230 -967z" />
<glyph unicode="&#x2036;" horiz-adv-x="1460" d="M1370 80l-153 -55q-32 59 -97 177.5t-116 211.5t-106 195.5t-91 175.5t-47 104q-17 50 -17 104q0 87 53.5 147t145.5 60q67 0 123.5 -40t75.5 -113q55 -145 229 -967zM717 80l-154 -55q-32 59 -97 177.5t-116 211.5t-106 195.5t-91 175.5t-47 104q-16 47 -16 104 q0 87 53.5 147t145.5 60q67 0 123 -40t75 -113q57 -151 230 -967z" />
<glyph unicode="&#x2037;" horiz-adv-x="2113" d="M2023 80l-153 -55q-32 59 -97 177.5t-116 211.5t-106 195.5t-91 175.5t-47 104q-16 47 -16 104q0 87 53 147t145 60q67 0 123.5 -40t75.5 -113q55 -145 229 -967zM1370 80l-153 -55q-32 59 -97 177.5t-116 211.5t-106 195.5t-91 175.5t-47 104q-17 50 -17 104 q0 87 53.5 147t145.5 60q67 0 123.5 -40t75.5 -113q55 -145 229 -967zM717 80l-154 -55q-32 59 -97 177.5t-116 211.5t-106 195.5t-91 175.5t-47 104q-16 47 -16 104q0 87 53.5 147t145.5 60q67 0 123 -40t75 -113q57 -151 230 -967z" />
<glyph unicode="&#x2057;" horiz-adv-x="2766" d="M2202 25l-154 55q174 822 229 967q19 73 75.5 113t123.5 40q92 0 145.5 -60t53.5 -147q0 -54 -17 -104q-11 -31 -47 -103.5t-91 -176t-105 -195t-116 -212t-97 -177.5zM1548 25l-153 55q174 822 229 967q19 73 75.5 113t123.5 40q92 0 145 -60t53 -147q0 -57 -16 -104 q-11 -31 -47 -104t-91 -175.5t-106 -195.5t-116 -211.5t-97 -177.5zM895 25l-154 55q173 816 230 967q19 73 75 113t123 40q92 0 145.5 -60t53.5 -147q0 -57 -16 -104q-11 -31 -47 -104t-91 -175.5t-106 -195.5t-116 -211.5t-97 -177.5zM242 25l-154 55q174 822 229 967 q19 73 75.5 113t123.5 40q92 0 145.5 -60t53.5 -147q0 -54 -17 -104q-11 -31 -47 -103.5t-91 -176t-105 -195t-116 -212t-97 -177.5z" />
<glyph unicode="&#x2140;" horiz-adv-x="1597" d="M1485 0h-1372v143l438 594l-369 535v143h1280v-143h-735l375 -535l-436 -594h819v-143zM926 737l-373 535h-195l369 -535l-438 -594h196z" />
<glyph unicode="&#x2190;" horiz-adv-x="876" d="M877 428h-240q-98 0 -98 -27q0 -8 8.5 -21.5t18 -24.5t21 -23.5t13.5 -14.5q66 -72 125 -159l-49 -45q-224 262 -537 393v22q162 72 290 166t247 230l51 -41q-48 -68 -127 -158l-12 -15q-13 -14 -22 -25.5t-18 -27t-9 -24.5q0 -25 98 -25h240v-180z" />
<glyph unicode="&#x2191;" horiz-adv-x="1138" d="M975 856l-41 -51q-68 48 -158 127l-14 12q-15 13 -26.5 22t-27 18t-24.5 9q-25 0 -25 -98v-926h-180v926q0 98 -26 98q-8 0 -21.5 -8.5t-24.5 -18t-23.5 -21t-14.5 -13.5q-69 -63 -160 -125l-45 49q262 224 393 537h23q73 -163 166.5 -290.5t228.5 -246.5z" />
<glyph unicode="&#x2192;" horiz-adv-x="876" d="M737 528v-22q-312 -130 -536 -393l-49 45q62 91 124 159q2 2 13.5 14.5t21.5 23.5t18.5 24.5t8.5 21.5q0 27 -98 27h-240v180h240q98 0 98 25q0 9 -9 24.5t-18.5 27.5t-22 25.5t-12.5 14.5q-74 85 -126 158l51 41q120 -136 247 -230t289 -166z" />
<glyph unicode="&#x2193;" horiz-adv-x="1138" d="M934 557l41 -51q-135 -119 -228.5 -246.5t-166.5 -290.5h-23q-131 313 -393 537l45 49q91 -62 160 -125q2 -2 14.5 -13.5t23.5 -21t24.5 -18t21.5 -8.5q26 0 26 98v926h180v-926q0 -98 25 -98q9 0 24.5 9t27 18t26.5 22l14 12q90 79 158 127z" />
<glyph unicode="&#x21d1;" horiz-adv-x="1462" d="M1380 453l-45 -50q-34 23 -78 57.5t-80 64.5t-44 36q-39 33 -60 33q-43 0 -43 -94v-531h-180v885q-10 38 -45.5 63t-73.5 25q-39 0 -74.5 -25t-44.5 -63v-885h-180v527q0 98 -43 98q-29 0 -67 -33q-101 -89 -199 -160l-41 52q319 300 639 776h20q114 -178 282 -383 t357 -393z" />
<glyph unicode="&#x21d3;" horiz-adv-x="1462" d="M1335 795l45 -50q-189 -188 -357 -393t-282 -383h-20q-320 476 -639 776l41 52q98 -71 199 -160q38 -33 67 -33q43 0 43 98v527h180v-885q9 -38 44.5 -63t74.5 -25q38 0 73.5 25t45.5 63v885h180v-531q0 -94 43 -94q21 0 60 33q8 6 44 36t80 64.5t78 57.5z" />
<glyph unicode="&#x2205;" horiz-adv-x="1196" d="M1122 1493l-161 -309q69 -115 101 -252t32 -256q0 -57 -5.5 -116.5t-21 -130.5t-39.5 -135t-63.5 -124.5t-89.5 -104.5t-122 -71t-157 -27q-134 0 -234 66l-96 -185h-192l162 312q-71 114 -104.5 253t-33.5 263q0 55 6 114.5t21.5 130t39.5 134.5t63.5 125t89.5 105.5 t121.5 71.5t156.5 27q131 0 211 -53q29 -15 31 -16l92 178h192zM383 440l369 711q-32 81 -68.5 120.5t-87.5 39.5q-109 0 -166 -171.5t-57 -463.5q0 -134 10 -236zM809 889l-369 -711q33 -72 69 -104.5t87 -32.5q223 0 223 635q0 125 -10 213z" />
<glyph unicode="&#x220f;" horiz-adv-x="1503" d="M1448 0h-582v49q40 3 63 6.5t43 12.5t28.5 19t15 32.5t7.5 46.5t1 67v1051h-545v-1051q0 -41 1.5 -64.5t7 -45.5t14.5 -33t27.5 -20.5t42 -13.5t61.5 -7v-49h-578v49q59 5 87.5 11.5t47 28t22 51.5t3.5 93v900q0 45 -1 68.5t-6 50t-14.5 38t-28 23t-44 16t-64.5 6.5v49 h1391v-49q-56 -3 -86.5 -11.5t-47.5 -31t-21.5 -52t-4.5 -85.5v-922q0 -60 4 -90t22 -52t47.5 -29.5t86.5 -12.5v-49z" />
<glyph unicode="&#x2210;" horiz-adv-x="1503" d="M1448 0h-1391v49q39 2 64.5 6.5t44 16t28 23.5t14.5 38.5t6 50t1 68.5v899q0 63 -3.5 93t-22 51.5t-47 28t-87.5 11.5v49h578v-49q-38 -3 -61.5 -7t-42 -13.5t-27.5 -20.5t-14.5 -33t-7 -45.5t-1.5 -64.5v-1051h545v1051q0 43 -1 67t-7.5 46.5t-15 32.5t-28.5 19 t-43 12.5t-63 6.5v49h582v-49q-57 -5 -86.5 -12.5t-47.5 -29.5t-22 -52t-4 -90v-922q0 -56 4.5 -85.5t21.5 -52t47.5 -31t86.5 -11.5v-49z" />
<glyph unicode="&#x2211;" horiz-adv-x="1413" d="M1329 512l-88 -512h-1157l578 664l-582 720h1143v-413h-52q-17 102 -42 165.5t-61.5 96t-76 43t-100.5 10.5h-422l412 -522l-465 -526h549q50 0 88 7t67.5 25t49.5 37.5t39.5 55.5t31.5 66.5t31 82.5h57z" />
<glyph unicode="&#x2216;" horiz-adv-x="1060" d="M969 -395h-197l-680 1894h197z" />
<glyph unicode="&#x221a;" horiz-adv-x="1638" d="M1729 1931l-805 -1874h-133l-291 660q-30 68 -48.5 88t-48.5 20q-16 0 -27.5 -2.5t-23.5 -9.5t-20 -13.5t-26 -21.5t-32 -26l-45 51l303 274h62l303 -676h12l660 1530h160z" />
<glyph unicode="&#x221d;" d="M1407 184v-184q-67 0 -125 17.5t-99.5 43.5t-80.5 68t-64.5 78.5t-54.5 87.5q-103 -146 -212 -220.5t-239 -74.5q-82 0 -152.5 27t-118 71t-81.5 101t-49.5 116.5t-15.5 118.5q0 95 34.5 180t91 143t130 92t149.5 34q75 0 138 -22.5t111 -65t82 -87.5t69 -106 q117 163 228.5 222t258.5 59v-191q-71 -4 -132 -32.5t-104.5 -75t-74.5 -97t-52 -108.5q14 -31 40.5 -62t69 -62.5t108.5 -51t145 -19.5zM860 500q-102 192 -332 192q-79 0 -147 -28.5t-114 -92.5t-46 -153q0 -100 71 -167t169 -67q31 0 47 0.5t42.5 3t42 8.5t39.5 16.5 t41.5 26t41 39.5t45 55t47.5 73t53 94z" />
<glyph unicode="&#x2223;" horiz-adv-x="593" d="M412 -39h-230v963h230v-963z" />
<glyph unicode="&#x2244;" d="M1288 948h111q-5 -82 -31 -162t-69.5 -147t-110.5 -108.5t-146 -41.5q-100 0 -231 76v-293h586v-180h-586v-184h-147v184h-525v180h525v383q-120 76 -181 76q-164 0 -233 -278h-111q6 124 50.5 227t127.5 167t189 64q72 0 158 -39v240h147v-321q12 -7 53 -33.5 t56.5 -35.5t45 -25t50 -21.5t39.5 -5.5q164 0 233 278z" />
<glyph unicode="&#x2247;" d="M1397 -111h-586v-184h-147v184h-525v181h525v237h-525v180h525v383q-120 76 -181 76q-164 0 -233 -278h-111q6 124 50.5 227t127.5 167t189 64q72 0 158 -39v240h147v-321q12 -7 53 -33.5t56.5 -35.5t45 -25t50 -21.5t39.5 -5.5q164 0 233 278h111q-5 -82 -31 -161.5 t-69.5 -147t-110.5 -108.5t-146 -41q-102 0 -231 75v-293h586v-180h-586v-237h586v-181z" />
<glyph unicode="&#x2249;" d="M1288 549h111q-5 -82 -31 -162t-69.5 -147t-110.5 -108.5t-146 -41.5q-87 0 -200 60v-281h-144v367q-75 48 -124.5 72t-90.5 24q-164 0 -233 -279h-111q6 124 50.5 227t127.5 167.5t189 64.5q88 0 192 -53v268q-75 48 -124.5 72t-90.5 24q-164 0 -233 -278h-111 q6 124 50.5 227t127.5 167.5t189 64.5q86 0 192 -54v275h144v-361q51 -34 80.5 -52t67 -34t65.5 -16q164 0 233 278h111q-5 -82 -31 -161.5t-69.5 -147t-110.5 -108.5t-146 -41q-89 0 -200 59v-268q53 -36 81 -53t66 -33.5t66 -16.5q164 0 233 279z" />
<glyph unicode="&#x2260;" d="M1397 219h-555v-594h-148v594h-555v180h555v238h-555v180h555v590h148v-590h555v-180h-555v-238h555v-180z" />
<glyph unicode="&#x2262;" d="M1397 27h-555v-525h-148v525h-555v180h555v221h-555v180h555v221h-555v181h555v520h148v-520h555v-181h-555v-221h555v-180h-555v-221h555v-180z" />
<glyph unicode="&#x2268;" d="M1372 348l-1208 529v81l1208 533v-180l-893 -393l893 -390v-180zM1372 -455h-532v-145h-144v145h-532v181h532v237h-532v180h532v146h144v-146h532v-180h-532v-237h532v-181z" />
<glyph unicode="&#x2269;" d="M1372 877l-1208 -529v180l893 390l-893 393v180l1208 -533v-81zM1372 -455h-532v-145h-144v145h-532v181h532v237h-532v180h532v146h144v-146h532v-180h-532v-237h532v-181z" />
<glyph unicode="&#x226e;" d="M1372 -55l-377 166v-451h-143v512l-688 303v82l688 303v516h143v-452l377 168v-181l-377 -168v-452l377 -166v-180zM852 352v328l-373 -164z" />
<glyph unicode="&#x226f;" d="M1372 479l-688 -305v-514h-143v451l-377 -166v180l377 166v454l-377 166v181l377 -166v450h143v-514l688 -301v-82zM1057 520l-373 164v-330z" />
<glyph unicode="&#x2270;" d="M1372 -248h-397v-235h-144v235h-667v180h667v443l-667 293v82l667 292v478h144v-414l397 176v-180l-397 -176v-434l397 -173v-180l-397 174v-381h397v-180zM831 555v307l-352 -153z" />
<glyph unicode="&#x2271;" d="M1372 -248h-667v-235h-144v235h-397v180h397v381l-397 -174v180l397 173v434l-397 176v180l397 -176v414h144v-478l667 -292v-82l-667 -293v-443h667v-180zM1057 709l-352 153v-307z" />
<glyph unicode="&#xe000;" horiz-adv-x="1024" d="M0 0z" />
</font>
</defs>
</svg>
