<?xml version="1.0" encoding="UTF-8"?>
<svg width="30px" height="30px" viewBox="0 0 30 30" version="1.1" xmlns="http://www.w3.org/2000/svg" xmlns:xlink="http://www.w3.org/1999/xlink">
    <!-- Generator: Sketch 53.2 (72643) - https://sketchapp.com -->
    <title>Timer</title>
    <desc>Created with Sketch.</desc>
    <g id="Timer" stroke="none" stroke-width="1" fill="none" fill-rule="evenodd">
        <path d="M21.6625919,6 C20.4601773,5.12715391 19.0800335,4.50978505 17.6128462,4.18845918 C17.8932017,3.55651352 17.8825691,2.83941151 17.5835924,2.21546961 C19.5538592,2.56644316 21.4099911,3.36289042 23,4.53959484 C22.3005269,4.73790243 21.7806585,5.30558134 21.6625919,6 L21.6625919,6 Z M15.171905,4.25549417 C14.4694513,4.25549417 13.9,3.70581308 13.9,3.02774708 C13.9,2.34968109 14.4694513,1.8 15.171905,1.8 C15.8743588,1.8 16.4438101,2.34968109 16.4438101,3.02774708 C16.4438101,3.70581308 15.8743588,4.25549417 15.171905,4.25549417 Z" id="assignment_due" fill="#FFFFFF"></path>
        <path d="M14.9980313,27.9999825 C8.27964866,28.0015503 2.66780241,22.8364343 2.05484815,16.0871396 C1.44189389,9.33784498 6.02995835,3.23000731 12.6367772,2 C12.3292245,2.66853993 12.3185871,3.43760292 12.6075296,4.11453936 C7.86445095,5.17787002 4.38104838,9.26391573 4.04874939,14.1540242 C3.7164504,19.0441326 6.61454349,23.5714951 11.1694141,25.2778319 C15.7242847,26.9841687 20.8491139,25.4623379 23.7612079,21.5386672 C26.6733018,17.6149966 26.6778177,12.2256971 23.7723036,8.29706542 C24.5027507,8.17277439 25.0993552,7.63985134 25.3100761,6.92343442 C28.326188,10.8810464 28.8494403,16.2243302 26.6592539,20.7008013 C24.4690674,25.1772724 19.946489,28.0081179 14.9980313,27.9999825 Z" id="assignment_due-2" fill="#FFFFFF"></path>
        <path d="M24.9801185,5.01988145 C25.4732615,5.51302444 16.6333104,15.1523598 16.1401674,15.6455028 C15.6446516,16.1240879 14.8570045,16.1172435 14.3698805,15.6301195 C13.8827565,15.1429955 13.8759121,14.3553484 14.3544972,13.8598326 C14.8476402,13.3666896 24.4869756,4.52673846 24.9801185,5.01988145 Z" id="Path" fill="#FFFFFF"></path>
    </g>
</svg>